<svg xmlns="http://www.w3.org/2000/svg" width="173" height="166" fill="none" viewBox="0 0 173 166"><g clip-path="url(#clip0)"><path fill="#CECDCE" d="M143.47 67.7499H106.619V79.027H143.47V67.7499Z"/><path fill="#389FFD" d="M156.088 26.3804V70.7078H143.47H106.619H94.0003V26.3804C94.0003 21.2003 97.7198 17 102.307 17H125.046H147.782C152.372 17.0003 156.088 21.2006 156.088 26.3804Z"/><path fill="#01568F" d="M107.873 17.0003H102.307C97.7195 17.0003 94 21.2006 94 26.3807V70.7081H99.5662V26.3804C99.5665 21.2006 103.286 17.0003 107.873 17.0003Z"/><path fill="#F1A25C" d="M149.275 118.049H139.685V157.378H149.275V118.049Z"/><path fill="#CECDCE" d="M139.685 118.418V132.069H149.275V118.418H139.685ZM100.814 132.069H110.407V118.418H100.814V132.069Z"/><path fill="#F1A25C" d="M169.574 85.7267H151.687V97.1294H169.574V85.7267Z"/><path fill="#F1A25C" d="M109.899 35.3057C114.641 35.3057 118.481 39.6463 118.481 44.9966C118.481 50.3505 114.641 54.6875 109.899 54.6875C105.162 54.6875 101.321 50.3505 101.321 44.9966C101.321 39.6463 105.162 35.3057 109.899 35.3057Z"/><path fill="#389FFD" d="M154.827 152.993V166.103H134.132V152.993H139.685H149.275H154.827Z"/><path fill="#389FFD" d="M171.054 87.5164V133.042H161.9V97.1295V85.7266V77.1783C166.956 77.1783 171.054 81.8069 171.054 87.5164Z"/><path fill="#2BA5F7" d="M156.088 97.1295V122.434H149.275V122.431H139.685V122.434H110.407V122.431H100.814V122.434H94.0006V97.1295V85.7266V77.1783H106.619H143.47H156.089V85.7266L156.088 97.1295Z"/><path fill="#005286" d="M104.923 77.1783H94.0003V122.431H104.923V77.1783Z"/><path fill="#4D4D4D" d="M120.938 44.997C120.938 38.1248 115.987 32.5336 109.901 32.5336C103.815 32.5336 98.8642 38.1248 98.8642 44.997C98.8642 51.869 103.815 57.4602 109.901 57.4602C115.987 57.4602 120.938 51.869 120.938 44.997ZM103.775 44.997C103.775 41.1828 106.523 38.0794 109.901 38.0794C113.279 38.0794 116.027 41.1825 116.027 44.997C116.027 48.811 113.279 51.9144 109.901 51.9144C106.523 51.9144 103.775 48.811 103.775 44.997Z"/><path fill="#4D4D4D" d="M142.35 90.7808C143.706 90.7808 144.805 89.5393 144.805 88.0078C144.805 86.4763 143.706 85.2348 142.35 85.2348C140.994 85.2348 139.894 86.4763 139.894 88.0078C139.894 89.5393 140.994 90.7808 142.35 90.7808Z"/><path fill="#4D4D4D" d="M107.739 90.7808C109.095 90.7808 110.194 89.5393 110.194 88.0078C110.194 86.4763 109.095 85.2348 107.739 85.2348C106.383 85.2348 105.283 86.4763 105.283 88.0078C105.283 89.5393 106.383 90.7808 107.739 90.7808Z"/><path fill="#2BA5F7" d="M83.0464 161.855C83.0323 160.498 84.2623 159.387 85.7938 159.371L104.726 159.174C106.258 159.158 107.511 160.244 107.525 161.6C107.539 162.957 106.309 164.069 104.778 164.085L85.8449 164.282C84.3136 164.298 83.0605 163.212 83.0464 161.855Z"/><path fill="#F1A25C" d="M101.916 161.457C101.94 163.806 104.111 165.688 106.763 165.66C109.416 165.633 111.547 163.706 111.523 161.357C111.498 159.008 109.328 157.126 106.675 157.153C104.022 157.181 101.891 159.108 101.916 161.457Z"/><path fill="#CECDCE" d="M111.416 95.3851H138.673C138.673 98.9752 137.583 102.281 135.759 104.898C133.261 108.477 129.391 110.777 125.043 110.777C117.516 110.777 111.416 103.885 111.416 95.3851Z"/><path fill="#F1A25C" d="M111.415 97.9733H136.188C136.188 101.563 135.097 104.869 133.274 107.487C130.956 109.546 128.032 110.777 124.85 110.777C118.105 110.777 112.502 105.242 111.415 97.9733Z"/><path fill="#F1A25C" d="M78.7651 162.043L78.6609 151.27L43.8231 151.812L43.9273 162.585L78.7651 162.043Z"/><path fill="#389FFD" d="M47.8915 168.781L36.2539 168.962L36.0285 145.61L47.6661 145.428L47.7266 151.693L47.8311 162.516L47.8915 168.781Z"/></g><path fill="#F1A25C" d="M88.6479 81.2028H76.8349V88.7552H88.6479V81.2028Z"/><path fill="#389FFD" d="M79.541 91.4252V115.211H73.578V85.0581C73.578 81.2765 76.2476 78.211 79.541 78.211V83.8729V91.4252Z"/><g clip-path="url(#clip1)"><path fill="#36A1CB" d="M63.7494 78.8895H60.8687H58.4333H55.5526H47.0106C46.4805 82.602 44.1916 85.3947 41.4485 85.3947C38.7804 85.3947 36.5435 82.7525 35.935 79.192C34.2896 79.976 33.1021 82.2013 33.1021 84.8261C33.1021 88.105 34.954 90.7629 37.2381 90.7629H40.1188H42.5541H45.4348H45.6161H48.4966H48.9228H50.9321H51.8036H53.8129H54.239H55.5529H57.1198H58.4336H60.8689H63.7496C66.0338 90.7629 67.8857 88.105 67.8857 84.8261C67.8854 81.5475 66.0336 78.8895 63.7494 78.8895Z"/><path fill="#2B80AF" d="M37.0994 87.3466C37.0413 87.1735 36.9888 86.9959 36.9424 86.814C36.8961 86.632 36.8557 86.4462 36.8216 86.2564C36.7877 86.0666 36.7598 85.8735 36.7391 85.6767C36.7181 85.4801 36.704 85.2805 36.697 85.0782C36.6933 84.977 36.6915 84.8752 36.6915 84.7726C36.6915 84.6259 36.6965 84.4809 36.7039 84.3372C36.7055 84.3064 36.7067 84.276 36.7087 84.2456C36.7171 84.1056 36.7287 83.9671 36.744 83.8301C36.7466 83.8078 36.7495 83.7859 36.7523 83.7637C36.7673 83.6366 36.7853 83.5113 36.8058 83.3875C36.8092 83.3674 36.8123 83.3465 36.8158 83.3265C36.8393 83.1922 36.8663 83.0599 36.8958 82.9295C36.9018 82.9038 36.9078 82.8786 36.914 82.853C36.9777 82.5855 37.0542 82.3267 37.1426 82.0777C37.1498 82.0579 37.1567 82.0378 37.164 82.0181C37.2095 81.8944 37.2574 81.7725 37.3083 81.6543C37.3126 81.6442 37.3171 81.6347 37.3216 81.6247C37.3733 81.5064 37.4277 81.3909 37.4848 81.2783C37.4878 81.2722 37.4909 81.266 37.4938 81.2601C37.5531 81.1441 37.6157 81.0316 37.6807 80.9223C37.6872 80.912 37.6932 80.902 37.6996 80.8914C37.833 80.6703 37.9773 80.4637 38.1316 80.2731C38.1356 80.268 38.1396 80.2628 38.1437 80.2581C38.3831 79.9647 38.6461 79.7099 38.928 79.5002C38.9298 79.4987 38.9315 79.4974 38.9336 79.496C39.1215 79.3568 39.3179 79.2376 39.5215 79.1404C39.5226 79.1399 39.5236 79.1393 39.5245 79.1387V79.1388C39.9345 78.9436 40.3722 78.8364 40.8276 78.8364H38.2171C37.7616 78.8364 37.3239 78.9436 36.914 79.1388V79.1387C36.9129 79.1392 36.9119 79.1399 36.911 79.1404C36.7075 79.2376 36.5111 79.3568 36.323 79.496C36.321 79.4976 36.3193 79.4988 36.3175 79.5002C36.0356 79.7099 35.7726 79.9647 35.5332 80.2581C35.5292 80.2628 35.525 80.268 35.521 80.2731C35.3668 80.4637 35.2224 80.6703 35.0891 80.8914C35.0827 80.9018 35.0766 80.912 35.0702 80.9223C35.0052 81.0318 34.9427 81.1441 34.8832 81.2601C34.8802 81.2658 34.8772 81.272 34.8743 81.2783C34.8171 81.3909 34.7628 81.5064 34.711 81.6247C34.7067 81.6347 34.7022 81.6442 34.6977 81.6543C34.6467 81.7727 34.5988 81.8944 34.5535 82.0181C34.5462 82.0378 34.5393 82.0579 34.5321 82.0777C34.4435 82.3265 34.3671 82.5855 34.3034 82.853C34.2973 82.8786 34.2912 82.9039 34.2853 82.9295C34.2556 83.0599 34.2286 83.1922 34.2052 83.3265C34.2017 83.3465 34.1987 83.3674 34.1953 83.3875C34.1747 83.5113 34.1568 83.6368 34.1418 83.7637C34.139 83.7858 34.1358 83.8077 34.1334 83.8301C34.1183 83.9669 34.1067 84.1054 34.0982 84.2456C34.0961 84.276 34.0949 84.3064 34.0933 84.3372C34.086 84.4811 34.081 84.6259 34.081 84.7726C34.081 84.8752 34.0828 84.977 34.0864 85.0782C34.0936 85.2805 34.1076 85.4803 34.1286 85.6767C34.1493 85.8735 34.1771 86.0666 34.211 86.2564C34.2452 86.4462 34.2854 86.632 34.3319 86.814C34.3783 86.996 34.4307 87.1735 34.4888 87.3466C35.1569 89.3365 36.575 90.7095 38.217 90.7095H38.2171H40.8275C39.1856 90.7095 37.7675 89.3365 37.0994 87.3466Z"/><path fill="#36A1CB" d="M45.4345 59.2809V54.5338V46.6041H37.1631V71.3077C37.1631 71.4974 37.1699 71.6847 37.182 71.8699C38.2227 70.169 39.7476 69.0942 41.4485 69.0942C43.0008 69.0942 44.4074 69.9896 45.4322 71.439C45.4328 71.3955 45.4345 71.3519 45.4345 71.3081V64.0102"/><path fill="#2B80AF" d="M40.7527 50.4852C40.7527 49.8644 41.1033 49.361 41.5358 49.361H38.9253C38.4927 49.361 38.1422 49.8644 38.1422 50.4852V74.1691C38.1422 74.5958 38.3107 74.9861 38.5769 75.1761C38.6872 75.2548 38.8065 75.2934 38.9253 75.2934C39.093 75.2934 39.2598 75.216 39.3984 75.0648C39.8231 74.6026 40.2784 74.2437 40.7526 73.9913V50.4852H40.7527Z"/><path fill="#8BD8F7" d="M45.4344 46.6041H37.3328V55.4478H45.4344V46.6041Z"/><path fill="#57BEDD" d="M41.5358 46.5504H38.9253C38.4927 46.5504 38.1422 47.0538 38.1422 47.6745V55.3939H40.7527V47.6745C40.7527 47.054 41.1031 46.5504 41.5358 46.5504Z"/><path fill="#7C7A75" d="M52.3474 30.1033H56.5823C57.4114 30.1033 58.0834 29.1387 58.0834 27.9485V19.679H25.3355V27.9483C25.3355 29.1385 26.0075 30.1031 26.8366 30.1031H49.0842"/><path fill="#CCC3A8" d="M56.9122 30.1033L54.8238 35.3771H47.5611H47.3724H46.125H44.7849H44.5961H38.8623H38.6735H37.3334H36.0857H35.8972H28.6343L26.546 30.1033"/><path fill="#6B6861" d="M28.9251 27.8952V25.7129V19.6256V17.4434H26.3147V19.6258V25.7127V27.895C26.3147 29.0852 26.9866 30.0498 27.8158 30.0498H30.4263C29.5971 30.0498 28.9251 29.0852 28.9251 27.8952Z"/><path fill="#C9B585" d="M27.525 30.0497L29.6134 35.3237H32.2239L30.1356 30.0497H27.525Z"/><path fill="#DFDBCC" d="M43.6516 35.3771H38.9474V46.6041H43.6516V35.3771Z"/><path fill="#FFB92E" d="M63.7876 90.71C66.0511 90.71 67.8861 88.076 67.8861 84.8268C67.8861 81.5776 66.0511 78.9436 63.7876 78.9436C61.5241 78.9436 59.6892 81.5776 59.6892 84.8268C59.6892 88.076 61.5241 90.71 63.7876 90.71Z"/><path fill="#FFB92E" d="M41.4484 69.0938C38.3125 69.0938 35.7705 72.7432 35.7705 77.2443C35.7705 81.7457 38.3126 85.3947 41.4484 85.3947C44.5841 85.3947 47.1262 81.7457 47.1262 77.2443C47.1262 72.743 44.5841 69.0938 41.4484 69.0938ZM41.2989 79.7976C40.3166 79.7976 39.5203 78.6544 39.5203 77.2444C39.5203 75.8345 40.3166 74.6913 41.2989 74.6913C42.2811 74.6913 43.0775 75.8345 43.0775 77.2444C43.0774 78.6544 42.2811 79.7976 41.2989 79.7976Z"/><path fill="#7C7A75" d="M31.2649 35.3771V38.042C31.2649 39.498 32.0874 40.6787 33.1018 40.6787C34.1162 40.6787 34.9386 39.498 34.9386 38.042V35.3771H31.2649Z"/><path fill="#CCC3A8" d="M79.4779 78.9255C78.154 76.3002 76.0186 74.7328 73.766 74.7328C70.7191 74.7328 68.1178 77.5225 67.1352 81.4158C66.387 79.8887 65.1506 78.8897 63.7506 78.8897H63.6198C65.2605 73.1589 69.1893 69.1117 73.7658 69.1117C77.2704 69.1117 80.5912 71.5482 82.6495 75.6292C83.2834 76.8867 83.0876 78.6436 82.2116 79.5535C81.3361 80.4642 80.1118 80.1828 79.4779 78.9255Z"/><path fill="#CCC3A8" d="M63.6038 90.7629H63.7494C65.1439 90.7629 66.3761 89.7715 67.1255 88.2538C68.1009 92.1658 70.7083 94.973 73.7647 94.973C76.0175 94.973 78.1527 93.4065 79.4769 90.7818C80.1111 89.5247 81.3353 89.2438 82.211 90.1541C82.7398 90.7041 83.0204 91.5623 83.0204 92.4329C83.0204 93.004 82.8995 93.5808 82.6481 94.0788C80.5898 98.1584 77.2689 100.594 73.7646 100.594C69.1739 100.594 65.2354 96.522 63.6038 90.7629Z"/><path fill="#EF9A1D" d="M63.2782 84.7727C63.2782 82.1791 64.4481 79.9787 66.0715 79.1962C65.6612 78.9984 65.2228 78.8897 64.7662 78.8897C62.5026 78.8897 60.6677 81.5239 60.6677 84.7726C60.6677 88.0219 62.5026 90.656 64.7662 90.656C65.2227 90.656 65.6612 90.5473 66.0715 90.3495C64.4481 89.5669 63.2782 87.3664 63.2782 84.7727Z"/><path fill="#EF9A1D" d="M39.3601 77.1909C39.3601 73.3349 41.2264 70.106 43.7327 69.2593C43.3135 69.1176 42.8767 69.0405 42.4274 69.0405C39.2917 69.0405 36.7496 72.6898 36.7496 77.1909C36.7496 81.6924 39.2917 85.3414 42.4274 85.3414C42.8767 85.3414 43.3135 85.2642 43.7327 85.1225C41.2264 84.2756 39.3601 81.0473 39.3601 77.1909Z"/><path fill="#CCC3A8" d="M60.5026 17.3307V16.7536C60.5026 15.4567 59.7703 14.4054 58.8668 14.4054H49.8172H49.0341H34.4476H33.6645H24.6148C23.7113 14.4054 22.9789 15.4567 22.9789 16.7536V17.3307C22.9789 18.6277 23.7113 19.679 24.6148 19.679H33.6644H34.4475H49.346H50.1291H52.6525H53.0802H53.4356H53.8633H58.8666C59.7702 19.679 60.5026 18.6277 60.5026 17.3307Z"/><path fill="#C9B585" d="M26.5685 17.2774V16.7003C26.5685 15.4034 27.3009 14.3521 28.2043 14.3521H25.5939C24.6904 14.3521 23.9581 15.4034 23.9581 16.7003V17.2774C23.9581 18.5743 24.6904 19.6256 25.5939 19.6256H28.2045C27.3009 19.6256 26.5685 18.5743 26.5685 17.2774Z"/><path fill="#231F20" d="M82.7852 89.0167C82.2808 88.4922 81.6857 88.2151 81.0641 88.2151C80.1244 88.2151 79.2346 88.8668 78.684 89.9585C77.5436 92.2189 75.7046 93.5687 73.7648 93.5687C71.3618 93.5687 69.1879 91.5139 68.2185 88.3926C68.6292 87.3361 68.8644 86.1203 68.8644 84.8269C68.8644 83.5426 68.6328 82.335 68.2275 81.2837C69.2017 78.1811 71.372 76.1388 73.7647 76.1388C75.7042 76.1388 77.5432 77.4889 78.6836 79.75C79.2342 80.842 80.1242 81.4941 81.064 81.4941C81.6854 81.4941 82.2803 81.217 82.7843 80.6931C83.42 80.033 83.8383 79.0568 83.9623 77.9448C84.0863 76.833 83.9014 75.7183 83.4414 74.806C81.1995 70.3609 77.582 67.7072 73.7647 67.7072C69.1256 67.7072 64.9649 71.5153 62.9844 77.4852H48.101C48.1025 77.4053 48.1053 77.3257 48.1053 77.2452C48.1053 74.8066 47.4647 72.5793 46.4136 70.8892V64.0106C46.4136 63.2343 45.9755 62.6054 45.4347 62.6054C44.8939 62.6054 44.4557 63.2343 44.4557 64.0106V68.7163C44.0456 68.4175 43.6143 68.1851 43.1692 68.0149C43.1422 68.0047 43.1154 67.9934 43.0882 67.9834C43.0147 67.9567 42.9406 67.9329 42.8664 67.9097C42.8195 67.8951 42.7727 67.8809 42.7256 67.8675C42.6608 67.8496 42.5961 67.8327 42.5308 67.8174C42.4708 67.8034 42.4105 67.791 42.3499 67.7792C42.2933 67.7681 42.2367 67.757 42.1799 67.7481C42.1045 67.7363 42.0285 67.7276 41.9524 67.7194C41.9077 67.7147 41.8633 67.7081 41.8184 67.7048C41.696 67.6951 41.573 67.6893 41.4487 67.6893C41.3136 67.6893 41.1799 67.697 41.0467 67.7085C41.0121 67.7114 40.9777 67.7159 40.9432 67.7199C40.8381 67.7314 40.7338 67.7462 40.6302 67.7642C40.5998 67.7696 40.5692 67.7749 40.539 67.7809C40.2637 67.8353 39.9937 67.9129 39.7299 68.014C39.7298 68.014 39.7297 68.014 39.7296 68.0142C39.5983 68.0646 39.4691 68.1216 39.341 68.1832C39.3252 68.1907 39.3095 68.1983 39.2939 68.2061C39.1695 68.2673 39.0465 68.333 38.9255 68.4045C38.9207 68.4072 38.9156 68.4099 38.9107 68.413C38.7819 68.4895 38.655 68.5713 38.5304 68.6589C38.5184 68.6673 38.5068 68.6765 38.4949 68.685C38.3925 68.758 38.2917 68.835 38.1923 68.9155C38.1758 68.9289 38.1586 68.9402 38.1423 68.9538V56.8538H44.4557V59.2818C44.4557 60.0581 44.8939 60.687 45.4347 60.687C45.9755 60.687 46.4136 60.0581 46.4136 59.2818V55.4485V46.6045C46.4136 45.8282 45.9755 45.1993 45.4347 45.1993H44.6299V36.7827H54.824C55.1761 36.7827 55.5012 36.5113 55.6752 36.0719L57.6105 31.1849C58.4658 30.6227 59.0626 29.3854 59.0626 27.9491V21.0707C60.413 20.9263 61.4819 19.3064 61.4819 17.3315V16.7544C61.4819 14.6848 60.3089 13.0009 58.8671 13.0009H24.6148C23.173 13.0006 22 14.6844 22 16.754V17.3311C22 19.2758 23.0356 20.8792 24.3566 21.066V27.9489C24.3566 29.4159 24.9782 30.6777 25.8629 31.2223L27.7833 36.0719C27.9573 36.5115 28.2823 36.7827 28.6345 36.7827H30.2862V38.0424C30.2862 39.4993 30.8279 40.7748 31.6354 41.4863C30.7722 43.7393 29.2542 48.2569 28.3497 54.1742C27.1661 61.9167 26.8741 73.5645 32.133 85.2637C32.2912 89.1095 34.5199 92.1687 37.238 92.1687H62.9673C64.9401 98.171 69.1075 102 73.7649 102C77.5822 102 81.1995 99.3473 83.4412 94.9042C83.8065 94.1804 83.9995 93.326 83.9995 92.4336C83.9994 91.0849 83.5455 89.8077 82.7852 89.0167ZM63.7872 80.3487C65.4534 80.3487 66.8186 82.2339 66.9024 84.5962C66.9052 84.6725 66.9064 84.7493 66.9064 84.8265C66.9064 84.9037 66.905 84.9805 66.9024 85.0568C66.8186 87.4195 65.4533 89.3047 63.7872 89.3047C62.067 89.3047 60.6677 87.2958 60.6677 84.8267C60.6675 82.3575 62.067 80.3487 63.7872 80.3487ZM73.7648 70.5175C76.9561 70.5175 79.9808 72.737 81.8555 76.4539C82.0089 76.7579 82.0705 77.1296 82.0293 77.5002C81.9879 77.8708 81.8485 78.196 81.6364 78.4164C81.4683 78.5913 81.2704 78.6836 81.0642 78.6836C80.7456 78.6836 80.4561 78.4717 80.2697 78.102C78.7621 75.1127 76.3304 73.3281 73.7649 73.3281C70.9026 73.3281 68.2811 75.5368 66.8535 78.9939C66.8434 78.9828 66.8329 78.9727 66.8227 78.9619C66.7979 78.9351 66.7725 78.9094 66.7474 78.8833C66.7084 78.8428 66.6695 78.802 66.6298 78.7631C66.5912 78.7252 66.5516 78.689 66.5124 78.6527C66.4854 78.6278 66.4586 78.6021 66.4314 78.5779C66.3781 78.5306 66.3238 78.4856 66.2692 78.441C66.2548 78.4291 66.2408 78.417 66.2262 78.4055C66.1597 78.3525 66.0923 78.3019 66.0241 78.2532C66.021 78.251 66.0178 78.2485 66.0147 78.2463C65.7228 78.0385 65.4153 77.8699 65.0953 77.7444C66.8598 73.301 70.1383 70.5175 73.7648 70.5175ZM44.5678 82.2834C44.5663 82.2853 44.5647 82.2872 44.5632 82.289C43.9743 83.0368 43.2566 83.5734 42.473 83.8265C42.4688 83.8279 42.4646 83.8293 42.4602 83.8307C42.4061 83.8479 42.3514 83.863 42.2966 83.8778C42.2771 83.883 42.2577 83.888 42.238 83.8929C42.1918 83.9044 42.1454 83.9145 42.0988 83.924C42.0685 83.9301 42.038 83.9357 42.0074 83.9407C41.9681 83.9475 41.9288 83.9541 41.8893 83.9595C41.8471 83.965 41.8049 83.9692 41.7624 83.9734C41.7322 83.9762 41.7022 83.98 41.6719 83.9821C41.5977 83.9871 41.5231 83.9901 41.448 83.9901C41.3726 83.9901 41.2976 83.9869 41.2231 83.9819C41.2012 83.9803 41.1794 83.9777 41.1575 83.976C41.1036 83.9713 41.05 83.9657 40.9966 83.9584C40.9741 83.9555 40.9517 83.9516 40.9293 83.9482C40.8738 83.9393 40.8186 83.9294 40.7637 83.9178C40.7466 83.9141 40.7294 83.9106 40.7123 83.9066C40.6435 83.8912 40.5752 83.8738 40.5075 83.854C40.5053 83.8534 40.503 83.8526 40.5008 83.852C38.9011 83.3801 37.5955 81.7373 37.0392 79.5773C37.0358 79.5637 37.0325 79.5505 37.0291 79.5369C37.0097 79.4603 36.9918 79.3827 36.9742 79.3045C36.9663 79.2694 36.9586 79.2346 36.9512 79.1992C36.9393 79.1432 36.9284 79.0865 36.9177 79.03C36.9082 78.9805 36.8986 78.9313 36.8898 78.8813C36.7984 78.3568 36.7491 77.8087 36.7491 77.2441C36.7491 75.5142 37.2055 73.9346 37.9541 72.7394C37.9736 72.7083 37.9936 72.6782 38.0133 72.6476C38.0479 72.5946 38.0823 72.5414 38.1182 72.4898C38.1354 72.4649 38.1533 72.4411 38.1706 72.4168C38.2096 72.3622 38.2485 72.3076 38.2889 72.2549C38.2969 72.2447 38.3052 72.2351 38.313 72.2247C38.3938 72.1206 38.4776 72.0211 38.5633 71.925C38.59 71.8953 38.6162 71.8643 38.6434 71.8353C38.6705 71.8061 38.6987 71.7786 38.7264 71.7505C38.7651 71.7112 38.8035 71.6712 38.8428 71.6335C38.8661 71.6112 38.8899 71.5902 38.9135 71.5683C38.9591 71.5264 39.0047 71.4847 39.0512 71.4452C39.0709 71.4284 39.0911 71.4122 39.1109 71.3959C39.1629 71.3531 39.2151 71.3112 39.2681 71.2712C39.2843 71.2591 39.3005 71.2472 39.3168 71.2354C39.3749 71.1928 39.4335 71.1518 39.4927 71.1129C39.5052 71.1047 39.5179 71.0964 39.5306 71.0884C39.5946 71.0473 39.6591 71.0082 39.7242 70.971C39.7333 70.9658 39.7425 70.9606 39.7517 70.9556C39.8208 70.9171 39.8905 70.881 39.9607 70.8473C39.9673 70.8441 39.9737 70.8408 39.9802 70.8377C40.053 70.8033 40.1265 70.7713 40.2005 70.7421C40.2054 70.7402 40.2102 70.7379 40.2152 70.736C40.2901 70.7066 40.3657 70.6802 40.4417 70.6562C40.4465 70.6547 40.4512 70.6531 40.4558 70.6515C40.5307 70.6282 40.6063 70.6079 40.6821 70.5898C40.6884 70.5883 40.6946 70.5865 40.701 70.585C40.7736 70.5681 40.8469 70.5544 40.9203 70.5424C40.93 70.5406 40.9397 70.5384 40.9492 70.5372C41.0195 70.5262 41.0902 70.5187 41.1609 70.5126C41.1736 70.5114 41.1861 70.5095 41.1988 70.5085C41.2815 70.502 41.3647 70.4987 41.448 70.4987C41.5278 70.4987 41.607 70.5017 41.6858 70.5074C41.7038 70.5088 41.7214 70.5114 41.7395 70.513C41.8009 70.5184 41.8622 70.5243 41.9228 70.533C41.938 70.5352 41.953 70.5386 41.9681 70.5408C42.0321 70.5509 42.0957 70.562 42.159 70.5757C42.1676 70.5777 42.176 70.5801 42.1846 70.5822C42.2547 70.5982 42.3246 70.6156 42.3936 70.6359C42.3941 70.6361 42.3947 70.6362 42.3952 70.6362C44.5339 71.2669 46.1471 73.9899 46.1471 77.2438C46.1471 78.862 45.7478 80.3485 45.0836 81.512C45.0714 81.5334 45.0588 81.5544 45.0464 81.5754C45.0151 81.629 44.9832 81.6816 44.9508 81.7338C44.9302 81.767 44.9092 81.7995 44.8882 81.832C44.8642 81.869 44.8397 81.9057 44.8152 81.9418C44.7868 81.9834 44.7585 82.0248 44.7295 82.0653C44.7136 82.0875 44.6973 82.1094 44.6811 82.1313C44.6439 82.1835 44.6063 82.2344 44.5678 82.2834ZM38.3123 54.0428V48.0097H38.9468H43.6508H44.4556V54.0428H38.3123ZM42.6718 45.1993H39.9256V36.7827H42.6718V45.1993ZM23.9578 17.3311V16.754C23.9578 16.2341 24.2526 15.811 24.6148 15.811H58.8666C59.2288 15.811 59.5236 16.2341 59.5236 16.754V17.3311C59.5236 17.8511 59.2288 18.2742 58.8666 18.2742H58.0833H25.3355H24.6149C24.2526 18.2742 23.9578 17.8514 23.9578 17.3311ZM28.2286 31.5089H49.0843C49.6251 31.5089 50.0632 30.88 50.0632 30.1037C50.0632 29.3274 49.6251 28.6985 49.0843 28.6985H26.8366C26.5486 28.6985 26.3144 28.3623 26.3144 27.9489V21.0848H57.1045V27.9489C57.1045 28.3623 56.8703 28.6985 56.5823 28.6985H52.3474C51.8066 28.6985 51.3685 29.3274 51.3685 30.1037C51.3685 30.88 51.8066 31.5089 52.3474 31.5089H55.2297L54.2543 33.9721H43.6508H38.9468H34.9389H31.2649H29.2039L28.2286 31.5089ZM33.9599 36.7827V38.0424C33.9599 38.7214 33.575 39.2738 33.102 39.2738C32.629 39.2738 32.244 38.7214 32.244 38.0424V36.7827H33.9599ZM30.247 54.8752C31.2315 48.3631 33.0487 43.5542 33.6889 41.9944C34.9607 41.6055 35.9179 39.9818 35.9179 38.0422V36.7825H37.9679V45.1991H37.3334H37.1631C36.6223 45.1991 36.1842 45.828 36.1842 46.6043V71.3079C36.1842 71.3392 36.1855 71.3719 36.1858 71.4033C35.3129 73.0199 34.7916 75.0459 34.7916 77.2447C34.7916 77.6167 34.8081 77.9829 34.837 78.3438C33.9482 79.0203 33.2302 80.0487 32.7566 81.2836C29.6614 73.2119 28.8153 64.3442 30.247 54.8752ZM34.0809 84.8265C34.0809 83.3495 34.5763 82.0025 35.3758 81.1661C36.2496 83.9687 38.0111 85.9894 40.1023 86.6037C40.1068 86.6051 40.1111 86.6064 40.1157 86.6077C40.3246 86.6684 40.5365 86.7157 40.7512 86.7477C40.7704 86.7505 40.7898 86.7527 40.809 86.7553C40.8917 86.7666 40.9749 86.7757 41.0585 86.7826C41.0858 86.7849 41.1133 86.7873 41.1408 86.7892C41.2429 86.796 41.3453 86.8005 41.4485 86.8005C41.5514 86.8005 41.654 86.7962 41.756 86.7892C41.7937 86.7868 41.831 86.7826 41.8685 86.7795C41.9307 86.7739 41.9928 86.7673 42.0547 86.7591C42.1023 86.7529 42.1498 86.7461 42.1971 86.7385C42.2441 86.7308 42.2907 86.7218 42.3375 86.7127C43.8747 86.4167 45.2467 85.3654 46.2669 83.827C46.2844 83.8008 46.3021 83.7747 46.3193 83.7481C46.3587 83.6874 46.3974 83.6257 46.4355 83.5635C46.4654 83.5152 46.4946 83.4663 46.5239 83.4171C46.5538 83.3665 46.5837 83.3163 46.6128 83.2649C46.6586 83.1844 46.7032 83.102 46.7473 83.0192C46.7603 82.9949 46.7737 82.9713 46.7864 82.9467C46.8475 82.8296 46.9066 82.7102 46.9638 82.5888C46.9675 82.5812 46.9709 82.5734 46.9744 82.5655C47.0283 82.4508 47.0803 82.334 47.1307 82.2156C47.1375 82.1998 47.1441 82.1838 47.1508 82.1678C47.2 82.0508 47.2477 81.9323 47.2935 81.812C47.2968 81.8028 47.3005 81.7937 47.3039 81.7849C47.4548 81.3861 47.5864 80.9696 47.6972 80.5375C47.6996 80.5276 47.7021 80.5177 47.7046 80.5078C47.7226 80.437 47.741 80.3666 47.7579 80.2952H59.8142C59.1235 81.5403 58.7093 83.1147 58.7093 84.8265C58.7093 86.5384 59.1236 88.1129 59.8143 89.3582H37.2378C35.497 89.3581 34.0809 87.3253 34.0809 84.8265ZM81.8553 93.2553C79.9805 96.971 76.9561 99.1894 73.7647 99.1894C70.1221 99.1894 66.8364 96.3878 65.0768 91.9165C65.5591 91.7303 66.0133 91.4457 66.4284 91.0777C66.435 91.072 66.4414 91.0657 66.4479 91.0598C66.5085 91.0054 66.5687 90.9501 66.6275 90.8923C66.6559 90.8648 66.6832 90.8352 66.7112 90.8067C66.7478 90.7692 66.7847 90.7325 66.8204 90.6937C66.8264 90.6875 66.8323 90.6818 66.8381 90.6753C68.2616 94.1548 70.8892 96.3784 73.7647 96.3784C76.3304 96.3784 78.7622 94.5945 80.2697 91.6062C80.4561 91.2368 80.7456 91.0249 81.0642 91.0249C81.2705 91.0249 81.4685 91.1172 81.6366 91.2921C81.8941 91.5598 82.0417 91.9754 82.0417 92.4329C82.0414 92.7298 81.9771 93.0138 81.8553 93.2553Z"/><path fill="#231F20" d="M41.2989 73.2858C39.7784 73.2858 38.5413 75.0617 38.5413 77.2442C38.5413 79.4268 39.7784 81.2028 41.2989 81.2028C42.8193 81.2028 44.0564 79.427 44.0564 77.2442C44.0564 75.0615 42.8194 73.2858 41.2989 73.2858ZM42.0823 77.4754C42.0076 77.998 41.6847 78.3924 41.299 78.3924C40.8581 78.3924 40.4993 77.8773 40.4993 77.2444C40.4993 76.6115 40.8581 76.0965 41.299 76.0965C41.6848 76.0965 42.0077 76.4907 42.0823 77.0134C42.093 77.088 42.0987 77.1653 42.0987 77.2444C42.0986 77.3233 42.093 77.4009 42.0823 77.4754Z"/><path fill="#231F20" d="M63.7877 86.5748C64.4602 86.5748 65.0054 85.7922 65.0054 84.8268C65.0054 83.8614 64.4602 83.0788 63.7877 83.0788C63.1151 83.0788 62.5699 83.8614 62.5699 84.8268C62.5699 85.7922 63.1151 86.5748 63.7877 86.5748Z"/></g><path fill="#F1A25C" d="M11.0373 143.772C15.7749 143.772 19.619 148.113 19.619 153.463C19.619 158.817 15.7752 163.154 11.0373 163.154C6.29632 163.154 2.45563 158.817 2.45563 153.463C2.45563 148.113 6.29632 143.772 11.0373 143.772Z"/><path fill="#4D4D4D" d="M11.037 165.927C17.1226 165.927 22.0738 160.335 22.0738 153.463C22.0738 146.591 17.1226 141 11.037 141C4.9509 141 0 146.591 0 153.463C0 160.335 4.9509 165.927 11.037 165.927ZM11.037 146.545C14.4146 146.545 17.1625 149.648 17.1625 153.463C17.1625 157.277 14.4146 160.38 11.037 160.38C7.6595 160.38 4.911 157.277 4.911 153.463C4.911 149.648 7.6592 146.545 11.037 146.545Z"/><defs><clipPath id="clip0"><rect width="147" height="166" fill="#fff" transform="translate(26)"/></clipPath><clipPath id="clip1"><rect width="62" height="89" fill="#fff" transform="translate(22 13)"/></clipPath></defs></svg>