<svg xmlns="http://www.w3.org/2000/svg" width="173" height="166" fill="none" viewBox="0 0 173 166"><g clip-path="url(#clip0)"><path fill="#CECDCE" d="M143.47 67.7499H106.619V79.027H143.47V67.7499Z"/><path fill="#389FFD" d="M156.088 26.3804V70.7078H143.47H106.619H94.0003V26.3804C94.0003 21.2003 97.7198 17 102.307 17H125.046H147.782C152.372 17.0003 156.088 21.2006 156.088 26.3804Z"/><path fill="#01568F" d="M107.873 17.0003H102.307C97.7195 17.0003 94 21.2006 94 26.3807V70.7081H99.5662V26.3804C99.5665 21.2006 103.286 17.0003 107.873 17.0003Z"/><path fill="#F1A25C" d="M149.275 118.049H139.685V157.378H149.275V118.049Z"/><path fill="#CECDCE" d="M139.685 118.418V132.069H149.275V118.418H139.685ZM100.814 132.069H110.407V118.418H100.814V132.069Z"/><path fill="#F1A25C" d="M169.574 85.7267H151.687V97.1294H169.574V85.7267Z"/><path fill="#F1A25C" d="M109.899 35.3057C114.641 35.3057 118.481 39.6463 118.481 44.9966C118.481 50.3505 114.641 54.6875 109.899 54.6875C105.162 54.6875 101.321 50.3505 101.321 44.9966C101.321 39.6463 105.162 35.3057 109.899 35.3057Z"/><path fill="#389FFD" d="M154.827 152.993V166.103H134.132V152.993H139.685H149.275H154.827Z"/><path fill="#389FFD" d="M171.054 87.5164V133.042H161.9V97.1295V85.7266V77.1783C166.956 77.1783 171.054 81.8069 171.054 87.5164Z"/><path fill="#2BA5F7" d="M156.088 97.1295V122.434H149.275V122.431H139.685V122.434H110.407V122.431H100.814V122.434H94.0006V97.1295V85.7266V77.1783H106.619H143.47H156.089V85.7266L156.088 97.1295Z"/><path fill="#005286" d="M104.923 77.1783H94.0003V122.431H104.923V77.1783Z"/><path fill="#4D4D4D" d="M120.938 44.997C120.938 38.1248 115.987 32.5336 109.901 32.5336C103.815 32.5336 98.8642 38.1248 98.8642 44.997C98.8642 51.869 103.815 57.4602 109.901 57.4602C115.987 57.4602 120.938 51.869 120.938 44.997ZM103.775 44.997C103.775 41.1828 106.523 38.0794 109.901 38.0794C113.279 38.0794 116.027 41.1825 116.027 44.997C116.027 48.811 113.279 51.9144 109.901 51.9144C106.523 51.9144 103.775 48.811 103.775 44.997Z"/><path fill="#4D4D4D" d="M142.35 90.7808C143.706 90.7808 144.805 89.5393 144.805 88.0078C144.805 86.4763 143.706 85.2348 142.35 85.2348C140.994 85.2348 139.894 86.4763 139.894 88.0078C139.894 89.5393 140.994 90.7808 142.35 90.7808Z"/><path fill="#4D4D4D" d="M107.739 90.7808C109.095 90.7808 110.194 89.5393 110.194 88.0078C110.194 86.4763 109.095 85.2348 107.739 85.2348C106.383 85.2348 105.283 86.4763 105.283 88.0078C105.283 89.5393 106.383 90.7808 107.739 90.7808Z"/><path fill="#2BA5F7" d="M83.0464 161.855C83.0323 160.498 84.2623 159.387 85.7938 159.371L104.726 159.174C106.258 159.158 107.511 160.244 107.525 161.6C107.539 162.957 106.309 164.069 104.778 164.085L85.8449 164.282C84.3136 164.298 83.0605 163.212 83.0464 161.855Z"/><path fill="#F1A25C" d="M101.916 161.457C101.94 163.806 104.111 165.688 106.763 165.66C109.416 165.633 111.547 163.706 111.523 161.357C111.498 159.008 109.328 157.126 106.675 157.153C104.022 157.181 101.891 159.108 101.916 161.457Z"/><path fill="#CECDCE" d="M111.416 95.3851H138.673C138.673 98.9752 137.583 102.281 135.759 104.898C133.261 108.477 129.391 110.777 125.043 110.777C117.516 110.777 111.416 103.885 111.416 95.3851Z"/><path fill="#F1A25C" d="M111.415 97.9733H136.188C136.188 101.563 135.097 104.869 133.274 107.487C130.956 109.546 128.032 110.777 124.85 110.777C118.105 110.777 112.502 105.242 111.415 97.9733Z"/><path fill="#F1A25C" d="M78.7651 162.043L78.6609 151.27L43.8231 151.812L43.9273 162.585L78.7651 162.043Z"/><path fill="#389FFD" d="M47.8915 168.781L36.2539 168.962L36.0285 145.61L47.6661 145.428L47.7266 151.693L47.8311 162.516L47.8915 168.781Z"/></g><path fill="#F1A25C" d="M78 86H92V97H78V86Z"/><path fill="#389FFD" d="M76.9457 87.5164V133.042H86.0997V97.1295V85.7266V77.1783C81.0437 77.1783 76.9457 81.8069 76.9457 87.5164Z"/><g clip-path="url(#clip1)"><path fill="#36A1CB" d="M69.0961 84.1105H66.1225H63.6086H60.635H51.8174C51.2703 87.9481 48.9075 90.835 46.0759 90.835C43.3218 90.835 41.0126 88.1037 40.3845 84.4232C38.686 85.2336 37.4603 87.5339 37.4603 90.2472C37.4603 93.6367 39.3719 96.3841 41.7296 96.3841H44.7033H47.2171H50.1908H50.3779H53.3514H53.7913H55.8654H56.765H58.8391H59.279H60.6353H62.2528H63.6089H66.1228H69.0964C71.4543 96.3841 73.3659 93.6367 73.3659 90.2472C73.3656 86.8581 71.454 84.1105 69.0961 84.1105Z"/><path fill="#2B80AF" d="M41.5865 92.8527C41.5265 92.6737 41.4723 92.4901 41.4245 92.3021C41.3766 92.114 41.335 91.9219 41.2997 91.7257C41.2647 91.5295 41.236 91.3298 41.2146 91.1264C41.1928 90.9232 41.1783 90.7169 41.1711 90.5078C41.1673 90.4032 41.1655 90.2979 41.1655 90.1919C41.1655 90.0402 41.1706 89.8904 41.1782 89.7418C41.1798 89.71 41.1811 89.6785 41.1832 89.6471C41.1918 89.5024 41.2038 89.3592 41.2196 89.2176C41.2223 89.1946 41.2253 89.172 41.2282 89.149C41.2437 89.0176 41.2622 88.8881 41.2835 88.7601C41.287 88.7393 41.2901 88.7177 41.2937 88.6971C41.318 88.5582 41.3458 88.4214 41.3763 88.2866C41.3825 88.2601 41.3887 88.234 41.3951 88.2076C41.4608 87.931 41.5398 87.6635 41.6311 87.4062C41.6385 87.3857 41.6456 87.3649 41.6532 87.3445C41.7001 87.2166 41.7496 87.0906 41.8021 86.9685C41.8066 86.958 41.8112 86.9482 41.8158 86.9379C41.8692 86.8155 41.9253 86.6962 41.9843 86.5798C41.9875 86.5735 41.9906 86.567 41.9936 86.5609C42.0548 86.4411 42.1195 86.3248 42.1866 86.2118C42.1932 86.2012 42.1995 86.1908 42.2061 86.1798C42.3437 85.9512 42.4927 85.7378 42.652 85.5407C42.6561 85.5355 42.6602 85.5301 42.6645 85.5252C42.9116 85.2219 43.1831 84.9585 43.4741 84.7418C43.476 84.7402 43.4777 84.7389 43.4798 84.7375C43.6738 84.5935 43.8766 84.4703 44.0867 84.3698C44.0878 84.3693 44.0888 84.3687 44.0898 84.368V84.3682C44.5131 84.1664 44.9648 84.0555 45.435 84.0555H42.7402C42.2701 84.0555 41.8182 84.1664 41.3951 84.3682V84.368C41.394 84.3686 41.393 84.3693 41.392 84.3698C41.182 84.4703 40.9792 84.5935 40.7851 84.7375C40.783 84.7391 40.7812 84.7403 40.7793 84.7418C40.4883 84.9585 40.2168 85.2219 39.9697 85.5252C39.9656 85.5301 39.9613 85.5355 39.9572 85.5407C39.798 85.7378 39.649 85.9512 39.5113 86.1798C39.5047 86.1906 39.4985 86.2012 39.4918 86.2118C39.4247 86.325 39.3602 86.4411 39.2988 86.5609C39.2957 86.5669 39.2926 86.5733 39.2896 86.5798C39.2306 86.6962 39.1745 86.8155 39.1211 86.9379C39.1166 86.9482 39.112 86.958 39.1073 86.9685C39.0547 87.0908 39.0052 87.2166 38.9585 87.3445C38.951 87.3649 38.9438 87.3857 38.9363 87.4062C38.845 87.6633 38.7661 87.931 38.7003 88.2076C38.694 88.234 38.6877 88.2602 38.6816 88.2866C38.651 88.4214 38.6231 88.5582 38.599 88.6971C38.5953 88.7177 38.5922 88.7393 38.5887 88.7601C38.5675 88.8881 38.549 89.0178 38.5335 89.149C38.5306 89.1718 38.5273 89.1944 38.5248 89.2176C38.5092 89.359 38.4972 89.5022 38.4885 89.6471C38.4863 89.6785 38.4851 89.71 38.4835 89.7418C38.4758 89.8905 38.4707 90.0402 38.4707 90.1919C38.4707 90.2979 38.4726 90.4032 38.4763 90.5078C38.4837 90.7169 38.4982 90.9234 38.5198 91.1264C38.5412 91.3298 38.57 91.5295 38.605 91.7257C38.6402 91.9219 38.6817 92.114 38.7297 92.3021C38.7776 92.4903 38.8317 92.6737 38.8917 92.8527C39.5813 94.9096 41.0452 96.3289 42.7401 96.3289H42.7402H45.4348C43.74 96.3289 42.2761 94.9096 41.5865 92.8527Z"/><path fill="#36A1CB" d="M50.1905 63.8409V58.9338V50.7368H41.6522V76.2731C41.6522 76.4692 41.6592 76.6629 41.6717 76.8542C42.746 75.096 44.3201 73.985 46.0758 73.985C47.6782 73.985 49.1302 74.9105 50.1881 76.4088C50.1887 76.3639 50.1905 76.3188 50.1905 76.2735V68.7296"/><path fill="#2B80AF" d="M45.3576 54.7487C45.3576 54.107 45.7195 53.5867 46.166 53.5867H43.4712C43.0247 53.5867 42.6628 54.107 42.6628 54.7487V79.231C42.6628 79.6721 42.8368 80.0755 43.1116 80.2719C43.2255 80.3533 43.3486 80.3932 43.4712 80.3932C43.6443 80.3932 43.8166 80.3132 43.9596 80.1569C44.398 79.6791 44.868 79.308 45.3575 79.0471V54.7487H45.3576Z"/><path fill="#8BD8F7" d="M50.1903 50.7368H41.8273V59.8786H50.1903V50.7368Z"/><path fill="#57BEDD" d="M46.166 50.6813H43.4712C43.0247 50.6813 42.6628 51.2016 42.6628 51.8433V59.8229H45.3576V51.8433C45.3576 51.2018 45.7193 50.6813 46.166 50.6813Z"/><path fill="#7C7A75" d="M57.3264 33.6798H61.6979C62.5537 33.6798 63.2474 32.6827 63.2474 31.4524V22.9041H29.4431V31.4522C29.4431 32.6825 30.1367 33.6796 30.9926 33.6796H53.9579"/><path fill="#CCC3A8" d="M62.0384 33.6798L59.8826 39.1314H52.3856H52.1909H50.9033H49.5199H49.325H43.4063H43.2114H41.828H40.5401H40.3455H32.8484L30.6926 33.6798"/><path fill="#6B6861" d="M33.1485 31.3972V29.1414V22.849V20.5932H30.4539V22.8491V29.1413V31.3971C30.4539 32.6274 31.1475 33.6245 32.0034 33.6245H34.6981C33.8421 33.6245 33.1485 32.6274 33.1485 31.3972Z"/><path fill="#C9B585" d="M31.7032 33.6245L33.859 39.0762H36.5537L34.398 33.6245H31.7032Z"/><path fill="#DFDBCC" d="M48.35 39.1313H43.4941V50.7368H48.35V39.1313Z"/><path fill="#FFB92E" d="M69.1356 96.3295C71.4721 96.3295 73.3662 93.6067 73.3662 90.248C73.3662 86.8892 71.4721 84.1664 69.1356 84.1664C66.7991 84.1664 64.905 86.8892 64.905 90.248C64.905 93.6067 66.7991 96.3295 69.1356 96.3295Z"/><path fill="#FFB92E" d="M46.0757 73.9846C42.8387 73.9846 40.2147 77.757 40.2147 82.4098C40.2147 87.063 42.8388 90.835 46.0757 90.835C49.3126 90.835 51.9367 87.063 51.9367 82.4098C51.9367 77.7568 49.3126 73.9846 46.0757 73.9846ZM45.9215 85.0492C44.9075 85.0492 44.0855 83.8674 44.0855 82.41C44.0855 80.9525 44.9075 79.7707 45.9215 79.7707C46.9353 79.7707 47.7575 80.9525 47.7575 82.41C47.7573 83.8674 46.9353 85.0492 45.9215 85.0492Z"/><path fill="#7C7A75" d="M35.5638 39.1313V41.8861C35.5638 43.3912 36.4128 44.6116 37.4599 44.6116C38.507 44.6116 39.356 43.3912 39.356 41.8861V39.1313H35.5638Z"/><path fill="#CCC3A8" d="M85.3325 84.1477C83.9659 81.4339 81.7616 79.8137 79.4364 79.8137C76.2911 79.8137 73.606 82.6975 72.5916 86.7219C71.8194 85.1434 70.543 84.1107 69.0979 84.1107H68.9629C70.6565 78.1868 74.712 74.0031 79.4361 74.0031C83.0538 74.0031 86.4818 76.5218 88.6064 80.7403C89.2608 82.0402 89.0586 83.8563 88.1544 84.7969C87.2506 85.7383 85.9869 85.4474 85.3325 84.1477Z"/><path fill="#CCC3A8" d="M68.9459 96.3841H69.0961C70.5356 96.3841 71.8076 95.3593 72.5811 93.7905C73.588 97.8343 76.2795 100.736 79.4345 100.736C81.76 100.736 83.9641 99.1168 85.331 96.4037C85.9856 95.1042 87.2494 94.8138 88.1532 95.7548C88.6991 96.3233 88.9887 97.2105 88.9887 98.1103C88.9887 98.7008 88.864 99.297 88.6045 99.8118C86.4797 104.029 83.0517 106.546 79.4344 106.546C74.6956 106.547 70.6301 102.337 68.9459 96.3841Z"/><path fill="#EF9A1D" d="M68.6097 90.1921C68.6097 87.5109 69.8174 85.2365 71.4931 84.4275C71.0696 84.223 70.6171 84.1107 70.1457 84.1107C67.8091 84.1107 65.915 86.8337 65.915 90.1919C65.915 93.5508 67.8091 96.2736 70.1457 96.2736C70.617 96.2736 71.0696 96.1613 71.4931 95.9568C69.8174 95.1478 68.6097 92.8732 68.6097 90.1921Z"/><path fill="#EF9A1D" d="M43.9201 82.3546C43.9201 78.3686 45.8466 75.0309 48.4337 74.1557C48.001 74.0092 47.5501 73.9294 47.0863 73.9294C43.8495 73.9294 41.2253 77.7018 41.2253 82.3546C41.2253 87.0078 43.8495 90.7798 47.0863 90.7798C47.5501 90.7798 48.001 90.7 48.4337 90.5536C45.8466 89.6781 43.9201 86.341 43.9201 82.3546Z"/><path fill="#CCC3A8" d="M65.7446 20.4767V19.8802C65.7446 18.5395 64.9886 17.4528 64.056 17.4528H54.7145H53.9061H38.8491H38.0407H28.6991C27.7665 17.4528 27.0105 18.5395 27.0105 19.8802V20.4767C27.0105 21.8174 27.7665 22.9041 28.6991 22.9041H38.0406H38.849H54.2281H55.0365H57.6412H58.0827H58.4496H58.8911H64.0559C64.9886 22.9041 65.7446 21.8174 65.7446 20.4767Z"/><path fill="#C9B585" d="M30.7159 20.4216V19.825C30.7159 18.4844 31.4719 17.3976 32.4045 17.3976H29.7099C28.7772 17.3976 28.0212 18.4844 28.0212 19.825V20.4216C28.0212 21.7622 28.7772 22.849 29.7099 22.849H32.4046C31.4719 22.849 30.7159 21.7622 30.7159 20.4216Z"/><path fill="#231F20" d="M88.746 94.579C88.2254 94.0369 87.611 93.7504 86.9694 93.7504C85.9994 93.7504 85.0809 94.4241 84.5125 95.5525C83.3354 97.8892 81.437 99.2845 79.4346 99.2845C76.9541 99.2845 74.7101 97.1604 73.7094 93.9339C74.1334 92.8418 74.3761 91.585 74.3761 90.248C74.3761 88.9204 74.1371 87.6722 73.7188 86.5854C74.7244 83.3782 76.9646 81.267 79.4345 81.267C81.4366 81.267 83.3349 82.6626 84.5121 85C85.0805 86.1288 85.9991 86.8028 86.9692 86.8028C87.6107 86.8028 88.2249 86.5164 88.7451 85.9748C89.4012 85.2926 89.8331 84.2834 89.9611 83.134C90.0891 81.9847 89.8982 80.8323 89.4234 79.8893C87.1091 75.2944 83.375 72.5513 79.4345 72.5513C74.6458 72.5513 70.3509 76.4877 68.3065 82.6589H52.943C52.9445 82.5762 52.9474 82.4939 52.9474 82.4107C52.9474 79.8899 52.2861 77.5876 51.2011 75.8405V68.73C51.2011 67.9275 50.7489 67.2774 50.1906 67.2774C49.6324 67.2774 49.1801 67.9275 49.1801 68.73V73.5944C48.7567 73.2855 48.3115 73.0452 47.8521 72.8693C47.8243 72.8587 47.7965 72.847 47.7685 72.8368C47.6926 72.8091 47.6161 72.7845 47.5395 72.7606C47.4911 72.7455 47.4427 72.7308 47.3941 72.7169C47.3272 72.6984 47.2605 72.681 47.1931 72.6652C47.1311 72.6506 47.0689 72.6379 47.0064 72.6257C46.9479 72.6142 46.8895 72.6027 46.8309 72.5935C46.753 72.5813 46.6746 72.5723 46.596 72.5638C46.5499 72.559 46.504 72.5522 46.4578 72.5488C46.3314 72.5387 46.2044 72.5328 46.0761 72.5328C45.9366 72.5328 45.7986 72.5407 45.6611 72.5525C45.6254 72.5556 45.5899 72.5603 45.5543 72.5644C45.4458 72.5762 45.3381 72.5915 45.2311 72.6102C45.1997 72.6158 45.1682 72.6212 45.137 72.6275C44.8529 72.6837 44.5741 72.7638 44.3019 72.8684C44.3017 72.8684 44.3016 72.8684 44.3015 72.8686C44.166 72.9207 44.0326 72.9796 43.9004 73.0433C43.8841 73.051 43.8679 73.0589 43.8517 73.067C43.7234 73.1302 43.5964 73.1981 43.4715 73.272C43.4665 73.2749 43.4612 73.2776 43.4562 73.2808C43.3232 73.3599 43.1923 73.4445 43.0636 73.5351C43.0513 73.5437 43.0393 73.5532 43.027 73.562C42.9213 73.6375 42.8172 73.7171 42.7146 73.8003C42.6976 73.8141 42.6799 73.8258 42.663 73.8398V61.3319H49.1801V63.8418C49.1801 64.6443 49.6324 65.2944 50.1906 65.2944C50.7489 65.2944 51.2011 64.6443 51.2011 63.8418V59.8793V50.7372C51.2011 49.9347 50.7489 49.2846 50.1906 49.2846H49.3599V40.5843H59.8829C60.2462 40.5843 60.5819 40.3038 60.7615 39.8496L62.7593 34.7978C63.6421 34.2167 64.2581 32.9377 64.2581 31.453V24.3427C65.6521 24.1934 66.7555 22.5189 66.7555 20.4775V19.8809C66.7555 17.7415 65.5446 16.0009 64.0564 16.0009H28.6991C27.2109 16.0006 26 17.7412 26 19.8805V20.4771C26 22.4873 27.069 24.1447 28.4326 24.3379V31.4528C28.4326 32.9692 29.0742 34.2735 29.9875 34.8365L31.9699 39.8496C32.1495 40.304 32.485 40.5843 32.8485 40.5843H34.5535V41.8865C34.5535 43.3925 35.1126 44.711 35.9462 45.4465C35.0551 47.7754 33.4883 52.4453 32.5545 58.5621C31.3328 66.5655 31.0314 78.606 36.4599 90.6995C36.6231 94.6749 38.9237 97.8373 41.7295 97.8373H68.2889C70.3253 104.042 74.6271 108 79.4347 108C83.3751 108 87.1091 105.258 89.4231 100.665C89.8003 99.9168 89.9995 99.0336 89.9995 98.1111C89.9994 96.7169 89.5309 95.3967 88.746 94.579ZM69.1351 85.6189C70.8551 85.6189 72.2644 87.5676 72.3509 90.0095C72.3538 90.0884 72.355 90.1678 72.355 90.2476C72.355 90.3274 72.3535 90.4068 72.3509 90.4857C72.2644 92.928 70.855 94.8767 69.1351 94.8767C67.3595 94.8767 65.915 92.8001 65.915 90.2478C65.9149 87.6953 67.3595 85.6189 69.1351 85.6189ZM79.4346 75.4563C82.7289 75.4563 85.8511 77.7505 87.7864 81.5928C87.9446 81.9071 88.0083 82.2912 87.9658 82.6743C87.923 83.0574 87.7791 83.3936 87.5601 83.6215C87.3866 83.8022 87.1824 83.8976 86.9695 83.8976C86.6406 83.8976 86.3418 83.6786 86.1494 83.2964C84.5931 80.2063 82.083 78.3616 79.4347 78.3616C76.4801 78.3616 73.774 80.6448 72.3004 84.2184C72.29 84.2069 72.2791 84.1965 72.2686 84.1853C72.243 84.1576 72.2168 84.131 72.1909 84.1041C72.1506 84.0622 72.1105 84.02 72.0695 83.9798C72.0296 83.9406 71.9887 83.9032 71.9482 83.8657C71.9204 83.84 71.8927 83.8134 71.8646 83.7884C71.8096 83.7395 71.7536 83.693 71.6973 83.6468C71.6824 83.6346 71.6679 83.622 71.6529 83.6101C71.5842 83.5553 71.5146 83.503 71.4442 83.4527C71.441 83.4504 71.4378 83.4479 71.4345 83.4455C71.1333 83.2308 70.8158 83.0565 70.4855 82.9268C72.3069 78.3336 75.6911 75.4563 79.4346 75.4563ZM49.2957 87.6188C49.2942 87.6208 49.2926 87.6227 49.291 87.6245C48.6831 88.3976 47.9423 88.9522 47.1334 89.2139C47.1291 89.2153 47.1248 89.2167 47.1203 89.2182C47.0644 89.236 47.0079 89.2516 46.9514 89.2669C46.9312 89.2723 46.9111 89.2775 46.8909 89.2825C46.8431 89.2944 46.7953 89.3048 46.7471 89.3147C46.7159 89.321 46.6844 89.3267 46.6528 89.3319C46.6123 89.3389 46.5716 89.3458 46.5309 89.3513C46.4874 89.3571 46.4438 89.3614 46.3999 89.3657C46.3688 89.3686 46.3377 89.3725 46.3065 89.3747C46.2299 89.3799 46.1529 89.383 46.0754 89.383C45.9975 89.383 45.9201 89.3797 45.8433 89.3745C45.8206 89.3729 45.7981 89.3702 45.7755 89.3684C45.7199 89.3635 45.6645 89.3578 45.6094 89.3503C45.5861 89.3472 45.563 89.3432 45.5399 89.3396C45.4826 89.3305 45.4256 89.3202 45.369 89.3082C45.3514 89.3044 45.3336 89.3008 45.3159 89.2967C45.2449 89.2807 45.1744 89.2627 45.1045 89.2423C45.1022 89.2417 45.0999 89.2408 45.0976 89.2403C43.4463 88.7524 42.0986 87.0542 41.5244 84.8214C41.5209 84.8074 41.5174 84.7937 41.5139 84.7797C41.4939 84.7005 41.4754 84.6203 41.4572 84.5395C41.4491 84.5032 41.4411 84.4672 41.4335 84.4306C41.4213 84.3727 41.41 84.3141 41.3989 84.2558C41.3891 84.2045 41.3792 84.1537 41.3701 84.1019C41.2757 83.5598 41.2249 82.9933 41.2249 82.4096C41.2249 80.6214 41.696 78.9886 42.4688 77.753C42.4889 77.7209 42.5095 77.6898 42.5299 77.6582C42.5656 77.6034 42.6011 77.5484 42.6381 77.495C42.6559 77.4693 42.6744 77.4447 42.6922 77.4195C42.7325 77.3631 42.7726 77.3067 42.8144 77.2523C42.8226 77.2417 42.8311 77.2318 42.8393 77.221C42.9226 77.1134 43.0091 77.0106 43.0976 76.9112C43.1251 76.8805 43.1523 76.8485 43.1803 76.8185C43.2083 76.7883 43.2374 76.7599 43.266 76.7308C43.3059 76.6902 43.3455 76.6489 43.3861 76.6099C43.4101 76.5869 43.4348 76.5651 43.4591 76.5425C43.5061 76.4992 43.5532 76.4561 43.6012 76.4153C43.6216 76.3978 43.6424 76.3811 43.6629 76.3642C43.7165 76.32 43.7704 76.2767 43.8251 76.2354C43.8419 76.2228 43.8586 76.2106 43.8754 76.1984C43.9354 76.1544 43.9959 76.112 44.057 76.0717C44.0699 76.0633 44.083 76.0546 44.0961 76.0464C44.1621 76.004 44.2287 75.9635 44.296 75.9251C44.3054 75.9197 44.3149 75.9143 44.3244 75.9091C44.3956 75.8694 44.4676 75.832 44.5401 75.7971C44.5469 75.7939 44.5535 75.7905 44.5602 75.7873C44.6354 75.7517 44.7112 75.7186 44.7876 75.6884C44.7926 75.6865 44.7976 75.6841 44.8027 75.6821C44.8801 75.6518 44.9581 75.6245 45.0366 75.5997C45.0415 75.5981 45.0464 75.5964 45.0511 75.5948C45.1285 75.5707 45.2065 75.5497 45.2847 75.531C45.2912 75.5294 45.2976 75.5276 45.3043 75.526C45.3793 75.5086 45.4549 75.4944 45.5306 75.482C45.5406 75.4802 45.5506 75.4778 45.5605 75.4766C45.633 75.4653 45.706 75.4575 45.779 75.4512C45.7921 75.45 45.805 75.448 45.8181 75.4469C45.9035 75.4403 45.9894 75.4369 46.0754 75.4369C46.1577 75.4369 46.2395 75.4399 46.3209 75.4459C46.3394 75.4473 46.3576 75.45 46.3762 75.4516C46.4396 75.4572 46.5029 75.4633 46.5655 75.4723C46.5811 75.4746 46.5966 75.478 46.6122 75.4804C46.6782 75.4908 46.744 75.5023 46.8092 75.5165C46.8181 75.5184 46.8269 75.521 46.8358 75.5231C46.9081 75.5396 46.9803 75.5576 47.0515 75.5786C47.052 75.5788 47.0526 75.579 47.0531 75.579C49.2608 76.2309 50.926 79.0457 50.926 82.4093C50.926 84.082 50.5139 85.6187 49.8283 86.8213C49.8156 86.8434 49.8026 86.8652 49.7899 86.8869C49.7575 86.9423 49.7246 86.9967 49.6911 87.0506C49.6699 87.0849 49.6482 87.1185 49.6265 87.1521C49.6017 87.1904 49.5765 87.2283 49.5511 87.2657C49.5219 87.3086 49.4926 87.3514 49.4627 87.3933C49.4462 87.4163 49.4295 87.4389 49.4128 87.4616C49.3744 87.5155 49.3355 87.5681 49.2957 87.6188ZM42.8385 58.4262V52.1898H43.4935H48.3493H49.18V58.4262H42.8385ZM47.3386 49.2846H44.5039V40.5843H47.3386V49.2846ZM28.021 20.4771V19.8805C28.021 19.3431 28.3253 18.9057 28.6991 18.9057H64.0559C64.4297 18.9057 64.734 19.3431 64.734 19.8805V20.4771C64.734 21.0146 64.4297 21.4519 64.0559 21.4519H63.2472H29.4431H28.6992C28.3252 21.4519 28.021 21.0149 28.021 20.4771ZM32.4295 35.1328H53.958C54.5163 35.1328 54.9685 34.4827 54.9685 33.6802C54.9685 32.8777 54.5163 32.2276 53.958 32.2276H30.9926C30.6954 32.2276 30.4536 31.8801 30.4536 31.4528V24.3573H62.2369V31.4528C62.2369 31.8801 61.9951 32.2276 61.6979 32.2276H57.3264C56.7681 32.2276 56.3159 32.8777 56.3159 33.6802C56.3159 34.4827 56.7681 35.1328 57.3264 35.1328H60.3016L59.2948 37.679H48.3493H43.4935H39.3562H35.5638H33.4363L32.4295 35.1328ZM38.3457 40.5843V41.8865C38.3457 42.5884 37.9484 43.1594 37.4601 43.1594C36.9719 43.1594 36.5745 42.5884 36.5745 41.8865V40.5843H38.3457ZM34.513 59.2867C35.5292 52.5551 37.4051 47.584 38.066 45.9717C39.3787 45.5697 40.3669 43.8913 40.3669 41.8863V40.5841H42.483V49.2844H41.828H41.6523C41.094 49.2844 40.6418 49.9345 40.6418 50.737V76.2733C40.6418 76.3057 40.6431 76.3394 40.6434 76.372C39.7424 78.0431 39.2043 80.1373 39.2043 82.4102C39.2043 82.7947 39.2213 83.1733 39.2511 83.5463C38.3336 84.2457 37.5925 85.3087 37.1036 86.5852C33.9085 78.2414 33.0351 69.0749 34.513 59.2867ZM38.4706 90.2476C38.4706 88.7208 38.982 87.3284 39.8073 86.4638C40.7093 89.3609 42.5276 91.4497 44.6863 92.0847C44.6909 92.0862 44.6954 92.0874 44.7001 92.0889C44.9157 92.1516 45.1345 92.2005 45.3561 92.2335C45.3759 92.2364 45.3959 92.2387 45.4158 92.2414C45.5011 92.2531 45.587 92.2624 45.6733 92.2696C45.7015 92.272 45.7299 92.2745 45.7582 92.2765C45.8636 92.2835 45.9694 92.2881 46.0759 92.2881C46.1821 92.2881 46.288 92.2837 46.3932 92.2765C46.4322 92.274 46.4707 92.2696 46.5094 92.2664C46.5736 92.2607 46.6378 92.2538 46.7016 92.2454C46.7508 92.2389 46.7998 92.2319 46.8486 92.224C46.8971 92.2161 46.9452 92.2067 46.9935 92.1974C48.5804 91.8914 49.9966 90.8046 51.0497 89.2144C51.0677 89.1873 51.086 89.1603 51.1038 89.1328C51.1445 89.0701 51.1844 89.0063 51.2237 88.942C51.2546 88.8921 51.2848 88.8416 51.315 88.7907C51.3459 88.7384 51.3767 88.6865 51.4067 88.6333C51.454 88.5501 51.5001 88.4649 51.5456 88.3794C51.559 88.3542 51.5729 88.3298 51.586 88.3045C51.649 88.1834 51.71 88.0599 51.7691 87.9345C51.7729 87.9266 51.7764 87.9185 51.78 87.9104C51.8356 87.7918 51.8894 87.6711 51.9414 87.5487C51.9484 87.5324 51.9553 87.5158 51.9621 87.4993C52.0129 87.3784 52.0621 87.2558 52.1094 87.1315C52.1129 87.1219 52.1166 87.1126 52.1201 87.1034C52.2759 86.6912 52.4117 86.2607 52.5261 85.814C52.5286 85.8038 52.5313 85.7935 52.5338 85.7833C52.5524 85.7101 52.5714 85.6374 52.5888 85.5635H65.034C64.321 86.8506 63.8935 88.478 63.8935 90.2476C63.8935 92.0172 64.3211 93.6448 65.0341 94.9321H41.7294C39.9324 94.9319 38.4706 92.8306 38.4706 90.2476ZM87.7861 98.9605C85.8509 102.801 82.7289 105.095 79.4345 105.095C75.6744 105.095 72.2827 102.199 70.4664 97.5765C70.9642 97.3841 71.4331 97.0899 71.8616 96.7095C71.8684 96.7036 71.875 96.6971 71.8817 96.691C71.9442 96.6348 72.0064 96.5776 72.0671 96.5178C72.0964 96.4894 72.1246 96.4589 72.1535 96.4294C72.1912 96.3906 72.2294 96.3527 72.2663 96.3126C72.2724 96.3061 72.2785 96.3002 72.2845 96.2936C73.7539 99.8904 76.4663 102.189 79.4345 102.189C82.083 102.189 84.5933 100.345 86.1494 97.2558C86.3418 96.874 86.6406 96.6549 86.9695 96.6549C87.1825 96.6549 87.3869 96.7503 87.5604 96.9311C87.8261 97.2078 87.9785 97.6374 87.9785 98.1104C87.9783 98.4173 87.9119 98.7109 87.7861 98.9605Z"/><path fill="#231F20" d="M45.9214 78.3179C44.3519 78.3179 43.0749 80.1536 43.0749 82.4098C43.0749 84.6659 44.3519 86.5018 45.9214 86.5018C47.4909 86.5018 48.7679 84.6661 48.7679 82.4098C48.7679 80.1534 47.491 78.3179 45.9214 78.3179ZM46.7301 82.6488C46.653 83.1889 46.3196 83.5966 45.9215 83.5966C45.4664 83.5966 45.096 83.0642 45.096 82.41C45.096 81.7557 45.4664 81.2233 45.9215 81.2233C46.3198 81.2233 46.6531 81.6308 46.7301 82.1712C46.7411 82.2482 46.747 82.3282 46.747 82.41C46.7469 82.4915 46.7411 82.5717 46.7301 82.6488Z"/><path fill="#231F20" d="M69.1357 92.0549C69.8299 92.0549 70.3927 91.2459 70.3927 90.248C70.3927 89.25 69.8299 88.441 69.1357 88.441C68.4414 88.441 67.8787 89.25 67.8787 90.248C67.8787 91.2459 68.4414 92.0549 69.1357 92.0549Z"/></g><path fill="#F1A25C" d="M11.0373 143.772C15.7749 143.772 19.619 148.113 19.619 153.463C19.619 158.817 15.7752 163.154 11.0373 163.154C6.29632 163.154 2.45563 158.817 2.45563 153.463C2.45563 148.113 6.29632 143.772 11.0373 143.772Z"/><path fill="#4D4D4D" d="M11.037 165.927C17.1226 165.927 22.0738 160.335 22.0738 153.463C22.0738 146.591 17.1226 141 11.037 141C4.9509 141 0 146.591 0 153.463C0 160.335 4.9509 165.927 11.037 165.927ZM11.037 146.545C14.4146 146.545 17.1625 149.648 17.1625 153.463C17.1625 157.277 14.4146 160.38 11.037 160.38C7.6595 160.38 4.911 157.277 4.911 153.463C4.911 149.648 7.6592 146.545 11.037 146.545Z"/><defs><clipPath id="clip0"><rect width="147" height="166" fill="#fff" transform="translate(26)"/></clipPath><clipPath id="clip1"><rect width="64" height="92" fill="#fff" transform="translate(26 16)"/></clipPath></defs></svg>