<svg width="222" height="182" viewBox="0 0 222 182" fill="none" xmlns="http://www.w3.org/2000/svg">
<path d="M78.1111 132.458L76.7165 121.818C76.4187 119.547 74.9091 117.629 72.7949 116.838L64.5359 113.747C63.5443 113.411 62.8754 112.467 62.8754 111.403V107.419L68.1061 105.202C70.8212 104.052 72.5896 101.353 72.5896 98.3612V97.126C74.6016 97.126 76.2325 95.467 76.2325 93.4204C76.2325 91.3738 74.6016 89.7147 72.5896 89.7147V87.2443C72.5896 83.8334 69.8713 78.5978 66.5182 78.5978H44.6612C41.3079 78.5978 38.5898 83.8334 38.5898 87.2443V89.7147C36.5778 89.7147 34.9469 91.3738 34.9469 93.4204C34.9469 95.467 36.5778 97.126 38.5898 97.126V98.3612C38.5898 101.353 40.3582 104.052 43.0732 105.202L48.304 107.419V111.403C48.304 112.467 47.6351 113.411 46.6435 113.747L38.3845 116.838C36.2703 117.629 34.7607 119.547 34.4629 121.818L33.0683 132.458C32.7771 134.679 34.4759 136.653 36.6791 136.653H74.5003C76.7035 136.653 78.4024 134.679 78.1111 132.458Z" fill="#F6B47B"/>
<path d="M73.7129 95.8802H71.2844C71.2844 95.8802 70.1278 99.1369 70.0701 103.291C70.0378 105.618 70.6305 108.227 71.2844 110.703H73.7129C74.3668 108.227 74.9595 105.618 74.9272 103.291C74.8695 99.1369 73.7129 95.8802 73.7129 95.8802Z" fill="#8E6257"/>
<path d="M39.7143 95.8802H37.2857C37.2857 95.8802 36.1291 99.1369 36.0714 103.291C36.0391 105.618 36.6318 108.227 37.2857 110.703H39.7143C40.3682 108.227 40.9609 105.618 40.9285 103.291C40.8709 99.1369 39.7143 95.8802 39.7143 95.8802Z" fill="#8A534B"/>
<path d="M37.922 87.8993H31.2155C30.3564 87.8993 29.769 88.7819 30.088 89.5932L31.321 92.7287C31.5988 93.4349 32.4319 93.7205 33.0732 93.3291L37.922 90.3697V87.8993Z" fill="#F23F44"/>
<path d="M37.922 87.8993H31.2155C30.3564 87.8993 29.769 87.0167 30.088 86.2053L31.321 83.0699C31.5988 82.3637 32.4319 82.078 33.0732 82.4694L37.922 85.4289V87.8993Z" fill="#FF4F4F"/>
<path d="M73.078 87.8993H79.7845C80.6436 87.8993 81.231 88.7819 80.912 89.5932L79.679 92.7287C79.4012 93.4349 78.5681 93.7205 77.9268 93.3291L73.078 90.3697V87.8993Z" fill="#F23F44"/>
<path d="M73.078 87.8993H79.7845C80.6436 87.8993 81.231 87.0167 80.912 86.2053L79.679 83.0699C79.4012 82.3637 78.5681 82.078 77.9268 82.4694L73.078 85.4289V87.8993Z" fill="#FF4F4F"/>
<path d="M62.7856 107.409L48.2142 104.115V111.393C48.2142 112.282 47.7307 113.065 46.9974 113.502C57.1813 115.315 62.7856 107.409 62.7856 107.409Z" fill="#E2A071"/>
<path d="M38.5 89.7042C36.4881 89.7042 34.8571 91.3634 34.8571 93.4099C34.8571 95.4565 36.4881 97.1155 38.5 97.1155V98.3507C38.5 101.343 40.2684 104.041 42.9834 105.192L50.8295 108.518C52.3093 109.145 53.8966 109.468 55.4998 109.468C57.1029 109.468 58.6902 109.145 60.1701 108.518L68.0164 105.192C70.7314 104.041 72.4999 101.343 72.4999 98.3507V97.1155C74.5118 97.1155 76.1427 95.4565 76.1427 93.4099C76.1427 91.3633 74.5118 89.7042 72.4999 89.7042V85.6898C72.4999 81.7672 69.3739 78.5873 65.5177 78.5873H45.4821C41.626 78.5873 38.5 81.7672 38.5 85.6898V89.7042Z" fill="#FDC88E"/>
<path d="M47 94.645C46.3321 94.645 45.7857 94.0892 45.7857 93.4098V92.1746C45.7857 91.4952 46.3321 90.9394 47 90.9394C47.6678 90.9394 48.2142 91.4952 48.2142 92.1746V93.4098C48.2142 94.0892 47.6678 94.645 47 94.645Z" fill="#623F33"/>
<path d="M63.9999 94.645C63.3321 94.645 62.7856 94.0892 62.7856 93.4098V92.1746C62.7856 91.4952 63.3321 90.9394 63.9999 90.9394C64.6678 90.9394 65.2142 91.4952 65.2142 92.1746V93.4098C65.2142 94.0892 64.6678 94.645 63.9999 94.645Z" fill="#623F33"/>
<path d="M55.4999 103.325C53.3411 103.325 51.3217 102.785 49.9598 101.842C49.4054 101.459 49.2612 100.69 49.639 100.126C50.0155 99.5632 50.7715 99.4166 51.3258 99.8002C52.2804 100.461 53.8409 100.855 55.4999 100.855C57.1589 100.855 58.7194 100.461 59.674 99.8002C60.2295 99.4155 60.9838 99.5626 61.3608 100.126C61.7384 100.69 61.5944 101.459 61.0401 101.842C59.6783 102.785 57.6588 103.325 55.4999 103.325Z" fill="#C28C65"/>
<path d="M38.5 89.7042C36.4881 89.7042 34.8571 91.3632 34.8571 93.4098C34.8571 95.4564 36.4881 97.1155 38.5 97.1155V98.3507C38.5 101.343 40.2684 104.041 42.9834 105.192L50.8292 108.517C51.2132 108.68 51.6051 108.82 52.002 108.942C48.5347 106.362 46.2266 104.106 44.8742 102.631C43.8903 101.558 43.3571 100.142 43.3571 98.6746V91.7712C46.833 90.537 56.5895 86.4832 56.7142 79.8225L55.1964 78.2785C55.1964 78.2785 54.5387 87.1308 38.5 89.7042Z" fill="#F6B47B"/>
<path d="M69.4394 115.437L65.07 122.548C64.4043 123.632 63.2369 124.29 61.9809 124.29H49.019C47.763 124.29 46.5956 123.632 45.9299 122.548L41.5606 115.437C41.2097 114.866 40.4738 114.686 39.9061 115.033L35.9175 117.467C35.3351 117.822 35.1525 118.595 35.5126 119.181L40.9286 127.996H70.0713L75.4873 119.181C75.8474 118.595 75.6648 117.822 75.0824 117.467L71.0937 115.032C70.5262 114.686 69.7902 114.866 69.4394 115.437Z" fill="#F23F44"/>
<path d="M70.0713 127.996H40.9286V137H70.0713V127.996Z" fill="#FF4F4F"/>
<path d="M61.5713 65C57.6249 65 55.4999 66.2352 55.4999 66.2352C55.4999 66.2352 53.3749 65 49.4285 65C45.4821 65 30.5059 72.7286 36.0714 90.6391C36.0714 90.6391 55.4999 87.1308 55.4999 78.5873C55.4999 87.1308 74.9284 90.6391 74.9284 90.6391C80.4939 72.7286 65.5178 65 61.5713 65Z" fill="#8E6257"/>
<path d="M55.4999 66.2358V66.2352C55.4999 66.2352 53.3749 65 49.4285 65C45.4821 65 30.5061 72.7286 36.0714 90.6391C36.0714 90.6391 38.4233 90.2134 41.4886 89.3005C38.0581 73.2401 51.7344 66.2482 55.4999 66.2358Z" fill="#8A534B"/>
<path d="M39.7143 113.173H37.2857C36.6151 113.173 36.0714 112.62 36.0714 111.938C36.0714 111.256 36.6151 110.703 37.2857 110.703H39.7143C40.3849 110.703 40.9285 111.256 40.9285 111.938C40.9285 112.62 40.3849 113.173 39.7143 113.173Z" fill="#F23F44"/>
<path d="M39.7143 113.173C39.7143 113.173 41.8393 116.879 38.5 121.82C35.1607 116.879 37.2857 113.173 37.2857 113.173" fill="#8A534B"/>
<path d="M71.2843 113.173H73.7129C74.3835 113.173 74.9272 112.62 74.9272 111.938C74.9272 111.256 74.3835 110.703 73.7129 110.703H71.2843C70.6138 110.703 70.0701 111.256 70.0701 111.938C70.0701 112.62 70.6138 113.173 71.2843 113.173Z" fill="#FF4F4F"/>
<path d="M71.2844 113.173C71.2844 113.173 69.1594 116.879 72.4986 121.82C75.8379 116.879 73.7129 113.173 73.7129 113.173" fill="#8E6257"/>
<g clip-path="url(#clip0)">
<path d="M50.5909 94H26.5H2.40912C1.6607 94 0.992094 94.3413 0.550082 94.8768C0.353816 95.1147 0.202166 95.391 0.108277 95.6928C0.0378867 95.919 0 96.1596 0 96.4091V106.045V125.353V134.99C0 136.32 1.07863 137.399 2.40912 137.399H24.089V142.182H16.0597C15.3945 142.182 14.7922 142.452 14.3562 142.888C14.1383 143.105 13.9617 143.365 13.8398 143.653C13.8093 143.725 13.7824 143.799 13.7589 143.875C13.712 144.025 13.6794 144.183 13.663 144.345C13.6549 144.426 13.6507 144.508 13.6507 144.591C13.6507 145.921 14.7293 147 16.0598 147H26.4982H26.5H36.9387C38.2692 147 39.3478 145.921 39.3478 144.591C39.3478 143.26 38.2692 142.182 36.9387 142.182H28.9072V137.399H50.5909C51.9214 137.399 53 136.32 53 134.99V125.353V106.045V96.4091C53 95.0786 51.9214 94 50.5909 94Z" fill="#486095"/>
<path d="M50.5909 103.636H48.1818H26.5H4.81813H2.40912C1.07863 103.636 0 104.715 0 106.046V125.353C0 126.684 1.07863 127.763 2.40912 127.763H4.81824H26.5H48.1819H50.591C51.9215 127.763 53.0001 126.684 53.0001 125.353V106.046C53 104.715 51.9214 103.636 50.5909 103.636Z" fill="#D3D3D3"/>
<path d="M2.40912 127.762H4.81824H26.5V103.636H4.81813H2.40912C1.07863 103.636 0 104.715 0 106.046V125.353C0 126.684 1.07863 127.762 2.40912 127.762Z" fill="#BBBBBB"/>
<path d="M4.81813 127.762H2.40912C1.07863 127.762 0 126.684 0 125.353V134.99C0 136.32 1.07863 137.399 2.40912 137.399H24.089V142.182H16.0597C14.7292 142.182 13.6506 143.26 13.6506 144.591C13.6506 145.921 14.7292 147 16.0597 147H26.4981H26.5V127.762H4.81813Z" fill="#4B5558"/>
<path d="M2.40912 103.636H4.81824H26.5V94H2.40912C1.07863 94 0 95.0786 0 96.4091V106.045C0 104.715 1.07863 103.636 2.40912 103.636Z" fill="#4B5558"/>
</g>
<g clip-path="url(#clip1)">
<path d="M148.501 25.9317C147.144 25.9317 146.045 24.8323 146.045 23.476V6.70943C146.045 5.35341 147.144 4.25378 148.501 4.25378C149.857 4.25378 150.956 5.35313 150.956 6.70943V23.476C150.956 24.8321 149.857 25.9317 148.501 25.9317Z" fill="#2BA5F7"/>
<path d="M166.925 59.9039H130.075V69.8902H166.925V59.9039Z" fill="#CECDCE"/>
<path d="M179.544 23.2694V62.5232H166.925H130.075H117.456V23.2694C117.456 18.6822 121.175 14.9627 125.763 14.9627H148.502H171.238C175.828 14.963 179.544 18.6825 179.544 23.2694Z" fill="#389FFD"/>
<path d="M131.329 14.963H125.762C121.175 14.963 117.456 18.6825 117.456 23.2697V62.5235H123.022V23.2694C123.022 18.6825 126.742 14.963 131.329 14.963Z" fill="#01568F"/>
<path d="M133.863 104.446H124.27V139.273H133.863V104.446Z" fill="#F1A25C"/>
<path d="M172.73 104.446H163.14V139.273H172.73V104.446Z" fill="#F1A25C"/>
<path d="M163.14 104.773V116.861H172.73V104.773H163.14ZM124.27 116.861H133.863V104.773H124.27V116.861Z" fill="#CECDCE"/>
<path d="M193.03 75.8231H175.143V85.9207H193.03V75.8231Z" fill="#F1A25C"/>
<path d="M121.981 75.8231H103.845V85.9207H121.981V75.8231Z" fill="#F1A25C"/>
<path d="M133.355 31.1732C138.096 31.1732 141.937 35.017 141.937 39.7549C141.937 44.496 138.096 48.3366 133.355 48.3366C128.618 48.3366 124.777 44.496 124.777 39.7549C124.777 35.017 128.618 31.1732 133.355 31.1732Z" fill="#F1A25C"/>
<path d="M163.645 31.1732C168.382 31.1732 172.226 35.017 172.226 39.7549C172.226 44.496 168.383 48.3366 163.645 48.3366C158.904 48.3366 155.063 44.496 155.063 39.7549C155.063 35.017 158.904 31.1732 163.645 31.1732Z" fill="#F1A25C"/>
<path d="M139.416 135.39V147H118.717V135.39H124.27H133.863H139.416Z" fill="#389FFD"/>
<path d="M178.283 135.39V147H157.587V135.39H163.14H172.73H178.283Z" fill="#389FFD"/>
<path d="M194.51 77.4079V117.723H185.356V85.9207V75.823V68.2531C190.412 68.2531 194.51 72.3519 194.51 77.4079Z" fill="#389FFD"/>
<path d="M111.644 85.9214V117.723H102.49V77.4086C102.49 72.3526 106.588 68.2541 111.644 68.2541V75.824V85.9214Z" fill="#389FFD"/>
<path d="M179.544 85.9207V108.329H172.731V108.326H163.141V108.329H133.863V108.326H124.27V108.329H117.456V85.9207V75.823V68.2531H130.075H166.926H179.545V75.823L179.544 85.9207Z" fill="#2BA5F7"/>
<path d="M128.379 68.2531H117.456V108.326H128.379V68.2531Z" fill="#005286"/>
<path d="M144.394 39.7552C144.394 33.6696 139.443 28.7184 133.357 28.7184C127.271 28.7184 122.32 33.6696 122.32 39.7552C122.32 45.8407 127.271 50.7919 133.357 50.7919C139.443 50.7919 144.394 45.8407 144.394 39.7552ZM127.231 39.7552C127.231 36.3776 129.979 33.6294 133.357 33.6294C136.735 33.6294 139.483 36.3773 139.483 39.7552C139.483 43.1327 136.735 45.8809 133.357 45.8809C129.979 45.8809 127.231 43.1327 127.231 39.7552Z" fill="#4D4D4D"/>
<path d="M163.644 50.7919C169.73 50.7919 174.681 45.8407 174.681 39.7552C174.681 33.6696 169.73 28.7184 163.644 28.7184C157.558 28.7184 152.607 33.6696 152.607 39.7552C152.607 45.8407 157.558 50.7919 163.644 50.7919ZM163.644 33.6291C167.022 33.6291 169.77 36.377 169.77 39.7549C169.77 43.1327 167.022 45.8806 163.644 45.8806C160.267 45.8806 157.518 43.1327 157.518 39.7549C157.518 36.377 160.267 33.6291 163.644 33.6291Z" fill="#4D4D4D"/>
<path d="M165.806 80.2987C167.162 80.2987 168.261 79.1993 168.261 77.8431C168.261 76.4869 167.162 75.3875 165.806 75.3875C164.449 75.3875 163.35 76.4869 163.35 77.8431C163.35 79.1993 164.449 80.2987 165.806 80.2987Z" fill="#4D4D4D"/>
<path d="M131.194 80.2987C132.551 80.2987 133.65 79.1993 133.65 77.8431C133.65 76.4869 132.551 75.3875 131.194 75.3875C129.838 75.3875 128.739 76.4869 128.739 77.8431C128.739 79.1993 129.838 80.2987 131.194 80.2987Z" fill="#4D4D4D"/>
<path d="M148.502 8.50762C150.851 8.50762 152.756 6.60313 152.756 4.25381C152.756 1.9045 150.851 0 148.502 0C146.152 0 144.248 1.9045 144.248 4.25381C144.248 6.60313 146.152 8.50762 148.502 8.50762Z" fill="#F1A25C"/>
<path d="M134.871 84.376H162.129C162.129 87.5552 161.038 90.4822 159.215 92.8004C156.717 95.9698 152.847 98.0062 148.499 98.0062C140.971 98.0062 134.871 91.9031 134.871 84.376Z" fill="#CECDCE"/>
<path d="M134.871 86.668H159.644C159.644 89.8472 158.553 92.7742 156.73 95.0924C154.412 96.9161 151.488 98.0062 148.305 98.0062C141.56 98.0062 135.958 93.105 134.871 86.668Z" fill="#F1A25C"/>
</g>
<path d="M34.8854 146.521C49.1874 157.431 58.1618 158.163 73.9757 156.517C83.1764 155.56 91.9772 151.581 99.3865 159.789C105.031 166.042 108.788 164.95 115.937 164.206C124.184 163.348 122.304 156.185 121.406 147.563" stroke="#5EDA12" stroke-width="3" stroke-linecap="round" stroke-linejoin="round"/>
<path d="M120.351 135.995C119.898 141.849 125.583 155.746 106.919 162.075C89.8791 167.853 91.6798 154.002 85.4202 150.984C79.0084 147.893 72.6993 141.82 62.013 141.869C56.8675 141.892 54.0127 140.277 48.6481 140.776C45.0623 141.109 39.7664 143.389 36.0403 144.652" stroke="#007A58" stroke-width="3" stroke-linecap="round" stroke-linejoin="round"/>
<path d="M38 145C51.2763 151.539 62.3673 166.375 76.3718 170.768C82.5803 172.716 80.591 161.867 82.3291 157.266C84.5745 151.322 94.0709 149.523 98.6239 148.298C106.596 146.154 112.232 146.855 120 146.855" stroke="#FF0000" stroke-width="3" stroke-linecap="round" stroke-linejoin="round"/>
<defs>
<clipPath id="clip0">
<rect width="53" height="53" fill="white" transform="translate(0 94)"/>
</clipPath>
<clipPath id="clip1">
<rect width="147" height="147" fill="white" transform="translate(75)"/>
</clipPath>
</defs>
</svg>
