<svg width="219" height="213" viewBox="0 0 219 213" fill="none" xmlns="http://www.w3.org/2000/svg">
<path d="M96.2011 204.514H76.8353C72.8445 204.514 69.7349 196.95 70.1924 188.325L77.3654 52.7545C77.7533 45.4202 80.611 39.8844 84.0084 39.8844H89.0284C92.4258 39.8844 95.2835 45.4202 95.6713 52.7545L102.844 188.325C103.301 196.941 100.197 204.514 96.2011 204.514Z" fill="#F2C500"/>
<path d="M102.844 188.325L95.6712 52.7545C95.2834 45.4202 92.4256 39.8844 89.0282 39.8844H86.5184V204.514H96.2013C100.192 204.513 103.301 196.949 102.844 188.325Z" fill="#F59D00"/>
<path d="M172.517 45.4285C162.596 -0.659337 105.104 -5.48478 86.5189 33.2914C67.9326 -5.48677 10.448 -0.691825 0.520325 45.4285C-0.91446 52.0933 7.45158 56.2899 12.1289 51.4532C21.7954 41.4569 36.2213 37.0316 50.1118 38.2561C21.3706 48.0727 8.35257 84.4682 33.2679 112.112C37.8005 117.141 46.2756 113.174 45.0831 106.491C41.6868 87.4509 52.247 60.7133 85.4621 53.3695C85.8383 53.2857 86.218 53.1644 86.5182 53.0444C87.0177 53.2436 87.6548 53.4156 88.2253 53.4849C113.105 56.5667 132.283 82.2178 127.953 106.491C126.758 113.187 135.255 117.119 139.768 112.111C164.745 84.4003 151.548 48.032 122.925 38.2554C136.835 37.0296 151.254 41.4692 160.908 51.4526C165.615 56.3214 173.946 52.0678 172.517 45.4285Z" fill="#65C6BB"/>
<path d="M172.517 45.4285C162.599 -0.644432 105.112 -5.50335 86.5189 33.2914V53.0443C87.0008 53.2373 87.6393 53.413 88.2259 53.4849C113.106 56.566 132.284 82.2178 127.954 106.491C126.759 113.187 135.256 117.119 139.769 112.112C164.746 84.3996 151.548 48.0316 122.926 38.2558C136.836 37.0299 151.255 41.4695 160.909 51.4535C165.616 56.3214 173.946 52.0671 172.517 45.4285Z" fill="#57BDB7"/>
<path d="M106.29 195.355L102.524 151.9H86.5183H70.5131L66.7463 195.355C66.4903 198.303 67.3365 201.23 69.0111 203.196C73.0679 207.956 77.0411 203.398 86.5187 203.329C95.9963 203.398 99.9694 207.956 104.026 203.196C105.7 201.23 106.546 198.303 106.29 195.355Z" fill="#F59D00"/>
<g clip-path="url(#clip0)">
<path d="M112.141 166.636C107.638 155.106 101.449 154.974 101.187 154.974H98.2467L99.2253 159.484C102.879 176.323 99.2409 195.498 99.2043 195.687L98.3433 200.095H113.638L113.796 196.446C114.441 181.606 114.796 173.432 112.141 166.636Z" fill="#80E471"/>
<path d="M153.08 159.484L154.059 154.974H151.118C150.857 154.974 144.667 155.106 140.164 166.636C137.51 173.432 137.865 181.606 138.509 196.446L138.667 200.095H153.962L153.101 195.686C153.064 195.495 149.413 176.386 153.08 159.484Z" fill="#00925B"/>
<path d="M125.365 195.135C125.327 195.015 121.451 182.743 116.352 147.49L115.082 138.712L112.488 146.682C112.206 147.546 105.628 168.188 108.328 197.217L108.595 200.095H123.524L126.959 200.088L125.365 195.135Z" fill="#00C47A"/>
<path d="M130.324 152.39C128.816 146.079 127.197 141.408 126.153 138.701V197.839H133.567L133.769 194.821C134.979 176.733 132.564 161.763 130.324 152.39Z" fill="#00C47A"/>
<path d="M145.57 197.725H106.735C101.764 197.725 97.7193 199.925 97.7193 202.628C97.7193 202.958 97.7807 203.288 97.9021 203.61L98.2431 204.514H154.062L154.403 203.61C154.524 203.288 154.586 202.958 154.586 202.628C154.586 199.925 150.542 197.725 145.57 197.725Z" fill="#FF9900"/>
<path d="M145.57 197.725H126.152V204.514H154.062L154.403 203.61C154.524 203.288 154.586 202.958 154.586 202.628C154.586 199.925 150.541 197.725 145.57 197.725Z" fill="#BF7300"/>
</g>
<g clip-path="url(#clip1)">
<path d="M99.1303 197.539H60.4505C55.4993 197.539 51.4712 199.737 51.4712 202.438C51.4712 202.767 51.5324 203.097 51.6533 203.419L51.9929 204.322H107.588L107.927 203.419C108.048 203.097 108.109 202.767 108.109 202.438C108.11 199.737 104.082 197.539 99.1303 197.539Z" fill="#FF9900"/>
<path d="M99.1304 197.539H79.7904V204.322H107.588L107.927 203.419C108.048 203.097 108.11 202.767 108.11 202.438C108.11 199.737 104.082 197.539 99.1304 197.539Z" fill="#BF7300"/>
</g>
<path d="M185.371 170.732C181.783 170.544 177.02 171.622 175.168 173.427C174.136 174.354 178.351 175.005 179.602 176.196C180.821 177.354 181.661 178.788 182.271 180.275C182.812 181.586 182.894 183.019 183.003 184.464C183.256 187.818 182.6 191.245 183.305 194.553C183.431 195.39 184.489 195.174 185.156 195.209C186.614 195.285 189.103 196.096 189.676 194.917C191.337 191.078 190.594 186.73 190.752 182.643C190.803 181.341 190.483 180.087 190.149 178.763C189.746 177.171 189.288 175.552 188.47 174.083C187.672 172.836 187.042 170.819 185.371 170.732Z" fill="#B4852D"/>
<path d="M187.33 192.186C185.819 192.051 184.103 192.645 182.993 193.387C181.882 194.128 181.451 195.215 181.195 196.283C180.989 197.145 180.82 198.436 181.712 198.888C183.285 199.684 185.376 199.365 187.222 199.361C188.98 199.365 190.944 199.636 192.474 198.888C193.562 198.355 194.153 197.034 194.024 195.974C193.913 195.088 192.75 194.52 191.871 194.007C190.491 193.209 189.019 192.337 187.33 192.186Z" fill="#FDCB96"/>
<path d="M186.189 192.076C185.053 192.128 183.788 192.096 182.841 192.61C182.139 192.991 181.738 193.867 181.798 194.626C181.809 194.978 182.489 195.069 183.003 195.136C184.988 195.385 186.973 195.51 189.03 195.427C189.954 195.389 190.971 195.277 191.699 194.772C192.076 194.509 191.787 193.932 191.57 193.533C191.291 193.025 190.811 192.473 190.192 192.331C188.905 191.957 187.496 192.017 186.189 192.076Z" fill="#CC9832"/>
<path d="M128.116 148.914C131.203 150.002 133.76 152.088 136.08 154.123C137.349 155.322 138.198 156.873 138.663 158.421C139.444 161.021 139.303 163.768 139.653 166.434C139.972 168.866 139.619 171.353 140.6 173.609C141.166 174.908 142.388 176.072 143.829 176.45C146.251 177.144 148.941 176.807 151.362 176.596C154.268 176.345 157.184 176.032 159.972 175.176C161.978 174.56 163.455 172.609 165.482 172.407C168.607 172.097 176.158 172.471 174.824 173.609C172.475 175.614 163.497 177.994 157.5 179.273C153.551 180.113 149.409 180.348 145.421 180.056C142.941 179.82 140.197 179.201 138.534 177.725C136.744 176.137 136.31 173.695 135.865 171.533C135.198 168.297 135.846 165.032 135.219 161.845C134.84 159.923 134.3 157.758 132.765 156.199C130.801 154.238 128.072 152.79 125.188 151.755C121.497 150.432 117.015 151.078 113.479 149.388C112.48 148.91 113.088 146.592 114.254 146.547C118.89 146.367 123.769 147.383 128.116 148.914Z" fill="#A97A2A"/>
<path d="M157.82 170.805C161.407 170.617 166.17 171.695 168.022 173.5C169.054 174.427 164.839 175.078 163.588 176.268C162.37 177.427 161.53 178.861 160.919 180.348C160.378 181.659 160.297 183.092 160.187 184.537C159.934 187.89 160.59 191.318 159.886 194.626C159.759 195.463 158.701 195.247 158.035 195.282C156.576 195.358 154.087 196.169 153.515 194.99C151.853 191.15 152.597 186.803 152.438 182.715C152.388 181.414 152.707 180.16 153.041 178.836C153.445 177.244 153.902 175.625 154.72 174.156C155.518 172.909 156.148 170.892 157.82 170.805Z" fill="#B4852D"/>
<path d="M156.377 192.441C157.888 192.306 159.604 192.899 160.714 193.642C161.825 194.383 162.256 195.47 162.512 196.538C162.718 197.4 162.887 198.691 161.995 199.142C160.422 199.939 158.331 199.62 156.485 199.616C154.727 199.62 152.763 199.891 151.233 199.142C150.145 198.61 149.554 197.289 149.683 196.229C149.794 195.343 150.957 194.775 151.836 194.262C153.216 193.464 154.688 192.592 156.377 192.441Z" fill="#FDCB96"/>
<path d="M157.561 192.186C158.697 192.237 159.962 192.205 160.909 192.72C161.611 193.1 162.012 193.976 161.952 194.735C161.941 195.087 161.261 195.178 160.747 195.245C158.762 195.494 156.777 195.619 154.72 195.537C153.796 195.499 152.779 195.386 152.051 194.881C151.674 194.618 151.963 194.041 152.18 193.642C152.459 193.134 152.939 192.583 153.558 192.441C154.845 192.066 156.254 192.127 157.561 192.186Z" fill="#CC9832"/>
<path d="M186.389 135.415C188.945 135.71 187.994 135.78 188.12 138.458C188.623 149.17 189.609 160.053 188.12 170.828C187.752 173.406 185.397 174.853 182.925 175.808C179.796 177.018 176.071 176.638 172.536 176.638C168.543 176.638 164.138 177.059 160.414 175.808C157.71 174.887 154.988 173.244 154.527 170.552C152.683 159.78 153.608 148.841 154.181 137.905C154.323 135.17 154.12 135.588 156.605 135.415C166.548 134.722 176.6 134.515 186.389 135.415Z" fill="url(#paint0_linear)"/>
<path d="M181.066 143.56C182.654 143.754 182.064 143.8 182.142 145.563C182.455 152.614 183.068 159.778 182.142 166.871C181.913 168.568 180.449 169.52 178.914 170.149C176.969 170.945 174.653 170.696 172.456 170.696C169.975 170.696 167.237 170.972 164.923 170.149C163.242 169.543 161.55 168.461 161.263 166.689C160.117 159.599 160.693 152.398 161.048 145.199C161.137 143.399 161.01 143.673 162.555 143.56C168.735 143.104 174.982 142.968 181.066 143.56Z" fill="url(#paint1_linear)"/>
<path d="M171.595 165.778C172.07 165.778 172.501 165.901 172.813 166.099C173.124 166.296 173.317 166.569 173.317 166.871C173.317 167.173 173.124 167.446 172.813 167.643C172.501 167.841 172.07 167.964 171.595 167.964C171.12 167.964 170.689 167.841 170.378 167.643C170.066 167.446 169.873 167.173 169.873 166.871C169.873 166.569 170.066 166.296 170.378 166.099C170.689 165.901 171.12 165.778 171.595 165.778Z" fill="#FCCDED"/>
<path d="M204.851 165.414C205.813 165.469 207.062 164.361 207.756 164.868C208.794 165.867 208.656 167.506 208.617 168.692C208.591 169.529 208.195 170.417 207.514 171.009C207.169 171.313 206.755 171.554 206.298 171.719C205.84 171.884 205.348 171.97 204.851 171.97C204.353 171.97 203.861 171.884 203.403 171.719C202.946 171.554 202.532 171.313 202.188 171.009C201.506 170.417 201.116 169.527 201.084 168.692C201.036 167.513 200.901 165.866 201.945 164.868C202.633 164.359 203.866 165.356 204.851 165.414Z" fill="#FCCD97"/>
<path d="M196.779 148.477C194.101 147.175 190.977 146.142 187.954 146.292C186.655 146.439 185.479 148.347 186.146 149.205C187.225 150.586 189.88 150.347 191.527 151.209C193.642 152.428 195.759 153.711 197.338 155.398C198.766 156.928 199.615 159.077 200.352 161.043C201.147 163.167 199.951 166.269 202.074 167.782C203.569 168.906 207.687 168.405 208.101 166.689C209.06 162.692 207.229 158.405 204.958 154.851C203.143 152.008 199.98 150.04 196.779 148.477Z" fill="url(#paint2_linear)"/>
<path d="M204.743 164.941C205.871 164.941 206.894 165.145 207.634 165.475C208.375 165.804 208.833 166.259 208.833 166.762C208.833 167.264 208.375 167.72 207.634 168.049C206.894 168.379 205.871 168.583 204.743 168.583C203.615 168.583 202.592 168.379 201.852 168.049C201.111 167.72 200.653 167.264 200.653 166.762C200.653 166.259 201.111 165.804 201.852 165.475C202.592 165.145 203.615 164.941 204.743 164.941Z" fill="#CD9934"/>
<path d="M138.555 165.778C139.518 165.834 140.767 164.725 141.461 165.232C142.498 166.231 142.361 167.87 142.322 169.056C142.296 169.893 141.9 170.781 141.218 171.374C140.873 171.677 140.46 171.918 140.002 172.084C139.545 172.249 139.053 172.334 138.555 172.335C138.058 172.334 137.566 172.249 137.108 172.084C136.651 171.918 136.237 171.677 135.892 171.374C135.21 170.781 134.821 169.891 134.788 169.056C134.741 167.877 134.606 166.231 135.649 165.232C136.338 164.723 137.57 165.72 138.555 165.778Z" fill="#FCCD97"/>
<path d="M147.488 147.566C149.231 146.62 151.631 146.284 153.73 146.656C155.218 146.92 157.397 148.28 156.959 149.388C156.42 150.731 153.224 150.529 151.577 151.391C149.462 152.61 147.346 153.893 145.766 155.58C144.338 157.11 143.489 159.259 142.752 161.225C141.957 163.35 143.154 166.451 141.03 167.964C139.535 169.088 135.369 168.58 135.004 166.871C134.164 162.931 136.011 158.837 138.232 155.398C140.289 152.194 143.857 149.651 147.488 147.566Z" fill="url(#paint3_linear)"/>
<path d="M138.663 165.232C139.791 165.232 140.814 165.436 141.554 165.766C142.294 166.095 142.752 166.55 142.752 167.053C142.752 167.556 142.294 168.011 141.554 168.34C140.814 168.67 139.791 168.874 138.663 168.874C137.535 168.874 136.512 168.67 135.772 168.34C135.031 168.011 134.573 167.556 134.573 167.053C134.573 166.55 135.031 166.095 135.772 165.766C136.512 165.436 137.535 165.232 138.663 165.232Z" fill="#CD9934"/>
<path d="M154.483 139.007C156.176 139.007 157.709 139.66 158.82 140.715C159.931 141.77 160.618 143.227 160.618 144.835C160.618 146.442 159.931 147.899 158.82 148.954C157.709 150.01 156.176 150.662 154.483 150.662C152.791 150.662 151.257 150.01 150.147 148.954C149.036 147.899 148.349 146.442 148.349 144.835C148.349 143.227 149.036 141.77 150.147 140.715C151.257 139.66 152.791 139.007 154.483 139.007Z" fill="#CD9934"/>
<path d="M165.332 138.825C167.024 138.825 168.558 139.477 169.668 140.533C170.779 141.588 171.466 143.045 171.466 144.652C171.466 146.26 170.779 147.717 169.668 148.772C168.558 149.828 167.024 150.48 165.332 150.48C163.639 150.48 162.106 149.828 160.995 148.772C159.884 147.717 159.197 146.26 159.197 144.652C159.197 143.045 159.884 141.588 160.995 140.533C162.106 139.477 163.639 138.825 165.332 138.825Z" fill="#CD9934"/>
<path d="M177.299 138.825C178.992 138.825 180.525 139.477 181.636 140.533C182.747 141.588 183.434 143.045 183.434 144.652C183.434 146.26 182.747 147.717 181.636 148.772C180.525 149.828 178.992 150.48 177.299 150.48C175.607 150.48 174.073 149.828 172.963 148.772C171.852 147.717 171.165 146.26 171.165 144.652C171.165 143.045 171.852 141.588 172.963 140.533C174.073 139.477 175.607 138.825 177.299 138.825Z" fill="#CD9934"/>
<path d="M189.138 138.643C190.83 138.643 192.364 139.295 193.474 140.351C194.585 141.406 195.272 142.863 195.272 144.47C195.272 146.078 194.585 147.535 193.474 148.59C192.364 149.645 190.83 150.298 189.138 150.298C187.445 150.298 185.912 149.645 184.801 148.59C183.69 147.535 183.003 146.078 183.003 144.47C183.003 142.863 183.69 141.406 184.801 140.351C185.912 139.295 187.445 138.643 189.138 138.643Z" fill="#CD9934"/>
<path d="M170.949 137.368C176.235 137.368 181.024 137.867 184.492 138.675C187.96 139.483 190.106 140.599 190.106 141.83C190.106 143.061 187.96 144.176 184.492 144.984C181.024 145.792 176.235 146.292 170.949 146.292C165.664 146.292 160.875 145.792 157.407 144.984C153.939 144.176 151.793 143.061 151.793 141.83C151.793 140.599 153.939 139.483 157.407 138.675C160.875 137.867 165.664 137.368 170.949 137.368Z" fill="#CD9934"/>
<path d="M136.08 98.03C139.228 98.03 142.079 99.0506 144.145 100.699C146.209 102.347 147.488 104.623 147.488 107.136C147.488 109.648 146.209 111.925 144.145 113.573C142.079 115.221 139.228 116.242 136.08 116.242C132.932 116.242 130.081 115.221 128.015 113.573C125.95 111.925 124.672 109.648 124.672 107.136C124.672 104.623 125.95 102.347 128.015 100.699C130.081 99.0506 132.932 98.03 136.08 98.03Z" fill="url(#paint4_linear)"/>
<path d="M135.327 101.481C137.171 101.475 138.945 102.078 140.272 103.162C141.538 104.201 142.322 105.635 142.322 107.218C142.322 108.801 141.538 110.235 140.272 111.274C138.945 112.357 137.171 112.96 135.327 112.954C133.482 112.96 131.708 112.357 130.381 111.274C129.115 110.235 128.331 108.801 128.331 107.218C128.331 105.635 129.115 104.202 130.381 103.162C131.708 102.078 133.482 101.475 135.327 101.481Z" fill="#FECC99"/>
<path d="M206.465 98.2121C209.613 98.2121 212.464 99.2327 214.53 100.881C216.594 102.529 217.873 104.806 217.873 107.318C217.873 109.831 216.594 112.107 214.53 113.755C212.464 115.403 209.613 116.424 206.465 116.424C203.317 116.424 200.466 115.403 198.4 113.755C196.336 112.107 195.057 109.831 195.057 107.318C195.057 104.806 196.336 102.529 198.4 100.881C200.466 99.2327 203.317 98.2121 206.465 98.2121Z" fill="url(#paint5_linear)"/>
<path d="M207.649 101.663C209.493 101.657 211.267 102.261 212.594 103.344C213.861 104.383 214.644 105.817 214.644 107.4C214.644 108.983 213.861 110.417 212.594 111.456C211.267 112.539 209.493 113.142 207.649 113.136C205.805 113.142 204.03 112.539 202.703 111.456C201.437 110.417 200.653 108.983 200.653 107.4C200.653 105.817 201.437 104.384 202.703 103.344C204.03 102.261 205.804 101.657 207.649 101.663Z" fill="#FECC99"/>
<path d="M171.657 79.7161C181.292 79.7161 190.024 82.9804 196.346 88.2553C202.668 93.5309 206.581 100.816 206.581 108.854C206.581 116.894 202.668 124.179 196.346 129.454C190.024 134.728 181.292 137.993 171.657 137.993C162.022 137.993 153.291 134.728 146.969 129.454C140.646 124.179 136.732 116.894 136.732 108.854C136.732 100.816 140.646 93.5309 146.969 88.2553C153.291 82.9811 162.021 79.7154 171.657 79.7154V79.7161Z" fill="#CD9933"/>
<path d="M176.761 90.7452C181.579 90.4976 186.692 91.457 190.537 93.6591C194.893 96.211 198.312 100.105 200.008 104.222C201.525 107.882 200.239 111.933 200.008 115.878C199.95 116.864 199.209 115.464 199.577 115.878C201.049 117.532 203.281 118.878 204.528 120.795C205.354 122.325 205.943 124.193 205.604 125.894C205.04 128.718 204.519 132.051 201.945 133.907C196.967 137.48 190.47 140.054 183.864 141.192C175.935 142.6 167.563 142.398 159.326 141.374C153.212 140.614 147.057 138.881 141.891 135.911C139.03 134.203 137.426 131.077 136.51 128.08C135.79 125.713 136.537 123.203 137.587 120.795C138.383 118.974 140.399 117.755 141.891 116.242C142.264 115.864 142.636 115.993 142.752 115.149C143.217 111.776 142.067 108.215 143.183 104.951C144.422 101.338 146.424 97.2884 150.071 94.7519C153.643 92.3493 158.571 91.1831 163.416 91.1095C166.243 91.0694 168.425 93.5419 170.734 94.7519C171.312 95.0542 169.839 95.0906 170.304 94.7519C172.157 93.3991 174.096 90.8829 176.761 90.7452Z" fill="#FFCB99"/>
<path d="M171.814 120.48C175.93 120.484 180.304 119.943 183.861 121.522C186.9 122.877 189.914 125.484 190.07 128.276C190.15 131.125 187.362 133.902 184.441 135.245C180.688 136.971 175.933 136.494 171.593 136.447C167.465 136.494 162.948 136.856 159.188 135.245C156.208 133.97 153.073 131.491 152.869 128.651C152.863 125.872 155.754 123.038 158.683 121.73C162.577 119.99 167.416 120.475 171.814 120.48Z" fill="url(#paint6_linear)"/>
<path d="M146.627 126.076C148.111 126.076 149.457 126.545 150.431 127.304C151.405 128.062 152.008 129.11 152.008 130.265C152.008 131.42 151.405 132.468 150.431 133.226C149.457 133.985 148.111 134.454 146.627 134.454C145.143 134.454 143.797 133.985 142.823 133.226C141.848 132.468 141.246 131.42 141.246 130.265C141.246 129.11 141.848 128.062 142.823 127.304C143.797 126.545 145.143 126.076 146.627 126.076Z" fill="url(#paint7_linear)"/>
<path d="M196.348 125.166C197.833 125.166 199.178 125.635 200.152 126.393C201.127 127.152 201.73 128.199 201.73 129.354C201.73 130.51 201.127 131.557 200.152 132.316C199.178 133.074 197.833 133.543 196.348 133.543C194.864 133.543 193.518 133.074 192.545 132.316C191.57 131.557 190.967 130.51 190.967 129.354C190.967 128.199 191.57 127.152 192.545 126.393C193.518 125.635 194.864 125.166 196.348 125.166Z" fill="url(#paint8_linear)"/>
<path d="M166.645 74.1724C167.234 74.1644 167.159 76.4569 167.936 77.4506C168.703 78.3662 170.156 78.7298 171.165 79.4539C171.977 80.0359 173.227 80.3819 173.532 81.2751C173.808 81.8163 173.112 82.4071 172.554 82.8639C171.917 83.3811 171.116 83.8247 170.196 83.8247C169.276 83.8247 168.268 83.5056 167.838 82.8639C166.688 81.0288 165.79 79.228 165.568 77.2684C165.443 76.1021 166.162 74.0886 166.645 74.1724Z" fill="#CD9933"/>
<path d="M153.644 105.679C155.425 105.679 157.04 106.7 158.209 108.348C159.378 109.996 160.101 112.272 160.101 114.785C160.101 117.297 159.378 119.574 158.209 121.222C157.04 122.87 155.425 123.891 153.644 123.891C151.862 123.891 150.248 122.87 149.079 121.222C147.91 119.574 147.187 117.297 147.187 114.785C147.187 112.272 147.91 109.996 149.079 108.348C150.248 106.7 151.862 105.679 153.644 105.679Z" fill="white"/>
<path d="M155.172 108.175C156.449 108.175 157.606 108.747 158.444 109.67C159.282 110.593 159.8 111.868 159.8 113.275C159.8 114.682 159.282 115.957 158.444 116.879C157.606 117.803 156.449 118.374 155.172 118.374C153.895 118.374 152.738 117.803 151.9 116.879C151.063 115.957 150.544 114.682 150.544 113.275C150.544 111.868 151.063 110.594 151.9 109.67C152.738 108.747 153.895 108.175 155.172 108.175Z" fill="#9A6732"/>
<path d="M188.729 106.043C190.51 106.043 192.124 107.064 193.294 108.712C194.463 110.36 195.186 112.637 195.186 115.149C195.186 117.662 194.463 119.938 193.294 121.586C192.124 123.235 190.51 124.255 188.729 124.255C186.947 124.255 185.333 123.235 184.164 121.586C182.995 119.938 182.271 117.662 182.271 115.149C182.271 112.637 182.995 110.36 184.164 108.712C185.333 107.064 186.947 106.043 188.729 106.043Z" fill="white"/>
<path d="M187.287 108.54C188.563 108.54 189.721 109.111 190.558 110.035C191.396 110.958 191.914 112.232 191.914 113.639C191.914 115.046 191.396 116.321 190.558 117.244C189.721 118.167 188.563 118.738 187.287 118.738C186.01 118.738 184.853 118.167 184.015 117.244C183.177 116.321 182.659 115.046 182.659 113.639C182.659 112.232 183.177 110.958 184.015 110.035C184.853 109.111 186.01 108.54 187.287 108.54Z" fill="#9A6732"/>
<path d="M171.552 119.702C173.215 119.702 174.721 120.029 175.812 120.556C176.904 121.083 177.579 121.812 177.579 122.616C177.579 123.42 176.904 124.149 175.812 124.676C174.721 125.204 173.215 125.53 171.552 125.53C169.89 125.53 168.383 125.204 167.292 124.676C166.2 124.149 165.525 123.42 165.525 122.616C165.525 121.812 166.2 121.083 167.292 120.556C168.383 120.029 169.89 119.702 171.552 119.702Z" fill="#343432"/>
<path d="M171.337 122.61V127.851" stroke="#343432" stroke-width="2.62099" stroke-linecap="round"/>
<path d="M171.301 129.712C173.417 129.711 175.528 129.886 177.603 130.235C178.121 130.322 178.047 130.492 177.921 130.775C177.306 131.916 176.815 133.233 175.647 133.993C174.494 134.742 172.909 135.05 171.457 135.029C170.006 135.004 168.425 134.593 167.288 133.805C166.195 133.049 165.712 131.818 165.131 130.753C165.013 130.454 164.979 130.312 165.46 130.236C167.382 129.929 169.356 129.714 171.301 129.712Z" fill="#343432"/>
<g clip-path="url(#clip2)">
<path d="M203.915 174.731L204.894 171.793H201.954C201.692 171.793 195.503 171.88 191 179.39C188.345 183.817 188.7 189.141 189.344 198.807L189.503 201.184H204.797L203.936 198.312C203.899 198.188 200.248 185.741 203.915 174.731Z" fill="#00925B"/>
<path d="M176.201 197.953C176.162 197.875 172.287 189.882 167.187 166.919L165.917 161.201L163.323 166.392C163.042 166.955 156.463 180.401 159.163 199.31L159.43 201.184H174.36L177.794 201.18L176.201 197.953Z" fill="#00C47A"/>
<path d="M181.16 170.111C178.72 163.459 175.987 159.601 175.872 159.441L172.557 154.806L172.139 160.604C170.533 182.908 165.403 196.547 165.352 196.681L164.188 199.715H184.402L184.604 197.749C185.814 185.967 183.399 176.216 181.16 170.111Z" fill="#60DD4D"/>
<path d="M181.16 170.111C179.652 165.999 178.032 162.957 176.988 161.194V199.715H184.402L184.604 197.749C185.814 185.967 183.399 176.216 181.16 170.111Z" fill="#00C47A"/>
<path d="M196.406 197.267H157.57C152.599 197.267 148.555 199.799 148.555 202.912C148.555 203.291 148.616 203.671 148.737 204.042L149.078 205.083H204.897L205.238 204.042C205.36 203.671 205.421 203.291 205.421 202.912C205.421 199.799 201.377 197.267 196.406 197.267Z" fill="#FF9900"/>
<path d="M196.406 197.267H176.988V205.083H204.897L205.238 204.042C205.36 203.671 205.421 203.291 205.421 202.912C205.421 199.799 201.377 197.267 196.406 197.267Z" fill="#BF7300"/>
</g>
<g clip-path="url(#clip3)">
<path fill-rule="evenodd" clip-rule="evenodd" d="M94.501 31.3958C96.3055 30.8696 113.504 25.9543 114.306 29.511C114.819 31.7838 108.362 31.1884 107.598 32.7044C107.555 32.7903 107.515 32.8798 107.481 32.9715C105.323 33.1545 103.212 33.553 101.323 34.4992C100.257 34.5815 99.1122 34.8054 98.1684 35.2308C98.0479 35.2848 97.9319 35.3235 97.8182 35.3549C97.7922 34.6197 97.5328 33.8498 97.4041 33.2099C97.1854 32.127 95.8434 31.4173 94.501 31.3958Z" fill="#BDB36D"/>
<path fill-rule="evenodd" clip-rule="evenodd" d="M140.472 60.4916C134.102 61.7548 127.73 63.2707 122.124 60.7443C118.301 58.9761 113.969 57.2078 111.42 52.9132C108.617 47.6084 106.324 42.3038 107.088 36.2408C105.983 36.5152 104.802 36.713 103.628 36.8794C103.824 36.2103 104.116 35.5456 104.54 35.2304C105.215 34.728 103.424 34.3368 101.323 34.4991C103.211 33.553 105.323 33.1545 107.481 32.9715C106.9 34.4987 107.516 36.7463 110.401 36.7463C110.401 36.7463 119.066 57.4601 143.276 56.9551L145.487 57.8576C145.793 57.9827 146.078 58.1507 146.335 58.3564C145.504 58.7708 144.653 59.1462 143.786 59.4811C142.766 59.9865 141.492 60.2388 140.472 60.4916Z" fill="#FFE06C"/>
<mask id="mask0" mask-type="alpha" maskUnits="userSpaceOnUse" x="103" y="36" width="45" height="33">
<path d="M147.608 36.2409H103.265V68.9195H147.608V36.2409Z" fill="white"/>
</mask>
<g mask="url(#mask0)">
<path fill-rule="evenodd" clip-rule="evenodd" d="M107.088 36.2409C106.323 42.3038 108.617 47.6085 111.42 52.9132C113.969 57.2078 118.301 58.9761 122.124 60.7443C127.731 63.2703 134.102 61.7548 140.473 60.4916C141.492 60.2393 142.766 59.9865 143.786 59.4811C144.653 59.1461 145.503 58.7708 146.334 58.3564C146.733 58.6756 147.054 59.0783 147.274 59.5351C147.494 59.9919 147.608 60.4913 147.608 60.997L144.997 64.0703C143.95 65.3052 142.585 66.2407 141.046 66.7793C132.94 69.6106 107.538 75.4001 103.265 38.7673C103.265 38.7673 103.353 37.8184 103.628 36.879C104.802 36.7135 105.983 36.5147 107.088 36.2409Z" fill="#FDD157"/>
</g>
<path fill-rule="evenodd" clip-rule="evenodd" d="M145.011 57.6629C145.011 57.6629 144.465 59.7338 145.4 60.4916C146.334 61.2493 147.258 61.409 147.258 61.409L149.137 58.9761C149.137 58.9761 148.627 57.1233 148.118 57.1233C147.608 57.1233 145.011 57.6629 145.011 57.6629Z" fill="#AAA162"/>
</g>
<defs>
<linearGradient id="paint0_linear" x1="153.435" y1="134.815" x2="153.435" y2="176.706" gradientUnits="userSpaceOnUse">
<stop stop-color="#9F7A29"/>
<stop offset="1" stop-color="#D29839"/>
</linearGradient>
<linearGradient id="paint1_linear" x1="160.585" y1="143.165" x2="160.585" y2="170.74" gradientUnits="userSpaceOnUse">
<stop stop-color="#F3B271"/>
<stop offset="1" stop-color="#FFCB99"/>
</linearGradient>
<linearGradient id="paint2_linear" x1="208.361" y1="146.277" x2="208.361" y2="168.383" gradientUnits="userSpaceOnUse">
<stop stop-color="#AC7F2E"/>
<stop offset="1" stop-color="#D29839"/>
</linearGradient>
<linearGradient id="paint3_linear" x1="134.797" y1="146.507" x2="134.797" y2="168.564" gradientUnits="userSpaceOnUse">
<stop stop-color="#AC7F2E"/>
<stop offset="1" stop-color="#D29839"/>
</linearGradient>
<linearGradient id="paint4_linear" x1="124.672" y1="98.03" x2="147.488" y2="98.03" gradientUnits="userSpaceOnUse">
<stop stop-color="#CBBD7C"/>
<stop offset="1" stop-color="#B4812D"/>
</linearGradient>
<linearGradient id="paint5_linear" x1="195.057" y1="98.2121" x2="217.873" y2="98.2121" gradientUnits="userSpaceOnUse">
<stop stop-color="#B4812D"/>
<stop offset="1" stop-color="#CBBD7C"/>
</linearGradient>
<linearGradient id="paint6_linear" x1="152.869" y1="120.394" x2="152.869" y2="136.543" gradientUnits="userSpaceOnUse">
<stop stop-color="#FFCB6B"/>
<stop offset="1" stop-color="#FFCB99"/>
</linearGradient>
<linearGradient id="paint7_linear" x1="141.246" y1="126.076" x2="152.008" y2="126.076" gradientUnits="userSpaceOnUse">
<stop stop-color="#FE9E6C"/>
<stop offset="1" stop-color="#FFCB99"/>
</linearGradient>
<linearGradient id="paint8_linear" x1="190.967" y1="125.166" x2="201.73" y2="125.166" gradientUnits="userSpaceOnUse">
<stop stop-color="#FE9E6C"/>
<stop offset="1" stop-color="#FFCB99"/>
</linearGradient>
<clipPath id="clip0">
<rect width="56.8665" height="92.498" fill="white" transform="translate(97.7193 120.502)"/>
</clipPath>
<clipPath id="clip1">
<rect width="56.6383" height="92.417" fill="white" transform="translate(51.4714 120.384)"/>
</clipPath>
<clipPath id="clip2">
<rect width="56.8665" height="60.251" fill="white" transform="translate(148.555 145.176)"/>
</clipPath>
<clipPath id="clip3">
<rect width="55.0929" height="41.1404" fill="white" transform="translate(94.2728 28.0039)"/>
</clipPath>
</defs>
</svg>
