<svg width="142" height="138" viewBox="0 0 142 138" fill="none" xmlns="http://www.w3.org/2000/svg">
<path d="M62.4532 132.502H49.9064C47.3207 132.502 45.3061 127.601 45.6025 122.013L50.2498 34.179C50.5011 29.4271 52.3526 25.8406 54.5537 25.8406H57.8061C60.0072 25.8406 61.8587 29.4271 62.11 34.179L66.7573 122.013C67.0528 127.595 65.0418 132.502 62.4532 132.502Z" fill="#F2C500"/>
<path d="M66.7573 122.013L62.1099 34.179C61.8586 29.4271 60.0071 25.8406 57.806 25.8406H56.1799V132.502H62.4533C65.039 132.501 67.0534 127.601 66.7573 122.013Z" fill="#F59D00"/>
<path d="M111.897 29.4325C105.47 -0.427176 68.2211 -3.55352 56.1802 21.5691C44.1384 -3.55481 6.89488 -0.448225 0.462836 29.4325C-0.466743 33.7506 4.95351 36.4695 7.98385 33.3359C14.2467 26.8594 23.5931 23.9923 32.5925 24.7856C13.9715 31.1457 5.53725 54.7259 21.6796 72.6358C24.6162 75.894 30.1071 73.3239 29.3345 68.9945C27.1341 56.6584 33.9759 39.3354 55.4955 34.5775C55.7393 34.5231 55.9853 34.4445 56.1798 34.3668C56.5034 34.4958 56.9162 34.6073 57.2858 34.6522C73.405 36.6489 85.8301 53.2679 83.025 68.9943C82.2509 73.3327 87.756 75.8799 90.68 72.6356C106.862 54.6819 98.312 31.1193 79.7673 24.7852C88.7791 23.991 98.1214 26.8674 104.376 33.3355C107.426 36.4899 112.823 33.7341 111.897 29.4325Z" fill="#65C6BB"/>
<path d="M111.897 29.4325C105.472 -0.417519 68.2265 -3.56555 56.1802 21.5691V34.3668C56.4924 34.4918 56.9061 34.6056 57.2862 34.6522C73.4054 36.6484 85.8305 53.2678 83.0254 68.9943C82.2513 73.3327 87.7564 75.8799 90.6803 72.6358C106.863 54.6814 98.3117 31.1191 79.7677 24.7854C88.7798 23.9912 98.1218 26.8676 104.376 33.3361C107.426 36.4899 112.823 33.7336 111.897 29.4325Z" fill="#57BDB7"/>
<path d="M68.99 126.568L66.5495 98.4143H56.1799H45.8103L43.3698 126.568C43.204 128.478 43.7522 130.375 44.8371 131.648C47.4655 134.732 50.0397 131.779 56.1801 131.734C62.3205 131.779 64.8947 134.732 67.5231 131.648C68.6075 130.375 69.1558 128.478 68.99 126.568Z" fill="#F59D00"/>
<g clip-path="url(#clip0)">
<path d="M72.7806 107.961C69.863 100.491 65.8529 100.406 65.6836 100.406H63.7785L64.4125 103.328C66.7798 114.237 64.4226 126.661 64.3989 126.783L63.8411 129.639H73.7502L73.8528 127.275C74.2704 117.66 74.5003 112.364 72.7806 107.961Z" fill="#80E471"/>
<path d="M99.3044 103.328L99.9385 100.406H98.0333C97.864 100.406 93.8539 100.491 90.9364 107.961C89.2167 112.364 89.4467 117.66 89.864 127.275L89.9666 129.639H99.8757L99.3179 126.783C99.2938 126.659 96.9283 114.278 99.3044 103.328Z" fill="#00925B"/>
<path d="M81.3485 126.425C81.3235 126.348 78.8125 118.397 75.5085 95.557L74.6858 89.8696L73.0051 95.0333C72.8228 95.5934 68.5607 108.967 70.3098 127.775L70.4831 129.639H80.1557L82.3808 129.634L81.3485 126.425Z" fill="#00C47A"/>
<path d="M84.5612 98.7318C83.5842 94.6426 82.5351 91.6167 81.8583 89.8628V128.177H86.662L86.7928 126.222C87.5769 114.503 86.012 104.804 84.5612 98.7318Z" fill="#00C47A"/>
<path d="M94.439 128.104H69.2778C66.0571 128.104 63.4368 129.529 63.4368 131.28C63.4368 131.494 63.4766 131.708 63.5553 131.916L63.7762 132.502H99.9405L100.161 131.916C100.24 131.708 100.28 131.494 100.28 131.28C100.28 129.529 97.6597 128.104 94.439 128.104Z" fill="#FF9900"/>
<path d="M94.4389 128.104H81.8583V132.502H99.9405L100.161 131.916C100.24 131.708 100.28 131.494 100.28 131.28C100.28 129.529 97.6597 128.104 94.4389 128.104Z" fill="#BF7300"/>
</g>
<g clip-path="url(#clip1)">
<path d="M64.351 127.983H39.2908C36.083 127.983 33.4733 129.407 33.4733 131.157C33.4733 131.37 33.5129 131.584 33.5912 131.792L33.8113 132.378H69.8305L70.0505 131.792C70.1289 131.584 70.1685 131.37 70.1685 131.157C70.1686 129.407 67.5588 127.983 64.351 127.983Z" fill="#FF9900"/>
<path d="M64.351 127.983H51.8209V132.378H69.8305L70.0506 131.792C70.1289 131.584 70.1685 131.37 70.1685 131.157C70.1686 129.407 67.5589 127.983 64.351 127.983Z" fill="#BF7300"/>
</g>
<g clip-path="url(#clip2)">
<path d="M120.225 110.615C117.901 110.493 114.815 111.192 113.615 112.361C112.946 112.962 115.677 113.384 116.488 114.155C117.277 114.905 117.821 115.835 118.217 116.798C118.567 117.647 118.62 118.576 118.691 119.512C118.855 121.685 118.43 123.905 118.886 126.048C118.968 126.591 119.654 126.451 120.086 126.473C121.031 126.523 122.643 127.048 123.014 126.284C124.091 123.797 123.609 120.98 123.711 118.332C123.744 117.488 123.537 116.676 123.321 115.819C123.059 114.787 122.763 113.738 122.233 112.786C121.716 111.978 121.308 110.672 120.225 110.615Z" fill="#B4852D"/>
<path d="M121.494 124.515C120.516 124.427 119.404 124.812 118.684 125.293C117.965 125.773 117.685 126.478 117.52 127.169C117.386 127.728 117.276 128.564 117.854 128.857C118.873 129.373 120.228 129.166 121.424 129.164C122.563 129.166 123.836 129.342 124.827 128.857C125.532 128.512 125.915 127.656 125.831 126.969C125.759 126.395 125.006 126.027 124.437 125.695C123.542 125.178 122.589 124.613 121.494 124.515V124.515Z" fill="#FDCB96"/>
<path d="M120.755 124.444C120.019 124.477 119.2 124.457 118.586 124.79C118.131 125.036 117.872 125.604 117.91 126.096C117.917 126.324 118.358 126.383 118.691 126.426C119.977 126.587 121.263 126.668 122.596 126.615C123.194 126.59 123.853 126.518 124.325 126.19C124.569 126.02 124.382 125.646 124.241 125.388C124.061 125.058 123.75 124.701 123.349 124.609C122.515 124.366 121.602 124.406 120.755 124.444V124.444Z" fill="#CC9832"/>
<path d="M83.1303 96.4795C85.1306 97.1842 86.7873 98.5359 88.2901 99.8541C89.1123 100.631 89.6623 101.636 89.9635 102.639C90.4695 104.323 90.3785 106.103 90.605 107.83C90.812 109.406 90.5833 111.018 91.2186 112.479C91.5851 113.32 92.3772 114.075 93.3104 114.32C94.8801 114.769 96.6228 114.551 98.1913 114.414C100.074 114.252 101.963 114.049 103.77 113.494C105.069 113.095 106.026 111.831 107.34 111.701C109.364 111.5 114.256 111.742 113.392 112.479C111.87 113.778 106.053 115.32 102.168 116.148C99.6093 116.693 96.9262 116.845 94.3424 116.656C92.7353 116.503 90.9576 116.102 89.8799 115.146C88.7202 114.117 88.439 112.535 88.1506 111.134C87.7189 109.037 88.1389 106.922 87.7323 104.857C87.4868 103.612 87.1371 102.209 86.1425 101.199C84.8701 99.9287 83.1018 98.9904 81.2337 98.3202C78.8423 97.4631 75.9383 97.8818 73.6474 96.7863C73.0003 96.4767 73.3941 94.9749 74.1494 94.9456C77.1533 94.8295 80.3139 95.4875 83.1303 96.4795V96.4795Z" fill="#A97A2A"/>
<path d="M102.375 110.662C104.699 110.54 107.785 111.239 108.985 112.409C109.654 113.009 106.923 113.431 106.112 114.202C105.323 114.952 104.779 115.882 104.383 116.845C104.033 117.695 103.98 118.623 103.909 119.559C103.745 121.732 104.17 123.952 103.714 126.096C103.632 126.638 102.946 126.498 102.515 126.52C101.57 126.57 99.9569 127.095 99.586 126.332C98.5094 123.844 98.9913 121.027 98.8887 118.379C98.8558 117.536 99.0627 116.723 99.2792 115.866C99.5408 114.834 99.837 113.785 100.367 112.833C100.884 112.025 101.292 110.719 102.375 110.662Z" fill="#B4852D"/>
<path d="M101.441 124.68C102.419 124.592 103.531 124.977 104.25 125.458C104.97 125.939 105.249 126.643 105.415 127.335C105.548 127.893 105.658 128.729 105.08 129.022C104.061 129.538 102.706 129.331 101.51 129.329C100.371 129.331 99.099 129.507 98.1077 129.022C97.4026 128.677 97.02 127.821 97.1037 127.134C97.1756 126.56 97.9287 126.192 98.4982 125.86C99.3924 125.343 100.346 124.778 101.441 124.68Z" fill="#FDCB96"/>
<path d="M102.208 124.515C102.943 124.548 103.763 124.527 104.376 124.861C104.832 125.107 105.091 125.675 105.053 126.166C105.045 126.394 104.605 126.453 104.272 126.497C102.986 126.658 101.699 126.739 100.367 126.686C99.7683 126.661 99.1095 126.588 98.6376 126.261C98.3933 126.09 98.5807 125.717 98.7213 125.459C98.902 125.129 99.2127 124.772 99.6138 124.68C100.448 124.437 101.361 124.476 102.208 124.515Z" fill="#CC9832"/>
<path d="M120.885 87.7336C122.541 87.925 121.925 87.9702 122.007 89.7054C122.332 96.6451 122.971 103.696 122.007 110.677C121.768 112.347 120.242 113.285 118.641 113.904C116.613 114.688 114.2 114.442 111.909 114.442C109.323 114.442 106.469 114.714 104.056 113.904C102.304 113.307 100.541 112.243 100.242 110.498C99.0471 103.52 99.6466 96.4322 100.017 89.3468C100.11 87.5752 99.9779 87.8455 101.588 87.7336C108.03 87.2848 114.543 87.1507 120.885 87.7336Z" fill="url(#paint0_linear)"/>
<path d="M117.436 93.0106C118.465 93.1366 118.083 93.1663 118.133 94.3085C118.336 98.8767 118.733 103.518 118.133 108.114C117.985 109.213 117.037 109.83 116.042 110.237C114.781 110.753 113.281 110.591 111.858 110.591C110.25 110.591 108.476 110.771 106.977 110.237C105.888 109.845 104.792 109.144 104.606 107.996C103.864 103.402 104.236 98.7365 104.467 94.0725C104.524 92.9063 104.442 93.0842 105.443 93.0106C109.447 92.7151 113.495 92.6268 117.436 93.0106Z" fill="url(#paint1_linear)"/>
<path d="M111.3 107.406C111.608 107.406 111.887 107.485 112.089 107.613C112.291 107.741 112.416 107.918 112.416 108.114C112.416 108.309 112.291 108.486 112.089 108.614C111.887 108.742 111.608 108.822 111.3 108.822C110.992 108.822 110.713 108.742 110.511 108.614C110.309 108.486 110.184 108.309 110.184 108.114C110.184 107.918 110.309 107.741 110.511 107.613C110.713 107.485 110.992 107.406 111.3 107.406Z" fill="#FCCDED"/>
<path d="M132.846 107.17C133.469 107.206 134.279 106.487 134.728 106.816C135.401 107.463 135.311 108.525 135.286 109.294C135.269 109.836 135.013 110.411 134.571 110.795C134.348 110.991 134.08 111.148 133.783 111.255C133.487 111.362 133.168 111.417 132.846 111.417C132.523 111.417 132.205 111.362 131.908 111.255C131.612 111.148 131.344 110.991 131.12 110.795C130.679 110.411 130.427 109.834 130.405 109.294C130.375 108.529 130.287 107.463 130.963 106.816C131.409 106.486 132.208 107.132 132.846 107.17Z" fill="#FCCD97"/>
<path d="M127.616 96.1964C125.881 95.353 123.857 94.6837 121.899 94.7805C121.057 94.8758 120.295 96.1124 120.727 96.6683C121.426 97.5627 123.146 97.4079 124.213 97.9663C125.584 98.7563 126.955 99.5875 127.979 100.68C128.904 101.672 129.454 103.064 129.931 104.338C130.447 105.714 129.671 107.724 131.047 108.704C132.016 109.432 134.684 109.108 134.951 107.996C135.573 105.406 134.386 102.628 132.915 100.326C131.74 98.484 129.69 97.2092 127.616 96.1964Z" fill="url(#paint2_linear)"/>
<path d="M132.776 106.863C133.507 106.863 134.169 106.995 134.649 107.209C135.129 107.422 135.426 107.717 135.426 108.043C135.426 108.368 135.129 108.663 134.649 108.877C134.169 109.091 133.507 109.223 132.776 109.223C132.045 109.223 131.383 109.091 130.903 108.877C130.423 108.663 130.126 108.368 130.126 108.043C130.126 107.717 130.423 107.422 130.903 107.209C131.383 106.995 132.045 106.863 132.776 106.863Z" fill="#CD9934"/>
<path d="M89.8939 107.406C90.5175 107.442 91.3269 106.723 91.7765 107.052C92.4487 107.699 92.3594 108.761 92.3343 109.53C92.3176 110.072 92.061 110.647 91.6192 111.031C91.3958 111.227 91.1279 111.384 90.8314 111.491C90.535 111.598 90.2161 111.653 89.8939 111.653C89.5716 111.653 89.2527 111.598 88.9563 111.491C88.6599 111.384 88.3919 111.227 88.1685 111.031C87.7267 110.647 87.4746 110.07 87.4534 109.53C87.4227 108.765 87.3351 107.699 88.0112 107.052C88.4575 106.722 89.2557 107.368 89.8939 107.406V107.406Z" fill="#FCCD97"/>
<path d="M95.6812 95.6064C96.8108 94.9933 98.3654 94.7753 99.7254 95.0164C100.689 95.1878 102.101 96.0685 101.817 96.7863C101.469 97.6566 99.3979 97.5259 98.3308 98.0842C96.9603 98.8743 95.5891 99.7055 94.5656 100.798C93.6407 101.79 93.0907 103.182 92.6132 104.456C92.0978 105.832 92.8731 107.842 91.4976 108.822C90.5286 109.55 87.8294 109.221 87.5928 108.114C87.049 105.561 88.2455 102.908 89.6847 100.68C91.0173 98.6044 93.3289 96.9572 95.6812 95.6064Z" fill="url(#paint3_linear)"/>
<path d="M89.9636 107.052C90.6943 107.052 91.357 107.184 91.8367 107.398C92.3165 107.611 92.6132 107.906 92.6132 108.232C92.6132 108.557 92.3165 108.852 91.8367 109.066C91.357 109.279 90.6943 109.412 89.9636 109.412C89.2329 109.412 88.5702 109.279 88.0904 109.066C87.6107 108.852 87.314 108.557 87.314 108.232C87.314 107.906 87.6107 107.611 88.0904 107.398C88.5702 107.184 89.2329 107.052 89.9636 107.052V107.052Z" fill="#CD9934"/>
<path d="M100.213 90.0607C101.31 90.0607 102.304 90.4836 103.023 91.1675C103.743 91.8509 104.188 92.7949 104.188 93.8365C104.188 94.8781 103.743 95.8221 103.023 96.5055C102.304 97.1894 101.31 97.6123 100.213 97.6123C99.1168 97.6123 98.1233 97.1894 97.4037 96.5055C96.6842 95.8221 96.239 94.8781 96.239 93.8365C96.239 92.7949 96.6842 91.8509 97.4037 91.1675C98.1233 90.4836 99.1168 90.0607 100.213 90.0607Z" fill="#CD9934"/>
<path d="M107.242 89.9427C108.339 89.9427 109.332 90.3656 110.052 91.0495C110.771 91.7329 111.216 92.6769 111.216 93.7185C111.216 94.7602 110.771 95.7041 110.052 96.3875C109.332 97.0714 108.339 97.4943 107.242 97.4943C106.145 97.4943 105.152 97.0714 104.432 96.3875C103.713 95.7041 103.268 94.7602 103.268 93.7185C103.268 92.6769 103.713 91.7329 104.432 91.0495C105.152 90.3656 106.145 89.9427 107.242 89.9427Z" fill="#CD9934"/>
<path d="M114.996 89.9427C116.092 89.9427 117.086 90.3656 117.805 91.0495C118.525 91.7329 118.97 92.6769 118.97 93.7185C118.97 94.7602 118.525 95.7041 117.805 96.3875C117.086 97.0714 116.092 97.4943 114.996 97.4943C113.899 97.4943 112.905 97.0714 112.186 96.3875C111.466 95.7041 111.021 94.7602 111.021 93.7185C111.021 92.6769 111.466 91.7329 112.186 91.0495C112.905 90.3656 113.899 89.9427 114.996 89.9427Z" fill="#CD9934"/>
<path d="M122.666 89.8248C123.762 89.8248 124.756 90.2476 125.475 90.9315C126.195 91.6149 126.64 92.5589 126.64 93.6005C126.64 94.6422 126.195 95.5861 125.475 96.2695C124.756 96.9534 123.762 97.3763 122.666 97.3763C121.569 97.3763 120.575 96.9534 119.856 96.2695C119.136 95.5861 118.691 94.6422 118.691 93.6005C118.691 92.5589 119.136 91.6149 119.856 90.9315C120.575 90.2476 121.569 89.8248 122.666 89.8248Z" fill="#CD9934"/>
<path d="M110.882 88.9988C114.306 88.9988 117.409 89.3226 119.656 89.846C121.902 90.3694 123.293 91.092 123.293 91.8896C123.293 92.6873 121.902 93.4098 119.656 93.9333C117.409 94.4567 114.306 94.7804 110.882 94.7804C107.457 94.7804 104.355 94.4567 102.108 93.9333C99.8609 93.4098 98.4703 92.6873 98.4703 91.8896C98.4703 91.092 99.8609 90.3694 102.108 89.846C104.355 89.3226 107.457 88.9988 110.882 88.9988Z" fill="#CD9934"/>
<path d="M88.2901 63.5124C90.3295 63.5124 92.177 64.1736 93.5152 65.2417C94.8528 66.3093 95.6812 67.7842 95.6812 69.412C95.6812 71.0399 94.8528 72.5148 93.5152 73.5824C92.177 74.6504 90.3295 75.3117 88.2901 75.3117C86.2507 75.3117 84.4033 74.6504 83.0651 73.5824C81.7274 72.5148 80.899 71.0399 80.899 69.412C80.899 67.7842 81.7274 66.3093 83.0651 65.2417C84.4033 64.1736 86.2507 63.5124 88.2901 63.5124Z" fill="url(#paint4_linear)"/>
<path d="M87.802 65.7481C88.9969 65.7446 90.1464 66.1354 91.0061 66.8374C91.8267 67.5105 92.3343 68.4398 92.3343 69.4649C92.3343 70.4905 91.8267 71.4198 91.0061 72.0928C90.1463 72.7947 88.9968 73.1853 87.802 73.1817C86.6072 73.1853 85.4578 72.7947 84.5979 72.0928C83.7774 71.4198 83.2698 70.4905 83.2698 69.4649C83.2698 68.4398 83.7774 67.5109 84.5979 66.8374C85.4577 66.1354 86.6072 65.7446 87.802 65.7481V65.7481Z" fill="#FECC99"/>
<path d="M133.892 63.6304C135.931 63.6304 137.779 64.2916 139.117 65.3597C140.454 66.4273 141.283 67.9022 141.283 69.53C141.283 71.1579 140.454 72.6328 139.117 73.7004C137.779 74.7684 135.931 75.4297 133.892 75.4297C131.852 75.4297 130.005 74.7684 128.667 73.7004C127.329 72.6328 126.501 71.1579 126.501 69.53C126.501 67.9022 127.329 66.4273 128.667 65.3597C130.005 64.2916 131.852 63.6304 133.892 63.6304Z" fill="url(#paint5_linear)"/>
<path d="M134.659 65.8661C135.854 65.8626 137.003 66.2533 137.863 66.9554C138.683 67.6284 139.191 68.5578 139.191 69.5829C139.191 70.6085 138.683 71.5378 137.863 72.2108C137.003 72.9127 135.853 73.3033 134.659 73.2996C133.464 73.3033 132.314 72.9127 131.455 72.2108C130.634 71.5378 130.126 70.6085 130.126 69.5829C130.126 68.5578 130.634 67.6289 131.455 66.9554C132.314 66.2533 133.464 65.8626 134.659 65.8661V65.8661Z" fill="#FECC99"/>
<path d="M111.34 51.6471C117.582 51.6471 123.24 53.762 127.336 57.1795C131.432 60.5975 133.967 65.3172 133.967 70.5254C133.967 75.7341 131.432 80.4538 127.336 83.8713C123.24 87.2884 117.583 89.4042 111.34 89.4042C105.098 89.4042 99.4409 87.2889 95.3448 83.8713C91.2488 80.4538 88.713 75.7341 88.713 70.5254C88.713 65.3172 91.2488 60.5975 95.3448 57.1795C99.4409 53.7624 105.097 51.6466 111.34 51.6466V51.6471Z" fill="#CD9933"/>
<path d="M114.647 58.7927C117.769 58.6322 121.081 59.2538 123.572 60.6806C126.395 62.3339 128.61 64.857 129.708 67.5241C130.691 69.8953 129.858 72.52 129.708 75.0757C129.671 75.7147 129.19 74.8076 129.429 75.0757C130.383 76.1475 131.829 77.0192 132.637 78.2615C133.172 79.2531 133.554 80.4632 133.334 81.5653C132.969 83.3946 132.631 85.5544 130.963 86.7569C127.738 89.0715 123.529 90.739 119.249 91.4766C114.112 92.389 108.688 92.2578 103.351 91.5946C99.3901 91.1019 95.4023 89.9791 92.0554 88.0549C90.2018 86.9486 89.162 84.9233 88.569 82.9812C88.1021 81.4477 88.5863 79.8218 89.2663 78.2615C89.7823 77.082 91.0887 76.2919 92.0554 75.3117C92.2969 75.0667 92.5379 75.1502 92.6132 74.6037C92.9144 72.418 92.1692 70.111 92.8921 67.9961C93.6948 65.6556 94.9917 63.0319 97.3547 61.3885C99.669 59.832 102.862 59.0763 106.001 59.0287C107.832 59.0027 109.246 60.6046 110.742 61.3885C111.117 61.5844 110.162 61.608 110.463 61.3885C111.664 60.5121 112.92 58.8819 114.647 58.7927Z" fill="#FFCB99"/>
<path d="M111.442 78.0572C114.108 78.0604 116.942 77.7093 119.247 78.7324C121.216 79.6102 123.169 81.2995 123.27 83.1081C123.321 84.954 121.515 86.7534 119.623 87.6237C117.191 88.7419 114.111 88.4329 111.298 88.4021C108.624 88.4329 105.698 88.6674 103.261 87.6237C101.331 86.7977 99.2996 85.1911 99.1674 83.3512C99.1636 81.5507 101.037 79.7151 102.934 78.8675C105.458 77.74 108.592 78.0545 111.442 78.0572Z" fill="url(#paint6_linear)"/>
<path d="M95.1234 81.6833C96.0851 81.6833 96.9569 81.9872 97.5878 82.4785C98.2193 82.9699 98.6097 83.6486 98.6097 84.3971C98.6097 85.1456 98.2193 85.8243 97.5878 86.3157C96.9569 86.807 96.0851 87.1109 95.1234 87.1109C94.1617 87.1109 93.2898 86.807 92.6589 86.3157C92.0275 85.8243 91.637 85.1456 91.637 84.3971C91.637 83.6486 92.0275 82.9699 92.6589 82.4785C93.2898 81.9872 94.1617 81.6833 95.1234 81.6833Z" fill="url(#paint7_linear)"/>
<path d="M127.337 81.0933C128.299 81.0933 129.171 81.3972 129.802 81.8886C130.433 82.3799 130.824 83.0586 130.824 83.8071C130.824 84.5557 130.433 85.2344 129.802 85.7257C129.171 86.217 128.299 86.521 127.337 86.521C126.376 86.521 125.504 86.217 124.873 85.7257C124.241 85.2344 123.851 84.5557 123.851 83.8071C123.851 83.0586 124.241 82.3799 124.873 81.8886C125.504 81.3972 126.376 81.0933 127.337 81.0933Z" fill="url(#paint8_linear)"/>
<path d="M108.093 48.0554C108.475 48.0502 108.426 49.5355 108.929 50.1792C109.426 50.7725 110.367 51.008 111.021 51.4772C111.548 51.8543 112.357 52.0784 112.555 52.6571C112.734 53.0078 112.283 53.3905 111.921 53.6864C111.509 54.0215 110.99 54.309 110.394 54.309C109.797 54.309 109.144 54.1023 108.866 53.6864C108.12 52.4976 107.539 51.3308 107.395 50.0612C107.314 49.3056 107.78 48.0011 108.093 48.0554Z" fill="#CD9933"/>
<path d="M99.6696 68.4681C100.824 68.4681 101.87 69.1293 102.627 70.1974C103.385 71.265 103.853 72.7399 103.853 74.3677C103.853 75.9955 103.385 77.4705 102.627 78.5381C101.87 79.6061 100.824 80.2674 99.6696 80.2674C98.5155 80.2674 97.4696 79.6061 96.712 78.5381C95.9545 77.4705 95.486 75.9955 95.486 74.3677C95.486 72.7399 95.9545 71.265 96.712 70.1974C97.4696 69.1293 98.5155 68.4681 99.6696 68.4681Z" fill="white"/>
<path d="M100.66 70.0855C101.487 70.0855 102.237 70.4556 102.779 71.054C103.322 71.652 103.658 72.478 103.658 73.3893C103.658 74.3012 103.322 75.1271 102.779 75.7246C102.237 76.3231 101.487 76.6931 100.66 76.6931C99.8325 76.6931 99.0828 76.3231 98.54 75.7246C97.9972 75.1271 97.6614 74.3012 97.6614 73.3893C97.6614 72.478 97.9972 71.6525 98.54 71.054C99.0828 70.4556 99.8325 70.0855 100.66 70.0855Z" fill="#9A6732"/>
<path d="M122.401 68.7041C123.555 68.7041 124.601 69.3653 125.358 70.4334C126.116 71.501 126.584 72.9759 126.584 74.6037C126.584 76.2315 126.116 77.7064 125.358 78.774C124.601 79.8421 123.555 80.5033 122.401 80.5033C121.247 80.5033 120.201 79.8421 119.443 78.774C118.686 77.7064 118.217 76.2315 118.217 74.6037C118.217 72.9759 118.686 71.501 119.443 70.4334C120.201 69.3653 121.247 68.7041 122.401 68.7041Z" fill="white"/>
<path d="M121.466 70.3215C122.294 70.3215 123.043 70.6915 123.586 71.29C124.129 71.888 124.465 72.7139 124.465 73.6253C124.465 74.5372 124.129 75.3631 123.586 75.9606C123.043 76.5591 122.294 76.9291 121.466 76.9291C120.639 76.9291 119.889 76.5591 119.347 75.9606C118.804 75.3631 118.468 74.5372 118.468 73.6253C118.468 72.7139 118.804 71.8885 119.347 71.29C119.889 70.6915 120.639 70.3215 121.466 70.3215Z" fill="#9A6732"/>
<path d="M111.272 77.5535C112.349 77.5535 113.326 77.765 114.032 78.1067C114.74 78.4484 115.177 78.9203 115.177 79.4414C115.177 79.9625 114.74 80.4344 114.032 80.7761C113.326 81.1178 112.349 81.3293 111.272 81.3293C110.195 81.3293 109.219 81.1178 108.512 80.7761C107.805 80.4344 107.367 79.9625 107.367 79.4414C107.367 78.9203 107.805 78.4484 108.512 78.1067C109.219 77.765 110.195 77.5535 111.272 77.5535Z" fill="#343432"/>
<path d="M111.133 79.4373V82.8329" stroke="#343432" stroke-width="2.62099" stroke-linecap="round"/>
<path d="M111.109 84.0389C112.48 84.0381 113.848 84.1517 115.192 84.3777C115.528 84.4339 115.48 84.5443 115.398 84.7275C115 85.4666 114.682 86.3199 113.925 86.8126C113.178 87.2973 112.151 87.4975 111.211 87.4833C110.27 87.4673 109.246 87.2011 108.509 86.6904C107.801 86.201 107.488 85.4033 107.112 84.7133C107.036 84.5198 107.014 84.4278 107.325 84.3782C108.57 84.1795 109.849 84.0403 111.109 84.0389V84.0389Z" fill="#343432"/>
</g>
<g clip-path="url(#clip3)">
<path d="M132.24 113.206L132.874 111.303H130.969C130.8 111.303 126.79 111.359 123.872 116.224C122.152 119.092 122.382 122.542 122.8 128.805L122.902 130.345H132.811L132.253 128.484C132.229 128.404 129.864 120.339 132.24 113.206Z" fill="#00925B"/>
<path d="M114.284 128.251C114.259 128.201 111.748 123.022 108.444 108.144L107.621 104.44L105.941 107.803C105.758 108.168 101.496 116.879 103.245 129.13L103.419 130.345H113.091L115.316 130.342L114.284 128.251Z" fill="#00C47A"/>
<path d="M117.497 110.212C115.916 105.903 114.146 103.404 114.071 103.3L111.923 100.297L111.653 104.053C110.612 118.504 107.288 127.34 107.255 127.427L106.501 129.393H119.598L119.728 128.119C120.512 120.485 118.947 114.168 117.497 110.212Z" fill="#60DD4D"/>
<path d="M117.497 110.212C116.52 107.549 115.471 105.578 114.794 104.435V129.393H119.598L119.728 128.119C120.512 120.485 118.948 114.168 117.497 110.212Z" fill="#00C47A"/>
<path d="M127.375 127.807H102.213C98.9926 127.807 96.3724 129.447 96.3724 131.464C96.3724 131.71 96.4122 131.956 96.4908 132.196L96.7117 132.871H132.876L133.097 132.196C133.176 131.956 133.215 131.71 133.215 131.464C133.216 129.447 130.595 127.807 127.375 127.807Z" fill="#FF9900"/>
<path d="M127.374 127.807H114.794V132.871H132.876L133.097 132.196C133.176 131.956 133.215 131.71 133.215 131.464C133.215 129.447 130.595 127.807 127.374 127.807Z" fill="#BF7300"/>
</g>
<g clip-path="url(#clip4)">
<path fill-rule="evenodd" clip-rule="evenodd" d="M61.3517 20.3409C62.5208 20 73.6633 16.8155 74.1834 19.1198C74.5156 20.5923 70.3323 20.2066 69.8368 21.1888C69.809 21.2444 69.7836 21.3024 69.7611 21.3618C68.3633 21.4804 66.9952 21.7385 65.7716 22.3516C65.0809 22.4049 64.3393 22.55 63.7278 22.8256C63.6497 22.8606 63.5746 22.8856 63.5009 22.906C63.484 22.4296 63.316 21.9308 63.2326 21.5162C63.0909 20.8147 62.2215 20.3549 61.3517 20.3409Z" fill="#BDB36D"/>
<path fill-rule="evenodd" clip-rule="evenodd" d="M91.1361 39.1917C87.0084 40.0101 82.8805 40.9923 79.2481 39.3555C76.7715 38.2098 73.9647 37.0642 72.3134 34.2818C70.4971 30.8449 69.0115 27.4081 69.5067 23.48C68.7905 23.6577 68.0258 23.7859 67.2652 23.8937C67.3921 23.4602 67.5809 23.0295 67.8557 22.8253C68.2935 22.4999 67.133 22.2464 65.7716 22.3516C66.9948 21.7385 68.363 21.4804 69.7611 21.3618C69.3848 22.3513 69.7842 23.8075 71.6532 23.8075C71.6532 23.8075 77.267 37.2277 92.9524 36.9005L94.3851 37.4852C94.583 37.5663 94.7679 37.6751 94.9341 37.8083C94.3956 38.0769 93.8445 38.32 93.2826 38.537C92.6223 38.8645 91.7966 39.028 91.1361 39.1917" fill="#FFE06C"/>
<mask id="mask0" mask-type="alpha" maskUnits="userSpaceOnUse" x="67" y="23" width="29" height="22">
<path d="M95.7592 23.48H67.03V44.652H95.7592V23.48Z" fill="white"/>
</mask>
<g mask="url(#mask0)">
<path fill-rule="evenodd" clip-rule="evenodd" d="M69.5067 23.48C69.0112 27.4081 70.4974 30.8449 72.3134 34.2818C73.9647 37.0642 76.7715 38.2098 79.2481 39.3555C82.8808 40.992 87.0085 40.0101 91.1361 39.1917C91.7966 39.0283 92.622 38.8645 93.2826 38.537C93.8444 38.32 94.3955 38.0769 94.9339 37.8083C95.1919 38.0152 95.3998 38.2761 95.5426 38.572C95.6853 38.868 95.7593 39.1915 95.7592 39.5192L94.0677 41.5103C93.3891 42.3104 92.505 42.9165 91.5076 43.2655C86.2559 45.0999 69.798 48.8508 67.03 25.1168C67.03 25.1168 67.0865 24.5021 67.2652 23.8934C68.0255 23.7862 68.7905 23.6574 69.5067 23.48Z" fill="#FDD157"/>
</g>
<path fill-rule="evenodd" clip-rule="evenodd" d="M94.0763 37.3591C94.0763 37.3591 93.7228 38.7008 94.3283 39.1917C94.9336 39.6826 95.5323 39.7861 95.5323 39.7861L96.7499 38.2098C96.7499 38.2098 96.4195 37.0094 96.0893 37.0094C95.7592 37.0094 94.0763 37.3591 94.0763 37.3591" fill="#AAA162"/>
</g>
<defs>
<linearGradient id="paint0_linear" x1="99.5345" y1="87.3451" x2="99.5345" y2="114.486" gradientUnits="userSpaceOnUse">
<stop stop-color="#9F7A29"/>
<stop offset="1" stop-color="#D29839"/>
</linearGradient>
<linearGradient id="paint1_linear" x1="104.167" y1="92.7548" x2="104.167" y2="110.62" gradientUnits="userSpaceOnUse">
<stop stop-color="#F3B271"/>
<stop offset="1" stop-color="#FFCB99"/>
</linearGradient>
<linearGradient id="paint2_linear" x1="135.12" y1="94.7712" x2="135.12" y2="109.093" gradientUnits="userSpaceOnUse">
<stop stop-color="#AC7F2E"/>
<stop offset="1" stop-color="#D29839"/>
</linearGradient>
<linearGradient id="paint3_linear" x1="87.459" y1="94.9202" x2="87.459" y2="109.21" gradientUnits="userSpaceOnUse">
<stop stop-color="#AC7F2E"/>
<stop offset="1" stop-color="#D29839"/>
</linearGradient>
<linearGradient id="paint4_linear" x1="80.899" y1="63.5124" x2="95.6812" y2="63.5124" gradientUnits="userSpaceOnUse">
<stop stop-color="#CBBD7C"/>
<stop offset="1" stop-color="#B4812D"/>
</linearGradient>
<linearGradient id="paint5_linear" x1="126.501" y1="63.6304" x2="141.283" y2="63.6304" gradientUnits="userSpaceOnUse">
<stop stop-color="#B4812D"/>
<stop offset="1" stop-color="#CBBD7C"/>
</linearGradient>
<linearGradient id="paint6_linear" x1="99.1674" y1="78.0016" x2="99.1674" y2="88.4642" gradientUnits="userSpaceOnUse">
<stop stop-color="#FFCB6B"/>
<stop offset="1" stop-color="#FFCB99"/>
</linearGradient>
<linearGradient id="paint7_linear" x1="91.637" y1="81.6833" x2="98.6097" y2="81.6833" gradientUnits="userSpaceOnUse">
<stop stop-color="#FE9E6C"/>
<stop offset="1" stop-color="#FFCB99"/>
</linearGradient>
<linearGradient id="paint8_linear" x1="123.851" y1="81.0933" x2="130.824" y2="81.0933" gradientUnits="userSpaceOnUse">
<stop stop-color="#FE9E6C"/>
<stop offset="1" stop-color="#FFCB99"/>
</linearGradient>
<clipPath id="clip0">
<rect width="36.8431" height="59.9283" fill="white" transform="translate(63.4368 78.0717)"/>
</clipPath>
<clipPath id="clip1">
<rect width="36.6952" height="59.8758" fill="white" transform="translate(33.4734 77.995)"/>
</clipPath>
<clipPath id="clip2">
<rect width="69.3958" height="82.5315" fill="white" transform="translate(72.6042 47.4469)"/>
</clipPath>
<clipPath id="clip3">
<rect width="36.8431" height="39.0359" fill="white" transform="translate(96.3723 94.0579)"/>
</clipPath>
<clipPath id="clip4">
<rect width="35.694" height="26.6543" fill="white" transform="translate(61.2039 18.1434)"/>
</clipPath>
</defs>
</svg>
