<svg width="231" height="256" viewBox="0 0 231 256" fill="none" xmlns="http://www.w3.org/2000/svg">
<path d="M101.471 245.637H81.0402C76.8299 245.637 73.5494 236.552 74.032 226.193L81.5994 63.3622C82.0086 54.5531 85.0234 47.9043 88.6076 47.9043H93.9036C97.4878 47.9043 100.503 54.5531 100.912 63.3622L108.479 226.193C108.96 236.541 105.686 245.637 101.471 245.637Z" fill="#F2C500"/>
<path d="M108.479 226.193L100.912 63.3623C100.503 54.5531 97.4877 47.9043 93.9035 47.9043H91.2556V245.637H101.471C105.681 245.636 108.961 236.551 108.479 226.193Z" fill="#F59D00"/>
<path d="M181.983 54.5631C171.516 -0.791915 110.863 -6.58764 91.2562 39.9856C71.648 -6.59003 11.0029 -0.830936 0.529301 54.5631C-0.98437 62.5681 7.84165 67.6086 12.7761 61.7993C22.9741 49.793 38.1932 44.4778 52.8473 45.9486C22.526 57.7391 8.79217 101.453 35.0774 134.655C39.8592 140.695 48.8002 135.931 47.5422 127.905C43.9592 105.035 55.0999 72.9214 90.1412 64.101C90.5382 64.0002 90.9387 63.8545 91.2554 63.7104C91.7824 63.9497 92.4545 64.1563 93.0564 64.2395C119.304 67.941 139.536 98.7499 134.969 127.904C133.708 135.947 142.672 140.669 147.433 134.655C173.783 101.371 159.861 57.6901 129.664 45.9478C144.338 44.4754 159.551 49.8077 169.735 61.7985C174.702 67.6464 183.49 62.5375 181.983 54.5631Z" fill="#65C6BB"/>
<path d="M181.983 54.5631C171.519 -0.774012 110.872 -6.60995 91.2562 39.9856V63.7104C91.7646 63.9421 92.4382 64.1531 93.0571 64.2395C119.305 67.9402 139.537 98.7499 134.969 127.904C133.709 135.947 142.673 140.669 147.434 134.655C173.785 101.37 159.861 57.6897 129.665 45.9481C144.339 44.4758 159.551 49.8081 169.736 61.7997C174.702 67.6464 183.49 62.5367 181.983 54.5631Z" fill="#57BDB7"/>
<path d="M112.115 234.636L108.141 182.444H91.2556H74.3703L70.3964 234.636C70.1264 238.177 71.0191 241.693 72.7858 244.054C77.0657 249.772 81.2573 244.297 91.256 244.214C101.255 244.297 105.446 249.771 109.726 244.054C111.492 241.693 112.385 238.177 112.115 234.636Z" fill="#F59D00"/>
<g clip-path="url(#clip0)">
<path d="M118.287 200.143C113.537 186.295 107.007 186.136 106.731 186.136H103.629L104.661 191.553C108.516 211.778 104.678 234.808 104.639 235.035L103.731 240.33H119.866L120.033 235.947C120.713 218.123 121.088 208.305 118.287 200.143Z" fill="#80E471"/>
<path d="M161.477 191.553L162.51 186.136H159.407C159.132 186.136 152.602 186.295 147.851 200.143C145.051 208.305 145.425 218.123 146.105 235.946L146.272 240.329H162.407L161.499 235.034C161.46 234.805 157.608 211.853 161.477 191.553Z" fill="#00925B"/>
<path d="M132.239 234.372C132.198 234.228 128.109 219.489 122.729 177.147L121.39 166.604L118.653 176.176C118.356 177.215 111.416 202.006 114.264 236.873L114.546 240.33H130.296L133.92 240.321L132.239 234.372Z" fill="#00C47A"/>
<path d="M137.47 183.033C135.879 175.452 134.171 169.842 133.069 166.591V237.62H140.891L141.104 233.995C142.381 212.27 139.833 194.29 137.47 183.033Z" fill="#00C47A"/>
<path d="M153.554 237.483H112.584C107.339 237.483 103.072 240.125 103.072 243.372C103.072 243.768 103.137 244.165 103.265 244.551L103.625 245.637H162.513L162.873 244.551C163.001 244.165 163.065 243.768 163.065 243.372C163.066 240.125 158.799 237.483 153.554 237.483Z" fill="#FF9900"/>
<path d="M153.554 237.483H133.069V245.637H162.513L162.873 244.551C163.001 244.165 163.065 243.768 163.065 243.372C163.066 240.125 158.799 237.483 153.554 237.483Z" fill="#BF7300"/>
</g>
<g clip-path="url(#clip1)">
<path d="M104.561 237.26H63.7545C58.5311 237.26 54.2816 239.899 54.2816 243.144C54.2816 243.539 54.3461 243.935 54.4736 244.321L54.8319 245.407H113.484L113.842 244.321C113.969 243.935 114.034 243.539 114.034 243.144C114.034 239.899 109.784 237.26 104.561 237.26Z" fill="#FF9900"/>
<path d="M104.561 237.26H84.1578V245.407H113.484L113.842 244.321C113.969 243.935 114.034 243.539 114.034 243.144C114.034 239.899 109.785 237.26 104.561 237.26Z" fill="#BF7300"/>
</g>
<path d="M195.543 205.062C191.758 204.837 186.733 206.131 184.78 208.3C183.691 209.413 188.138 210.195 189.457 211.624C190.743 213.016 191.629 214.738 192.273 216.524C192.844 218.099 192.93 219.82 193.045 221.555C193.312 225.584 192.62 229.7 193.363 233.673C193.497 234.679 194.613 234.419 195.316 234.461C196.855 234.553 199.481 235.527 200.085 234.111C201.838 229.499 201.053 224.277 201.22 219.368C201.274 217.804 200.937 216.298 200.584 214.709C200.158 212.796 199.676 210.852 198.813 209.087C197.971 207.589 197.306 205.167 195.543 205.062Z" fill="#B4852D"/>
<path d="M197.61 230.83C196.016 230.668 194.206 231.381 193.034 232.273C191.863 233.163 191.408 234.469 191.138 235.751C190.921 236.786 190.742 238.337 191.683 238.879C193.342 239.836 195.549 239.452 197.496 239.448C199.351 239.452 201.423 239.779 203.037 238.879C204.185 238.24 204.808 236.653 204.672 235.38C204.555 234.316 203.328 233.633 202.401 233.017C200.945 232.059 199.392 231.012 197.61 230.83Z" fill="#FDCB96"/>
<path d="M196.406 230.699C195.208 230.761 193.874 230.722 192.875 231.34C192.133 231.797 191.711 232.849 191.774 233.761C191.786 234.183 192.503 234.293 193.045 234.373C195.139 234.673 197.234 234.822 199.404 234.723C200.378 234.678 201.451 234.543 202.219 233.936C202.617 233.62 202.312 232.927 202.083 232.448C201.789 231.838 201.283 231.175 200.63 231.005C199.272 230.555 197.785 230.628 196.406 230.699Z" fill="#CC9832"/>
<path d="M135.14 178.857C138.397 180.164 141.095 182.67 143.542 185.113C144.881 186.554 145.776 188.416 146.267 190.276C147.091 193.398 146.943 196.698 147.311 199.9C147.648 202.822 147.276 205.809 148.311 208.518C148.907 210.078 150.197 211.476 151.717 211.931C154.273 212.764 157.11 212.359 159.665 212.106C162.73 211.804 165.807 211.428 168.748 210.4C170.864 209.66 172.422 207.317 174.561 207.075C177.857 206.702 185.824 207.151 184.416 208.518C181.938 210.926 172.466 213.785 166.14 215.32C161.974 216.33 157.605 216.612 153.397 216.262C150.78 215.978 147.886 215.235 146.131 213.462C144.242 211.554 143.784 208.622 143.315 206.025C142.612 202.137 143.296 198.216 142.634 194.388C142.234 192.08 141.664 189.479 140.045 187.607C137.973 185.252 135.094 183.512 132.052 182.27C128.158 180.681 123.429 181.457 119.699 179.426C118.645 178.852 119.286 176.068 120.516 176.014C125.407 175.798 130.554 177.018 135.14 178.857Z" fill="#A97A2A"/>
<path d="M166.477 205.15C170.262 204.924 175.287 206.219 177.241 208.387C178.33 209.5 173.883 210.282 172.563 211.712C171.278 213.103 170.391 214.826 169.747 216.612C169.177 218.187 169.09 219.908 168.975 221.643C168.708 225.671 169.4 229.788 168.657 233.761C168.524 234.766 167.407 234.506 166.704 234.548C165.165 234.64 162.54 235.614 161.935 234.198C160.182 229.586 160.967 224.365 160.8 219.455C160.747 217.892 161.083 216.386 161.436 214.796C161.862 212.884 162.344 210.939 163.207 209.175C164.049 207.677 164.714 205.255 166.477 205.15Z" fill="#B4852D"/>
<path d="M164.956 231.136C166.549 230.974 168.359 231.687 169.531 232.579C170.703 233.469 171.158 234.775 171.427 236.058C171.644 237.093 171.823 238.643 170.882 239.186C169.223 240.142 167.017 239.759 165.069 239.754C163.214 239.759 161.142 240.085 159.528 239.186C158.38 238.546 157.757 236.959 157.893 235.686C158.011 234.622 159.237 233.939 160.164 233.323C161.62 232.365 163.173 231.318 164.956 231.136Z" fill="#FDCB96"/>
<path d="M166.204 230.83C167.403 230.892 168.737 230.853 169.736 231.471C170.477 231.928 170.9 232.98 170.837 233.892C170.825 234.315 170.108 234.424 169.565 234.505C167.472 234.804 165.377 234.953 163.207 234.855C162.232 234.809 161.16 234.674 160.391 234.067C159.993 233.751 160.299 233.058 160.528 232.58C160.822 231.969 161.328 231.307 161.981 231.136C163.339 230.686 164.826 230.759 166.204 230.83Z" fill="#CC9832"/>
<path d="M196.617 162.644C199.313 162.999 198.311 163.082 198.444 166.299C198.974 179.164 200.015 192.236 198.444 205.178C198.055 208.274 195.571 210.012 192.963 211.159C189.662 212.612 185.732 212.156 182.002 212.156C177.79 212.156 173.143 212.661 169.215 211.159C166.362 210.053 163.49 208.08 163.003 204.846C161.058 191.909 162.034 178.77 162.638 165.634C162.788 162.35 162.574 162.851 165.196 162.644C175.686 161.812 186.29 161.563 196.617 162.644Z" fill="url(#paint0_linear)"/>
<path d="M191.002 172.426C192.677 172.66 192.054 172.715 192.137 174.833C192.467 183.301 193.113 191.906 192.137 200.425C191.895 202.463 190.351 203.607 188.731 204.362C186.679 205.319 184.236 205.019 181.918 205.019C179.301 205.019 176.412 205.351 173.971 204.362C172.198 203.634 170.413 202.335 170.11 200.206C168.901 191.69 169.508 183.041 169.883 174.395C169.977 172.233 169.843 172.563 171.473 172.426C177.993 171.879 184.583 171.715 191.002 172.426Z" fill="url(#paint1_linear)"/>
<path d="M181.01 199.113C181.511 199.113 181.966 199.26 182.294 199.498C182.623 199.735 182.827 200.063 182.827 200.425C182.827 200.787 182.623 201.115 182.294 201.352C181.966 201.59 181.511 201.737 181.01 201.737C180.509 201.737 180.055 201.59 179.726 201.352C179.397 201.115 179.193 200.787 179.193 200.425C179.193 200.063 179.397 199.735 179.726 199.498C180.055 199.26 180.509 199.113 181.01 199.113Z" fill="#FCCDED"/>
<path d="M216.094 198.675C217.109 198.742 218.427 197.41 219.159 198.019C220.254 199.219 220.109 201.187 220.068 202.612C220.04 203.618 219.623 204.683 218.903 205.396C218.539 205.76 218.103 206.05 217.62 206.248C217.138 206.446 216.619 206.549 216.094 206.55C215.569 206.549 215.05 206.446 214.567 206.248C214.084 206.05 213.648 205.76 213.284 205.396C212.565 204.683 212.154 203.615 212.12 202.612C212.07 201.196 211.927 199.218 213.028 198.019C213.755 197.408 215.055 198.605 216.094 198.675Z" fill="#FCCD97"/>
<path d="M207.578 178.332C204.753 176.769 201.457 175.528 198.268 175.707C196.898 175.884 195.658 178.177 196.361 179.207C197.499 180.865 200.3 180.578 202.038 181.613C204.269 183.078 206.502 184.619 208.169 186.644C209.675 188.483 210.57 191.064 211.348 193.425C212.187 195.977 210.925 199.702 213.164 201.519C214.742 202.87 219.087 202.268 219.523 200.206C220.535 195.405 218.603 190.256 216.207 185.988C214.293 182.573 210.955 180.21 207.578 178.332Z" fill="url(#paint2_linear)"/>
<path d="M215.98 198.106C217.17 198.106 218.249 198.351 219.03 198.748C219.812 199.143 220.295 199.69 220.295 200.294C220.295 200.897 219.812 201.444 219.03 201.84C218.249 202.236 217.17 202.481 215.98 202.481C214.79 202.481 213.711 202.236 212.93 201.84C212.149 201.444 211.666 200.897 211.666 200.294C211.666 199.69 212.149 199.143 212.93 198.748C213.711 198.351 214.79 198.106 215.98 198.106Z" fill="#CD9934"/>
<path d="M146.153 199.113C147.169 199.179 148.487 197.847 149.219 198.456C150.314 199.657 150.168 201.625 150.127 203.05C150.1 204.055 149.682 205.121 148.963 205.833C148.599 206.197 148.163 206.487 147.68 206.686C147.197 206.884 146.678 206.986 146.153 206.987C145.629 206.986 145.109 206.884 144.627 206.686C144.144 206.487 143.708 206.197 143.344 205.833C142.625 205.121 142.214 204.053 142.18 203.05C142.13 201.633 141.987 199.656 143.088 198.456C143.815 197.846 145.114 199.043 146.153 199.113Z" fill="#FCCD97"/>
<path d="M155.577 177.239C157.417 176.102 159.948 175.698 162.162 176.145C163.732 176.463 166.031 178.095 165.569 179.426C165.001 181.039 161.629 180.797 159.892 181.832C157.66 183.297 155.427 184.838 153.761 186.863C152.255 188.701 151.359 191.283 150.581 193.644C149.742 196.195 151.005 199.921 148.765 201.737C147.187 203.088 142.792 202.478 142.407 200.425C141.521 195.693 143.469 190.775 145.813 186.644C147.983 182.796 151.747 179.743 155.577 177.239Z" fill="url(#paint3_linear)"/>
<path d="M146.267 198.456C147.457 198.456 148.536 198.701 149.317 199.098C150.098 199.493 150.582 200.04 150.582 200.644C150.582 201.248 150.098 201.794 149.317 202.19C148.536 202.586 147.457 202.831 146.267 202.831C145.077 202.831 143.998 202.586 143.217 202.19C142.436 201.794 141.953 201.248 141.953 200.644C141.953 200.04 142.436 199.493 143.217 199.098C143.998 198.701 145.077 198.456 146.267 198.456Z" fill="#CD9934"/>
<path d="M162.957 166.958C164.743 166.958 166.361 167.742 167.532 169.01C168.704 170.277 169.429 172.027 169.429 173.958C169.429 175.889 168.704 177.639 167.532 178.905C166.361 180.173 164.743 180.957 162.957 180.957C161.172 180.957 159.554 180.173 158.382 178.905C157.21 177.639 156.486 175.889 156.486 173.958C156.486 172.027 157.21 170.277 158.382 169.01C159.554 167.742 161.172 166.958 162.957 166.958Z" fill="#CD9934"/>
<path d="M174.402 166.739C176.188 166.739 177.806 167.523 178.977 168.791C180.149 170.058 180.874 171.808 180.874 173.739C180.874 175.67 180.149 177.42 178.977 178.687C177.806 179.955 176.188 180.739 174.402 180.739C172.616 180.739 170.999 179.955 169.827 178.687C168.655 177.42 167.93 175.67 167.93 173.739C167.93 171.808 168.655 170.058 169.827 168.791C170.999 167.523 172.616 166.739 174.402 166.739Z" fill="#CD9934"/>
<path d="M187.028 166.739C188.813 166.739 190.431 167.523 191.603 168.791C192.775 170.058 193.499 171.808 193.499 173.739C193.499 175.67 192.775 177.42 191.603 178.687C190.431 179.955 188.813 180.739 187.028 180.739C185.242 180.739 183.624 179.955 182.453 178.687C181.281 177.42 180.556 175.67 180.556 173.739C180.556 171.808 181.281 170.058 182.453 168.791C183.624 167.523 185.242 166.739 187.028 166.739Z" fill="#CD9934"/>
<path d="M199.517 166.52C201.303 166.52 202.921 167.304 204.092 168.572C205.264 169.839 205.989 171.589 205.989 173.52C205.989 175.451 205.264 177.201 204.092 178.468C202.921 179.736 201.303 180.52 199.517 180.52C197.731 180.52 196.114 179.736 194.942 178.468C193.77 177.201 193.045 175.451 193.045 173.52C193.045 171.589 193.77 169.839 194.942 168.572C196.114 167.304 197.731 166.52 199.517 166.52Z" fill="#CD9934"/>
<path d="M180.329 164.989C185.905 164.989 190.957 165.59 194.616 166.56C198.274 167.53 200.539 168.87 200.539 170.348C200.539 171.827 198.274 173.167 194.616 174.137C190.957 175.107 185.905 175.707 180.329 175.707C174.753 175.707 169.701 175.107 166.042 174.137C162.383 173.167 160.119 171.827 160.119 170.348C160.119 168.87 162.383 167.53 166.042 166.56C169.701 165.59 174.753 164.989 180.329 164.989Z" fill="#CD9934"/>
<path d="M143.542 117.742C146.863 117.742 149.871 118.967 152.05 120.947C154.228 122.927 155.577 125.661 155.577 128.679C155.577 131.696 154.228 134.431 152.05 136.41C149.871 138.39 146.863 139.616 143.542 139.616C140.221 139.616 137.213 138.39 135.034 136.41C132.856 134.431 131.507 131.696 131.507 128.679C131.507 125.661 132.856 122.927 135.034 120.947C137.213 118.967 140.221 117.742 143.542 117.742Z" fill="url(#paint4_linear)"/>
<path d="M142.747 121.886C144.693 121.88 146.565 122.604 147.965 123.906C149.301 125.153 150.127 126.876 150.127 128.777C150.127 130.678 149.301 132.401 147.965 133.648C146.564 134.95 144.693 135.674 142.747 135.667C140.802 135.674 138.93 134.95 137.53 133.648C136.194 132.401 135.367 130.678 135.367 128.777C135.367 126.876 136.194 125.154 137.53 123.906C138.93 122.604 140.802 121.88 142.747 121.886Z" fill="#FECC99"/>
<path d="M217.797 117.96C221.118 117.96 224.126 119.186 226.305 121.166C228.483 123.145 229.832 125.88 229.832 128.897C229.832 131.915 228.483 134.649 226.305 136.628C224.126 138.608 221.118 139.834 217.797 139.834C214.476 139.834 211.468 138.608 209.289 136.628C207.111 134.649 205.762 131.915 205.762 128.897C205.762 125.88 207.111 123.145 209.289 121.166C211.468 119.186 214.476 117.96 217.797 117.96Z" fill="url(#paint5_linear)"/>
<path d="M219.046 122.105C220.992 122.098 222.863 122.823 224.263 124.124C225.599 125.372 226.426 127.095 226.426 128.995C226.426 130.897 225.599 132.619 224.263 133.867C222.863 135.168 220.991 135.892 219.046 135.886C217.1 135.892 215.229 135.168 213.828 133.867C212.492 132.619 211.666 130.897 211.666 128.995C211.666 127.095 212.492 125.373 213.828 124.124C215.229 122.823 217.1 122.098 219.046 122.105Z" fill="#FECC99"/>
<path d="M181.076 95.7452C191.24 95.7452 200.452 99.6659 207.122 106.001C213.791 112.338 217.92 121.087 217.92 130.743C217.92 140.399 213.791 149.148 207.122 155.484C200.452 161.818 191.241 165.741 181.076 165.741C170.911 165.741 161.699 161.819 155.03 155.484C148.36 149.148 144.231 140.399 144.231 130.743C144.231 121.087 148.36 112.338 155.03 106.001C161.699 99.6668 170.91 95.7444 181.076 95.7444V95.7452Z" fill="#CD9933"/>
<path d="M186.46 108.992C191.543 108.695 196.937 109.847 200.993 112.492C205.589 115.557 209.196 120.234 210.985 125.179C212.586 129.575 211.229 134.44 210.985 139.178C210.924 140.363 210.142 138.681 210.53 139.178C212.084 141.165 214.438 142.781 215.753 145.084C216.625 146.922 217.246 149.166 216.889 151.209C216.294 154.6 215.744 158.604 213.028 160.833C207.777 165.124 200.923 168.215 193.954 169.583C185.589 171.274 176.756 171.031 168.067 169.802C161.617 168.888 155.123 166.807 149.673 163.239C146.655 161.188 144.962 157.434 143.996 153.834C143.236 150.991 144.024 147.977 145.132 145.084C145.972 142.898 148.099 141.433 149.673 139.616C150.066 139.161 150.459 139.316 150.581 138.303C151.072 134.251 149.858 129.974 151.036 126.054C152.343 121.715 154.455 116.851 158.302 113.804C162.071 110.919 167.27 109.518 172.381 109.43C175.363 109.381 177.666 112.351 180.102 113.804C180.711 114.167 179.157 114.211 179.648 113.804C181.603 112.18 183.648 109.157 186.46 108.992Z" fill="#FFCB99"/>
<path d="M181.241 144.705C185.583 144.711 190.198 144.06 193.951 145.957C197.156 147.584 200.336 150.716 200.5 154.069C200.585 157.491 197.643 160.827 194.562 162.44C190.603 164.513 185.587 163.94 181.007 163.883C176.653 163.94 171.887 164.375 167.92 162.44C164.777 160.909 161.469 157.93 161.254 154.52C161.248 151.182 164.298 147.779 167.388 146.207C171.497 144.117 176.601 144.7 181.241 144.705Z" fill="url(#paint6_linear)"/>
<path d="M154.669 151.427C156.235 151.427 157.655 151.991 158.682 152.902C159.71 153.813 160.346 155.071 160.346 156.458C160.346 157.846 159.71 159.104 158.682 160.015C157.655 160.926 156.235 161.489 154.669 161.489C153.103 161.489 151.683 160.926 150.656 160.015C149.628 159.104 148.992 157.846 148.992 156.458C148.992 155.071 149.628 153.813 150.656 152.902C151.683 151.991 153.103 151.427 154.669 151.427Z" fill="url(#paint7_linear)"/>
<path d="M207.124 150.334C208.69 150.334 210.11 150.897 211.137 151.808C212.165 152.719 212.801 153.977 212.801 155.365C212.801 156.752 212.165 158.011 211.137 158.921C210.11 159.832 208.69 160.396 207.124 160.396C205.558 160.396 204.139 159.832 203.111 158.921C202.083 158.011 201.447 156.752 201.447 155.365C201.447 153.977 202.083 152.719 203.111 151.808C204.139 150.897 205.558 150.334 207.124 150.334Z" fill="url(#paint8_linear)"/>
<path d="M175.787 89.0868C176.409 89.0772 176.33 91.8307 177.15 93.0241C177.959 94.1239 179.491 94.5605 180.556 95.4302C181.413 96.1293 182.731 96.5449 183.054 97.6176C183.344 98.2677 182.611 98.9773 182.022 99.5259C181.35 100.147 180.505 100.68 179.534 100.68C178.563 100.68 177.499 100.297 177.046 99.5259C175.833 97.3219 174.885 95.159 174.652 92.8054C174.52 91.4046 175.279 88.9862 175.787 89.0868Z" fill="#CD9933"/>
<path d="M162.072 126.929C163.951 126.929 165.654 128.154 166.888 130.135C168.121 132.114 168.884 134.848 168.884 137.866C168.884 140.883 168.121 143.618 166.888 145.597C165.654 147.577 163.951 148.803 162.072 148.803C160.192 148.803 158.489 147.577 157.256 145.597C156.022 143.618 155.259 140.883 155.259 137.866C155.259 134.848 156.022 132.114 157.256 130.135C158.489 128.154 160.192 126.929 162.072 126.929Z" fill="white"/>
<path d="M163.684 129.927C165.031 129.927 166.252 130.613 167.136 131.723C168.019 132.831 168.566 134.362 168.566 136.052C168.566 137.742 168.019 139.273 167.136 140.381C166.252 141.491 165.031 142.177 163.684 142.177C162.337 142.177 161.116 141.491 160.232 140.381C159.349 139.273 158.802 137.742 158.802 136.052C158.802 134.362 159.349 132.832 160.232 131.723C161.116 130.613 162.337 129.927 163.684 129.927Z" fill="#9A6732"/>
<path d="M199.086 127.366C200.965 127.366 202.668 128.592 203.901 130.572C205.135 132.551 205.898 135.285 205.898 138.303C205.898 141.321 205.135 144.055 203.901 146.034C202.668 148.014 200.965 149.24 199.086 149.24C197.206 149.24 195.503 148.014 194.27 146.034C193.036 144.055 192.273 141.321 192.273 138.303C192.273 135.285 193.036 132.551 194.27 130.572C195.503 128.592 197.206 127.366 199.086 127.366Z" fill="white"/>
<path d="M197.564 130.365C198.911 130.365 200.132 131.051 201.016 132.16C201.9 133.269 202.446 134.8 202.446 136.489C202.446 138.18 201.9 139.711 201.016 140.819C200.132 141.928 198.911 142.614 197.564 142.614C196.217 142.614 194.996 141.928 194.113 140.819C193.229 139.711 192.682 138.18 192.682 136.489C192.682 134.8 193.229 133.269 194.113 132.16C194.996 131.051 196.217 130.365 197.564 130.365Z" fill="#9A6732"/>
<path d="M180.965 143.772C182.719 143.772 184.308 144.164 185.459 144.797C186.611 145.431 187.323 146.305 187.323 147.271C187.323 148.237 186.611 149.112 185.459 149.746C184.308 150.379 182.719 150.771 180.965 150.771C179.211 150.771 177.621 150.379 176.47 149.746C175.319 149.112 174.606 148.237 174.606 147.271C174.606 146.305 175.319 145.431 176.47 144.797C177.621 144.164 179.211 143.772 180.965 143.772Z" fill="#343432"/>
<path d="M180.738 147.264V153.559" stroke="#343432" stroke-width="2.62099" stroke-linecap="round"/>
<path d="M180.699 155.794C182.932 155.793 185.159 156.003 187.348 156.423C187.894 156.527 187.816 156.731 187.684 157.071C187.035 158.441 186.517 160.023 185.285 160.936C184.068 161.835 182.396 162.206 180.865 162.18C179.333 162.15 177.666 161.657 176.466 160.71C175.313 159.803 174.804 158.324 174.19 157.045C174.066 156.686 174.031 156.515 174.537 156.423C176.565 156.055 178.648 155.797 180.699 155.794Z" fill="#343432"/>
<g clip-path="url(#clip2)">
<path d="M215.107 209.866L216.14 206.337H213.038C212.762 206.337 206.232 206.441 201.481 215.461C198.681 220.778 199.056 227.173 199.735 238.783L199.902 241.638H216.038L215.129 238.189C215.09 238.039 211.238 223.089 215.107 209.866Z" fill="#00925B"/>
<path d="M185.869 237.757C185.828 237.663 181.739 228.063 176.359 200.482L175.02 193.615L172.283 199.85C171.986 200.526 165.046 216.675 167.894 239.386L168.176 241.638H183.927L187.55 241.632L185.869 237.757Z" fill="#00C47A"/>
<path d="M191.1 204.316C188.526 196.327 185.643 191.694 185.522 191.5L182.025 185.934L181.584 192.898C179.89 219.687 174.477 236.068 174.423 236.229L173.195 239.873H194.521L194.734 237.512C196.011 223.36 193.463 211.649 191.1 204.316Z" fill="#60DD4D"/>
<path d="M191.1 204.316C189.509 199.378 187.801 195.724 186.699 193.606V239.873H194.521L194.734 237.512C196.011 223.36 193.463 211.649 191.1 204.316Z" fill="#00C47A"/>
<path d="M207.185 236.933H166.214C160.969 236.933 156.703 239.974 156.703 243.713C156.703 244.168 156.767 244.625 156.895 245.07L157.255 246.32H216.143L216.503 245.07C216.631 244.625 216.696 244.168 216.696 243.713C216.696 239.974 212.429 236.933 207.185 236.933Z" fill="#FF9900"/>
<path d="M207.185 236.933H186.699V246.32H216.143L216.503 245.07C216.631 244.625 216.696 244.168 216.696 243.713C216.696 239.974 212.429 236.933 207.185 236.933Z" fill="#BF7300"/>
</g>
<g clip-path="url(#clip3)">
<path fill-rule="evenodd" clip-rule="evenodd" d="M99.6772 37.7087C101.581 37.0768 119.725 31.1732 120.571 35.445C121.112 38.1749 114.301 37.4597 113.494 39.2805C113.449 39.3837 113.407 39.4912 113.371 39.6013C111.095 39.8212 108.867 40.2997 106.874 41.4362C105.75 41.535 104.542 41.804 103.546 42.3149C103.419 42.3798 103.297 42.4262 103.177 42.464C103.149 41.5809 102.876 40.6562 102.74 39.8876C102.509 38.587 101.093 37.7347 99.6772 37.7087Z" fill="#BDB36D"/>
<path fill-rule="evenodd" clip-rule="evenodd" d="M148.176 72.655C141.455 74.1723 134.733 75.993 128.819 72.9586C124.786 70.8348 120.216 68.711 117.527 63.5528C114.569 57.1814 112.15 50.8101 112.956 43.5281C111.79 43.8575 110.545 44.0952 109.306 44.295C109.513 43.4913 109.82 42.693 110.268 42.3144C110.981 41.7111 109.091 41.2412 106.874 41.4361C108.866 40.2997 111.094 39.8212 113.371 39.6013C112.758 41.4356 113.408 44.1352 116.451 44.1352C116.451 44.1352 125.593 69.014 151.134 68.4075L153.467 69.4915C153.789 69.6417 154.09 69.8435 154.361 70.0905C153.484 70.5883 152.587 71.0391 151.672 71.4414C150.596 72.0485 149.252 72.3515 148.176 72.655Z" fill="#FFE06C"/>
<mask id="mask0" mask-type="alpha" maskUnits="userSpaceOnUse" x="108" y="43" width="48" height="40">
<path d="M155.704 43.5281H108.924V82.7776H155.704V43.5281Z" fill="white"/>
</mask>
<g mask="url(#mask0)">
<path fill-rule="evenodd" clip-rule="evenodd" d="M112.956 43.5281C112.149 50.8101 114.569 57.1814 117.527 63.5528C120.215 68.711 124.786 70.8348 128.819 72.9586C134.734 75.9925 141.455 74.1723 148.176 72.6551C149.252 72.352 150.596 72.0485 151.672 71.4414C152.586 71.0391 153.484 70.5883 154.36 70.0905C154.781 70.474 155.119 70.9576 155.352 71.5063C155.584 72.0549 155.705 72.6547 155.704 73.2622L152.95 76.9534C151.845 78.4366 150.405 79.5602 148.781 80.2071C140.23 83.6078 113.431 90.5614 108.923 46.5625C108.923 46.5625 109.015 45.4228 109.306 44.2945C110.544 44.0957 111.79 43.857 112.956 43.5281Z" fill="#FDD157"/>
</g>
<path fill-rule="evenodd" clip-rule="evenodd" d="M152.964 69.2576C152.964 69.2576 152.388 71.7449 153.374 72.655C154.36 73.5652 155.335 73.7569 155.335 73.7569L157.318 70.8348C157.318 70.8348 156.78 68.6095 156.242 68.6095C155.704 68.6095 152.964 69.2576 152.964 69.2576Z" fill="#AAA162"/>
</g>
<defs>
<linearGradient id="paint0_linear" x1="161.852" y1="161.924" x2="161.852" y2="212.238" gradientUnits="userSpaceOnUse">
<stop stop-color="#9F7A29"/>
<stop offset="1" stop-color="#D29839"/>
</linearGradient>
<linearGradient id="paint1_linear" x1="169.395" y1="171.952" x2="169.395" y2="205.072" gradientUnits="userSpaceOnUse">
<stop stop-color="#F3B271"/>
<stop offset="1" stop-color="#FFCB99"/>
</linearGradient>
<linearGradient id="paint2_linear" x1="219.798" y1="175.69" x2="219.798" y2="202.242" gradientUnits="userSpaceOnUse">
<stop stop-color="#AC7F2E"/>
<stop offset="1" stop-color="#D29839"/>
</linearGradient>
<linearGradient id="paint3_linear" x1="142.189" y1="175.967" x2="142.189" y2="202.458" gradientUnits="userSpaceOnUse">
<stop stop-color="#AC7F2E"/>
<stop offset="1" stop-color="#D29839"/>
</linearGradient>
<linearGradient id="paint4_linear" x1="131.507" y1="117.742" x2="155.577" y2="117.742" gradientUnits="userSpaceOnUse">
<stop stop-color="#CBBD7C"/>
<stop offset="1" stop-color="#B4812D"/>
</linearGradient>
<linearGradient id="paint5_linear" x1="205.762" y1="117.96" x2="229.832" y2="117.96" gradientUnits="userSpaceOnUse">
<stop stop-color="#B4812D"/>
<stop offset="1" stop-color="#CBBD7C"/>
</linearGradient>
<linearGradient id="paint6_linear" x1="161.254" y1="144.602" x2="161.254" y2="163.998" gradientUnits="userSpaceOnUse">
<stop stop-color="#FFCB6B"/>
<stop offset="1" stop-color="#FFCB99"/>
</linearGradient>
<linearGradient id="paint7_linear" x1="148.992" y1="151.427" x2="160.346" y2="151.427" gradientUnits="userSpaceOnUse">
<stop stop-color="#FE9E6C"/>
<stop offset="1" stop-color="#FFCB99"/>
</linearGradient>
<linearGradient id="paint8_linear" x1="201.447" y1="150.334" x2="212.801" y2="150.334" gradientUnits="userSpaceOnUse">
<stop stop-color="#FE9E6C"/>
<stop offset="1" stop-color="#FFCB99"/>
</linearGradient>
<clipPath id="clip0">
<rect width="59.993" height="111.097" fill="white" transform="translate(103.072 144.732)"/>
</clipPath>
<clipPath id="clip1">
<rect width="59.7523" height="111" fill="white" transform="translate(54.2817 144.59)"/>
</clipPath>
<clipPath id="clip2">
<rect width="59.993" height="72.3661" fill="white" transform="translate(156.703 174.368)"/>
</clipPath>
<clipPath id="clip3">
<rect width="58.122" height="49.4128" fill="white" transform="translate(99.4364 33.6349)"/>
</clipPath>
</defs>
</svg>
