<svg width="154" height="173" viewBox="0 0 154 173" fill="none" xmlns="http://www.w3.org/2000/svg">
<path d="M37.0832 62.5914C37.114 62.5914 39.578 63.2834 43.9516 65.6708C47.894 67.816 50.4196 70.0996 50.4504 70.0996L51.0356 69.3038C50.9432 69.2 48.3868 66.951 44.3828 64.7366C39.9168 62.28 37.4528 61.588 37.3296 61.588L37.0832 62.5914Z" fill="white"/>
<path d="M37.6684 74.9782C37.8532 75.0128 42.2268 75.6356 44.2904 75.5664L50.3888 75.082L50.2964 74.044L44.2596 74.5284C42.2576 74.563 37.8224 73.9402 37.7608 73.9402L37.6684 74.9782Z" fill="white"/>
<path d="M123.446 68.7502C120.952 69.6152 115.962 70.3418 115.931 70.3418L116.054 71.3798C116.27 71.3452 121.136 70.6532 123.724 69.7536C126.773 68.681 128.867 66.8126 128.96 66.7088L128.374 65.913C128.374 65.913 126.342 67.7468 123.446 68.7502Z" fill="white"/>
<path d="M116.054 78.6804C116.178 78.7496 119.104 80.2028 122.214 80.6872C125.264 81.137 127.327 81.0332 127.42 81.0332L127.358 79.9952C127.327 79.9952 125.294 80.099 122.338 79.6492C119.381 79.1994 116.486 77.7462 116.455 77.7462L116.054 78.6804Z" fill="white"/>
<path d="M121.999 73.7326C121.26 69.0616 118.149 66.0168 115.654 64.2868C114.668 63.5948 113.775 63.1104 113.128 62.7644C112.944 60.6192 112.297 56.052 109.74 50.7236C107.923 46.9176 102.533 41.7622 100.932 40.2744C100.716 39.1326 97.79 23.4934 97.79 23.4934L97.6668 23.5972C97.6668 23.5626 97.636 23.355 97.636 23.355C97.636 23.355 87.9956 33.1122 87.4104 33.6658C86.7636 33.8388 83.5296 34.6346 83.0984 34.7384C81.2812 34.4962 79.618 34.3924 78.0164 34.427C73.766 34.4962 69.6696 35.5342 68.0372 36.0186C66.9284 35.1536 54.9164 25.7424 54.9164 25.7424L54.7932 25.6386L52.0212 23.4242C52.0212 23.4242 53.8692 48.6822 53.9616 49.997C52.2676 52.4536 46.97 60.9998 46.97 70.6532C46.97 74.1132 47.6476 77.7116 49.434 81.2062C51.8056 85.8772 55.1012 89.787 59.2284 92.9356C56.9492 93.7314 55.0396 95.496 53.0376 97.3644L51.0048 99.2328C50.5428 99.648 49.9576 100.029 49.4032 100.444C47.6168 101.689 45.2452 103.35 45.2452 106.706C45.2452 107.26 45.3068 107.883 45.4608 108.54C45.6456 109.336 46.0152 110.928 46.662 112.865C44.9372 112.104 43.4588 111.031 42.196 109.647C40.04 107.295 38.4692 104.319 37.0832 101.689C35.9436 99.5442 34.9888 97.7104 33.8492 96.4302C31.878 94.2504 29.9684 94.631 28.7056 95.3576C26.488 96.6032 25.102 100.029 25.102 104.25C25.102 104.561 25.102 104.838 25.1328 105.149C25.41 111.308 28.7672 119.128 37.268 122.692C39.424 123.591 41.4876 124.11 43.4588 124.456C42.4732 124.837 41.6108 125.114 41.0564 125.287C39.8244 124.595 37.2372 123.557 34.4036 125.46C31.9704 127.086 31.7548 130.961 33.726 136.116C36.1284 142.31 42.042 150.752 47.1548 149.126C49.4648 148.399 50.974 147.05 51.6208 145.147C51.8364 144.455 51.9288 143.763 51.9288 143.071C51.9288 140.684 50.82 138.331 49.8344 136.532C56.8568 134.248 63.7868 129.75 66.3124 127.985C68.068 129.923 69.8236 131.895 71.456 133.833C76.5688 139.957 84.084 147.292 84.392 147.604L84.7308 147.95L85.1928 148.019C85.5008 148.053 92.6772 149.299 98.8064 149.576C105.274 149.853 107.985 149.057 108.478 146.669C109.063 143.832 108.724 141.41 107.4 139.473C105.552 136.739 101.979 135.251 96.712 135.009C94.4636 134.905 92.5232 135.078 91.5068 135.182C88.4884 132.068 86.1476 129.612 84.8848 128.297C83.468 126.774 81.1888 124.179 78.1704 120.581C79.2484 119.439 80.388 117.917 81.8356 115.668C82.1128 115.218 82.4208 114.699 82.7596 114.076C83.4372 114.664 84.546 115.702 86.1476 117.675C88.1496 120.097 90.1824 121.238 92.4 121.169C94.248 121.135 95.942 120.27 97.6052 119.439L97.7592 119.37C99.8228 118.297 106.568 114.491 107.338 109.613C107.523 108.367 107.43 106.464 105.767 104.63C104.474 103.212 103.18 102.485 101.825 102.347C99.6688 102.139 97.8824 103.558 96.3116 104.803C95.2952 105.634 94.3404 106.395 93.3548 106.741C93.0468 106.845 92.7388 106.914 92.4924 106.914C91.2296 106.914 90.3364 105.634 89.0736 103.696C88.6116 103.004 88.1496 102.243 87.6568 101.655C87.3796 101.343 87.1024 101.032 86.856 100.755C89.8128 100.651 92.8004 100.34 95.788 99.821C109.494 97.3298 116.024 91.0326 119.073 86.1886C121.136 82.9016 122.245 79.3032 122.245 75.947C122.184 75.1858 122.122 74.4592 121.999 73.7326Z" fill="white"/>
<path d="M121.999 73.7326C121.26 69.0616 118.149 66.0168 115.654 64.2868C114.668 63.5948 113.775 63.1104 113.128 62.7644C112.944 60.6192 112.297 56.052 109.74 50.7236C107.923 46.9176 102.533 41.7622 100.932 40.2744C100.716 39.1326 97.79 23.4934 97.79 23.4934L97.6668 23.5972C97.6668 23.5626 97.636 23.355 97.636 23.355C97.636 23.355 87.9956 33.1122 87.4104 33.6658C86.7636 33.8388 83.5296 34.6346 83.0984 34.7384C81.2812 34.4962 79.618 34.3924 78.0164 34.427C73.766 34.4962 69.6696 35.5342 68.0372 36.0186C66.9284 35.1536 54.9164 25.7424 54.9164 25.7424L54.7932 25.6386L52.0212 23.4242C52.0212 23.4242 53.8692 48.6822 53.9616 49.997C52.2676 52.4536 46.97 60.9998 46.97 70.6532C46.97 74.1132 47.6476 77.7116 49.434 81.2062C51.8056 85.8772 55.1012 89.787 59.2284 92.9356C56.9492 93.7314 55.0396 95.496 53.0376 97.3644L51.0048 99.2328C50.5428 99.648 49.9576 100.029 49.4032 100.444C47.6168 101.689 45.2452 103.35 45.2452 106.706C45.2452 107.26 45.3068 107.883 45.4608 108.54C45.6456 109.336 46.0152 110.928 46.662 112.865C44.9372 112.104 43.4588 111.031 42.196 109.647C40.04 107.295 38.4692 104.319 37.0832 101.689C35.9436 99.5442 34.9888 97.7104 33.8492 96.4302C31.878 94.2504 29.9684 94.631 28.7056 95.3576C26.488 96.6032 25.102 100.029 25.102 104.25C25.102 104.561 25.102 104.838 25.1328 105.149C25.41 111.308 28.7672 119.128 37.268 122.692C39.424 123.591 41.4876 124.11 43.4588 124.456C42.4732 124.837 41.6108 125.114 41.0564 125.287C39.8244 124.595 37.2372 123.557 34.4036 125.46C31.9704 127.086 31.7548 130.961 33.726 136.116C36.1284 142.31 42.042 150.752 47.1548 149.126C49.4648 148.399 50.974 147.05 51.6208 145.147C51.8364 144.455 51.9288 143.763 51.9288 143.071C51.9288 140.684 50.82 138.331 49.8344 136.532C56.8568 134.248 63.7868 129.75 66.3124 127.985C68.068 129.923 69.8236 131.895 71.456 133.833C76.5688 139.957 84.084 147.292 84.392 147.604L84.7308 147.95L85.1928 148.019C85.5008 148.053 92.6772 149.299 98.8064 149.576C105.274 149.853 107.985 149.057 108.478 146.669C109.063 143.832 108.724 141.41 107.4 139.473C105.552 136.739 101.979 135.251 96.712 135.009C94.4636 134.905 92.5232 135.078 91.5068 135.182C88.4884 132.068 86.1476 129.612 84.8848 128.297C83.468 126.774 81.1888 124.179 78.1704 120.581C79.2484 119.439 80.388 117.917 81.8356 115.668C82.1128 115.218 82.4208 114.699 82.7596 114.076C83.4372 114.664 84.546 115.702 86.1476 117.675C88.1496 120.097 90.1824 121.238 92.4 121.169C94.248 121.135 95.942 120.27 97.6052 119.439L97.7592 119.37C99.8228 118.297 106.568 114.491 107.338 109.613C107.523 108.367 107.43 106.464 105.767 104.63C104.474 103.212 103.18 102.485 101.825 102.347C99.6688 102.139 97.8824 103.558 96.3116 104.803C95.2952 105.634 94.3404 106.395 93.3548 106.741C93.0468 106.845 92.7388 106.914 92.4924 106.914C91.2296 106.914 90.3364 105.634 89.0736 103.696C88.6116 103.004 88.1496 102.243 87.6568 101.655C87.3796 101.343 87.1024 101.032 86.856 100.755C89.8128 100.651 92.8004 100.34 95.788 99.821C109.494 97.3298 116.024 91.0326 119.073 86.1886C121.136 82.9016 122.245 79.3032 122.245 75.947C122.184 75.1858 122.122 74.4592 121.999 73.7326Z" fill="#221E1F"/>
<path d="M95.48 98.0564C116.239 94.285 121.598 81.137 120.459 74.044C119.319 66.951 111.619 64.01 111.619 64.01C111.619 64.01 111.712 58.474 108.354 51.554C106.383 47.4366 99.484 41.2432 99.484 41.2432L96.8044 26.8496L88.3344 35.4304L83.5912 36.6414C81.8972 36.3992 80.0184 36.2262 78.0472 36.2608C72.842 36.33 67.7292 37.9908 67.7292 37.9908L53.9924 27.2648L55.6864 50.7236C56.4256 49.7894 43.582 66.0514 50.9124 80.4796C54.3312 87.2612 59.8136 92.3474 66.7744 95.496L66.2508 95.9804C65.8812 95.669 65.3884 95.3576 64.7724 95.0808C59.29 92.6242 56.4564 96.707 51.9288 100.686C49.4648 102.797 45.9844 103.765 46.9392 108.16C47.3088 109.89 48.1404 112.796 49.4648 115.529L49.3108 115.633C46.662 115.045 43.582 113.765 41.0256 110.997C35.2352 104.7 33.6336 94.631 29.3216 97.0184C25.0096 99.4404 24.5476 115.599 37.73 121.1C42.2576 123.003 46.4464 123.176 49.8652 123.211V123.072L52.6988 121.584C51.9596 122.103 50.8508 122.795 49.28 123.66L45.43 125.321L45.3068 125.633C42.9968 126.601 40.7792 127.259 40.7792 127.259C40.7792 127.259 38.1304 125.044 35.1736 127.051C30.338 130.304 40.7176 149.368 46.662 147.465C53.8384 145.182 48.2944 137.466 47.278 135.494C56.4564 133.141 66.4356 125.875 66.4356 125.875L66.2816 125.944L66.528 125.806C68.3144 127.709 70.4088 130.061 72.6264 132.691C77.7392 138.781 85.4392 146.323 85.4392 146.323C85.4392 146.323 106.198 149.887 106.938 146.323C109.432 134.317 90.9524 137.12 90.9524 137.12C90.9524 137.12 86.0552 132.068 83.776 129.646C81.774 127.501 78.4784 123.66 75.8604 120.546L76.076 120.27C77.4004 119.197 78.7556 117.432 80.5112 114.699C81.0964 113.799 81.7124 112.588 82.236 111.447V111.793C82.236 111.793 83.5912 112.069 87.2872 116.533C91.014 121.031 93.8476 119.474 97.0508 117.813C100.254 116.152 108.878 110.72 104.566 105.98C100.254 101.24 97.6976 107.122 93.786 108.506C89.8744 109.89 88.3344 105.219 86.4248 102.9C84.7924 100.928 83.0676 99.6826 82.6056 99.3712L82.6364 98.9906C86.702 99.1636 90.9832 98.8868 95.48 98.0564Z" fill="#F8A31F"/>
<path d="M29.7836 96.9838C27.1348 97.5374 25.9336 103.108 26.9192 107.571C27.9048 112 29.106 115.01 31.0156 116.637C32.9252 118.297 30.6768 112.865 33.0792 110.755C35.4816 108.644 39.5472 109.855 39.5472 109.855C39.5472 109.855 36.4364 104.7 34.6808 101.586C32.8944 98.4716 32.3092 96.4648 29.7836 96.9838Z" fill="white"/>
<path d="M81.3736 113.073C81.3736 113.073 84.2072 109.89 78.8788 106.395C73.5504 102.9 70.9632 106.049 69.2076 107.883C66.1892 111.031 72.4724 116.948 72.4724 116.948L75.9836 120.166C75.9836 120.166 78.078 118.367 78.9712 116.74C79.8336 115.149 81.3736 113.073 81.3736 113.073Z" fill="white"/>
<path d="M71.9796 69.6844C71.9796 69.6844 62.678 70.4456 62.1236 76.812C60.7684 92.728 84.2072 99.0944 84.2072 99.0944C84.2072 99.0944 95.2644 100.029 105.459 94.5618C115.685 89.095 121.66 82.2788 120.274 74.2516C118.919 66.2244 110.202 64.2176 110.202 64.2176L108.016 61.069L97.8824 63.9408C97.8824 63.9408 97.7592 68.162 92.9236 69.1308C88.088 70.0996 80.696 65.8092 80.696 65.8092L71.9796 69.6844Z" fill="white"/>
<path d="M88.2728 35.4304L96.5888 27.0226L99.2376 41.2432L99.2684 41.2778C99.2684 41.2778 99.3608 41.3816 99.5764 41.5546C100.254 42.1774 101.948 43.769 103.704 45.672C105.459 47.575 107.246 49.7548 108.108 51.554C111.28 58.128 111.342 63.4218 111.342 63.9062C111.342 63.9408 111.342 63.9408 111.342 63.9408V64.0446L111.434 64.0792C111.434 64.0792 111.465 64.0792 111.527 64.1138C111.958 64.2868 113.868 65.1172 115.777 66.7088C117.718 68.335 119.658 70.7224 120.182 74.0094C120.274 74.5976 120.336 75.2204 120.336 75.8778C120.336 79.5108 118.826 84.1472 114.946 88.2992C111.065 92.4512 104.812 96.1534 95.2952 97.8834C91.5684 98.5754 87.9648 98.8868 84.546 98.8868C68.9612 98.8868 56.8568 92.1052 50.8816 80.3066C49.2492 77.1234 48.6332 73.8364 48.6332 70.6532C48.6332 65.3248 50.3888 60.3424 52.1444 56.6748C53.0376 54.841 53.9 53.3532 54.5776 52.2806C54.9164 51.7616 55.1936 51.3464 55.3784 51.0696C55.4708 50.9312 55.5632 50.8274 55.594 50.7582C55.6248 50.7236 55.6248 50.689 55.6556 50.689L55.6864 50.6544C55.6864 50.6544 55.6864 50.6544 55.6864 50.5852C55.6864 50.5506 55.6556 50.4814 55.6248 50.4814C55.594 50.4468 55.5632 50.4468 55.5632 50.4468C55.5324 50.4468 55.5324 50.4468 55.5016 50.4468H55.4708L55.44 50.4814L55.5324 50.5852H55.6556L53.9616 27.4378L69.916 40.0668L70.0392 39.8592L53.6844 26.8842L55.44 50.9312L55.6248 50.689L55.6556 50.6544L55.6248 50.6198L55.6556 50.6544L55.6248 50.6198L55.6556 50.6544L55.5632 50.5506L55.6248 50.6544L55.5324 50.5506L55.594 50.6544L55.5324 50.5506L55.594 50.6544L55.5324 50.5506L55.594 50.6544L55.5324 50.5506L55.594 50.6544H55.6248L55.5632 50.5506L55.6248 50.6544L55.5632 50.5506V50.689C55.594 50.689 55.594 50.689 55.6248 50.689L55.5632 50.5852V50.7236V50.5852L55.5016 50.689C55.5324 50.7236 55.5632 50.7236 55.5632 50.7236V50.5852L55.5016 50.689L55.5632 50.5852H55.44C55.44 50.6198 55.4708 50.689 55.5016 50.689L55.5632 50.5852H55.44H55.5632L55.44 50.516C55.44 50.516 55.44 50.516 55.44 50.5852H55.5632L55.44 50.516L55.5324 50.5852L55.44 50.516V50.5506L55.5324 50.6198L55.44 50.5506C55.3784 50.6544 54.8856 51.2772 54.2388 52.3498C52.206 55.6022 48.356 62.7644 48.356 70.6878C48.356 73.9056 49.0028 77.2272 50.6352 80.4796C56.672 92.3474 68.8688 99.1982 84.5152 99.1636C87.9648 99.1636 91.5684 98.8176 95.326 98.1602C104.874 96.4302 111.188 92.728 115.1 88.5068C119.011 84.2856 120.551 79.58 120.551 75.8778C120.551 75.2204 120.49 74.563 120.397 73.9748C119.812 70.3764 117.594 67.816 115.5 66.1898C113.406 64.5636 111.496 63.837 111.465 63.837L111.434 63.9754H111.558C111.558 63.9754 111.558 63.9754 111.558 63.9408C111.558 63.4218 111.465 58.0588 108.293 51.4502C107.276 49.3742 105.059 46.7792 103.088 44.7032C101.116 42.6272 99.3916 41.1048 99.3916 41.1048L99.33 41.2086L99.4532 41.174L96.7428 26.5382L88.1188 35.2574L88.2728 35.4304Z" fill="#42291B"/>
<path d="M89.5048 37.6794C89.5048 37.6794 84.1148 35.984 78.2628 35.984C78.1396 35.984 78.0164 35.984 77.8932 35.984C72.6572 36.0532 67.5752 37.714 67.5444 37.714L67.606 37.9562C67.606 37.9562 67.6984 37.9216 67.8216 37.887C68.8688 37.5756 73.3348 36.2954 77.8624 36.2262C77.9856 36.2262 78.1088 36.2262 78.232 36.2262C81.1272 36.2262 83.93 36.6414 85.9936 37.0912C87.0408 37.2988 87.8724 37.5064 88.4884 37.6794C88.7964 37.7486 89.012 37.8178 89.166 37.887C89.32 37.9216 89.4124 37.9562 89.4124 37.9562L89.5048 37.6794Z" fill="#42291B"/>
<path d="M79.31 54.4604C82.3592 60.1348 81.8048 66.7434 78.078 69.2692C74.382 71.795 68.8996 69.2346 65.8504 63.5602C62.8012 57.8858 63.3556 51.2772 67.0824 48.7514C70.8092 46.2256 76.2916 48.786 79.31 54.4604Z" fill="white"/>
<path d="M79.31 54.4604L78.9096 54.7372C80.1724 57.1246 80.7884 59.685 80.7884 61.9686C80.7884 63.4564 80.542 64.8404 80.0184 66.0168C79.5256 67.1932 78.7864 68.1274 77.8316 68.7848C76.9384 69.373 75.9528 69.6844 74.8748 69.6844C73.3656 69.6844 71.764 69.0962 70.2548 67.989C68.7456 66.8818 67.3288 65.2902 66.2508 63.2488C64.988 60.896 64.372 58.3356 64.372 56.052C64.372 54.5642 64.6184 53.1802 65.142 52.0038C65.6348 50.8274 66.374 49.8932 67.3288 49.2358C68.222 48.6476 69.2076 48.3362 70.2856 48.3362C71.7948 48.3362 73.3964 48.9244 74.9056 50.0316C76.4148 51.1388 77.8316 52.7304 78.9096 54.7718L79.31 54.4604L79.7104 54.1836C78.54 52.0384 77.0616 50.3084 75.3984 49.0974C73.766 47.921 71.9796 47.229 70.2548 47.229C69.0536 47.229 67.8524 47.575 66.8052 48.267C65.6656 49.0282 64.8032 50.17 64.2488 51.4848C63.6636 52.8342 63.3864 54.3566 63.3864 56.0174C63.3864 58.5432 64.064 61.2766 65.4192 63.8024C66.5896 65.9476 68.068 67.6776 69.7312 68.8886C71.3636 70.065 73.15 70.757 74.8748 70.757C76.076 70.757 77.2772 70.411 78.3244 69.719C79.464 68.9578 80.3264 67.816 80.8808 66.5012C81.466 65.1518 81.7432 63.6294 81.7432 61.9686C81.7432 59.4428 81.0656 56.7094 79.7104 54.1836L79.31 54.4604Z" fill="#42291B"/>
<path d="M105.798 51.5194C108.847 57.1592 108.755 63.491 105.613 65.6362C102.472 67.7814 97.482 64.9096 94.4328 59.2352C91.3836 53.5608 91.476 47.2636 94.6176 45.1184C97.7592 42.9732 102.749 45.845 105.798 51.5194Z" fill="white"/>
<path d="M105.798 51.5194L105.398 51.7962C106.845 54.495 107.554 57.3322 107.554 59.7196C107.554 60.9652 107.369 62.107 106.999 63.0412C106.63 63.9754 106.106 64.702 105.398 65.1864C104.782 65.6016 104.073 65.8092 103.303 65.8092C101.979 65.8092 100.439 65.1864 98.9604 64.01C97.482 62.8336 96.0344 61.1036 94.8948 58.9584C93.4472 56.2596 92.7388 53.4224 92.7388 51.035C92.7388 49.7894 92.9236 48.6476 93.2932 47.748C93.6628 46.8138 94.2172 46.0872 94.9256 45.6028C95.5416 45.1876 96.25 44.98 97.02 44.98C98.3444 44.98 99.8844 45.6028 101.394 46.7792C102.872 47.9556 104.32 49.6856 105.459 51.8308L105.798 51.5194L105.459 51.1388L105.182 51.4502L105.367 51.7962L105.798 51.5194L106.137 51.9L106.414 51.5886L106.229 51.2426C105.028 48.9936 103.488 47.1598 101.886 45.8796C100.285 44.5994 98.56 43.8728 96.9584 43.8728C96.0344 43.8728 95.1412 44.115 94.3712 44.634C93.478 45.2568 92.8004 46.1564 92.3692 47.2636C91.938 48.3708 91.7224 49.6164 91.7224 51.0004C91.7224 53.63 92.4924 56.6402 94.0324 59.4774C95.2336 61.7264 96.7736 63.5602 98.3752 64.8404C99.9768 66.1206 101.671 66.8472 103.272 66.8472C104.196 66.8472 105.09 66.605 105.86 66.0514C106.753 65.4632 107.43 64.529 107.862 63.4218C108.293 62.3146 108.508 61.0344 108.508 59.685C108.508 57.0554 107.738 54.0452 106.229 51.208L105.798 51.5194L106.137 51.9L105.798 51.5194Z" fill="#42291B"/>
<path d="M76.0452 62.4184C76.0144 63.4564 75.306 64.2522 74.4744 64.2176C73.6428 64.183 72.9652 63.318 73.0268 62.28C73.0576 61.242 73.766 60.4462 74.5976 60.4808C75.4292 60.55 76.076 61.415 76.0452 62.4184Z" fill="#221E1F"/>
<path d="M104.012 59.5466C103.981 60.5846 103.272 61.3804 102.441 61.3458C101.609 61.3112 100.932 60.4462 100.962 59.4428C100.993 58.4048 101.702 57.609 102.564 57.6436C103.396 57.6782 104.042 58.5432 104.012 59.5466Z" fill="#221E1F"/>
<path d="M92.0304 66.4666C94.0632 66.5358 97.0508 66.3282 97.174 67.3662C97.2972 68.4388 95.1412 72.487 93.7244 72.5908C92.3076 72.6946 87.0716 69.4076 87.0716 67.47C87.0408 65.567 90.1516 66.3974 92.0304 66.4666Z" fill="#604B44"/>
<path d="M92.0304 66.4666V66.5704C93.0468 66.605 94.3096 66.5704 95.326 66.6742C95.8188 66.7088 96.2808 66.778 96.5888 66.9164C96.7428 66.9856 96.866 67.0548 96.9584 67.124C97.0508 67.1932 97.0816 67.297 97.1124 67.4008C97.1124 67.4354 97.1124 67.4354 97.1124 67.47C97.1124 67.7468 96.9892 68.1966 96.7736 68.7156C96.4656 69.5114 95.942 70.4456 95.3568 71.1722C95.0796 71.5528 94.7716 71.8642 94.4944 72.1064C94.2172 72.3486 93.94 72.487 93.7244 72.487C93.6936 72.487 93.6936 72.487 93.6628 72.487C93.324 72.487 92.708 72.2794 92.0304 71.968C91.014 71.4836 89.782 70.6878 88.8272 69.8574C88.3344 69.4422 87.934 68.9924 87.626 68.6118C87.318 68.1966 87.164 67.816 87.164 67.5046C87.164 67.2624 87.2256 67.0894 87.2872 66.951C87.4104 66.7434 87.626 66.5704 87.934 66.5012C88.242 66.3974 88.5808 66.3628 88.9812 66.3628C89.936 66.3628 91.1064 66.5704 91.9996 66.605H92.0304L92.0612 66.5704L92.0304 66.4666V66.5704V66.4666L91.9688 66.3974L92.0304 66.4666V66.3628C91.1372 66.3282 89.9976 66.1206 89.012 66.1206C88.4576 66.1206 87.9648 66.1898 87.5952 66.3974C87.4104 66.5012 87.2564 66.6396 87.1332 66.8126C87.01 66.9856 86.9792 67.2278 86.9792 67.5046C86.9792 68.0236 87.318 68.6118 87.8416 69.1654C88.6116 70.0304 89.7512 70.93 90.8908 71.5874C91.4452 71.9334 91.9996 72.2102 92.4924 72.4178C92.9852 72.6254 93.3856 72.7292 93.6936 72.7292C93.7244 72.7292 93.7552 72.7292 93.786 72.7292C94.1556 72.6946 94.556 72.4178 94.9564 72.0026C95.5416 71.4144 96.1268 70.5148 96.5888 69.6498C96.8044 69.2346 96.9892 68.7848 97.1124 68.4388C97.2356 68.0582 97.328 67.7468 97.328 67.5046C97.328 67.47 97.328 67.4354 97.328 67.4008C97.2972 67.2278 97.2356 67.0894 97.1124 66.9856C96.9276 66.8126 96.6196 66.6742 96.25 66.605C95.1412 66.3628 93.4164 66.432 92.0612 66.3974H92.0304L91.9996 66.432L92.0304 66.4666Z" fill="#42291B"/>
<path d="M51.0356 69.3038C51.0048 69.3038 48.4484 66.951 44.352 64.7366C39.8552 62.28 37.3296 61.588 37.2988 61.5534L37.0832 62.5914C37.2064 62.626 39.6396 63.318 43.9516 65.6708C45.9536 66.7434 47.586 67.8852 48.6948 68.7156C49.2492 69.1308 49.7112 69.4768 49.9884 69.719C50.1424 69.8574 50.2348 69.9266 50.3272 69.9958C50.358 70.0304 50.3888 70.065 50.4196 70.065L50.4504 70.0996L51.0356 69.3038Z" fill="#42291B"/>
<path d="M37.6684 74.9782C37.6684 74.9782 38.7156 75.1166 40.04 75.2896C41.3644 75.428 42.966 75.601 44.0748 75.601C44.1364 75.601 44.2288 75.601 44.2904 75.601C45.3376 75.5664 46.8468 75.4626 48.1096 75.3242C49.3724 75.2204 50.3888 75.1166 50.3888 75.1166L50.2964 74.044C50.2964 74.044 50.2348 74.044 50.1116 74.0786C49.7112 74.1132 48.6948 74.217 47.5552 74.3208C46.4156 74.4246 45.1528 74.5284 44.2596 74.5284C44.198 74.5284 44.1364 74.5284 44.0748 74.5284C43.0584 74.5284 41.4568 74.39 40.1632 74.217C39.5164 74.1478 38.9004 74.0786 38.5 74.0094C38.2844 73.9748 38.0996 73.9748 38.0072 73.9402C37.884 73.9402 37.8224 73.9056 37.8224 73.9056L37.6684 74.9782Z" fill="#42291B"/>
<path d="M57.7808 109.405C57.7808 109.405 57.8424 109.371 57.904 109.301C58.52 108.817 61.1688 106.706 63.5404 104.873C64.4644 104.181 65.5116 103.177 66.374 102.035C66.8052 101.482 67.1748 100.859 67.452 100.236C67.7292 99.6134 67.914 98.956 67.914 98.264C67.914 97.8834 67.8524 97.5374 67.7292 97.1568C67.5444 96.6032 67.2364 96.1188 66.7744 95.669C66.3124 95.2192 65.6964 94.8386 64.9572 94.4926C63.756 93.9736 62.678 93.7314 61.6616 93.7314C60.7068 93.7314 59.8136 93.939 58.9512 94.3196C57.6884 94.8732 56.518 95.7728 55.3476 96.8108C54.1772 97.8488 52.976 99.0252 51.6516 100.202C51.128 100.651 50.5428 101.067 49.9576 101.447C49.0952 102.07 48.202 102.658 47.4936 103.489C47.1548 103.904 46.8468 104.354 46.6312 104.907C46.4156 105.461 46.2924 106.049 46.2924 106.741C46.2924 107.225 46.354 107.71 46.4772 108.263C46.9084 110.201 47.894 113.696 49.5264 116.74C50.358 118.263 51.3436 119.681 52.5448 120.719C53.13 121.238 53.7768 121.688 54.4852 121.965C55.1936 122.276 55.9328 122.449 56.7336 122.449C57.6576 122.449 58.6432 122.207 59.6904 121.723C60.8608 121.169 61.6924 120.512 62.216 119.751C62.4932 119.37 62.678 118.955 62.832 118.54C62.9552 118.124 63.0168 117.675 63.0168 117.259C63.0168 116.74 62.9244 116.187 62.7704 115.668C62.4932 114.734 62.062 113.869 61.5076 113.004C60.7068 111.723 59.6904 110.478 58.828 109.44C58.3968 108.921 57.9964 108.436 57.6576 108.021C57.3188 107.606 57.0724 107.26 56.9492 107.018L56.1176 107.571C56.2716 107.848 56.4564 108.125 56.7028 108.436C57.1032 108.99 57.6576 109.613 58.2428 110.305C59.1052 111.343 60.0908 112.554 60.7992 113.765C61.1688 114.388 61.4768 114.976 61.6924 115.564C61.908 116.152 62.0312 116.706 62.0312 117.225C62.0312 117.536 62.0004 117.848 61.908 118.159C61.754 118.609 61.5076 119.024 61.1072 119.474C60.676 119.889 60.0908 120.304 59.29 120.685C58.366 121.135 57.5036 121.308 56.7028 121.308C56.0252 121.308 55.3784 121.169 54.7932 120.892C53.746 120.443 52.7912 119.647 51.9596 118.609C50.6968 117.052 49.6804 115.01 48.9104 113.038C48.1404 111.066 47.6476 109.198 47.3704 107.952C47.278 107.502 47.2164 107.087 47.2164 106.706C47.2164 105.98 47.3704 105.426 47.6476 104.942C47.8632 104.561 48.1096 104.215 48.4484 103.904C48.9412 103.419 49.5572 102.97 50.204 102.52C50.8508 102.07 51.5592 101.586 52.1752 101.032C53.9924 99.4404 55.5324 97.8834 57.0108 96.707C57.75 96.1188 58.4892 95.6344 59.2592 95.323C59.9984 94.977 60.7684 94.804 61.6308 94.804C62.524 94.804 63.4788 95.0116 64.5876 95.496C65.5116 95.9112 66.0968 96.3956 66.4664 96.8454C66.6512 97.0876 66.7744 97.3298 66.836 97.5374C66.9284 97.7796 66.9592 98.0218 66.9592 98.264C66.9592 98.7138 66.836 99.2328 66.6204 99.7518C66.2816 100.548 65.6964 101.343 65.0496 102.07C64.4028 102.797 63.6636 103.454 63.0168 103.938C60.2756 106.049 57.2264 108.506 57.2264 108.506L57.7808 109.405Z" fill="#42291B"/>
<path d="M82.4516 99.4058C82.4516 99.4058 82.4824 99.4404 82.544 99.475C82.9444 99.7518 84.7308 100.997 86.3632 103.004C87.1948 104.008 87.9648 105.461 88.8888 106.672C89.3508 107.295 89.8744 107.848 90.4596 108.229C91.0448 108.644 91.6916 108.886 92.4616 108.886C92.8928 108.886 93.3548 108.817 93.8476 108.609C95.2644 108.09 96.5272 106.983 97.7284 106.049C98.9296 105.08 100.1 104.284 101.332 104.284C102.287 104.284 103.334 104.769 104.535 106.084C105.336 106.983 105.675 107.883 105.675 108.782C105.675 109.717 105.305 110.685 104.689 111.585C102.872 114.318 98.9604 116.74 97.02 117.709C95.3876 118.54 93.8476 119.37 92.2768 119.37C90.7676 119.37 89.1968 118.643 87.3796 116.464C83.6528 111.966 82.2976 111.689 82.2668 111.689L82.236 111.896V111.862V111.896V111.862V111.896C82.236 111.896 83.5912 112.208 87.2564 116.602C89.0736 118.816 90.7368 119.578 92.3076 119.578C93.94 119.578 95.48 118.747 97.1432 117.917C98.4368 117.259 100.624 115.945 102.502 114.353C103.426 113.557 104.289 112.658 104.905 111.723C105.521 110.789 105.921 109.786 105.921 108.782C105.921 107.814 105.552 106.845 104.72 105.911C103.519 104.596 102.41 104.077 101.394 104.077C100.069 104.077 98.868 104.942 97.6668 105.876C96.4656 106.845 95.2336 107.917 93.8476 108.402C93.3548 108.575 92.9236 108.644 92.5232 108.644C91.8148 108.644 91.1988 108.402 90.6444 108.021C89.8128 107.433 89.1044 106.533 88.4576 105.565C87.8108 104.596 87.2256 103.592 86.5788 102.831C84.6692 100.513 82.6364 99.1982 82.6056 99.1982L82.4516 99.4058Z" fill="#42291B"/>
<path d="M83.5912 107.883C83.5912 107.883 83.5604 107.952 83.5296 108.09C83.3448 108.54 82.9136 109.647 82.3284 110.928C81.774 112.208 81.0656 113.626 80.4188 114.63C78.6324 117.398 77.2464 119.197 75.922 120.235L76.0452 120.443C77.4004 119.335 78.8172 117.571 80.6036 114.768C81.3736 113.592 82.1436 111.896 82.7596 110.478C83.3756 109.059 83.8068 107.952 83.8068 107.952L83.5912 107.883Z" fill="#42291B"/>
<path d="M71.8564 115.91C71.8564 115.91 79.9568 125.771 83.6528 129.715C85.932 132.103 90.8292 137.189 90.8292 137.189L90.86 137.224H90.9216C90.9216 137.224 90.9524 137.224 91.014 137.224C91.4144 137.154 93.1084 136.947 95.2644 136.947C97.6668 136.947 100.593 137.224 102.934 138.262C104.104 138.781 105.12 139.507 105.829 140.476C106.537 141.445 106.968 142.656 106.968 144.213C106.968 144.836 106.907 145.528 106.753 146.289C106.691 146.531 106.537 146.739 106.229 146.946C105.767 147.223 105.059 147.431 104.166 147.569C103.272 147.707 102.164 147.742 100.993 147.742C97.8208 147.742 93.9092 147.361 90.7984 146.946C89.2584 146.739 87.9032 146.566 86.9176 146.393C86.4248 146.323 86.0552 146.254 85.778 146.22C85.5008 146.185 85.3776 146.15 85.3776 146.15L85.3468 146.289L85.4392 146.185C85.4392 146.185 85.316 146.081 85.1004 145.839C83.5604 144.317 77.0924 137.881 72.6264 132.553C66.4048 125.114 61.1688 120.166 61.1688 120.166L61.0148 120.373C61.0148 120.373 61.1072 120.443 61.2612 120.616C62.3392 121.654 67.0208 126.255 72.4724 132.76C77.5852 138.884 85.2852 146.393 85.2852 146.393L85.316 146.427H85.3468C85.3468 146.427 94.5868 148.019 100.962 148.019C102.564 148.019 103.981 147.915 105.028 147.673C105.552 147.534 105.983 147.396 106.322 147.188C106.66 146.981 106.876 146.704 106.968 146.358C107.122 145.597 107.215 144.87 107.215 144.213C107.215 142.621 106.753 141.341 106.014 140.303C104.874 138.781 103.088 137.881 101.147 137.362C99.2068 136.843 97.0816 136.67 95.2644 136.67C92.7696 136.67 90.8908 136.947 90.8908 136.947L90.9216 137.085L91.014 136.981C91.014 136.981 90.9524 136.912 90.7984 136.774C89.8436 135.77 85.8396 131.653 83.8376 129.542C81.9896 127.57 79.0328 124.145 76.5688 121.169C75.3368 119.681 74.1972 118.332 73.3656 117.329C72.9652 116.844 72.6264 116.429 72.4108 116.152C72.1952 115.875 72.0412 115.737 72.0412 115.737L71.8564 115.91Z" fill="#42291B"/>
<path d="M47.0008 135.044C47.0008 135.113 47.0316 135.182 47.0316 135.251C47.124 135.494 47.3704 135.909 47.6784 136.428C48.1404 137.224 48.7564 138.296 49.28 139.473C49.7728 140.649 50.1732 141.929 50.1732 143.106C50.1732 144.005 49.9576 144.836 49.4032 145.562C48.8488 146.289 47.9864 146.912 46.6312 147.327C46.354 147.396 46.0768 147.465 45.7996 147.465C44.5984 147.465 43.274 146.773 41.9496 145.597C39.9476 143.867 37.9764 141.099 36.498 138.192C35.0196 135.321 34.034 132.31 34.034 130.096C34.034 129.404 34.1264 128.816 34.3112 128.297C34.496 127.778 34.804 127.397 35.2352 127.12C36.1284 126.498 37.0216 126.29 37.7916 126.29C38.654 126.29 39.3932 126.532 39.9168 126.809C40.194 126.947 40.3788 127.051 40.5328 127.155C40.5944 127.19 40.656 127.259 40.6868 127.259C40.7176 127.259 40.7176 127.293 40.7176 127.293L40.7484 127.328H40.7792C40.7792 127.328 44.66 126.152 47.4936 124.698C52.2984 122.207 53.9924 120.685 53.9924 120.685L53.8692 120.512H53.8384C53.6536 120.685 51.898 122.173 47.3704 124.491C45.9536 125.217 44.2904 125.875 42.966 126.359C42.3192 126.601 41.734 126.774 41.3336 126.913C41.118 126.982 40.964 127.017 40.8716 127.051C40.7792 127.086 40.6868 127.12 40.6868 127.12L40.7176 127.224L40.7792 127.155C40.7792 127.155 39.4856 126.082 37.73 126.082C36.9292 126.082 36.0052 126.29 35.0812 126.947C34.6192 127.259 34.3112 127.709 34.0956 128.228C33.88 128.781 33.7876 129.404 33.7876 130.096C33.7876 131.618 34.2188 133.452 34.958 135.39C36.0668 138.296 37.8224 141.341 39.7628 143.694C41.7032 146.047 43.8592 147.673 45.738 147.673C46.046 147.673 46.354 147.638 46.6312 147.534C48.0172 147.085 48.9412 146.462 49.4956 145.701C50.0808 144.939 50.2964 144.04 50.2964 143.106C50.2964 141.341 49.4956 139.473 48.6948 137.95C48.2944 137.189 47.894 136.532 47.6168 136.013C47.4628 135.77 47.3396 135.528 47.2472 135.39C47.2164 135.321 47.1856 135.251 47.1548 135.182C47.124 135.113 47.124 135.078 47.124 135.078L47.0008 135.044Z" fill="#42291B"/>
<path d="M66.3432 125.736C66.3432 125.736 66.3124 125.771 66.22 125.84C64.9264 126.774 54.362 134.144 45.3684 135.77L45.3992 135.978C50.2348 135.113 55.4708 132.587 59.5364 130.304C63.602 128.02 66.4356 125.909 66.4356 125.909L66.3432 125.736Z" fill="#42291B"/>
<path d="M49.4032 115.46C46.7544 114.907 43.6436 113.592 41.0872 110.824C38.5 108.021 36.7444 104.423 35.2044 101.551C34.4344 100.098 33.726 98.8522 32.9868 97.918C32.2476 97.0184 31.4776 96.4302 30.5536 96.4302C30.1532 96.4302 29.722 96.534 29.26 96.8108C28.4284 97.2952 27.72 98.264 27.258 99.5442C26.7652 100.824 26.5188 102.451 26.5188 104.215C26.5188 107.122 27.258 110.478 29.0136 113.557C30.7692 116.602 33.572 119.37 37.6992 121.1C42.2576 123.003 46.4772 123.176 49.8652 123.211V123.003C46.4772 122.968 42.2884 122.795 37.7608 120.892C33.6644 119.197 30.9232 116.464 29.1676 113.419C27.412 110.409 26.7036 107.087 26.7036 104.181C26.7036 102.451 26.9808 100.859 27.4428 99.6134C27.9048 98.3678 28.5824 97.4336 29.3524 96.9838C29.7836 96.7416 30.184 96.6378 30.5844 96.6378C31.416 96.6378 32.1244 97.1568 32.8636 98.0564C33.9416 99.4058 34.9888 101.551 36.2516 103.904C37.5144 106.257 38.9928 108.817 40.964 110.962C43.582 113.799 46.7236 115.08 49.3724 115.668L49.4032 115.46Z" fill="#42291B"/>
<path d="M116.054 71.3798C116.054 71.3798 117.317 71.2068 118.919 70.8954C119.72 70.757 120.582 70.584 121.444 70.3764C122.276 70.1688 123.108 69.9612 123.754 69.719C126.865 68.6464 128.99 66.7088 128.99 66.6742L128.374 65.8438C128.344 65.8784 126.311 67.6776 123.446 68.681C122.83 68.8886 122.03 69.0962 121.229 69.3038C119.997 69.5806 118.672 69.8228 117.656 69.9958C117.163 70.065 116.732 70.1342 116.424 70.2034C116.27 70.238 116.147 70.238 116.085 70.2726C115.993 70.2726 115.962 70.3072 115.962 70.3072L116.054 71.3798Z" fill="#42291B"/>
<path d="M116.054 78.715C116.054 78.715 116.824 79.0956 117.964 79.5454C119.104 79.9952 120.644 80.4796 122.214 80.7218C124.247 81.0332 125.849 81.0678 126.711 81.0678C127.173 81.0678 127.42 81.0678 127.42 81.0678L127.358 79.9952C127.327 79.9952 127.081 79.9952 126.711 79.9952C125.88 79.9952 124.34 79.9606 122.338 79.6492C120.859 79.407 119.35 78.9226 118.272 78.5074C117.718 78.2998 117.256 78.0922 116.948 77.9538C116.794 77.8846 116.67 77.8154 116.578 77.7808C116.547 77.7462 116.516 77.7462 116.486 77.7462H116.455L116.054 78.715Z" fill="#42291B"/>
<path d="M77.462 74.909L77.308 75.428C77.308 75.428 80.1108 76.5006 83.468 77.7116C85.1312 78.3344 86.9484 78.9572 88.6116 79.5454C90.2748 80.099 91.7532 80.618 92.8312 80.9294C94.9564 81.5522 97.944 82.175 100.377 82.6594C102.81 83.1438 104.72 83.4898 104.72 83.4898L104.782 82.9708L104.412 82.6248C104.32 82.7286 102.564 85.0468 99.8228 87.2958C98.4368 88.4376 96.8352 89.5448 95.0488 90.3752C93.2624 91.2056 91.322 91.7592 89.32 91.7592C88.1188 91.7592 86.856 91.5516 85.624 91.1018C83.8992 90.479 82.5132 89.787 81.4044 88.9912C79.7104 87.8148 78.6324 86.5 77.9548 85.0814C77.2772 83.6974 77 82.175 77 80.6526C77 78.7842 77.4004 76.8812 77.9548 75.082L77.462 74.909L77.308 75.428L77.462 74.909L77 74.736C76.4456 76.6044 76.0144 78.6112 76.0144 80.6526C76.0144 81.7598 76.1376 82.867 76.4456 83.9742C76.9076 85.6004 77.8008 87.192 79.2176 88.576C80.6652 89.96 82.6364 91.171 85.2852 92.1052C86.6404 92.5896 87.9956 92.7972 89.2892 92.7972C91.5068 92.7972 93.6012 92.209 95.48 91.3094C98.3136 89.96 100.716 87.9532 102.441 86.2924C104.135 84.6316 105.151 83.2822 105.151 83.2822L105.706 82.5556L104.874 82.4172C104.874 82.4172 104.751 82.3826 104.535 82.348C103.765 82.2096 101.825 81.8636 99.6072 81.3792C97.3896 80.9294 94.8948 80.3758 93.0776 79.8568C92.0304 79.5454 90.552 79.061 88.8888 78.5074C86.4248 77.6424 83.5912 76.639 81.4044 75.8432C80.2956 75.428 79.3716 75.082 78.694 74.8398C78.3552 74.7014 78.078 74.6322 77.924 74.563C77.7392 74.4938 77.6468 74.4592 77.6468 74.4592L77.1848 74.2862L77 74.736L77.462 74.909Z" fill="#42291B"/>
</svg>
