<?xml version="1.0" encoding="UTF-8" standalone="no"?>
<!DOCTYPE svg PUBLIC "-//W3C//DTD SVG 1.1//EN" "http://www.w3.org/Graphics/SVG/1.1/DTD/svg11.dtd">
<svg width="100%" height="100%" viewBox="0 0 1029 753" version="1.1" xmlns="http://www.w3.org/2000/svg" xmlns:xlink="http://www.w3.org/1999/xlink" xml:space="preserve" xmlns:serif="http://www.serif.com/" style="fill-rule:evenodd;clip-rule:evenodd;stroke-miterlimit:10;">
    <ellipse cx="512.256" cy="706.435" rx="256" ry="43" style="fill:rgb(222,227,243);fill-opacity:0.5;"/>
    <g opacity="0.45">
        <g transform="matrix(1,0,0,1,-85.7342,-73.7391)">
            <path d="M536.502,332.707C536.505,333.188 536.539,333.668 536.604,334.144C536.539,333.668 536.505,333.188 536.502,332.707Z" style="fill:rgb(161,217,0);fill-rule:nonzero;"/>
        </g>
        <g transform="matrix(1,0,0,1,-85.7342,-73.7391)">
            <path d="M665.418,301.82C665.438,301.948 665.462,302.075 665.477,302.204C665.462,302.075 665.438,301.948 665.418,301.82Z" style="fill:rgb(161,217,0);fill-rule:nonzero;"/>
        </g>
        <g transform="matrix(1,0,0,1,-85.7342,-73.7391)">
            <path d="M665.15,300.546C665.187,300.68 665.222,300.814 665.253,300.949C665.222,300.813 665.187,300.68 665.15,300.546Z" style="fill:rgb(161,217,0);fill-rule:nonzero;"/>
        </g>
        <g transform="matrix(1,0,0,1,-85.7342,-73.7391)">
            <path d="M665.284,335.124C665.235,335.345 665.178,335.562 665.116,335.778C665.178,335.562 665.235,335.345 665.284,335.124Z" style="fill:rgb(161,217,0);fill-rule:nonzero;"/>
        </g>
        <g transform="matrix(1,0,0,1,-85.7342,-73.7391)">
            <path d="M665.464,334.069C665.435,334.303 665.401,334.536 665.358,334.766C665.401,334.536 665.435,334.304 665.464,334.069Z" style="fill:rgb(161,217,0);fill-rule:nonzero;"/>
        </g>
        <g transform="matrix(1,0,0,1,-85.7342,-73.7391)">
            <path d="M542.464,342.523C541.605,342.074 540.809,341.514 540.095,340.858C540.809,341.514 541.605,342.074 542.464,342.523Z" style="fill:rgb(161,217,0);fill-rule:nonzero;"/>
        </g>
        <g transform="matrix(1,0,0,1,-85.7342,-73.7391)">
            <path d="M540.009,340.779C539.674,340.465 539.358,340.13 539.064,339.777C539.358,340.13 539.673,340.465 540.009,340.779Z" style="fill:rgb(161,217,0);fill-rule:nonzero;"/>
        </g>
        <g transform="matrix(1,0,0,1,-85.7342,-73.7391)">
            <path d="M730.248,552.174C730.118,551.736 729.961,551.306 729.778,550.888C729.961,551.307 730.118,551.736 730.248,552.174Z" style="fill:rgb(161,217,0);fill-rule:nonzero;"/>
        </g>
        <g transform="matrix(1,0,0,1,-85.7342,-73.7391)">
            <path d="M724.741,545.507C725.178,545.735 725.6,545.992 726.003,546.276C725.6,545.992 725.179,545.735 724.741,545.507Z" style="fill:rgb(161,217,0);fill-rule:nonzero;"/>
        </g>
        <g transform="matrix(1,0,0,1,-85.7342,-73.7391)">
            <path d="M727.219,547.272C727.895,547.909 728.489,548.628 728.986,549.412C728.489,548.627 727.895,547.909 727.219,547.272Z" style="fill:rgb(161,217,0);fill-rule:nonzero;"/>
        </g>
        <g transform="matrix(1,0,0,1,-85.7342,-73.7391)">
            <path d="M726.041,546.305C726.408,546.567 726.759,546.852 727.092,547.157C726.759,546.852 726.409,546.567 726.041,546.305Z" style="fill:rgb(161,217,0);fill-rule:nonzero;"/>
        </g>
        <g transform="matrix(1,0,0,1,-85.7342,-73.7391)">
            <path d="M729.682,550.69C729.516,550.332 729.331,549.983 729.128,549.645C729.331,549.983 729.516,550.332 729.682,550.69Z" style="fill:rgb(161,217,0);fill-rule:nonzero;"/>
        </g>
        <g transform="matrix(1,0,0,1,-85.7342,-73.7391)">
            <path d="M730.553,553.54C730.493,553.171 730.415,552.806 730.318,552.445C730.415,552.806 730.493,553.171 730.553,553.54Z" style="fill:rgb(161,217,0);fill-rule:nonzero;"/>
        </g>
        <g transform="matrix(1,0,0,1,-85.7342,-73.7391)">
            <path d="M1064.2,492.883L1000.55,492.883C1003.53,490.819 1005.31,487.415 1005.31,483.79L1005.31,454.567C1005.31,448.492 1000.31,443.493 994.234,443.493L920.969,443.493C925.547,442.031 928.676,437.749 928.677,432.943L928.677,403.721C928.678,400.095 926.896,396.692 923.915,394.628L994.234,394.628C1000.31,394.628 1005.31,389.629 1005.31,383.554L1005.31,354.331C1005.31,348.256 1000.31,343.257 994.234,343.257L915.957,343.257C920.535,341.795 923.664,337.513 923.665,332.707L923.665,303.484C923.666,299.859 921.884,296.455 918.903,294.391L994.234,294.391C1000.31,294.391 1005.31,289.392 1005.31,283.317L1005.31,254.094C1005.31,248.019 1000.31,243.02 994.234,243.02L954.798,243.02C959.377,241.559 962.506,237.277 962.507,232.471L962.507,203.248C962.507,197.173 957.507,192.174 951.432,192.174L844.527,192.174C838.451,192.174 833.452,197.173 833.452,203.248C833.452,203.248 833.452,203.248 833.452,203.248C833.452,203.248 833.452,203.248 833.452,203.248C833.452,197.173 828.453,192.174 822.378,192.174L715.473,192.174C711.172,192.176 707.246,194.684 705.438,198.586C705.579,199.296 705.65,200.018 705.651,200.742L705.651,229.965C705.65,231.573 705.296,233.162 704.615,234.619C705.114,237.142 706.477,239.413 708.468,241.039L735.924,241.039C738.481,241.036 740.962,241.922 742.938,243.545L754.908,243.545C750.329,245.006 747.2,249.289 747.199,254.095C747.197,253.39 747.128,252.688 746.993,251.996C746.993,252.036 746.999,252.074 746.999,252.113L746.999,281.336C746.995,282.268 746.874,283.196 746.637,284.097C746.815,284.285 746.974,284.49 747.113,284.708C747.171,284.247 747.199,283.782 747.199,283.317C747.205,283.959 747.268,284.599 747.385,285.231C747.532,285.583 747.616,285.958 747.633,286.339C748.332,288.801 749.862,290.947 751.962,292.41L742.437,292.41C742.522,292.351 742.598,292.279 742.682,292.218C741.797,292.24 740.907,292.143 740.021,292.133C739.705,292.129 739.392,292.064 739.101,291.942C738.07,292.252 737,292.409 735.924,292.41L670.319,294.391C667.338,296.455 665.556,299.859 665.557,303.484L665.557,332.707C665.557,337.513 668.686,341.795 673.265,343.256L735.924,343.781C737.026,343.781 738.121,343.945 739.175,344.268C739.874,344.329 740.566,344.451 741.245,344.632C741.297,344.62 741.349,344.616 741.401,344.605C740.792,344.271 740.153,343.995 739.491,343.781L754.907,343.781C750.329,345.243 747.2,349.525 747.199,354.331C747.198,353.689 747.142,353.048 747.03,352.416C746.957,352.521 746.876,352.62 746.787,352.713C746.927,353.419 746.998,354.136 746.999,354.855L746.999,384.078C746.999,385.434 747.199,385.108 747.199,383.553C747.198,387.179 748.981,390.582 751.962,392.646L791.054,393.899C792.395,393.901 793.724,394.148 794.977,394.628L804.385,394.628C802.701,395.805 801.376,397.425 800.558,399.309C801.585,401.02 802.128,402.978 802.128,404.974L802.128,434.196C802.129,435.722 801.813,437.231 801.2,438.628C802.585,440.939 804.765,442.669 807.331,443.493L797.059,443.493C795.272,444.654 793.185,445.271 791.054,445.27L752.274,445.27C749.114,447.302 747.199,450.811 747.199,454.567C747.199,450.665 745.746,489.124 745.746,489.124C745.746,492.578 806.09,494.136 806.09,494.136C807.623,494.135 809.14,494.455 810.542,495.074C811.172,494.94 811.816,494.884 812.459,494.909C812.439,494.895 812.422,494.878 812.402,494.864L821.926,494.864C818.945,496.928 817.163,500.331 817.164,503.957C817.161,503.428 817.12,502.901 817.042,502.378C816.989,502.498 816.935,502.617 816.875,502.731C817.065,503.544 817.161,504.375 817.164,505.21L817.164,533.18C817.164,539.255 822.163,544.254 828.238,544.254C828.238,544.254 828.238,544.254 828.238,544.254L811.195,544.254C809.619,545.077 807.867,545.507 806.09,545.507L736.679,545.507C733.018,547.407 730.711,551.203 730.71,555.328L730.71,584.551C730.71,590.626 735.709,595.625 741.785,595.625L848.69,595.625C854.765,595.625 859.764,590.626 859.764,584.551C859.764,584.551 859.764,584.551 859.764,584.55C859.764,584.551 859.764,584.551 859.764,584.551C859.764,590.626 864.763,595.625 870.839,595.625L977.744,595.625C983.82,595.625 988.819,590.626 988.819,584.551L988.819,555.328C988.819,549.253 983.82,544.254 977.744,544.254C977.744,544.254 977.744,544.254 977.744,544.254L1064.2,544.254C1070.27,544.254 1075.27,539.255 1075.27,533.18L1075.27,503.957C1075.27,497.882 1070.27,492.883 1064.2,492.883ZM799.373,294.391C796.392,296.455 794.61,299.859 794.611,303.484C794.612,299.859 792.829,296.455 789.849,294.391L799.373,294.391ZM786.903,343.257C791.481,341.795 794.61,337.513 794.611,332.707C794.612,337.513 797.741,341.795 802.319,343.257L786.903,343.257ZM825.744,243.02C830.323,241.559 833.451,237.277 833.452,232.471C833.453,237.277 836.582,241.559 841.161,243.02L825.744,243.02ZM859.764,555.328C859.764,555.328 859.764,555.328 859.764,555.328C859.764,549.253 854.765,544.254 848.69,544.254C848.69,544.254 848.69,544.254 848.69,544.254L870.839,544.254C870.839,544.254 870.839,544.254 870.839,544.254C864.763,544.254 859.764,549.253 859.764,555.328C859.764,555.328 859.764,555.328 859.764,555.328ZM871.491,492.883C874.472,490.819 876.255,487.415 876.253,483.79C876.253,487.415 878.035,490.819 881.016,492.883L871.491,492.883ZM876.253,454.567C876.253,449.761 873.124,445.479 868.545,444.017L883.962,444.017C879.383,445.479 876.255,449.761 876.253,454.567ZM871.491,392.646C874.472,390.582 876.255,387.179 876.253,383.553C876.253,387.179 878.035,390.582 881.016,392.646L871.491,392.646ZM876.253,354.331C876.253,349.525 873.124,345.243 868.545,343.781L883.962,343.781C879.383,345.243 876.255,349.525 876.253,354.331ZM871.491,292.41C874.472,290.346 876.255,286.943 876.253,283.317C876.253,286.943 878.035,290.346 881.016,292.41L871.491,292.41ZM876.253,254.095C876.253,249.289 873.124,245.006 868.545,243.545L883.962,243.545C879.383,245.006 876.255,249.289 876.253,254.095ZM950.98,494.864C948,496.928 946.217,500.331 946.218,503.957C946.219,500.331 944.437,496.928 941.456,494.864L950.98,494.864ZM935.144,544.254C935.144,544.254 935.144,544.254 935.144,544.254C941.219,544.254 946.218,539.255 946.218,533.179C946.218,533.179 946.218,533.179 946.218,533.179C946.218,533.179 946.218,533.179 946.218,533.179C946.218,539.255 951.217,544.254 957.292,544.254C957.293,544.254 957.293,544.254 957.293,544.254L935.144,544.254Z" style="fill:rgb(94,218,18);fill-rule:nonzero;"/>
        </g>
        <g transform="matrix(1,0,0,1,-85.7342,-73.7391)">
            <path d="M730.71,555.328C730.707,554.856 730.674,554.385 730.611,553.918C730.674,554.385 730.707,554.856 730.71,555.328Z" style="fill:rgb(161,217,0);fill-rule:nonzero;"/>
        </g>
        <g transform="matrix(1,0,0,1,-85.7342,-73.7391)">
            <path d="M665.557,332.707C665.557,333.058 665.536,333.404 665.504,333.746C665.536,333.404 665.557,333.058 665.557,332.707Z" style="fill:rgb(161,217,0);fill-rule:nonzero;"/>
        </g>
        <g transform="matrix(1,0,0,1,-85.7342,-73.7391)">
            <path d="M536.63,334.358C536.698,334.803 536.792,335.242 536.913,335.675C536.792,335.242 536.698,334.803 536.63,334.358Z" style="fill:rgb(161,217,0);fill-rule:nonzero;"/>
        </g>
        <g transform="matrix(1,0,0,1,-85.7342,-73.7391)">
            <path d="M412.698,399.654C412.514,399.491 412.355,399.302 412.226,399.093C412.066,398.807 411.959,398.493 411.912,398.169C411.884,398.928 411.896,399.688 411.946,400.446C412.282,401.505 412.455,402.61 412.46,403.721C412.465,402.641 412.628,401.567 412.946,400.535C412.845,400.284 412.767,400.025 412.712,399.761C412.705,399.724 412.705,399.69 412.698,399.654Z" style="fill:rgb(94,218,18);fill-rule:nonzero;"/>
        </g>
        <g transform="matrix(1,0,0,1,-85.7342,-73.7391)">
            <path d="M564.27,192.174L457.364,192.174C451.289,192.174 446.29,197.173 446.29,203.248C446.29,203.248 446.29,203.248 446.29,203.248C446.29,203.248 446.29,203.248 446.29,203.248C446.29,197.173 441.291,192.174 435.215,192.174L328.31,192.174C322.235,192.174 317.236,197.173 317.236,203.248L317.236,232.471C317.237,237.277 320.365,241.559 324.944,243.02L242.057,243.02C235.982,243.02 230.983,248.019 230.983,254.095L230.983,283.317C230.982,286.943 232.764,290.346 235.745,292.41L160.414,292.41C154.339,292.41 149.34,297.409 149.34,303.484L149.34,332.707C149.34,338.782 154.339,343.781 160.414,343.781L238.691,343.781C234.112,345.243 230.984,349.525 230.983,354.331L230.983,383.553C230.982,387.179 232.764,390.582 235.745,392.646L165.426,392.646C159.351,392.646 154.352,397.646 154.352,403.721L154.352,432.943C154.352,439.018 159.351,444.017 165.426,444.017L238.691,444.017C234.112,445.479 230.984,449.761 230.983,454.567L230.983,483.79C230.983,489.865 235.982,494.864 242.057,494.864L305.709,494.864C302.729,496.928 300.946,500.331 300.947,503.957L300.947,533.179C300.947,539.255 305.946,544.254 312.022,544.254L225.568,544.254C219.493,544.254 214.493,549.253 214.493,555.328L214.493,584.55C214.493,590.626 219.493,595.625 225.568,595.625L332.473,595.625C338.548,595.625 343.548,590.626 343.548,584.55C343.548,584.55 343.548,584.55 343.548,584.55C343.548,584.55 343.548,584.55 343.548,584.55C343.548,590.626 348.547,595.625 354.622,595.625L461.527,595.625C467.603,595.625 472.602,590.626 472.602,584.55L472.602,555.328C472.601,551.203 470.294,547.407 466.633,545.507L443.582,545.507C441.804,545.507 440.052,545.077 438.477,544.254L418.927,544.254C425.002,544.254 430.001,539.255 430.001,533.179C430.001,537.998 432.507,505.21 432.507,505.21C432.507,505.21 432.507,505.21 432.507,505.21C432.507,499.135 437.506,494.136 443.582,494.136C443.582,494.136 443.582,494.136 443.582,494.136L484.329,492.883C485.491,492.069 486.487,491.041 487.263,489.854C486.686,488.498 486.387,487.04 486.384,485.567L486.384,456.345C486.382,454.178 487.019,452.058 488.216,450.251C487.346,448.208 485.883,446.473 484.017,445.27L426.04,445.27C423.909,445.271 421.823,444.654 420.036,443.493L404.752,443.493C409.33,442.031 412.459,437.749 412.46,432.943L412.067,403.934C412.067,402.627 411.998,401.47 411.946,400.446C411.217,398.089 409.721,396.04 407.698,394.628L417.222,394.628C417.15,394.678 417.087,394.738 417.016,394.789C422.415,394.48 484.091,390.862 489.105,386.826C488.977,386.061 488.952,385.281 489.031,384.508C488.942,383.952 488.894,383.389 488.89,382.825L488.89,353.603C488.89,353.24 488.91,352.882 488.944,352.528C488.265,348.431 485.338,345.046 481.383,343.781L494.859,343.781C496.435,342.958 498.187,342.528 499.965,342.528L530.532,342.528C534.195,340.629 536.502,336.832 536.502,332.707L536.502,303.484C536.503,299.859 534.721,296.455 531.74,294.391L499.965,292.41C494.58,292.41 491.018,290.438 493.853,292.41L484.329,292.41C487.289,290.359 489.068,286.984 489.087,283.382C488.958,282.708 488.892,282.023 488.89,281.336L488.89,252.113C488.89,252.089 488.893,252.066 488.894,252.042C488.139,248.052 485.25,244.784 481.383,243.545L492.951,243.545C494.927,241.922 497.407,241.036 499.965,241.039L571.274,241.039C573.849,238.942 575.346,235.792 575.344,232.471L575.344,203.248C575.344,197.173 570.345,192.174 564.27,192.174ZM283.156,294.391C280.175,296.455 278.393,299.859 278.394,303.484C278.395,299.859 276.613,296.455 273.632,294.391L283.156,294.391ZM278.394,332.707C278.395,337.513 281.524,341.795 286.102,343.257L270.686,343.257C275.264,341.795 278.393,337.513 278.394,332.707L278.394,332.707ZM288.168,394.628C285.187,396.692 283.405,400.095 283.406,403.721C283.407,400.095 281.624,396.692 278.644,394.628L288.168,394.628ZM275.698,443.493C280.276,442.031 283.405,437.749 283.406,432.943C283.407,437.749 286.536,442.031 291.114,443.493L275.698,443.493ZM412.21,294.391C409.23,296.455 407.447,299.859 407.448,303.484C407.449,299.859 405.667,296.455 402.686,294.391L412.21,294.391ZM343.548,555.328C343.548,555.328 343.548,555.328 343.548,555.328C343.548,549.253 338.548,544.254 332.473,544.254C332.473,544.254 332.473,544.254 332.473,544.254L354.622,544.254C354.622,544.254 354.622,544.254 354.622,544.254C348.547,544.254 343.548,549.253 343.548,555.328C343.548,555.328 343.548,555.328 343.548,555.328ZM355.274,492.883C358.255,490.819 360.038,487.415 360.037,483.79C360.036,487.415 361.818,490.819 364.799,492.883L355.274,492.883ZM360.037,454.567C360.036,449.761 356.907,445.479 352.329,444.017L367.745,444.017C363.167,445.479 360.038,449.761 360.037,454.567ZM355.274,392.646C358.255,390.582 360.038,387.179 360.037,383.553C360.036,387.179 361.818,390.582 364.799,392.646L355.274,392.646ZM360.037,354.331C360.036,349.525 356.907,345.243 352.329,343.781L367.745,343.781C363.167,345.243 360.038,349.525 360.037,354.331ZM355.274,292.41C358.255,290.346 360.038,286.943 360.037,283.317C360.036,286.943 361.818,290.346 364.799,292.41L355.274,292.41ZM360.037,254.095C360.036,249.289 356.907,245.006 352.329,243.545L367.745,243.545C363.167,245.006 360.038,249.289 360.037,254.095ZM399.74,343.257C404.318,341.795 407.447,337.513 407.448,332.707C407.449,337.513 410.578,341.795 415.157,343.257L399.74,343.257ZM438.581,243.02C443.16,241.559 446.289,237.277 446.29,232.471C446.291,237.277 449.42,241.559 453.998,243.02L438.581,243.02Z" style="fill:rgb(94,218,18);fill-rule:nonzero;"/>
        </g>
        <g transform="matrix(1,0,0,1,-85.7342,-73.7391)">
            <path d="M540.143,295.293C540.196,295.245 540.247,295.197 540.3,295.15C540.247,295.197 540.196,295.245 540.143,295.293Z" style="fill:rgb(161,217,0);fill-rule:nonzero;"/>
        </g>
        <g transform="matrix(1,0,0,1,-85.7342,-73.7391)">
            <path d="M539.407,296.027C539.352,296.086 539.297,296.145 539.244,296.206C539.297,296.145 539.353,296.086 539.407,296.027Z" style="fill:rgb(161,217,0);fill-rule:nonzero;"/>
        </g>
        <g transform="matrix(1,0,0,1,-85.7342,-73.7391)">
            <path d="M538.478,297.18C538.503,297.144 538.532,297.11 538.557,297.074C538.531,297.11 538.503,297.144 538.478,297.18Z" style="fill:rgb(161,217,0);fill-rule:nonzero;"/>
        </g>
        <g transform="matrix(1,0,0,1,-85.7342,-73.7391)">
            <path d="M536.979,335.901C537.107,336.332 537.262,336.754 537.442,337.166C537.262,336.754 537.107,336.332 536.979,335.901Z" style="fill:rgb(161,217,0);fill-rule:nonzero;"/>
        </g>
        <g transform="matrix(1,0,0,1,-85.7342,-73.7391)">
            <path d="M538.16,338.53C538.408,338.927 538.682,339.308 538.978,339.671C538.682,339.308 538.408,338.927 538.16,338.53Z" style="fill:rgb(161,217,0);fill-rule:nonzero;"/>
        </g>
        <g transform="matrix(1,0,0,1,-85.7342,-73.7391)">
            <path d="M537.498,337.283C537.69,337.709 537.909,338.122 538.153,338.519C537.909,338.122 537.69,337.709 537.498,337.283Z" style="fill:rgb(161,217,0);fill-rule:nonzero;"/>
        </g>
        <g transform="matrix(1,0,0,1,-85.7342,-73.7391)">
            <path d="M536.806,300.949C536.837,300.814 536.872,300.68 536.909,300.546C536.872,300.68 536.837,300.813 536.806,300.949Z" style="fill:rgb(161,217,0);fill-rule:nonzero;"/>
        </g>
        <g transform="matrix(1,0,0,1,-85.7342,-73.7391)">
            <path d="M537.18,299.701C537.22,299.591 537.257,299.479 537.3,299.371C537.257,299.479 537.22,299.591 537.18,299.701Z" style="fill:rgb(161,217,0);fill-rule:nonzero;"/>
        </g>
        <g transform="matrix(1,0,0,1,-85.7342,-73.7391)">
            <path d="M536.582,302.204C536.597,302.075 536.621,301.948 536.641,301.82C536.621,301.948 536.597,302.075 536.582,302.204Z" style="fill:rgb(161,217,0);fill-rule:nonzero;"/>
        </g>
        <g transform="matrix(1,0,0,1,-85.7342,-73.7391)">
            <path d="M537.79,298.309C537.796,298.296 537.802,298.282 537.808,298.269C537.802,298.282 537.796,298.296 537.79,298.309Z" style="fill:rgb(161,217,0);fill-rule:nonzero;"/>
        </g>
        <g transform="matrix(-1,7.65714e-16,-7.65714e-16,-1,680.297,361.98)">
            <path d="M447.543,201.012C447.543,196.134 443.582,192.174 438.704,192.174L327.327,192.174C322.449,192.174 318.489,196.134 318.489,201.012L318.489,234.706C318.489,239.584 322.449,243.545 327.327,243.545L438.704,243.545C443.582,243.545 447.543,239.584 447.543,234.706L447.543,201.012Z" style="fill-opacity:0.1;"/>
        </g>
        <g transform="matrix(-1,7.65714e-16,-7.65714e-16,-1,1452.12,361.98)">
            <path d="M833.452,201.012C833.452,196.134 829.492,192.174 824.614,192.174L713.237,192.174C708.359,192.174 704.398,196.134 704.398,201.012L704.398,234.706C704.398,239.584 708.359,243.545 713.237,243.545L824.614,243.545C829.492,243.545 833.452,239.584 833.452,234.706L833.452,201.012Z" style="fill:rgb(94,218,18);fill-opacity:0.1;"/>
        </g>
        <g transform="matrix(-1,7.65714e-16,-7.65714e-16,-1,1795.43,462.216)">
            <path d="M1005.11,251.131C1005.11,246.252 1001.15,242.292 996.268,242.292L884.891,242.292C880.013,242.292 876.053,246.252 876.053,251.131L876.053,284.824C876.053,289.703 880.013,293.663 884.891,293.663L996.268,293.663C1001.15,293.663 1005.11,289.703 1005.11,284.824L1005.11,251.131Z" style="fill-opacity:0.1;"/>
        </g>
        <g transform="matrix(-1,7.65714e-16,-7.65714e-16,-1,1374.43,562.452)">
            <path d="M794.611,301.249C794.611,296.371 790.65,292.41 785.772,292.41L674.395,292.41C669.517,292.41 665.557,296.371 665.557,301.249L665.557,334.943C665.557,339.821 669.517,343.781 674.395,343.781L785.772,343.781C790.65,343.781 794.611,339.821 794.611,334.943L794.611,301.249Z" style="fill-opacity:0.1;"/>
        </g>
        <g transform="matrix(-1,7.65714e-16,-7.65714e-16,-1,1795.43,665.194)">
            <path d="M1005.11,352.62C1005.11,347.742 1001.15,343.781 996.268,343.781L884.891,343.781C880.013,343.781 876.053,347.742 876.053,352.62L876.053,386.314C876.053,391.192 880.013,395.152 884.891,395.152L996.268,395.152C1001.15,395.152 1005.11,391.192 1005.11,386.314L1005.11,352.62Z" style="fill-opacity:0.1;"/>
        </g>
        <g transform="matrix(-1,7.65714e-16,-7.65714e-16,-1,1795.43,865.667)">
            <path d="M1005.11,452.856C1005.11,447.978 1001.15,444.017 996.268,444.017L884.891,444.017C880.013,444.017 876.053,447.978 876.053,452.856L876.053,486.55C876.053,491.428 880.013,495.389 884.891,495.389L996.268,495.389C1001.15,495.389 1005.11,491.428 1005.11,486.55L1005.11,452.856Z" style="fill-opacity:0.1;"/>
        </g>
        <g transform="matrix(1,0,0,1,-85.7342,-73.7391)">
            <path d="M938.155,494.136L825.227,494.136C821.656,494.137 818.492,496.511 817.491,499.938C817.521,500.394 817.49,500.851 817.4,501.298C817.342,501.56 817.265,501.818 817.17,502.07C817.17,502.113 817.164,502.155 817.164,502.199L817.164,537.444C817.164,541.867 820.804,545.507 825.227,545.507L938.155,545.507C942.578,545.507 946.218,541.867 946.218,537.444L946.218,502.199C946.218,497.775 942.578,494.136 938.155,494.136Z" style="fill-opacity:0.1;fill-rule:nonzero;"/>
        </g>
        <g transform="matrix(-1,7.65714e-16,-7.65714e-16,-1,1504.74,1066.14)">
            <path d="M859.764,553.092C859.764,548.214 855.804,544.254 850.926,544.254L739.549,544.254C734.671,544.254 730.71,548.214 730.71,553.092L730.71,586.786C730.71,591.664 734.671,595.625 739.549,595.625L850.926,595.625C855.804,595.625 859.764,591.664 859.764,586.786L859.764,553.092Z" style="fill-opacity:0.1;"/>
        </g>
        <g transform="matrix(-1,7.65714e-16,-7.65714e-16,-1,762.992,462.216)">
            <path d="M488.89,251.131C488.89,246.252 484.93,242.292 480.052,242.292L368.675,242.292C363.796,242.292 359.836,246.252 359.836,251.131L359.836,284.824C359.836,289.703 363.796,293.663 368.675,293.663L480.052,293.663C484.93,293.663 488.89,289.703 488.89,284.824L488.89,251.131Z" style="fill-opacity:0.1;"/>
        </g>
        <g transform="matrix(-1,7.65714e-16,-7.65714e-16,-1,602.614,562.452)">
            <path d="M408.701,301.249C408.701,296.371 404.741,292.41 399.863,292.41L288.486,292.41C283.607,292.41 279.647,296.371 279.647,301.249L279.647,334.943C279.647,339.821 283.607,343.781 288.486,343.781L399.863,343.781C404.741,343.781 408.701,339.821 408.701,334.943L408.701,301.249Z" style="fill:rgb(94,218,18);fill-opacity:0.1;"/>
        </g>
        <g transform="matrix(-1,7.65714e-16,-7.65714e-16,-1,504.884,665.194)">
            <path d="M359.836,352.62C359.836,347.742 355.876,343.781 350.997,343.781L239.62,343.781C234.742,343.781 230.782,347.742 230.782,352.62L230.782,386.314C230.782,391.192 234.742,395.152 239.62,395.152L350.997,395.152C355.876,395.152 359.836,391.192 359.836,386.314L359.836,352.62Z" style="fill:rgb(94,218,18);fill-opacity:0.1;"/>
        </g>
        <g transform="matrix(-1,7.65714e-16,-7.65714e-16,-1,610.132,765.431)">
            <path d="M412.46,402.738C412.46,397.86 408.5,393.899 403.621,393.899L292.244,393.899C287.366,393.899 283.406,397.86 283.406,402.738L283.406,436.432C283.406,441.31 287.366,445.27 292.244,445.27L403.621,445.27C408.5,445.27 412.46,441.31 412.46,436.432L412.46,402.738Z" style="fill:rgb(94,218,18);fill-opacity:0.1;"/>
        </g>
        <g transform="matrix(-1,7.65714e-16,-7.65714e-16,-1,504.884,865.667)">
            <path d="M359.836,452.856C359.836,447.978 355.876,444.017 350.997,444.017L239.62,444.017C234.742,444.017 230.782,447.978 230.782,452.856L230.782,486.55C230.782,491.428 234.742,495.389 239.62,495.389L350.997,495.389C355.876,495.389 359.836,491.428 359.836,486.55L359.836,452.856Z" style="fill:rgb(94,218,18);fill-opacity:0.1;"/>
        </g>
        <g transform="matrix(-1,7.65714e-16,-7.65714e-16,-1,388.116,966.014)">
            <path d="M301.452,503.03C301.452,498.152 297.492,494.191 292.613,494.191L181.236,494.191C176.358,494.191 172.398,498.152 172.398,503.03L172.398,536.724C172.398,541.602 176.358,545.562 181.236,545.562L292.613,545.562C297.492,545.562 301.452,541.602 301.452,536.724L301.452,503.03Z" style="fill:rgb(94,218,18);"/>
        </g>
        <g transform="matrix(-1,7.65714e-16,-7.65714e-16,-1,1895.15,765.32)">
            <path d="M1054.97,402.682C1054.97,397.804 1051.01,393.844 1046.13,393.844L934.754,393.844C929.876,393.844 925.915,397.804 925.915,402.682L925.915,436.376C925.915,441.254 929.876,445.215 934.754,445.215L1046.13,445.215C1051.01,445.215 1054.97,441.254 1054.97,436.376L1054.97,402.682Z" style="fill:rgb(94,218,18);"/>
        </g>
        <g transform="matrix(-1,7.65714e-16,-7.65714e-16,-1,1884.2,562.8)">
            <path d="M1049.5,301.423C1049.5,296.545 1045.54,292.584 1040.66,292.584L929.281,292.584C924.402,292.584 920.442,296.545 920.442,301.423L920.442,335.117C920.442,339.995 924.402,343.955 929.281,343.955L1040.66,343.955C1045.54,343.955 1049.5,339.995 1049.5,335.117L1049.5,301.423Z" style="fill:rgb(94,218,18);"/>
        </g>
        <g transform="matrix(-1,7.65714e-16,-7.65714e-16,-1,2013.74,1064.54)">
            <path d="M1114.27,552.291C1114.27,547.413 1110.31,543.453 1105.43,543.453L994.05,543.453C989.172,543.453 985.212,547.413 985.212,552.291L985.212,585.985C985.212,590.863 989.172,594.824 994.05,594.824L1105.43,594.824C1110.31,594.824 1114.27,590.863 1114.27,585.985L1114.27,552.291Z" style="fill:rgb(94,218,18);"/>
        </g>
        <g transform="matrix(-1,7.65714e-16,-7.65714e-16,-1,214.788,1066.36)">
            <path d="M214.788,553.203C214.788,548.325 210.828,544.365 205.95,544.365L94.573,544.365C89.695,544.365 85.734,548.325 85.734,553.203L85.734,586.897C85.734,591.776 89.695,595.736 94.573,595.736L205.95,595.736C210.828,595.736 214.788,591.776 214.788,586.897L214.788,553.203Z" style="fill:rgb(94,218,18);"/>
        </g>
        <g transform="matrix(-1,7.65714e-16,-7.65714e-16,-1,249.454,863.842)">
            <path d="M232.121,451.944C232.121,447.066 228.161,443.105 223.283,443.105L111.906,443.105C107.027,443.105 103.067,447.066 103.067,451.944L103.067,485.638C103.067,490.516 107.027,494.476 111.906,494.476L223.283,494.476C228.161,494.476 232.121,490.516 232.121,485.638L232.121,451.944Z" style="fill:rgb(94,218,18);"/>
        </g>
        <g transform="matrix(-1,7.65714e-16,-7.65714e-16,-1,249.454,664.972)">
            <path d="M232.121,352.509C232.121,347.631 228.161,343.67 223.283,343.67L111.906,343.67C107.027,343.67 103.067,347.631 103.067,352.509L103.067,386.203C103.067,391.081 107.027,395.041 111.906,395.041L223.283,395.041C228.161,395.041 232.121,391.081 232.121,386.203L232.121,352.509Z" style="fill:rgb(94,218,18);"/>
        </g>
        <g transform="matrix(-1,7.65714e-16,-7.65714e-16,-1,258.576,462.453)">
            <path d="M236.682,251.249C236.682,246.371 232.722,242.41 227.844,242.41L116.467,242.41C111.589,242.41 107.628,246.371 107.628,251.249L107.628,284.943C107.628,289.821 111.589,293.782 116.467,293.782L227.844,293.782C232.722,293.782 236.682,289.821 236.682,284.943L236.682,251.249Z" style="fill:rgb(161,217,0);"/>
        </g>
        <g transform="matrix(-1,7.65714e-16,-7.65714e-16,-1,258.576,462.453)">
            <path d="M236.682,251.249C236.682,246.371 232.722,242.41 227.844,242.41L116.467,242.41C111.589,242.41 107.628,246.371 107.628,251.249L107.628,284.943C107.628,289.821 111.589,293.782 116.467,293.782L227.844,293.782C232.722,293.782 236.682,289.821 236.682,284.943L236.682,251.249Z" style="fill:rgb(94,218,18);fill-opacity:0.1;"/>
        </g>
        <g transform="matrix(-1,7.65714e-16,-7.65714e-16,-1,422.781,362.106)">
            <path d="M318.785,201.075C318.785,196.197 314.824,192.237 309.946,192.237L198.569,192.237C193.691,192.237 189.731,196.197 189.731,201.075L189.731,234.769C189.731,239.647 193.691,243.608 198.569,243.608L309.946,243.608C314.824,243.608 318.785,239.647 318.785,234.769L318.785,201.075Z" style="fill:rgb(94,218,18);"/>
        </g>
        <g transform="matrix(-1,7.65714e-16,-7.65714e-16,-1,647.72,965.903)">
            <path d="M431.254,502.974C431.254,498.096 427.294,494.136 422.416,494.136L311.039,494.136C306.161,494.136 302.2,498.096 302.2,502.974L302.2,536.668C302.2,541.546 306.161,545.507 311.039,545.507L422.416,545.507C427.294,545.507 431.254,541.546 431.254,536.668L431.254,502.974Z" style="fill:rgb(94,218,18);fill-opacity:0.1;"/>
        </g>
        <g transform="matrix(-1,7.65714e-16,-7.65714e-16,-1,472.307,1066.14)">
            <path d="M343.548,553.092C343.548,548.214 339.587,544.254 334.709,544.254L223.332,544.254C218.454,544.254 214.493,548.214 214.493,553.092L214.493,586.786C214.493,591.664 218.454,595.625 223.332,595.625L334.709,595.625C339.587,595.625 343.548,591.664 343.548,586.786L343.548,553.092Z" style="fill-opacity:0.1;"/>
        </g>
    </g>
    <circle cx="810.335" cy="28.92" r="28.92" style="fill:rgb(94,218,18);fill-opacity:0.5;"/>
    <g transform="matrix(1,0,0,1,-85.7342,-73.7391)">
        <path d="M337.673,155.093L330.793,155.093C330.797,155.093 330.802,155.093 330.806,155.093C333.449,155.093 335.623,152.919 335.623,150.277C335.623,147.634 333.449,145.46 330.806,145.46C330.802,145.46 330.797,145.46 330.793,145.46L275.059,145.46C275.054,145.46 275.049,145.46 275.045,145.46C272.403,145.46 270.228,147.634 270.228,150.277C270.228,152.919 272.403,155.093 275.045,155.093C275.049,155.093 275.054,155.093 275.059,155.093L281.939,155.093C281.936,155.093 281.933,155.093 281.93,155.093C279.287,155.093 277.113,157.267 277.113,159.909C277.113,162.552 279.287,164.726 281.93,164.726C281.933,164.726 281.936,164.726 281.939,164.726L272.306,164.726C269.669,164.734 267.504,166.905 267.504,169.543C267.504,172.18 269.669,174.351 272.306,174.359L328.04,174.359C330.677,174.351 332.843,172.18 332.843,169.543C332.843,166.905 330.677,164.734 328.04,164.726L337.673,164.726C340.312,164.721 342.48,162.548 342.48,159.909C342.48,157.271 340.312,155.098 337.673,155.093Z" style="fill:rgb(222,227,243);fill-opacity:0.5;fill-rule:nonzero;"/>
    </g>
    <g transform="matrix(1,0,0,1,-85.7342,-73.7391)">
        <path d="M892.404,99.184L887.167,99.184C889.178,99.184 890.833,97.529 890.833,95.518C890.833,93.508 889.178,91.853 887.167,91.853L844.75,91.853C842.739,91.853 841.085,93.508 841.085,95.518C841.085,97.529 842.739,99.184 844.75,99.184L849.987,99.184C847.976,99.184 846.321,100.839 846.321,102.85C846.321,104.861 847.976,106.515 849.987,106.515L842.656,106.515C840.645,106.515 838.99,108.17 838.99,110.181C838.99,112.192 840.645,113.847 842.656,113.847L885.073,113.847C887.083,113.847 888.738,112.192 888.738,110.181C888.738,108.17 887.083,106.515 885.073,106.515L892.404,106.515C894.415,106.515 896.07,104.861 896.07,102.85C896.07,100.839 894.415,99.184 892.404,99.184Z" style="fill:rgb(222,227,243);fill-opacity:0.5;fill-rule:nonzero;"/>
    </g>
    <g transform="matrix(1,0,0,1,-85.7342,-73.7391)">
        <path d="M469.673,87.093L462.793,87.093C462.797,87.093 462.802,87.093 462.806,87.093C465.449,87.093 467.623,84.919 467.623,82.277C467.623,79.634 465.449,77.46 462.806,77.46C462.802,77.46 462.797,77.46 462.793,77.46L407.059,77.46C407.054,77.46 407.049,77.46 407.045,77.46C404.403,77.46 402.228,79.634 402.228,82.277C402.228,84.919 404.403,87.093 407.045,87.093C407.049,87.093 407.054,87.093 407.059,87.093L413.939,87.093C413.936,87.093 413.933,87.093 413.93,87.093C411.287,87.093 409.113,89.267 409.113,91.91C409.113,94.552 411.287,96.726 413.93,96.726C413.933,96.726 413.936,96.726 413.939,96.726L404.306,96.726C401.669,96.734 399.504,98.905 399.504,101.542C399.504,104.18 401.669,106.351 404.306,106.359L460.04,106.359C462.677,106.351 464.843,104.18 464.843,101.542C464.843,98.905 462.677,96.734 460.04,96.726L469.673,96.726C472.312,96.721 474.48,94.548 474.48,91.91C474.48,89.271 472.312,87.098 469.673,87.093Z" style="fill:rgb(222,227,243);fill-opacity:0.5;fill-rule:nonzero;"/>
    </g>
    <path d="M609.915,277.711C609.915,270.553 604.103,264.742 596.945,264.742L390.875,264.742C383.717,264.742 377.905,270.553 377.905,277.711L377.905,359.37C377.905,366.529 383.717,372.34 390.875,372.34L596.945,372.34C604.103,372.34 609.915,366.529 609.915,359.37L609.915,277.711Z" style="fill:rgb(94,218,18);"/>
    <rect x="396.399" y="355.826" width="195.022" height="2.017" style="fill-opacity:0.1;"/>
    <rect x="396.399" y="281.554" width="195.022" height="73.974" style="fill-opacity:0.3;"/>
    <circle cx="441.792" cy="320.085" r="26.9" style="fill-opacity:0.1;"/>
    <circle cx="546.028" cy="320.085" r="26.9" style="fill-opacity:0.1;"/>
    <rect x="473.734" y="372.337" width="40.347" height="23.543" style="fill:rgb(94,218,18);"/>
    <rect x="409.848" y="389.152" width="168.123" height="134.498" style="fill:rgb(94,218,18);"/>
    <rect x="406.486" y="550.55" width="174.848" height="16.812" style="fill:rgb(94,218,18);"/>
    <path d="M435.067,584.175L435.067,685.048L465.329,685.048L465.329,584.175L435.067,584.175Z" style="fill:rgb(94,218,18);fill-rule:nonzero;"/>
    <path d="M525.853,584.175L525.853,685.048L556.115,685.048L556.115,584.175L525.853,584.175Z" style="fill:rgb(94,218,18);fill-rule:nonzero;"/>
    <g transform="matrix(1,0,0,1,-85.7342,-73.7391)">
        <path d="M472.683,493.155L472.683,524.255C464.378,525.705 456.637,529.437 450.329,535.03C444.479,540.448 439.929,547.12 437.021,554.544C433.131,563.969 431.239,574.436 430.468,584.332C429.516,597.679 430.14,611.092 432.328,624.293L398.704,624.293C397.276,605.706 397.731,589.758 399.584,576.065C401.66,560.627 405.504,548.06 410.375,537.84C420.116,517.408 433.972,506.323 446.145,500.302C460.603,493.155 472.683,493.155 472.683,493.155Z" style="fill:rgb(94,218,18);fill-rule:nonzero;"/>
    </g>
    <rect x="435.067" y="584.175" width="30.262" height="23.537" style="fill-opacity:0.3;"/>
    <rect x="435.067" y="627.887" width="30.262" height="30.262" style="fill-opacity:0.3;"/>
    <rect x="435.067" y="674.961" width="30.262" height="10.087" style="fill-opacity:0.3;"/>
    <rect x="525.853" y="584.175" width="30.262" height="23.537" style="fill-opacity:0.3;"/>
    <rect x="525.853" y="627.887" width="30.262" height="30.262" style="fill-opacity:0.3;"/>
    <rect x="525.853" y="674.961" width="30.262" height="10.087" style="fill-opacity:0.3;"/>
    <g transform="matrix(1,0,0,1,-85.7342,-73.7391)">
        <path d="M472.683,493.155L472.683,524.255C464.378,525.705 456.637,529.437 450.329,535.03L446.145,500.302C460.603,493.155 472.683,493.155 472.683,493.155Z" style="fill-opacity:0.3;fill-rule:nonzero;"/>
    </g>
    <g transform="matrix(1,0,0,1,-85.7342,-73.7391)">
        <path d="M437.021,554.544C433.131,563.969 431.239,574.436 430.468,584.332L399.584,576.065C401.66,560.627 405.504,548.06 410.375,537.84L437.021,554.544Z" style="fill-opacity:0.3;fill-rule:nonzero;"/>
    </g>
    <g transform="matrix(1,0,0,1,-85.7342,-73.7391)">
        <path d="M686.605,493.155L686.605,524.255C694.91,525.705 702.651,529.437 708.959,535.03C714.809,540.448 719.359,547.12 722.267,554.544C726.157,563.969 728.049,574.436 728.82,584.332C729.772,597.679 729.148,611.092 726.96,624.293L760.584,624.293C762.012,605.706 761.557,589.758 759.704,576.065C757.628,560.627 753.784,548.06 748.913,537.84C739.172,517.408 725.316,506.323 713.143,500.302C698.685,493.155 686.605,493.155 686.605,493.155Z" style="fill:rgb(94,218,18);fill-rule:nonzero;"/>
    </g>
    <g transform="matrix(1,0,0,1,-85.7342,-73.7391)">
        <path d="M686.605,493.155L686.605,524.255C694.91,525.705 702.651,529.437 708.959,535.03L713.143,500.302C698.685,493.155 686.605,493.155 686.605,493.155Z" style="fill-opacity:0.3;fill-rule:nonzero;"/>
    </g>
    <g transform="matrix(1,0,0,1,-85.7342,-73.7391)">
        <path d="M722.267,554.544C726.157,563.969 728.049,574.436 728.82,584.332L759.704,576.065C757.628,560.627 753.784,548.06 748.913,537.84L722.267,554.544Z" style="fill-opacity:0.3;fill-rule:nonzero;"/>
    </g>
    <rect x="473.734" y="372.337" width="40.347" height="2.787" style="fill:rgb(94,218,18);fill-opacity:0.1;"/>
    <g transform="matrix(1,0,0,1,-85.7342,-73.7391)">
        <path d="M666.693,486.856L666.693,543.166C664.682,540.996 663.565,538.143 663.567,535.185L663.567,494.83C663.565,491.873 664.682,489.023 666.693,486.856Z" style="fill-opacity:0.1;fill-rule:nonzero;"/>
    </g>
    <g transform="matrix(1,0,0,1,-85.7342,-73.7391)">
        <path d="M496.18,490.569L496.18,532.722C495.979,535.387 494.873,537.905 493.046,539.855L493.046,483.436C494.873,485.386 495.979,487.904 496.18,490.569Z" style="fill-opacity:0.1;fill-rule:nonzero;"/>
    </g>
    <rect x="418.257" y="523.653" width="151.308" height="1.992" style="fill-opacity:0.1;"/>
    <rect x="414.892" y="567.366" width="73.971" height="1.544" style="fill-opacity:0.1;"/>
    <rect x="495.594" y="567.366" width="73.971" height="1.544" style="fill-opacity:0.1;"/>
    <rect x="423.143" y="165.166" width="11.579" height="99.575" style="fill:rgb(94,218,18);"/>
    <rect x="555.911" y="165.166" width="11.579" height="99.575" style="fill:rgb(94,218,18);"/>
    <circle cx="428.547" cy="165.938" r="13.122" style="fill-opacity:0.1;"/>
    <circle cx="428.547" cy="165.166" r="13.122" style="fill:rgb(94,218,18);"/>
    <circle cx="562.086" cy="165.938" r="13.122" style="fill-opacity:0.1;"/>
    <circle cx="562.086" cy="165.166" r="13.122" style="fill:rgb(94,218,18);"/>
    <g transform="matrix(1,0,0,1,-85.7342,-73.7391)">
        <path d="M237.257,543.952C237.257,543.952 275.657,619.329 244.368,660.574C213.079,701.818 247.212,814.174 247.212,814.174" style="fill:none;fill-rule:nonzero;stroke:rgb(252,102,129);stroke-width:2px;"/>
    </g>
    <g transform="matrix(1,0,0,1,-85.7342,-73.7391)">
        <path d="M248.634,520.485C248.634,535.016 237.968,546.796 237.968,546.796C237.968,546.796 227.301,535.016 227.301,520.485C227.301,505.954 237.968,494.174 237.968,494.174C237.968,494.174 248.634,505.954 248.634,520.485Z" style="fill:rgb(252,102,129);fill-rule:nonzero;"/>
    </g>
    <g transform="matrix(1,0,0,1,-85.7342,-73.7391)">
        <path d="M257.168,543.952C257.168,543.952 218.768,619.329 250.057,660.574C281.345,701.818 247.212,814.174 247.212,814.174" style="fill:none;fill-rule:nonzero;stroke:rgb(255,208,55);stroke-width:2px;"/>
    </g>
    <g transform="matrix(1,0,0,1,-85.7342,-73.7391)">
        <path d="M245.79,520.485C245.79,535.016 256.457,546.796 256.457,546.796C256.457,546.796 267.123,535.016 267.123,520.485C267.123,505.954 256.457,494.174 256.457,494.174C256.457,494.174 245.79,505.954 245.79,520.485Z" style="fill:rgb(255,208,55);fill-rule:nonzero;"/>
    </g>
    <g transform="matrix(1,0,0,1,-85.7342,-73.7391)">
        <path d="M272.812,543.952C272.812,543.952 311.212,619.329 279.923,660.574C248.634,701.818 282.768,814.174 282.768,814.174" style="fill:none;fill-rule:nonzero;stroke:rgb(252,102,129);stroke-width:2px;"/>
    </g>
    <g transform="matrix(1,0,0,1,-85.7342,-73.7391)">
        <path d="M284.19,520.485C284.19,535.016 273.523,546.796 273.523,546.796C273.523,546.796 262.857,535.016 262.857,520.485C262.857,505.954 273.523,494.174 273.523,494.174C273.523,494.174 284.19,505.954 284.19,520.485Z" style="fill:rgb(252,102,129);fill-rule:nonzero;"/>
    </g>
    <g transform="matrix(1,0,0,1,-85.7342,-73.7391)">
        <path d="M278.21,580.88C268.136,591.352 252.282,592.446 252.282,592.446C252.282,592.446 252.762,576.562 262.836,566.09C272.911,555.618 288.765,554.524 288.765,554.524C288.765,554.524 288.285,570.408 278.21,580.88Z" style="fill:rgb(252,102,129);fill-rule:nonzero;"/>
    </g>
    <g transform="matrix(1,0,0,1,-85.7342,-73.7391)">
        <path d="M279.21,632.88C269.136,643.352 253.282,644.446 253.282,644.446C253.282,644.446 253.762,628.562 263.836,618.09C273.911,607.618 289.765,606.524 289.765,606.524C289.765,606.524 289.285,622.408 279.21,632.88Z" style="fill:rgb(252,102,129);fill-rule:nonzero;"/>
    </g>
    <g transform="matrix(1,0,0,1,-85.7342,-73.7391)">
        <path d="M224.578,661.492C234.104,672.465 233.773,688.353 233.773,688.353C233.773,688.353 217.995,686.451 208.469,675.478C198.942,664.505 199.274,648.617 199.274,648.617C199.274,648.617 215.051,650.519 224.578,661.492Z" style="fill:rgb(252,102,129);fill-rule:nonzero;"/>
    </g>
    <g transform="matrix(1,0,0,1,-85.7342,-73.7391)">
        <path d="M233.416,550.594C245.528,558.621 249.455,574.02 249.455,574.02C249.455,574.02 233.743,576.404 221.631,568.376C209.518,560.349 205.591,544.95 205.591,544.95C205.591,544.95 221.303,542.566 233.416,550.594Z" style="fill:rgb(252,102,129);fill-rule:nonzero;"/>
    </g>
    <g transform="matrix(1,0,0,1,-85.7342,-73.7391)">
        <path d="M292.723,543.952C292.723,543.952 254.323,619.329 285.612,660.574C316.901,701.818 282.768,814.174 282.768,814.174" style="fill:none;fill-rule:nonzero;stroke:rgb(255,208,55);stroke-width:2px;"/>
    </g>
    <g transform="matrix(1,0,0,1,-85.7342,-73.7391)">
        <path d="M281.345,520.485C281.345,535.016 292.012,546.796 292.012,546.796C292.012,546.796 302.679,535.016 302.679,520.485C302.679,505.954 292.012,494.174 292.012,494.174C292.012,494.174 281.345,505.954 281.345,520.485Z" style="fill:rgb(255,208,55);fill-rule:nonzero;"/>
    </g>
    <g transform="matrix(1,0,0,1,-85.7342,-73.7391)">
        <path d="M284.414,581.998C274.215,592.348 273.545,608.226 273.545,608.226C273.545,608.226 289.41,607.322 299.61,596.972C309.809,586.621 310.48,570.744 310.48,570.744C310.48,570.744 294.614,571.648 284.414,581.998Z" style="fill:rgb(255,208,55);fill-rule:nonzero;"/>
    </g>
    <g transform="matrix(1,0,0,1,-85.7342,-73.7391)">
        <path d="M304.414,653.998C294.215,664.348 293.545,680.226 293.545,680.226C293.545,680.226 309.41,679.322 319.61,668.972C329.809,658.621 330.48,642.744 330.48,642.744C330.48,642.744 314.614,643.648 304.414,653.998Z" style="fill:rgb(255,208,55);fill-rule:nonzero;"/>
    </g>
    <g transform="matrix(1,0,0,1,-85.7342,-73.7391)">
        <path d="M274.99,638.174C274.99,638.174 298.105,601.739 330.548,600.956" style="fill:none;fill-rule:nonzero;stroke:rgb(255,208,55);stroke-width:2px;"/>
    </g>
    <g transform="matrix(1,0,0,1,-85.7342,-73.7391)">
        <path d="M256.99,616.174C256.99,616.174 233.874,579.739 201.432,578.956" style="fill:none;fill-rule:nonzero;stroke:rgb(252,102,129);stroke-width:2px;"/>
    </g>
    <g transform="matrix(1,0,0,1,-85.7342,-73.7391)">
        <path d="M253.99,668.174C253.99,668.174 277.105,631.739 309.548,630.956" style="fill:none;fill-rule:nonzero;stroke:rgb(255,208,55);stroke-width:2px;"/>
    </g>
    <circle cx="243.756" cy="526.935" r="6" style="fill:rgb(255,208,55);"/>
    <circle cx="116.256" cy="505.435" r="6" style="fill:rgb(252,102,129);"/>
    <g transform="matrix(1,0,0,1,-85.7342,-73.7391)">
        <path d="M270.99,680.174C270.99,680.174 247.874,643.739 215.432,642.956" style="fill:none;fill-rule:nonzero;stroke:rgb(252,102,129);stroke-width:2px;"/>
    </g>
    <circle cx="130.256" cy="569.435" r="6" style="fill:rgb(252,102,129);"/>
    <circle cx="224.256" cy="557.435" r="6" style="fill:rgb(255,208,55);"/>
    <g transform="matrix(1,0,0,1,-85.7342,-73.7391)">
        <path d="M398.76,770.407C398.76,770.407 343.057,759.267 328.203,744.412C313.349,729.558 246.505,703.563 239.078,722.131C231.651,740.699 138.812,803.829 201.942,814.97C265.073,826.11 350.484,829.824 369.052,822.397C387.62,814.97 398.76,770.407 398.76,770.407Z" style="fill:rgb(168,168,168);fill-rule:nonzero;"/>
    </g>
    <g transform="matrix(1,0,0,1,-85.7342,-73.7391)">
        <path d="M201.942,808.071C265.073,819.212 350.484,822.926 369.052,815.499C383.192,809.842 393.018,782.667 396.903,770.02C398.079,770.27 398.76,770.407 398.76,770.407C398.76,770.407 387.619,814.97 369.052,822.397C350.484,829.824 265.073,826.11 201.942,814.97C183.719,811.754 178.508,804.202 180.471,794.644C182.029,800.88 188.379,805.678 201.942,808.071Z" style="fill-opacity:0.2;fill-rule:nonzero;"/>
    </g>
    <g transform="matrix(1,0,0,1,-85.7342,-73.7391)">
        <path d="M1000.38,557.26C1000.38,557.26 1013.73,574.713 994.224,601.065C974.717,627.416 958.632,649.661 965.134,666.088C965.134,666.088 994.566,617.149 1018.52,616.465C1042.48,615.78 1026.74,586.691 1000.38,557.26Z" style="fill:rgb(252,102,129);fill-rule:nonzero;"/>
    </g>
    <g transform="matrix(1,0,0,1,-85.7342,-73.7391)">
        <path d="M1000.38,557.26C1001.55,558.946 1002.47,560.789 1003.11,562.733C1026.48,590.195 1038.94,615.823 1016.47,616.465C995.54,617.063 970.435,654.486 964.423,663.937C964.62,664.666 964.857,665.385 965.134,666.088C965.412,666.791 994.566,617.149 1018.52,616.465C1042.48,615.781 1026.74,586.691 1000.38,557.26Z" style="fill-opacity:0.1;fill-rule:nonzero;"/>
    </g>
    <g transform="matrix(1,0,0,1,-85.7342,-73.7391)">
        <path d="M1025.19,579.505C1025.19,585.647 1024.51,590.627 1023.65,590.627C1022.81,590.627 1022.12,585.647 1022.12,579.505C1022.12,573.362 1022.98,576.253 1023.83,576.253C1024.68,576.253 1025.19,573.362 1025.19,579.505Z" style="fill:rgb(255,208,55);fill-rule:nonzero;"/>
    </g>
    <g transform="matrix(1,0,0,1,-85.7342,-73.7391)">
        <path d="M1033.71,586.838C1028.32,589.778 1023.61,591.556 1023.21,590.809C1022.8,590.062 1026.84,587.074 1032.24,584.134C1037.63,581.194 1035.5,583.334 1035.91,584.08C1036.32,584.827 1039.1,583.898 1033.71,586.838Z" style="fill:rgb(255,208,55);fill-rule:nonzero;"/>
    </g>
    <g transform="matrix(1,0,0,1,-85.7342,-73.7391)">
        <path d="M929.885,557.26C929.885,557.26 916.538,574.713 936.045,601.065C955.552,627.416 971.637,649.661 965.134,666.088C965.134,666.088 935.703,617.149 911.747,616.465C887.791,615.78 903.534,586.691 929.885,557.26Z" style="fill:rgb(252,102,129);fill-rule:nonzero;"/>
    </g>
    <g transform="matrix(1,0,0,1,-85.7342,-73.7391)">
        <path d="M929.885,557.26C928.721,558.946 927.803,560.789 927.158,562.733C903.785,590.195 891.333,615.823 913.8,616.465C934.728,617.063 959.834,654.486 965.846,663.937C965.649,664.666 965.412,665.385 965.134,666.088C964.857,666.791 935.703,617.149 911.747,616.465C887.791,615.781 903.534,586.691 929.885,557.26Z" style="fill-opacity:0.1;fill-rule:nonzero;"/>
    </g>
    <g transform="matrix(1,0,0,1,-85.7342,-73.7391)">
        <path d="M905.074,579.505C905.074,585.647 905.763,590.627 906.614,590.627C907.464,590.627 908.154,585.647 908.154,579.505C908.154,573.362 907.293,576.253 906.443,576.253C905.592,576.253 905.074,573.362 905.074,579.505Z" style="fill:rgb(255,208,55);fill-rule:nonzero;"/>
    </g>
    <g transform="matrix(1,0,0,1,-85.7342,-73.7391)">
        <path d="M896.559,586.838C901.953,589.778 906.655,591.556 907.062,590.809C907.469,590.062 903.427,587.074 898.034,584.134C892.64,581.194 894.767,583.334 894.36,584.08C893.953,584.827 891.166,583.898 896.559,586.838Z" style="fill:rgb(255,208,55);fill-rule:nonzero;"/>
    </g>
    <g transform="matrix(1,0,0,1,-85.7342,-73.7391)">
        <path d="M909.324,663.804C909.324,663.804 946.64,662.655 957.886,654.646C969.132,646.638 1015.29,637.076 1018.08,649.919C1020.87,662.763 1074.16,713.797 1032.03,714.137C989.897,714.476 934.137,707.574 922.912,700.737C911.687,693.9 909.324,663.804 909.324,663.804Z" style="fill:rgb(168,168,168);fill-rule:nonzero;"/>
    </g>
    <g transform="matrix(1,0,0,1,-85.7342,-73.7391)">
        <path d="M1032.78,709.666C990.649,710.006 934.888,703.103 923.664,696.266C915.116,691.059 911.71,672.375 910.57,663.755C909.781,663.789 909.324,663.804 909.324,663.804C909.324,663.804 911.688,693.9 922.912,700.737C934.137,707.574 989.897,714.476 1032.03,714.137C1044.19,714.038 1048.39,709.712 1048.16,703.303C1046.47,707.175 1041.83,709.593 1032.78,709.666Z" style="fill-opacity:0.2;fill-rule:nonzero;"/>
    </g>
</svg>
