<?xml version="1.0" encoding="utf-8"?>
<!-- Generator: Adobe Illustrator 24.3.0, SVG Export Plug-In . SVG Version: 6.00 Build 0)  -->
<svg version="1.1" id="Layer_2" xmlns="http://www.w3.org/2000/svg" xmlns:xlink="http://www.w3.org/1999/xlink" x="0px" y="0px"
	 viewBox="0 0 1280 1280" style="enable-background:new 0 0 1280 1280;" xml:space="preserve">
<style type="text/css">
	.st0{opacity:0.5;fill:#5EDA12;stroke:#5EDA12;stroke-width:5.9122;stroke-linecap:round;stroke-miterlimit:10;}
	.st1{opacity:0.5;fill:#5EDA12;stroke:#5EDA12;stroke-width:11.3085;stroke-linecap:round;stroke-miterlimit:10;}
	.st2{fill:#C6C6C6;stroke:#C6C6C6;stroke-width:1.4136;stroke-miterlimit:10;}
	.st3{fill:#FFFFFF;}
	.st4{fill:#5EDA12;stroke:#5EDA12;stroke-width:1.4136;stroke-miterlimit:10;}
	.st5{fill:#3C8C01;stroke:#3C8C01;stroke-width:1.4136;stroke-miterlimit:10;}
	.st6{stroke:#000000;stroke-width:2.8271;stroke-miterlimit:10;}
	.st7{fill:none;stroke:#C6C6C6;stroke-width:14.1356;stroke-linecap:round;stroke-miterlimit:10;}
	.st8{fill:#5EDA12;stroke:#5EDA12;stroke-width:8.4814;stroke-miterlimit:10;}
	.st9{fill:#7C7C7C;}
	.st10{fill:#C6C6C6;}
	.st11{fill:none;stroke:#E206F9;stroke-width:8.4814;stroke-miterlimit:10;}
	.st12{fill:none;stroke:#C6C6C6;stroke-width:11.3085;stroke-linecap:round;stroke-miterlimit:10;}
	.st13{fill:#3C8C01;stroke:#C6C6C6;stroke-width:8.4814;stroke-miterlimit:10;}
	.st14{fill:#3C8C01;stroke:#3C8C01;stroke-width:8.4814;stroke-miterlimit:10;}
	.st15{fill:none;stroke:#000000;stroke-width:8.4814;stroke-linecap:round;stroke-miterlimit:10;}
	.st16{fill:#7C7C7C;stroke:#C6C6C6;stroke-width:1.4136;stroke-miterlimit:10;}
	.st17{fill:#5EDA12;}
	.st18{fill:#E206F9;stroke:#5EDA12;stroke-width:11.3085;stroke-linecap:round;stroke-miterlimit:10;}
	.st19{fill:#FF0000;}
	.st20{fill:#F7F369;}
	.st21{fill:none;stroke:#33A5FF;stroke-width:9.8309;stroke-linecap:round;stroke-miterlimit:10;stroke-dasharray:24;}
	.st22{fill:none;stroke:#33A5FF;stroke-width:9.8309;stroke-linecap:round;stroke-miterlimit:10;}
	.st23{fill:none;stroke:#33A5FF;stroke-width:9.8309;stroke-linecap:round;stroke-miterlimit:10;stroke-dasharray:21.9604,21.9604;}
	.st24{fill:none;stroke:#6AD9E5;stroke-width:9.3348;stroke-linecap:round;stroke-miterlimit:10;}
	.st25{fill:#5EDA12;stroke:#5EDA12;stroke-width:11.3085;stroke-linecap:round;stroke-miterlimit:10;}
</style>
<path class="st0" d="M106.16,827.64c168.82,6.14,337.86,6.53,507.11,1.18c15.04-82.54-20.55-159.93-82.25-189.73
	c-50.94-24.61-102.63-8.54-117.11-3.49c-0.75-10.59-6.67-78.95-63.43-119.2c-56.65-40.17-146.89-40.26-195.18,16.03
	c-49.07,57.2-23.94,136.62-22.31,141.5c-36.67-4.47-72.92,10.65-94.8,39.73c-23.88,31.75-26.9,75.18-7.67,110.83
	C55.74,825.68,80.95,826.72,106.16,827.64z"/>
<path class="st1" d="M1205.98,936.5l-928.86-2.26c-18.51-94.02,17.65-190.46,93-247.98c71.45-54.54,167.63-66.04,250.98-30.22
	c-29.48-81.87,11.31-171.02,85.92-200.66c66.16-26.28,146.08-0.68,187.73,63.42c5.18-3.46,65.98-42.94,119.33-18.86
	c56.42,25.45,87.8,114.42,46.18,200.29c87.05-11.9,163.65,37.41,181.4,104.72C1259.44,872.3,1211.1,930.52,1205.98,936.5z"/>
<path class="st2" d="M890.82,475.32c0,9.78-3.54,18.75-9.42,25.65c-7.28,8.52-18.07,13.93-30.16,13.93
	c-11.89,0-22.56-5.24-29.82-13.55c-6.09-6.95-9.76-16.06-9.76-26.03c0-18.43,12.61-33.93,29.67-38.34c3.17-0.81,6.48-1.24,9.91-1.24
	c8.67,0,16.7,2.79,23.22,7.52c8.5,6.16,14.46,15.62,15.96,26.52C890.69,471.59,890.82,473.43,890.82,475.32z"/>
<circle class="st3" cx="876.6" cy="464.72" r="7.07"/>
<path class="st4" d="M408.04,338.84c67.47,37.69,196.32,104.49,224.16,132.94c0.28-0.01,0.58-0.04,0.86-0.06
	c78.66-5.15,206.3-38.72,234.03-48.93c-51.74-39.34-122.68-77.02-176.51-101.2c-82.09-2.88-194.61-0.31-282.09,16.13
	C408.34,338.09,408.2,338.46,408.04,338.84z"/>
<path class="st4" d="M535.45,691.16c0.13-0.01,0.25-0.01,0.38-0.03c1.78-0.11,3.58-0.24,5.37-0.37c5.39-0.38,10.83-0.81,16.33-1.29
	c2.49-0.21,4.99-0.44,7.49-0.68c2.22-0.21,4.45-0.42,6.7-0.65c2.23-0.23,4.48-0.47,6.73-0.71c2.25-0.24,4.51-0.49,6.77-0.76
	c2.26-0.27,4.54-0.54,6.8-0.82c4.55-0.58,9.12-1.19,13.7-1.85c1.53-0.23,3.05-0.44,4.58-0.68c3.05-0.45,6.12-0.93,9.19-1.44
	c57.12-9.37,115.56-26.53,165.87-59.44c50.73-70.51,73.65-139.9,82.65-198.58c-27.73,10.18-155.36,43.64-234.03,48.77
	c-0.08,0.21-0.17,0.44-0.25,0.66C608.52,537.53,564.85,636.2,535.45,691.16z M764.22,591.17v-0.01
	c0.86-18.26,31.37-56.47,39.11-48.7c8.44,8.48-4.2,59.37-31.06,57.96C766.23,600.09,763.98,596.48,764.22,591.17z M645.65,592.23
	c14.21-15.59,33.73-27.18,41.16-20.09c7.35,7,6.49,24.03-0.16,39.35c-8.11,18.7-24.86,34.86-45.84,27.08
	C620.87,631.19,630.08,609.32,645.65,592.23z"/>
<path class="st5" d="M632.82,473.3c-25.2,64.23-68.87,162.9-98.27,217.86c-0.65,0.04-1.29,0.08-1.94,0.13
	c-28.89-12.62-63.7-30.04-98.36-48.34c-28.82-15.21-57.53-31.04-82.71-45.25c-9.47-5.34-18.43-10.46-26.7-15.22
	c1.72-6.42,3.65-13.26,5.75-20.48c5.44,6.23,13.44,10.16,22.36,10.16c9.06,0,17.16-4.06,22.62-10.45
	c6.21,10.98,15.9,17.9,26.52,17.47c17.56-0.69,30.99-21.19,30-45.76c-0.01-0.42-0.04-0.83-0.07-1.24
	c-1.43-23.99-16.24-42.66-33.49-41.97c-13.13,0.51-23.96,12.11-28.16,28.21c-4.89-3.55-10.91-5.64-17.42-5.64
	c-2.57,0-5.06,0.33-7.44,0.93c18.63-57.56,42.75-124.32,62.52-173.51c67.47,37.56,196.32,104.14,224.16,132.49
	C632.44,472.89,632.62,473.1,632.82,473.3z"/>
<path class="st6" d="M770.16,601.83c26.86,1.41,39.49-49.47,31.06-57.96c-7.75-7.77-38.25,30.43-39.11,48.7v0.01
	C761.86,597.89,764.11,601.51,770.16,601.83z"/>
<path class="st6" d="M638.49,640c20.98,7.77,37.73-8.38,45.84-27.08c6.64-15.32,7.51-32.36,0.16-39.35
	c-7.44-7.1-26.96,4.5-41.16,20.09C627.75,610.74,618.55,632.61,638.49,640z"/>
<path class="st7" d="M418.09,1005.93c14.11-22.83,23.3-128.73,20.19-190.14c-0.61-12.13-1.71-22.52-3.34-30.19"/>
<path class="st8" d="M585.01,725.55c-32.92,38.29-74.47,78.1-109.92,102.5c-12.13-3.1-24.62-7.05-36.81-12.26
	c-29.16-12.44-56.54-32-72.83-63.74c35.49-12.5,68.63-27.52,94.24-56.01C501.82,715.54,552.26,730.78,585.01,725.55z"/>
<path class="st7" d="M728.65,791.65c7.83-12.65,17.75-22.7,30.53-28.88h0.01c5.02-2.45,10.47-4.28,16.41-5.44
	c8.55-1.67,16-1.71,22.43-0.41h0.01c28.77,5.81,37.29,38.21,33.33,69.97"/>
<path class="st9" d="M768.58,958.81c-28.09-2.56-54.32-23.72-71.23-40.81c-11.96-12.09-19.27-22.15-19.27-22.15
	s6.23-62.35,24.55-91.01C707.3,856.9,723.54,927.93,768.58,958.81z"/>
<path class="st2" d="M850.51,850c-9.4,3.21-18.79,5.26-28.6,5.84c-8.88,0.51-18.08-0.2-27.92-2.39
	c-17.08-3.79-63.43-17.77-79.68-36.39c3.24-8.69,7.04-16.78,11.52-24c28.82,0.54,75.41,18.19,102.74,35.24
	C841.36,836.27,849.93,844.12,850.51,850z"/>
<path class="st2" d="M728.66,793.06c-4.48,7.22-8.28,15.31-11.52,24c-6.05-6.91-7.93-14.45-2.64-22.36h0.01
	C718.42,793.46,723.23,792.95,728.66,793.06z"/>
<path class="st10" d="M781.07,954.23c0.78,1.41,1.78,2.69,3.03,3.82l100.87-63.04c-1.2-4.58-1.89-9.63-2.08-14.76l-40.58,7.7
	l-34.18,6.49C788.8,911.19,773,939.69,781.07,954.23z"/>
<path class="st10" d="M884.3,883.08c0.18,5.13,0.88,10.18,2.08,14.76c3.55,13.51,11.63,23.1,24.94,19.22
	c33.93-9.89,6.28-80.42-11.31-74.92C889.26,845.49,883.62,864.78,884.3,883.08z"/>
<path class="st2" d="M853.36,850.62c0,14.43-3.93,28.6-9.64,41.57l-34.18,6.49c-19.32,16.75-35.13,45.25-27.06,59.79
	c-4.66,0.68-9.3,0.76-13.91,0.34c-45.04-30.89-61.28-101.92-65.94-153.97c1.19-1.85,2.43-3.58,3.72-5.12
	c1.92-2.3,4.68-3.96,8.14-5.03c-5.29,7.92-3.41,15.45,2.64,22.36c16.26,18.62,62.61,32.6,79.68,36.39
	c9.84,2.19,19.04,2.9,27.92,2.39c9.81-0.58,19.2-2.63,28.6-5.84C853.35,850.21,853.36,850.42,853.36,850.62z"/>
<path class="st7" d="M596.96,709.61c3.17,2.72,6.35,5.32,9.51,7.81c56.55,44.49,110.48,51.54,152.17,46.97h0.01"/>
<path class="st11" d="M533.13,693.98c-3.05,5.71-5.95,10.94-8.67,15.62"/>
<line class="st12" x1="461.8" y1="531.15" x2="430.6" y2="535"/>
<path class="st13" d="M400.53,582c-11.48,0.45-21.97-7.03-28.68-18.9c4.78-5.6,7.65-12.88,7.65-20.81c0-1.54-0.11-3.04-0.33-4.51
	l1.06-0.13c0.31,1.13,0.54,2.29,0.71,3.48l49.67-6.13c-0.07-1.19-0.17-2.36-0.31-3.52l2.62-0.33c0.03,0.44,0.06,0.89,0.07,1.34
	C434.06,559.07,419.53,581.25,400.53,582z"/>
<path class="st7" d="M171.35,731.07c38.35,12.44,130.06,36.05,185.3-0.96"/>
<path class="st13" d="M430.61,535l-49.67,6.13c-0.17-1.19-0.4-2.35-0.71-3.48l50.07-6.18C430.44,532.64,430.54,533.81,430.61,535z"
	/>
<path class="st13" d="M430.3,531.48l-50.07,6.18c-1.75-6.7-5.81-12.45-11.27-16.41c4.2-16.1,15.03-27.71,28.16-28.21
	C413.52,492.37,427.71,509.2,430.3,531.48z"/>
<path class="st13" d="M430.61,535l-49.67,6.13c-0.17-1.19-0.4-2.35-0.71-3.48l50.07-6.18C430.44,532.64,430.54,533.81,430.61,535z"
	/>
<path class="st2" d="M384.06,542.46c0,9.78-3.54,18.75-9.42,25.65c-7.28,8.52-18.07,13.93-30.16,13.93
	c-11.89,0-22.56-5.24-29.82-13.55c-6.09-6.95-9.76-16.06-9.76-26.03c0-18.43,12.61-33.93,29.67-38.34c3.17-0.81,6.48-1.24,9.91-1.24
	c8.67,0,16.7,2.79,23.22,7.52c8.5,6.16,14.46,15.62,15.96,26.52C383.93,538.73,384.06,540.58,384.06,542.46z"/>
<path class="st11" d="M425.76,656.49"/>
<path class="st7" d="M425.77,656.5c-46.69-12.37-108.67-16.62-153.17-4.42"/>
<path class="st14" d="M518.9,1004.76c0.28-0.16,0.6,0.15,0.44,0.42c-8.43,13.88-34.52,26.36-57.53,30.61
	c-38.17,7.07-43.82-29.68-43.82-29.68c0.04-0.04,0.06-0.1,0.1-0.16C448.27,1019.96,477.37,1028.21,518.9,1004.76z"/>
<path class="st8" d="M519.9,1004.19c-42.07,24.16-71.38,15.89-101.82,1.77c0-0.01,0.01-0.01,0.01-0.03
	c14.91-10.53,32.85-21.46,49.86-27.35c11.49-4.01,22.55-5.71,31.95-3.43c2.5,0.61,4.89,1.5,7.14,2.7
	C522.19,985.95,524.71,995.33,519.9,1004.19z"/>
<path class="st14" d="M148.72,839.3c0.62,1.03,0.18,2.4-0.97,2.78c-2.23,0.74-4.65,1.14-7.25,1.16c-43.61,0.29-41.04-84,2.13-113.7
	c1.43-0.98,3.31,0.37,2.87,2.05C138.1,759.5,129.71,807.82,148.72,839.3z"/>
<path class="st8" d="M173.44,798.18c-2.35,20.93-8.55,37.49-20.68,43.04c-21.74-33.19-10.91-86.86-3.15-114.29
	c1.31-0.76,2.66-1.47,4.04-2.12c0,0,1.78,0.72,5.05,1.91c3.03,1.1,7.34,2.63,12.67,4.35C174.41,753.54,175.73,777.91,173.44,798.18z
	"/>
<path class="st15" d="M761.9,592.59c-18.84,13.94-44.53,29.52-77.56,20.33"/>
<path class="st14" d="M617.17,684.71c-5.77,8.17-12.3,16.75-19.41,25.56l-0.01,0.01c-3.43,4.25-7,8.55-10.69,12.88
	c-0.68,0.79-1.36,1.6-2.05,2.39c-32.75,5.23-83.19-10.01-125.31-29.5c-25.61,28.48-58.75,43.51-94.24,56.01
	c-3.46-6.74-6.42-14.04-8.79-21.94c-2.57-8.57-4.45-17.84-5.51-27.88c30.35-5.78,48.8-16.52,62.76-31.17
	c4.3-4.5,8.18-9.37,11.86-14.57c2.43-3.43,4.76-7.01,7.07-10.73c15.51,8.2,31.06,16.2,46.07,23.69
	c18.55,9.24,36.33,17.68,52.29,24.65c0.65-0.04,1.29-0.08,1.94-0.13c0.13-0.01,0.25-0.01,0.38-0.03c1.78-0.11,3.58-0.24,5.37-0.37
	c5.39-0.38,10.83-0.81,16.33-1.29c2.49-0.21,4.98-0.44,7.49-0.68c2.22-0.2,4.47-0.42,6.7-0.65c2.23-0.23,4.48-0.45,6.73-0.71
	c2.25-0.24,4.51-0.49,6.77-0.76c2.26-0.27,4.54-0.54,6.8-0.82c4.55-0.58,9.12-1.19,13.7-1.85c1.53-0.23,3.05-0.44,4.58-0.68
	C611.03,685.7,614.1,685.22,617.17,684.71z"/>
<circle class="st3" cx="358.53" cy="531.86" r="7.07"/>
<ellipse transform="matrix(0.3798 -0.9251 0.9251 0.3798 -125.7102 996.5333)" class="st3" cx="680.33" cy="592.02" rx="10.29" ry="4.56"/>
<ellipse transform="matrix(0.3408 -0.9401 0.9401 0.3408 -5.365 1121.1454)" class="st3" cx="796.83" cy="564.4" rx="10.43" ry="3.48"/>
<path class="st13" d="M396.62,515.74"/>
<path class="st7" d="M208.38,645.37c5.41-11.53,17.13-19.51,30.7-19.51c26.01,0,45.2,29.3,26.36,56.68
	c-0.96,1.4-2.17,2.62-3.57,3.59c-16.48,11.35-33.63,8.94-44.69-0.46"/>
<ellipse transform="matrix(0.3408 -0.9401 0.9401 0.3408 -266.4674 1263.4572)" class="st16" cx="767.77" cy="821.75" rx="14.93" ry="36.25"/>
<g>
	<path class="st17" d="M1071.56,1026c0,0-18.38,0-68.52-20.3c-50.14-20.3-57.29-60.27-57.29-60.27s22.62-12.72,73.51,19.79
		C1070.15,997.73,1071.56,1026,1071.56,1026z"/>
	<path class="st17" d="M1120.27,984.48c-33.16,17.49-33.16,17.49-33.16,17.49s0-43.82,40.99-66.44
		c40.99-22.62,45.23-14.14,49.47-14.14C1181.82,921.4,1153.42,967.01,1120.27,984.48z"/>
	<path class="st18" d="M1071.56,994.1c4.24-41.61-11.66-74.26-11.66-74.26"/>
	<g>
		<path class="st19" d="M1037.94,821.04c-12.37-45.14-29.67-94.05,10.2-93.3c39.88,0.75,13.68,64.75,10.98,95.2"/>
		<path class="st19" d="M1045.42,852.39c-9.1,45.91-15.46,97.4-50.8,78.91s16.68-64.04,32.7-90.08"/>
		<path class="st19" d="M1056.05,822.42c35.97-29.95,73.32-65.95,89.15-29.35c15.83,36.61-53.27,39.27-82.11,49.42"/>
		<path class="st19" d="M1026.87,839.1c-46.46-5.7-98.27-8.27-82.43-44.87c15.84-36.6,65.09,11.93,92.24,26"/>
		<path class="st19" d="M1061.11,837.43c41.13,22.34,88.39,43.73,60.23,71.97c-28.16,28.24-56.18-34.97-76.28-58.01"/>
		<path class="st19" d="M1049.65,814.62c15.48-44.17,29.03-94.25,61.41-70.97s-25.54,61.05-45.07,84.57"/>
		<path class="st19" d="M1037.99,844.67c-33.58,32.61-68.07,71.36-86.65,36.06c-18.58-35.29,50.12-43.22,78.09-55.54"/>
		<path class="st19" d="M1063.77,826.05c46.62-4.2,97.81-12.6,90.03,26.51c-7.78,39.12-66.15,2.04-95.64-6"/>
		<path class="st19" d="M1030.28,823.19c-34.99-31.09-76.16-62.65-42.33-83.77c33.83-21.12,46.78,46.81,61.12,73.81"/>
		<path class="st19" d="M1059.41,841.27c21.15,41.76,47.88,86.21,8.66,93.45c-39.22,7.24-26.36-60.7-29.8-91.08"/>
		<circle class="st20" cx="1048.14" cy="833.08" r="24.83"/>
	</g>
</g>
<path class="st21" d="M905.81,864.79c35.69-28.29,167.04-22.98,181.86,162.87"/>
<path class="st21" d="M903.37,881.83c54.13-17.33,139.31,7.98,146.72,145.82"/>
<g>
	<g>
		<path class="st22" d="M916.24,896.04c4.11-1.38,8-2.22,11.7-2.58"/>
		<path class="st23" d="M949.23,897.38c30.77,15.84,41.44,73.56,45.39,107.74"/>
		<path class="st22" d="M995.75,1016.05c0.48,5.24,0.78,9.37,0.99,11.95"/>
	</g>
</g>
<path class="st24" d="M1053.5,1120.5"/>
<path class="st25" d="M119.5,1030.5"/>
</svg>
