<?xml version="1.0" encoding="utf-8"?>
<!-- Generator: Adobe Illustrator 24.3.0, SVG Export Plug-In . SVG Version: 6.00 Build 0)  -->
<svg version="1.1" id="Layer_1" xmlns:serif="http://www.serif.com/"
	 xmlns="http://www.w3.org/2000/svg" xmlns:xlink="http://www.w3.org/1999/xlink" x="0px" y="0px" viewBox="0 0 1280 1024"
	 style="enable-background:new 0 0 1280 1024;" xml:space="preserve">
<style type="text/css">
	.st0{fill:#FBBEBE;}
	.st1{fill-opacity:0.1;}
	.st2{fill:#2F2E41;}
	.st3{fill:#D0CDE1;}
	.st4{fill-rule:evenodd;clip-rule:evenodd;fill:#FBBEBE;}
	.st5{fill-rule:evenodd;clip-rule:evenodd;fill:#2F2E41;}
	.st6{fill:#3F3D56;}
	.st7{fill-opacity:0.2;}
	.st8{fill-rule:evenodd;clip-rule:evenodd;fill:#5EDA12;}
	.st9{fill:#5EDA12;}
	.st10{fill:#FFFFFF;}
	.st11{fill:none;stroke:#FFFFFF;stroke-width:10.4743;stroke-miterlimit:10;}
</style>
<g transform="matrix(1,0,0,1,-156,-65.2858)">
	<path class="st0" d="M1099.23,731.52l25.57,99.44c0,0,0.95,70.08,6.63,97.54c5.68,27.46,24.62,93.75,24.62,93.75l22.73,3.79
		l-4.74-92.81c0,0,0-55.87-4.73-68.19c-4.74-12.31-14.21-138.27-14.21-138.27L1099.23,731.52z"/>
</g>
<g transform="matrix(1,0,0,1,-156,-65.2858)">
	<path class="st1" d="M1097.9,724.87l25.57,99.44c0,0,0.95,70.08,6.63,97.54c5.68,27.46,24.62,93.75,24.62,93.75l22.73,3.79
		l-4.74-92.81c0,0,0-55.87-4.73-68.19c-4.74-12.31-14.21-138.27-14.21-138.27L1097.9,724.87z"/>
</g>
<g transform="matrix(1,0,0,1,-156,-65.2858)">
	<path class="st2" d="M1170.13,314.74L1170.13,314.74c-31.57,0-57.16,28.4-57.16,63.43v44.51h13.69l7.92-16.49l-1.98,16.49h87.99
		l7.2-14.99l-1.8,14.99h9.91v-34.95C1235.9,347.42,1206.45,314.74,1170.13,314.74z"/>
</g>
<g transform="matrix(1,0,0,1,-156,-65.2858)">
	<path class="st0" d="M1075.09,715.89c0,0-11.36,48.3,3.79,53.03c15.15,4.73,11.37-53.03,11.37-53.03H1075.09z"/>
</g>
<path class="st3" d="M938.03,405.33l-7.58,8.52l1.9,163.84l-17.05,77.66l37.88,3.79l18.94-156.26l-5.68-79.55L938.03,405.33z"/>
<path class="st1" d="M937.68,405.33l-7.58,8.52L932,577.69l-17.05,77.66l37.88,3.79l18.94-156.26l-5.68-79.55L937.68,405.33z"/>
<circle class="st4" cx="1009.07" cy="310.48" r="40.69"/>
<g transform="matrix(1,0,0,1,-156,-65.2858)">
	<path class="st0" d="M1141.74,400.18c0,0,11.94,61.85,6.51,68.36c-5.42,6.51,57.51-11.94,57.51-11.94s-20.62-42.32-9.77-66.19
		L1141.74,400.18z"/>
</g>
<g transform="matrix(1,0,0,1,-156,-65.2858)">
	<path class="st0" d="M1244.6,671.38c0,0,11.36,48.3-3.79,53.03c-15.15,4.74-11.36-53.03-11.36-53.03H1244.6z"/>
</g>
<g transform="matrix(1,0,0,1,-156,-65.2858)">
	<path class="st0" d="M1157,720.16c0,0-16.1,96.6-15.15,110.8c0.95,14.2,0,16.1,0,16.1s-16.1,41.67-20.83,65.34
		c-4.74,23.68-15.15,53.98-15.15,53.98s-12.31,27.46-1.89,27.46c10.42,0,24.62-3.79,24.62-3.79c-0.04-10.94,3.64-21.57,10.42-30.15
		c11.36-14.36,45.46-81.6,45.46-90.12s5.68-33.15,5.68-33.15l21.78-105.12L1157,720.16z"/>
</g>
<g transform="matrix(1,0,0,1,-156,-65.2858)">
	<path class="st2" d="M1090.71,655.76c0,0-16.1,81.44-1.89,83.34c14.2,1.89,34.09-12.31,59.66,3.79
		c25.57,16.1,68.19,12.31,68.19,12.31s29.36-74.81,2.84-92.81C1192.99,644.39,1090.71,655.76,1090.71,655.76z"/>
</g>
<g transform="matrix(1,0,0,1,-156,-65.2858)">
	<path class="st2" d="M1108.7,982.48c4.17-1.81,8.75-2.47,13.26-1.89c4.31,0.64,8.71-0.38,12.31-2.84
		c3.6-2.47-7.58,27.46-6.63,37.88c0.95,10.42-2.84,54.93-22.73,50.19c-19.89-4.74-25.57-18.94-17.99-43.56
		c7.58-24.62,5.68-53.03,5.68-53.03s13.82-14.28,16.38-12.35C1111.54,958.8,1108.7,982.48,1108.7,982.48z"/>
</g>
<g transform="matrix(1,0,0,1,-156,-65.2858)">
	<path class="st2" d="M1172.16,1017.52c0,0-9.47-20.84-20.84-1.9c-11.36,18.94-12.31,23.68-12.31,23.68s-32.2,29.36-9.47,32.2
		c22.73,2.84,40.72-0.95,40.72-5.68c0-4.74,11.36-3.79,12.31-7.58c0.95-3.79-1.89-38.83-1.89-38.83L1172.16,1017.52z"/>
</g>
<g transform="matrix(1,0,0,1,-156,-65.2858)">
	<path class="st3" d="M1193.46,431.79c0,0-39.78,7.58-44.51,6.63c-1.07-0.19-2.15-0.3-3.23-0.34c-9.26-0.42-18.45,1.86-26.44,6.55
		c-13.19,7.66-32.84,21.29-32.84,34.51c0,19.89,25.57,53.98,25.57,53.98s-23.68,81.44-21.78,89.02c1.89,7.58-14.21,33.15-3.79,41.67
		c10.42,8.52,109.86,0,127.85,8.52s9.47-113.64,9.47-113.64s48.3-110.8,23.68-121.22c-7.97-3.37-14.84-5.95-20.5-7.89
		C1215.94,425.79,1203.87,426.59,1193.46,431.79z"/>
</g>
<g transform="matrix(1,0,0,1,-156,-65.2858)">
	<path class="st3" d="M1230.4,438.42l21.73,3.59c0,0,9.52,9.67,9.52,14.4c0,4.74-1.89,209.29-4.74,215.92
		c-2.84,6.63-34.09,3.79-34.09,3.79l5.68-116.48L1230.4,438.42z"/>
</g>
<g transform="matrix(1,0,0,1,-156,-65.2858)">
	<path class="st2" d="M1186.37,332.21c-5.57-7.48-14.33-11.95-23.65-12.07h-1.12c-21.64,0-39.18,19.58-39.18,43.73l0,0h7.25
		l1.17-8.91l1.72,8.91h43l3.6-7.54l-0.9,7.54h8.46c3.95,19.6-1.72,39.21-17.01,58.81h14.41l7.21-15.08l-1.8,15.08h27.47l5.4-34.68
		C1222.39,362.02,1207.3,340,1186.37,332.21z"/>
</g>
<circle class="st5" cx="1038.27" cy="249.17" r="21.41"/>
<g transform="matrix(1,0,0,1,-156,-65.2858)">
	<path class="st6" d="M955.17,304.99h-5.54V153.16c0-48.21-39.67-87.87-87.87-87.87H540.09c-48.21,0-87.87,39.67-87.87,87.87v832.93
		c0,48.21,39.67,87.87,87.87,87.87h321.67c48.21,0,87.87-39.67,87.87-87.87V413.06h5.54V304.99z"/>
</g>
<g transform="matrix(1,0,0,1,-156,-65.2858)">
	<path class="st7" d="M865.3,88.15h-41.99c1.53,3.74,2.31,7.74,2.31,11.77c0,17.1-14.07,31.18-31.18,31.18H610.17
		c-17.1,0-31.17-14.08-31.17-31.18c0-4.04,0.78-8.04,2.31-11.77h-39.22c-36,0-65.62,29.62-65.62,65.62v831.71
		c0,36,29.62,65.62,65.62,65.62H865.3c36,0,65.62-29.62,65.62-65.62V153.77C930.92,117.77,901.3,88.15,865.3,88.15z"/>
</g>
<g transform="matrix(-1,7.65714e-16,-7.65714e-16,-1,1080.27,926.284)">
	<rect x="385.02" y="346.28" class="st8" width="62.27" height="14.99"/>
</g>
<g transform="matrix(-1,7.65714e-16,-7.65714e-16,-1,725.622,926.284)">
	<rect x="286.37" y="346.28" class="st8" width="21.9" height="14.99"/>
</g>
<g transform="matrix(-1,7.65714e-16,-7.65714e-16,-1,659.721,926.284)">
	<rect x="264.29" y="346.28" class="st8" width="21.91" height="14.99"/>
</g>
<g transform="matrix(-1,7.65714e-16,-7.65714e-16,-1,888.64,926.284)">
	<rect x="277.57" y="346.28" class="st8" width="148.75" height="14.99"/>
</g>
<g transform="matrix(-1,7.65714e-16,-7.65714e-16,-1,843.549,1071.96)">
	<rect x="325.88" y="395.09" class="st8" width="21.91" height="14.99"/>
</g>
<g transform="matrix(-1,7.65714e-16,-7.65714e-16,-1,777.649,1071.96)">
	<rect x="303.8" y="395.09" class="st8" width="21.91" height="14.99"/>
</g>
<g transform="matrix(-1,7.65714e-16,-7.65714e-16,-1,1006.57,1071.96)">
	<rect x="317.08" y="395.09" class="st8" width="148.76" height="14.99"/>
</g>
<g transform="matrix(-1,7.65714e-16,-7.65714e-16,-1,811.466,976.577)">
	<rect x="294.95" y="363.13" class="st8" width="62.27" height="14.99"/>
</g>
<g transform="matrix(-1,7.65714e-16,-7.65714e-16,-1,684.867,976.577)">
	<rect x="252.53" y="363.13" class="st8" width="62.27" height="15"/>
</g>
<g transform="matrix(-1,7.65714e-16,-7.65714e-16,-1,1162.65,976.577)">
	<rect x="432.8" y="363.13" class="st8" width="21.91" height="15"/>
</g>
<g transform="matrix(-1,7.65714e-16,-7.65714e-16,-1,1001.36,976.577)">
	<rect x="315.34" y="363.13" class="st8" width="148.75" height="15"/>
</g>
<rect x="583.4" y="630.74" class="st8" width="62.27" height="14.99"/>
<rect x="667.58" y="630.74" class="st8" width="62.27" height="14.99"/>
<rect x="370.06" y="630.74" class="st8" width="21.91" height="14.99"/>
<rect x="413.88" y="630.74" class="st8" width="148.76" height="14.99"/>
<path class="st9" d="M693.9,272.74V461.7c0,30.67-24.86,55.52-55.52,55.52H449.42c-30.66,0-55.52-24.85-55.52-55.52V272.74
	c0-30.66,24.86-55.52,55.52-55.52h188.96C669.04,217.22,693.9,242.08,693.9,272.74z"/>
<g>
	<circle class="st10" cx="547.69" cy="372.92" r="23.04"/>
	<ellipse class="st11" cx="547.69" cy="372.92" rx="114.52" ry="44.86"/>
	
		<ellipse transform="matrix(0.5 -0.866 0.866 0.5 -49.6501 660.8831)" class="st11" cx="547.52" cy="373.44" rx="114.52" ry="44.86"/>
	
		<ellipse transform="matrix(0.866 -0.5 0.5 0.866 -113.3666 323.7897)" class="st11" cx="547.52" cy="373.44" rx="44.86" ry="114.52"/>
</g>
</svg>
