<svg width="107" height="21" viewBox="0 0 107 21" fill="none" xmlns="http://www.w3.org/2000/svg">
<rect width="106.505" height="21" rx="10" fill="#5EDA12" fill-opacity="0.3"/>
<path d="M25.25 4.54456C23.6175 4.54462 22.0383 5.12557 20.795 6.18345C19.5517 7.24133 18.7253 8.70711 18.4638 10.3185C18.2023 11.9299 18.5227 13.5818 19.3677 14.9786C20.2127 16.3754 21.5271 17.4259 23.0758 17.9422C23.4196 18.0024 23.5485 17.7961 23.5485 17.6156C23.5485 17.4524 23.5399 16.911 23.5399 16.3352C21.8125 16.6531 21.3656 15.9141 21.2281 15.5274C21.0756 15.1513 20.8337 14.818 20.5235 14.5563C20.2828 14.4274 19.9391 14.1094 20.5149 14.1008C20.7347 14.1247 20.9456 14.2012 21.1296 14.3238C21.3136 14.4465 21.4653 14.6117 21.5719 14.8055C21.6659 14.9744 21.7924 15.1231 21.944 15.2431C22.0956 15.363 22.2693 15.4519 22.4554 15.5046C22.6414 15.5573 22.8359 15.5728 23.0279 15.5501C23.2199 15.5275 23.4056 15.4672 23.5742 15.3727C23.604 15.0232 23.7598 14.6964 24.0125 14.4532C22.4828 14.2813 20.8844 13.6883 20.8844 11.0586C20.8747 10.3754 21.1269 9.71429 21.5891 9.21098C21.3789 8.61713 21.4035 7.96543 21.6578 7.38911C21.6578 7.38911 22.2336 7.20863 23.5485 8.0938C24.6734 7.7844 25.861 7.7844 26.986 8.0938C28.3008 7.20005 28.8766 7.38911 28.8766 7.38911C29.131 7.96542 29.1555 8.61714 28.9453 9.21098C29.4089 9.71342 29.6613 10.3751 29.65 11.0586C29.65 13.6969 28.043 14.2813 26.5133 14.4532C26.6774 14.6195 26.8037 14.8191 26.8838 15.0386C26.9639 15.258 26.9958 15.4922 26.9774 15.725C26.9774 16.6446 26.9688 17.3836 26.9688 17.6157C26.9688 17.7961 27.0977 18.011 27.4414 17.9422C28.9874 17.4217 30.298 16.3687 31.1394 14.9712C31.9808 13.5737 32.2982 11.9227 32.0349 10.3128C31.7716 8.703 30.9447 7.23912 29.7019 6.18253C28.4591 5.12594 26.8813 4.5454 25.25 4.54456Z" fill="#313235"/>
<path d="M47.3238 7.28C47.8358 7.28 48.2878 7.384 48.6798 7.592C49.0798 7.792 49.3918 8.044 49.6158 8.348V7.388H50.9958V14.108C50.9958 14.716 50.8678 15.256 50.6118 15.728C50.3558 16.208 49.9838 16.584 49.4958 16.856C49.0158 17.128 48.4398 17.264 47.7678 17.264C46.8718 17.264 46.1278 17.052 45.5358 16.628C44.9438 16.212 44.6078 15.644 44.5278 14.924H45.8838C45.9878 15.268 46.2078 15.544 46.5438 15.752C46.8878 15.968 47.2958 16.076 47.7678 16.076C48.3198 16.076 48.7638 15.908 49.0998 15.572C49.4438 15.236 49.6158 14.748 49.6158 14.108V13.004C49.3838 13.316 49.0678 13.58 48.6678 13.796C48.2758 14.004 47.8278 14.108 47.3238 14.108C46.7478 14.108 46.2198 13.964 45.7398 13.676C45.2678 13.38 44.8918 12.972 44.6118 12.452C44.3398 11.924 44.2038 11.328 44.2038 10.664C44.2038 10 44.3398 9.412 44.6118 8.9C44.8918 8.388 45.2678 7.992 45.7398 7.712C46.2198 7.424 46.7478 7.28 47.3238 7.28ZM49.6158 10.688C49.6158 10.232 49.5198 9.836 49.3278 9.5C49.1438 9.164 48.8998 8.908 48.5958 8.732C48.2918 8.556 47.9638 8.468 47.6118 8.468C47.2598 8.468 46.9318 8.556 46.6278 8.732C46.3238 8.9 46.0758 9.152 45.8838 9.488C45.6998 9.816 45.6078 10.208 45.6078 10.664C45.6078 11.12 45.6998 11.52 45.8838 11.864C46.0758 12.208 46.3238 12.472 46.6278 12.656C46.9398 12.832 47.2678 12.92 47.6118 12.92C47.9638 12.92 48.2918 12.832 48.5958 12.656C48.8998 12.48 49.1438 12.224 49.3278 11.888C49.5198 11.544 49.6158 11.144 49.6158 10.688ZM53.4886 6.512C53.2406 6.512 53.0326 6.428 52.8646 6.26C52.6966 6.092 52.6126 5.884 52.6126 5.636C52.6126 5.388 52.6966 5.18 52.8646 5.012C53.0326 4.844 53.2406 4.76 53.4886 4.76C53.7286 4.76 53.9326 4.844 54.1006 5.012C54.2686 5.18 54.3526 5.388 54.3526 5.636C54.3526 5.884 54.2686 6.092 54.1006 6.26C53.9326 6.428 53.7286 6.512 53.4886 6.512ZM54.1606 7.388V14H52.7926V7.388H54.1606ZM57.5526 8.504V12.164C57.5526 12.412 57.6086 12.592 57.7206 12.704C57.8406 12.808 58.0406 12.86 58.3206 12.86H59.1606V14H58.0806C57.4646 14 56.9926 13.856 56.6646 13.568C56.3366 13.28 56.1726 12.812 56.1726 12.164V8.504H55.3926V7.388H56.1726V5.744H57.5526V7.388H59.1606V8.504H57.5526ZM63.8415 7.28C64.3455 7.28 64.7935 7.388 65.1855 7.604C65.5855 7.82 65.8975 8.14 66.1215 8.564C66.3535 8.988 66.4695 9.5 66.4695 10.1V14H65.1135V10.304C65.1135 9.712 64.9655 9.26 64.6695 8.948C64.3735 8.628 63.9695 8.468 63.4575 8.468C62.9455 8.468 62.5375 8.628 62.2335 8.948C61.9375 9.26 61.7895 9.712 61.7895 10.304V14H60.4215V5.12H61.7895V8.156C62.0215 7.876 62.3135 7.66 62.6655 7.508C63.0255 7.356 63.4175 7.28 63.8415 7.28ZM74.2025 7.388V14H72.8345V13.22C72.6185 13.492 72.3345 13.708 71.9825 13.868C71.6385 14.02 71.2705 14.096 70.8785 14.096C70.3585 14.096 69.8905 13.988 69.4745 13.772C69.0665 13.556 68.7425 13.236 68.5025 12.812C68.2705 12.388 68.1545 11.876 68.1545 11.276V7.388H69.5105V11.072C69.5105 11.664 69.6585 12.12 69.9545 12.44C70.2505 12.752 70.6545 12.908 71.1665 12.908C71.6785 12.908 72.0825 12.752 72.3785 12.44C72.6825 12.12 72.8345 11.664 72.8345 11.072V7.388H74.2025ZM77.3754 8.372C77.6074 8.052 77.9234 7.792 78.3234 7.592C78.7314 7.384 79.1834 7.28 79.6794 7.28C80.2634 7.28 80.7914 7.42 81.2634 7.7C81.7354 7.98 82.1074 8.38 82.3794 8.9C82.6514 9.412 82.7874 10 82.7874 10.664C82.7874 11.328 82.6514 11.924 82.3794 12.452C82.1074 12.972 81.7314 13.38 81.2514 13.676C80.7794 13.964 80.2554 14.108 79.6794 14.108C79.1674 14.108 78.7114 14.008 78.3114 13.808C77.9194 13.608 77.6074 13.352 77.3754 13.04V14H76.0074V5.12H77.3754V8.372ZM81.3954 10.664C81.3954 10.208 81.2994 9.816 81.1074 9.488C80.9234 9.152 80.6754 8.9 80.3634 8.732C80.0594 8.556 79.7314 8.468 79.3794 8.468C79.0354 8.468 78.7074 8.556 78.3954 8.732C78.0914 8.908 77.8434 9.164 77.6514 9.5C77.4674 9.836 77.3754 10.232 77.3754 10.688C77.3754 11.144 77.4674 11.544 77.6514 11.888C77.8434 12.224 78.0914 12.48 78.3954 12.656C78.7074 12.832 79.0354 12.92 79.3794 12.92C79.7314 12.92 80.0594 12.832 80.3634 12.656C80.6754 12.472 80.9234 12.208 81.1074 11.864C81.2994 11.52 81.3954 11.12 81.3954 10.664Z" fill="#313235"/>
</svg>
