<?xml version="1.0" encoding="UTF-8" standalone="no"?>
<!DOCTYPE svg PUBLIC "-//W3C//DTD SVG 1.1//EN" "http://www.w3.org/Graphics/SVG/1.1/DTD/svg11.dtd">
<svg width="100%" height="100%" viewBox="0 0 1131 739" version="1.1" xmlns="http://www.w3.org/2000/svg" xmlns:xlink="http://www.w3.org/1999/xlink" xml:space="preserve" xmlns:serif="http://www.serif.com/" style="fill-rule:evenodd;clip-rule:evenodd;stroke-miterlimit:10;">
    <g transform="matrix(1,0,0,1,-34.96,-80.93)">
        <path d="M619.44,213.68C548.07,225.74 476.8,220.57 408.24,213.05C339.68,205.53 271.29,195.71 199.89,198.67C153.96,200.57 102.81,209.67 70.74,236.12C39.87,261.56 35.06,295.89 35,326.88C34.92,350.19 36.94,374.31 53.46,392.88C64.94,405.76 82.61,414.99 95.92,426.88C142.23,468.18 128.15,533.21 97.76,588.5C83.5,614.44 66.06,639.95 56.35,666.5C46.64,693.05 45.35,721.5 62.73,743.15C79.95,764.62 113.26,776.72 147.99,782.99C218.53,795.73 297.12,787.82 373.16,777.1C541.45,753.29 708,716.17 874.19,679.14C935.68,665.43 997.44,651.66 1056.68,631.9C1089.58,620.9 1123.08,607.21 1144.33,585.9C1171.33,558.9 1172.01,521.97 1145.99,499.9C1102.33,462.9 1003.51,471.11 969.74,428.81C951.16,405.52 959.25,373.89 974.04,345.95C1005.75,286.03 1067.04,226.83 1059.1,167.09C1053.62,126.09 1011.81,92.16 955.77,83.32C897.03,74.06 821.59,91.62 787.77,132.88C753,175.39 682.46,203 619.44,213.68Z" style="fill:rgb(94,218,18);fill-opacity:0.1;fill-rule:nonzero;"/>
    </g>
    <rect x="360" y="359.24" width="283.43" height="65.63" style="fill:rgb(86,86,97);"/>
    <rect x="360" y="359.24" width="283.43" height="65.63" style="fill-opacity:0.1;"/>
    <path d="M393.91,427.03L395.9,602.24L368.64,671.06L366.53,427.03L393.91,427.03Z" style="fill:rgb(188,190,201);fill-rule:nonzero;"/>
    <path d="M362.99,371.84L638.94,373.5L638.94,422.38L362.99,422.38L362.99,371.84Z" style="fill:rgb(86,86,97);fill-rule:nonzero;"/>
    <path d="M615.33,427.03L638.94,430.36L638.94,668.4L615.33,595.59L615.33,427.03Z" style="fill:rgb(188,190,201);fill-rule:nonzero;"/>
    <rect x="647.91" y="361.87" width="132.99" height="282.6" style="fill:rgb(239,239,240);"/>
    <rect x="658.55" y="369.72" width="111.71" height="217.23" style="fill:rgb(86,86,97);"/>
    <rect x="658.55" y="369.72" width="111.71" height="217.23" style="fill-opacity:0.1;"/>
    <rect x="658.55" y="374.17" width="111.71" height="48.21" style="fill:rgb(86,86,97);"/>
    <rect x="658.55" y="427.03" width="111.71" height="102.4" style="fill:rgb(86,86,97);"/>
    <rect x="658.55" y="535.75" width="111.71" height="102.4" style="fill:rgb(86,86,97);"/>
    <rect x="658.55" y="535.75" width="111.71" height="102.4" style="fill-opacity:0.1;"/>
    <ellipse cx="663.21" cy="653.67" rx="7.2" ry="9.2" style="fill:rgb(86,86,97);"/>
    <ellipse cx="763.06" cy="654.11" rx="7.2" ry="9.2" style="fill:rgb(86,86,97);"/>
    <path d="M359,671.06L368.64,671.06L365.99,364.32L351.35,364.32L359,671.06Z" style="fill:rgb(239,239,240);fill-rule:nonzero;"/>
    <path d="M638.94,361.87L638.94,668.4L647.91,668.4L647.91,364.32L638.94,361.87Z" style="fill:rgb(239,239,240);fill-rule:nonzero;"/>
    <path d="M366.46,419.38L366.46,430.36L638.94,430.36L638.94,422.38L366.46,419.38Z" style="fill:rgb(239,239,240);fill-rule:nonzero;"/>
    <path d="M384.93,341.26L730.37,341.26L780.57,357.88L780.57,367.52L349.69,364.2L349.69,354.39L384.93,341.26Z" style="fill:white;fill-rule:nonzero;"/>
    <path d="M349.69,354.39L780.57,357.88L780.57,367.52L349.69,364.2L349.69,354.39Z" style="fill:rgb(188,190,201);fill-rule:nonzero;"/>
    <g transform="matrix(1,0,0,1,-34.96,-80.93)">
        <path d="M423.68,549.64L421.68,549.34L421.68,549.09C421.62,548.62 421.55,548.16 421.48,547.69C422.3,548.34 423.08,548.99 423.8,549.64L423.68,549.64Z" style="fill:url(#_Linear1);fill-rule:nonzero;"/>
    </g>
    <g transform="matrix(1,0,0,1,-34.96,-80.93)">
        <path d="M380.22,704.05C381.52,703.75 382.84,703.5 384.16,703.32C393.225,702.029 402.472,703.391 410.78,707.24C409.94,713.42 409.11,719.81 410.89,725.78C412.13,729.98 414.62,733.78 415.15,738.16C417.87,738.628 420.101,740.599 420.9,743.24C421.284,744.387 421.476,745.59 421.47,746.8C421.459,748.297 421.271,749.787 420.91,751.24C420.659,753.638 418.514,755.425 416.11,755.24C408.37,756.12 400.78,753.07 393.58,750.08L379.58,744.26C377.94,743.58 376.29,742.89 374.72,742.05C371.742,740.441 369.098,738.279 366.93,735.68C366.472,735.216 366.15,734.635 366,734C365.74,732.24 367.8,731.19 369.11,730C369.494,729.637 369.83,729.227 370.11,728.78C371.66,726.44 371.81,723.21 372.74,720.45C374.94,713.9 381.74,709.68 384.14,703.29C384.27,702.94 384.39,702.59 384.49,702.23" style="fill:rgb(162,101,101);fill-rule:nonzero;"/>
    </g>
    <g transform="matrix(1,0,0,1,-34.96,-80.93)">
        <path d="M421.47,746.8C421.459,748.297 421.271,749.787 420.91,751.24C420.659,753.638 418.514,755.425 416.11,755.24C408.37,756.12 400.78,753.07 393.58,750.08L379.58,744.26C377.94,743.58 376.29,742.89 374.72,742.05C371.742,740.441 369.098,738.279 366.93,735.68C366.472,735.216 366.15,734.635 366,734C365.74,732.24 367.8,731.19 369.11,730C369.494,729.637 369.83,729.227 370.11,728.78C373.97,729.61 378.76,732.04 381.71,732.98C384.665,733.785 387.502,734.971 390.15,736.51C393.83,738.87 396.48,742.51 399.6,745.51C402.72,748.51 406.75,751.24 411.1,750.87C413.4,750.523 415.617,749.757 417.64,748.61L421.47,746.8Z" style="fill-opacity:0.1;fill-rule:nonzero;"/>
    </g>
    <g transform="matrix(1,0,0,1,-34.96,-80.93)">
        <path d="M405.08,604.69C405.611,606.544 404.931,608.544 403.38,609.69C402.07,610.5 400.38,610.39 399.08,611.27C397.47,612.4 397.24,614.64 396.96,616.58C395.96,623.25 392.65,629.3 389.82,635.43C386.99,641.56 384.6,648.25 385.64,654.91C386.35,659.43 388.57,664.25 386.49,668.32C385.98,669.32 385.22,670.21 384.64,671.18C381.79,675.94 383.41,681.97 383.3,687.51C383.342,688.125 383.206,688.739 382.91,689.28C382.473,689.791 381.935,690.206 381.33,690.5C379.275,692.011 378.018,694.381 377.92,696.93C377.836,699.448 378.139,701.964 378.82,704.39C378.93,705.369 379.363,706.284 380.05,706.99C380.846,707.516 381.786,707.782 382.74,707.75C389.022,708.259 395.185,709.758 401,712.19C404.79,713.77 408.47,715.75 412.5,716.51C413.287,716.754 414.141,716.664 414.86,716.26C415.367,715.803 415.717,715.197 415.86,714.53C417.41,709.43 418.98,704.17 418.45,698.87C418.22,696.59 417.61,694.36 417.45,692.08C416.75,683.08 422.84,674.96 424.77,666.08C425.64,662.08 425.64,657.94 426.26,653.9C427.94,642.83 434.04,632.9 436.39,621.95C436.717,619.909 437.226,617.901 437.91,615.95C439.66,611.71 443.71,608.27 443.8,603.68C443.856,602.67 443.589,601.669 443.04,600.82C442.097,599.785 440.845,599.084 439.47,598.82C434.037,597.325 428.507,596.209 422.92,595.48C420.359,594.977 417.746,594.795 415.14,594.94C411.756,595.338 408.504,596.486 405.62,598.3C401.76,600.68 404.24,601.25 405.08,604.69Z" style="fill:rgb(69,75,105);fill-rule:nonzero;"/>
    </g>
    <g transform="matrix(1,0,0,1,-34.96,-80.93)">
        <path d="M405.08,604.69C405.611,606.544 404.931,608.544 403.38,609.69C402.07,610.5 400.38,610.39 399.08,611.27C397.47,612.4 397.24,614.64 396.96,616.58C395.96,623.25 392.65,629.3 389.82,635.43C386.99,641.56 384.6,648.25 385.64,654.91C386.35,659.43 388.57,664.25 386.49,668.32C385.98,669.32 385.22,670.21 384.64,671.18C381.79,675.94 383.41,681.97 383.3,687.51C383.342,688.125 383.206,688.739 382.91,689.28C382.473,689.791 381.935,690.206 381.33,690.5C379.275,692.011 378.018,694.381 377.92,696.93C377.836,699.448 378.139,701.964 378.82,704.39C378.93,705.369 379.363,706.284 380.05,706.99C380.846,707.516 381.786,707.782 382.74,707.75C389.022,708.259 395.185,709.758 401,712.19C404.79,713.77 408.47,715.75 412.5,716.51C413.287,716.754 414.141,716.664 414.86,716.26C415.367,715.803 415.717,715.197 415.86,714.53C417.41,709.43 418.98,704.17 418.45,698.87C418.22,696.59 417.61,694.36 417.45,692.08C416.75,683.08 422.84,674.96 424.77,666.08C425.64,662.08 425.64,657.94 426.26,653.9C427.94,642.83 434.04,632.9 436.39,621.95C436.717,619.909 437.226,617.901 437.91,615.95C439.66,611.71 443.71,608.27 443.8,603.68C443.856,602.67 443.589,601.669 443.04,600.82C442.097,599.785 440.845,599.084 439.47,598.82C434.037,597.325 428.507,596.209 422.92,595.48C420.359,594.977 417.746,594.795 415.14,594.94C411.756,595.338 408.504,596.486 405.62,598.3C401.76,600.68 404.24,601.25 405.08,604.69Z" style="fill-opacity:0.05;fill-rule:nonzero;"/>
    </g>
    <path d="M350.55,674.47L342.02,674.47L336.44,559.83L336.05,553.31L343.3,550.76L343.79,557.69L350.55,674.47Z" style="fill:rgb(86,86,97);fill-rule:nonzero;"/>
    <path d="M343.79,557.69L336.44,559.83L336.05,553.31L343.3,550.76L343.79,557.69Z" style="fill-opacity:0.1;fill-rule:nonzero;"/>
    <path d="M457.58,698.72L443.51,700.42L378.69,553.31L361.21,552.03L330.51,560.99L324.54,736.14L310.47,736.14L316.01,554.59L282.32,555.45L222.2,705.11L209.41,705.11L272.64,530.2L275.08,523.46L369.31,520.23L392.8,533.4L393.1,534.16L457.58,698.72Z" style="fill:rgb(86,86,97);fill-rule:nonzero;"/>
    <g transform="matrix(1,0,0,1,-34.96,-80.93)">
        <path d="M428.06,615.09C407.81,621.19 386.79,627.85 386.79,627.85C386.79,627.85 367.62,634.54 359.5,627.85C358.476,627.051 357.332,626.42 356.11,625.98C357.164,626.733 358.301,627.36 359.5,627.85L307.6,611.12L310.03,604.39L404.27,601.16L427.76,614.33L428.06,615.09Z" style="fill-opacity:0.1;fill-rule:nonzero;"/>
    </g>
    <g transform="matrix(1,0,0,1,-34.96,-80.93)">
        <path d="M332.21,586.06L370.58,577.53C370.58,577.53 462.26,594.59 469.08,601.41C469.08,601.41 395.74,616.33 387.64,621.41C379.54,626.49 331.35,632.11 332.21,586.06Z" style="fill:white;fill-rule:nonzero;"/>
    </g>
    <g transform="matrix(1,0,0,1,-34.96,-80.93)">
        <path d="M315.71,490.17C312.71,499.68 304.52,508.25 294.55,508.66C293.825,508.745 293.09,508.613 292.44,508.28C291.19,507.5 291.16,505.67 291.67,504.28C292.18,502.89 293.07,501.64 293.21,500.18C293.24,499.882 293.22,499.581 293.15,499.29C292.89,498.1 291.92,497.04 290.78,497.29C292.38,496.01 292.75,493.696 291.63,491.98C291.177,491.469 290.769,490.92 290.41,490.34C289.58,488.64 290.87,486.73 291.41,484.91C292.52,480.91 289.7,476.91 289.47,472.74C289.27,469.01 291.16,465.5 291.63,461.8C292.38,455.8 289.4,450.05 289.05,444.06C288.81,439.88 289.84,435.74 290.99,431.71C291.99,428.11 293.12,424.47 293.19,420.71C293.19,417.98 292.72,415.28 292.59,412.56C292.383,410.074 292.834,407.576 293.9,405.32C294.592,403.994 295.772,402.986 297.19,402.51C300.47,401.41 302.62,403.12 303.1,406.23C303.9,411.52 303.44,416.92 304.49,422.23C305.461,427.196 306.932,432.05 308.88,436.72C310.65,440.94 312.8,445.02 314.16,449.39C315.184,452.992 315.916,456.671 316.35,460.39C317.69,470.38 318.74,480.66 315.71,490.17Z" style="fill:rgb(94,218,18);fill-rule:nonzero;"/>
    </g>
    <g transform="matrix(1,0,0,1,-34.96,-80.93)">
        <path d="M543.47,732.21C540.913,735.815 536.933,738.16 532.54,738.65C528.2,739.19 523.69,738.1 519.48,739.29C518.157,739.508 517.029,740.377 516.48,741.6C516.376,742.413 516.312,743.231 516.29,744.05C515.8,746.72 512.29,747.32 509.56,747.3L498.3,747.23C495.96,747.23 493.37,747.1 491.69,745.48C490.045,743.659 490.002,740.871 491.59,739C491.939,738.586 492.368,738.246 492.85,738C491.418,737.526 490.371,736.282 490.15,734.79C489.945,733.32 490.016,731.824 490.36,730.38C490.36,726.2 491.36,719.2 494.3,715.93C497.91,711.86 504.17,706.6 509.62,705.51C513.349,704.795 517.204,705.891 520,708.46C522.58,710.86 524.46,714.62 528,715.04C529.93,715.28 531.79,714.37 533.7,714.04C538.137,713.469 542.48,715.763 544.51,719.75C544.995,720.739 545.332,721.793 545.51,722.88C546.038,726.135 545.309,729.472 543.47,732.21Z" style="fill:rgb(162,101,101);fill-rule:nonzero;"/>
    </g>
    <g transform="matrix(1,0,0,1,-34.96,-80.93)">
        <path d="M543.47,732.21C540.913,735.815 536.933,738.16 532.54,738.65C528.2,739.19 523.69,738.1 519.48,739.29C518.157,739.508 517.029,740.377 516.48,741.6C516.376,742.413 516.312,743.231 516.29,744.05C515.8,746.72 512.29,747.32 509.56,747.3L498.3,747.23C495.96,747.23 493.37,747.1 491.69,745.48C490.045,743.659 490.002,740.871 491.59,739C498.09,738.73 504.48,739 510.96,737.66C513.59,737.13 516.18,736.43 518.84,736.06C524.6,735.24 530.73,735.94 536.02,733.5C540.43,731.5 543.59,727.43 545.46,722.89C546,726.136 545.289,729.468 543.47,732.21Z" style="fill-opacity:0.1;fill-rule:nonzero;"/>
    </g>
    <g transform="matrix(1,0,0,1,-34.96,-80.93)">
        <path d="M513.76,716.4C509.76,719.5 505.07,721.92 500.03,722.18C494.99,722.44 489.64,720.18 487.17,715.8C483.56,709.37 486.76,700.43 482.34,694.53C480.96,692.68 478.97,691.37 477.51,689.58C476.05,687.79 475.21,685.1 476.51,683.2C474.94,683.8 473.28,682.28 472.82,680.66C472.36,679.04 472.65,677.3 472.37,675.66C471.64,671.31 467.37,668.52 465.32,664.66C463.27,660.8 463.55,655.79 463.32,651.22C462.809,640.088 458.663,629.424 451.52,620.87C450.16,619.25 448.42,617.6 446.3,617.68C446.67,614.02 444.23,610.52 441.07,608.68C437.91,606.84 434.15,606.22 430.49,605.86C393.56,602.22 355.08,615.95 319.82,604.4C310.01,601.19 300.55,595.82 294.55,587.4C289.83,580.929 287.921,572.817 289.26,564.92L289.26,564.78C290.65,557.68 294.4,555.93 300.61,552.69C307.779,548.9 315.272,545.757 323,543.3C338,538.61 354.15,536.92 369.63,540.36C376.86,541.98 383.83,544.66 391.07,546.23C393.92,546.85 396.79,547.29 399.68,547.66C404.17,548.22 408.68,548.59 413.2,549.11C427.653,550.774 441.887,553.976 455.66,558.66C460.79,560.4 465.92,562.39 470.33,565.54C477.373,570.655 482.075,578.392 483.37,587C483.79,589.94 483.8,593 484.44,595.85C485.046,598.245 485.849,600.587 486.84,602.85C495.385,623.976 502.367,645.701 507.73,667.85C508.034,669.495 508.598,671.082 509.4,672.55C510.68,674.62 512.88,676.01 514.17,678.08C517.17,682.96 514.28,689.77 516.94,694.85C517.86,696.61 519.39,698 520.31,699.76C523.31,705.53 518.88,712.43 513.76,716.4Z" style="fill:rgb(69,75,105);fill-rule:nonzero;"/>
    </g>
    <g transform="matrix(1,0,0,1,-34.96,-80.93)">
        <path d="M462.66,601.5C464.081,600.375 465.308,599.024 466.29,597.5C467.275,595.969 467.667,594.129 467.39,592.33C468.18,596.943 466.735,601.668 463.5,605.05C460.99,607.62 456.28,610.14 452.61,609.26C453.13,606.32 460.33,603.48 462.66,601.5Z" style="fill-opacity:0.1;fill-rule:nonzero;"/>
    </g>
    <g transform="matrix(1,0,0,1,-34.96,-80.93)">
        <path d="M400.18,551.66C399.567,553.835 397.895,555.56 395.74,556.24C393.608,556.892 391.375,557.153 389.15,557.01L387.15,557.01C360.91,556.43 334.39,550.61 308.76,556.16C305.671,556.797 302.641,557.69 299.7,558.83C295.954,560.307 292.446,562.328 289.29,564.83L289.29,564.69C290.68,557.59 294.43,555.84 300.64,552.6C307.802,548.842 315.285,545.73 323,543.3C338,538.61 354.15,536.92 369.63,540.36C376.86,541.98 383.83,544.66 391.07,546.23C393.92,546.85 396.79,547.29 399.68,547.66C400.24,548.914 400.415,550.307 400.18,551.66Z" style="fill-opacity:0.1;fill-rule:nonzero;"/>
    </g>
    <g transform="matrix(1,0,0,1,-34.96,-80.93)">
        <path d="M400.18,550.23C399.572,552.41 397.899,554.14 395.74,554.82C393.608,555.473 391.375,555.731 389.15,555.58L387.15,555.58C360.91,555 334.39,549.18 308.76,554.73C305.672,555.368 302.642,556.258 299.7,557.39C295.777,558.955 292.117,561.113 288.85,563.79C288.083,561.683 287.32,559.573 286.56,557.46C285.64,554.94 288.56,554.38 289.12,552.12C289.49,550.59 288.86,548.85 288.54,547.22C288.458,546.821 288.404,546.417 288.38,546.01C288.2,542.4 289.49,540.32 292.45,538.37C301.23,532.57 311.94,528.59 321.96,525.6C327.287,523.916 332.79,522.849 338.36,522.42C346.24,521.96 354.11,523.42 361.78,525.27C371.21,527.6 380.54,530.68 388.9,535.61C393,538 397,541 399.21,545.26C400.092,546.757 400.434,548.512 400.18,550.23Z" style="fill:rgb(162,101,101);fill-rule:nonzero;"/>
    </g>
    <g transform="matrix(1,0,0,1,-34.96,-80.93)">
        <path d="M315.71,490.17C312.71,499.68 304.52,508.25 294.55,508.66C293.825,508.745 293.09,508.613 292.44,508.28C291.19,507.5 291.16,505.67 291.67,504.28C292.18,502.89 293.07,501.64 293.21,500.18C293.24,499.882 293.22,499.581 293.15,499.29C298.44,491.83 303.57,484.29 305.6,475.46C306.011,473.94 306.136,472.356 305.97,470.79C305.7,468.99 304.79,467.36 304.29,465.62C303.41,462.54 303.82,459.28 304.07,456.09C305.111,442.044 302.765,427.951 297.23,415C295.88,411.88 294.34,408.72 293.87,405.39C294.562,404.064 295.742,403.056 297.16,402.58C300.44,401.48 302.59,403.19 303.07,406.3C303.87,411.59 303.41,416.99 304.46,422.3C305.431,427.266 306.902,432.12 308.85,436.79C310.62,441.01 312.77,445.09 314.13,449.46C315.154,453.062 315.886,456.741 316.32,460.46C317.69,470.38 318.74,480.66 315.71,490.17Z" style="fill-opacity:0.1;fill-rule:nonzero;"/>
    </g>
    <g transform="matrix(1,0,0,1,-34.96,-80.93)">
        <path d="M400.18,550.23C399.572,552.41 397.899,554.14 395.74,554.82C393.608,555.473 391.375,555.731 389.15,555.58L387.15,555.58C378.61,549.908 368.337,547.428 358.15,548.58C354.89,548.97 351.63,549.73 348.37,549.43C341.78,548.83 336.44,544.09 330.57,541.06C316.934,534.327 300.49,536.558 289.14,546.68L288.57,547.18C288.488,546.781 288.434,546.377 288.41,545.97C288.23,542.36 289.52,540.28 292.48,538.33C301.26,532.53 311.97,528.55 321.99,525.56C327.317,523.876 332.82,522.809 338.39,522.38C346.27,521.92 354.14,523.38 361.81,525.23C371.24,527.56 380.57,530.64 388.93,535.57C393,538 397,541 399.21,545.26C400.092,546.757 400.434,548.512 400.18,550.23Z" style="fill-opacity:0.1;fill-rule:nonzero;"/>
    </g>
    <g transform="matrix(1,0,0,1,-34.96,-80.93)">
        <path d="M422.61,440.69L422.47,441.05C420.23,446.86 416.11,451.77 413.47,457.43C410.14,464.6 409.32,472.64 408.58,480.52C407.94,487.27 407.31,494.06 407.82,500.83C409.1,517.51 417.25,533.33 419.43,549.69C419.967,553.468 420.105,557.293 419.84,561.1C419.66,563.51 419.22,566.1 417.62,567.88C416.02,569.66 412.91,570.36 411.19,568.65C411.96,567.18 412.74,565.72 413.52,564.25C408.95,560.7 402.07,563.25 396.73,561.03C394.38,560.03 392.5,558.23 390.53,556.62C381.451,549.238 369.765,545.825 358.14,547.16C354.88,547.56 351.62,548.32 348.36,548.02C341.77,547.41 336.43,542.68 330.56,539.65C316.925,532.92 300.484,535.146 289.13,545.26C287.73,546.56 285.85,548.08 284.13,547.26C283.465,546.853 282.928,546.267 282.58,545.57C276.03,534.38 280.85,519.95 287.85,509.05C294.85,498.15 304.12,488.1 307,475.47C307.416,473.95 307.541,472.366 307.37,470.8C307.1,469 306.19,467.37 305.69,465.63C304.81,462.55 305.22,459.29 305.47,456.1C306.519,442.052 304.18,427.956 298.65,415C297.05,411.27 295.15,407.49 295.15,403.44C295.15,397.06 299.72,391.77 303.5,386.64C307.85,380.74 311.5,374.21 317.01,369.36C322.23,364.75 329.79,361.93 336.25,364.27C347.227,361.605 358.525,360.504 369.81,361C373.71,361.18 377.74,361.59 381.16,363.48C384.82,365.48 387.45,369.04 391.05,371.17C393.68,372.74 396.71,373.48 399.57,374.58C407.465,377.664 413.988,383.497 417.93,391C421.93,398.75 422.93,407.66 423.81,416.34C424.65,424.51 425.45,433 422.61,440.69Z" style="fill:rgb(94,218,18);fill-rule:nonzero;"/>
    </g>
    <g transform="matrix(1,0,0,1,-34.96,-80.93)">
        <path d="M407.82,500.83C409.1,517.51 417.25,533.33 419.43,549.69C415.07,546 409,542.29 408.19,538C407.29,533.36 404.41,527.28 403.93,522.59C403.45,517.9 406.74,512.17 403.29,508.95C401.61,507.38 406.08,507.82 404.44,506.21C400.75,502.62 399.84,497.09 399.61,491.96C399.22,482.88 400.37,473.7 398.7,464.77C397.7,459.26 395.61,454.01 393.94,448.66C392,442.43 390.6,436.05 389.2,429.66C387.822,423.979 386.82,418.213 386.2,412.4C385.77,407.4 385.97,402.1 388.2,397.54C390.43,392.98 394.94,389.28 400,389.35C416.92,389.57 414,412.51 417.72,423.11C419.21,427.33 421.22,431.41 422.03,435.81C422.325,437.535 422.486,439.28 422.51,441.03C420.27,446.84 416.15,451.75 413.51,457.41C410.18,464.58 409.36,472.62 408.62,480.5C407.94,487.27 407.31,494.06 407.82,500.83Z" style="fill-opacity:0.1;fill-rule:nonzero;"/>
    </g>
    <g transform="matrix(1,0,0,1,-34.96,-80.93)">
        <path d="M418.82,422.85C420.31,427.07 422.32,431.15 423.13,435.55C424.48,442.92 422.39,450.75 424.66,457.89C425.251,459.414 425.745,460.974 426.14,462.56C426.53,464.83 426.08,467.15 426.08,469.46C426.08,473.18 427.25,476.78 428.29,480.35C431.807,492.482 434.135,504.927 435.24,517.51C435.405,520.891 435.938,524.244 436.83,527.51C437.25,528.617 437.61,529.745 437.91,530.89C438.179,532.418 438.242,533.975 438.1,535.52C437.83,540.42 437.28,545.34 437.83,550.22C438.38,555.1 440.16,560.05 443.83,563.32C440.55,564.03 437.08,564.74 433.88,563.69C429.38,562.22 426.68,557.69 424.39,553.57C421.49,548.31 410.47,543.57 409.33,537.66C408.44,533.03 405.56,526.95 405.08,522.25C404.6,517.55 407.88,511.84 404.43,508.62C402.76,507.05 407.23,507.48 405.58,505.88C401.9,502.29 400.99,496.76 400.76,491.62C400.37,482.55 401.51,473.37 399.85,464.44C398.85,458.93 396.76,453.68 395.09,448.32C393.15,442.1 391.75,435.72 390.35,429.32C388.968,423.64 387.966,417.874 387.35,412.06C386.92,407.06 387.11,401.75 389.35,397.19C391.59,392.63 396.1,388.94 401.15,389C418,389.3 415.1,412.25 418.82,422.85Z" style="fill:rgb(94,218,18);fill-rule:nonzero;"/>
    </g>
    <g transform="matrix(1,0,0,1,-34.96,-80.93)">
        <path d="M370.6,426.76C372.18,428.61 374.21,430.64 376.6,430.28C376.225,430.874 375.432,431.063 374.83,430.7C374.256,430.32 373.797,429.791 373.5,429.17L370.08,423.4C369.63,422.65 366.53,418.28 365.77,420.8C365.47,421.87 369.83,425.86 370.6,426.76Z" style="fill-opacity:0.1;fill-rule:nonzero;"/>
    </g>
    <g transform="matrix(1,0,0,1,-34.96,-80.93)">
        <path d="M368.76,441.15C368.662,439.265 367.867,437.482 366.53,436.15C365.328,435.06 363.925,434.214 362.4,433.66C358.65,432.12 354.21,430.88 350.14,431.08C351.62,433.24 356.37,434.53 358.75,435.75C362.123,437.49 365.46,439.29 368.76,441.15Z" style="fill-opacity:0.1;fill-rule:nonzero;"/>
    </g>
    <g transform="matrix(1,0,0,1,-34.96,-80.93)">
        <path d="M379.41,482.11C378.72,487.23 374.53,491.11 370.29,494.11C366.05,497.11 361.29,499.69 358.52,504.03C356.6,507.03 355.74,510.51 354.11,513.64C352.31,517.09 349.62,519.99 347.47,523.23C345.32,526.47 343.64,530.34 344.3,534.18C344.319,534.537 344.486,534.87 344.76,535.1C345.178,535.277 345.66,535.224 346.03,534.96C350.39,532.68 352.11,527.47 353.94,522.96C355.861,518.408 358.024,513.961 360.42,509.64C361.5,507.64 362.69,505.46 364.7,504.35C366.076,503.777 367.485,503.286 368.92,502.88C370.955,501.947 372.74,500.545 374.13,498.79C379.587,492.279 382.439,483.97 382.13,475.48C382.07,473.69 381.97,465.07 379.28,467.73C376.59,470.39 379.87,478.63 379.41,482.11Z" style="fill-opacity:0.1;fill-rule:nonzero;"/>
    </g>
    <g transform="matrix(1,0,0,1,-34.96,-80.93)">
        <path d="M386,285.74C394.6,289.49 402,297.74 401.73,307.09C401.5,316.91 393.28,326.16 396.11,335.57C397.75,341.03 402.69,344.69 406.6,348.84C421.49,364.6 421.46,392.11 406.52,407.84C400.8,413.84 393.45,418.11 387.4,423.84C366.07,443.94 365.16,478.71 376.58,505.7C367.83,507.592 358.912,508.597 349.96,508.7C345.77,508.7 340.64,507.99 339.12,504.08C337.72,500.47 340.12,495.59 337.36,492.92C336.06,491.67 334.11,491.5 332.36,491.21C321.1,489.39 311.86,480.4 307.64,469.81C303.42,459.22 303.64,447.3 306.06,436.16C307.78,428.11 310.47,419.25 306.48,412.05C301.48,402.99 287.1,399.17 287.32,388.81C287.5,380.32 297.51,376.19 303.19,369.88C313.67,358.26 308.68,340.23 308.66,324.57C308.66,310.79 313.48,296.57 323.74,287.39C339,273.62 368.39,278.09 386,285.74Z" style="fill:rgb(162,101,101);fill-rule:nonzero;"/>
    </g>
    <g opacity="0.1">
        <g transform="matrix(1,0,0,1,-34.96,-80.93)">
            <path d="M308.12,401.78C303.73,393.86 292.2,389.94 289.52,382.15C288.179,383.968 287.426,386.152 287.36,388.41C287.14,398.77 301.5,402.59 306.52,411.66C308.168,414.871 308.862,418.487 308.52,422.08C310.1,415.12 311.49,407.86 308.12,401.78Z" style="fill-rule:nonzero;"/>
        </g>
        <g transform="matrix(1,0,0,1,-34.96,-80.93)">
            <path d="M397.26,322.75C399.06,317.5 401.67,312.2 401.8,306.75C401.818,306.16 401.802,305.569 401.75,304.98C399.74,311 396.66,316.84 397.26,322.75Z" style="fill-rule:nonzero;"/>
        </g>
        <g transform="matrix(1,0,0,1,-34.96,-80.93)">
            <path d="M309.84,350.72C313.28,339.85 310.31,326.37 310.3,314.31C310.3,312.85 310.36,311.38 310.47,309.92C309.285,314.581 308.687,319.371 308.69,324.18C308.71,332.79 310.22,342.13 309.84,350.72Z" style="fill-rule:nonzero;"/>
        </g>
        <g transform="matrix(1,0,0,1,-34.96,-80.93)">
            <path d="M408.19,397.61C402.47,403.61 395.12,407.88 389.07,413.61C378.27,423.78 372.72,437.71 371.33,452.48C373.91,441.48 379.12,431.35 387.47,423.48C393.47,417.78 400.87,413.53 406.59,407.48C413.392,400.067 417.345,390.473 417.74,380.42C416.013,386.845 412.733,392.749 408.19,397.61Z" style="fill-rule:nonzero;"/>
        </g>
        <g transform="matrix(1,0,0,1,-34.96,-80.93)">
            <path d="M351.63,498.44C347.44,498.44 342.31,497.72 340.79,493.81C339.39,490.21 341.79,485.33 339.03,482.65C337.73,481.4 335.77,481.23 334.03,480.94C322.78,479.13 313.54,470.13 309.32,459.55C306.21,451.73 305.54,443.2 306.32,434.78C306.24,435.11 306.17,435.44 306.1,435.78C303.72,446.92 303.47,458.85 307.68,469.44C311.89,480.03 321.14,489.02 332.39,490.83C334.17,491.12 336.13,491.3 337.39,492.54C340.18,495.22 337.75,500.1 339.15,503.7C340.67,507.61 345.8,508.38 349.99,508.33C358.942,508.227 367.86,507.222 376.61,505.33C375.376,502.413 374.298,499.432 373.38,496.4C366.198,497.676 358.924,498.359 351.63,498.44Z" style="fill-rule:nonzero;"/>
        </g>
    </g>
    <g transform="matrix(1,0,0,1,-34.96,-80.93)">
        <path d="M384.38,454.83C386.85,456.69 389.53,449.6 388,447.83C387.59,448.29 384,454.57 384.38,454.83Z" style="fill-opacity:0.1;fill-rule:nonzero;"/>
    </g>
    <g transform="matrix(1,0,0,1,-34.96,-80.93)">
        <path d="M394.91,583.17C397.82,582.17 400.91,581.17 402.81,578.77C404.38,576.84 405.67,569.18 402.35,572.85C399.53,576 398.2,580.15 394.91,583.17Z" style="fill-opacity:0.1;fill-rule:nonzero;"/>
    </g>
    <g transform="matrix(1,0,0,1,-34.96,-80.93)">
        <path d="M424.54,575.14C424.19,577.5 423.54,579.95 421.87,581.65C421.56,581.97 420.87,582.17 420.78,581.74C422.645,580.747 424.379,579.524 425.94,578.1C429.32,574.75 429.78,566.5 424.63,564.31C424.58,567.93 425.09,571.46 424.54,575.14Z" style="fill-opacity:0.1;fill-rule:nonzero;"/>
    </g>
    <g transform="matrix(1,0,0,1,-34.96,-80.93)">
        <path d="M460.11,560.27C460.11,560.27 431.73,549.12 421.47,550.27C411.21,551.42 433.09,567.59 433.09,567.59L446.17,576.41C446.17,576.41 454.17,573.41 454.7,573.18C455.23,572.95 460.11,560.27 460.11,560.27Z" style="fill:rgb(69,75,105);fill-rule:nonzero;"/>
    </g>
    <g transform="matrix(1,0,0,1,-34.96,-80.93)">
        <path d="M264.84,440.65C264.84,440.65 286.16,428.29 314.3,443.65C342.44,459.01 347.13,549.4 347.13,549.4C347.13,549.4 335.62,641.49 380,621C380,621 461,595.85 469.11,601.39C469.11,601.39 476.79,601.39 461.44,604.8C446.09,608.21 386.79,627 386.79,627C386.79,627 367.62,633.7 359.5,627C351.38,620.3 328.37,627.86 325.38,581.8C323.401,552.774 319.843,523.878 314.72,495.24L306.81,471.79L264.84,440.65Z" style="fill:rgb(86,86,97);fill-rule:nonzero;"/>
    </g>
    <g transform="matrix(1,0,0,1,-34.96,-80.93)">
        <path d="M262.28,583.07C262.28,583.07 271.66,489.69 256.28,456C242.9,426.64 294.64,440.37 308.14,444.37C310.229,444.995 312.052,446.297 313.32,448.07C321.32,459.32 350.02,504.41 341.56,564.74C341.56,564.74 338.15,618.47 359.47,626.99L293.78,605.83C288.45,604.11 283.04,602.68 277.58,601.44C270.62,599.86 259.28,595.37 262.28,583.07Z" style="fill:white;fill-rule:nonzero;"/>
    </g>
    <path d="M694.53,676.47L703.06,676.47L708.65,561.83L709.03,555.31L701.78,552.76L701.3,559.69L694.53,676.47Z" style="fill:rgb(86,86,97);fill-rule:nonzero;"/>
    <path d="M701.3,559.69L708.65,561.83L709.03,555.31L701.78,552.76L701.3,559.69Z" style="fill-opacity:0.1;fill-rule:nonzero;"/>
    <g transform="matrix(1,0,0,1,-34.96,-80.93)">
        <path d="M658.27,713.13C658.06,714.7 657.657,716.239 657.07,717.71C656.464,719.631 655.162,721.258 653.42,722.27C652.25,722.753 650.996,723.001 649.73,723C645.02,723.28 640.04,723.21 635.99,720.81C634.265,719.698 632.683,718.378 631.28,716.88C622.179,707.838 613.906,697.998 606.56,687.48C605.33,685.71 604.06,683.62 604.61,681.48C614.126,678.841 623.162,674.706 631.38,669.23C632.514,668.36 633.785,667.684 635.14,667.23C637.46,666.734 639.849,666.646 642.2,666.97C644.47,667.34 644.57,667.41 645.44,669.97C646.88,674.3 646.64,678.97 648.26,683.3C649.288,685.693 650.54,687.983 652,690.14C656.18,697.13 659.39,705.38 658.27,713.13Z" style="fill:rgb(162,101,101);fill-rule:nonzero;"/>
    </g>
    <g transform="matrix(1,0,0,1,-34.96,-80.93)">
        <path d="M658.27,713.13C658.06,714.7 657.657,716.239 657.07,717.71C656.464,719.631 655.162,721.258 653.42,722.27C652.25,722.753 650.996,723.001 649.73,723C645.02,723.28 640.04,723.21 635.99,720.81C634.265,719.698 632.683,718.378 631.28,716.88C622.179,707.838 613.906,697.998 606.56,687.48C605.33,685.71 604.06,683.62 604.61,681.48C607.714,680.62 610.772,679.598 613.77,678.42L613.92,678.53C616.99,680.72 619.22,683.86 621.39,686.94L628.39,696.79C629.638,698.725 631.111,700.504 632.78,702.09C634.849,703.75 637.133,705.123 639.57,706.17C642.86,707.76 646.15,709.35 649.57,710.63C651.78,711.52 655.52,711.87 658.27,713.13Z" style="fill-opacity:0.1;fill-rule:nonzero;"/>
    </g>
    <g transform="matrix(1,0,0,1,-34.96,-80.93)">
        <path d="M664.73,606.34C664.041,608.002 663.204,609.598 662.23,611.11C652.936,626.717 645.765,643.496 640.91,661C639.53,660.69 638.75,662.57 638.76,664C638.77,665.43 638.76,667.23 637.44,667.75C637.05,667.9 636.61,667.9 636.23,668.07C635.39,668.45 635.15,669.52 635.03,670.44L633.85,679.1C633.44,682.1 633.08,685.35 634.55,688C635.564,689.575 636.879,690.934 638.42,692L657.94,707.4C658.74,708.03 659.73,708.7 660.69,708.35C662.88,707.55 660.94,703.63 662.69,702.04C663.85,700.95 665.69,701.77 667.3,701.64C669.4,701.48 670.99,699.55 671.52,697.52C671.892,695.453 671.929,693.339 671.63,691.26C671.498,690.311 671.608,689.345 671.95,688.45C672.546,687.502 673.367,686.715 674.34,686.16C681.211,681.142 685.154,673.023 684.85,664.52C684.691,663.244 684.738,661.951 684.99,660.69C685.397,659.536 686.01,658.465 686.8,657.53C693.89,647.94 699.8,637.53 705.67,627.14C709.05,621.14 712.49,615.05 713.67,608.29C713.755,608.081 713.799,607.857 713.799,607.631C713.799,606.739 713.117,605.982 712.23,605.89C709.302,604.976 706.315,604.261 703.29,603.75C694.1,601.89 685.23,599.02 676.29,596.26C667.35,593.5 667.42,599.12 664.73,606.34Z" style="fill:rgb(69,75,105);fill-rule:nonzero;"/>
    </g>
    <path d="M587.5,700.72L601.58,702.42L666.39,555.31L683.87,554.03L714.58,562.99L720.54,738.14L734.61,738.14L729.07,556.59L762.76,557.45L822.88,707.11L835.67,707.11L772.44,532.2L770.01,525.46L675.77,522.23L652.28,535.4L651.98,536.16L587.5,700.72Z" style="fill:rgb(86,86,97);fill-rule:nonzero;"/>
    <g transform="matrix(1,0,0,1,-34.96,-80.93)">
        <path d="M686.94,617.09C707.19,623.19 728.21,629.85 728.21,629.85C728.21,629.85 747.38,636.54 755.5,629.85C756.524,629.051 757.668,628.42 758.89,627.98C757.836,628.733 756.699,629.36 755.5,629.85L807.4,613.12L805,606.39L710.76,603.16L687.27,616.33L686.94,617.09Z" style="fill-opacity:0.1;fill-rule:nonzero;"/>
    </g>
    <g transform="matrix(1,0,0,1,-34.96,-80.93)">
        <path d="M782.79,588.06L744.42,579.53C744.42,579.53 652.74,596.59 645.92,603.41C645.92,603.41 719.26,618.33 727.36,623.41C735.46,628.49 783.65,634.11 782.79,588.06Z" style="fill:white;fill-rule:nonzero;"/>
    </g>
    <g transform="matrix(1,0,0,1,-34.96,-80.93)">
        <path d="M640.41,725.14C638.1,729.54 632.41,730.78 627.41,730.85C620.468,730.936 613.573,729.704 607.09,727.22C603.39,725.8 599.84,723.97 596.02,722.93C590.33,721.37 584.02,721.5 579.02,718.37C576.368,716.602 574.177,714.226 572.63,711.44C572.34,710.95 572.06,710.44 571.8,709.92C569.41,705.27 568.3,699.86 569.63,694.84C570.96,689.82 575.79,684.29 581.39,684.37C588.04,684.47 595.97,687.62 602.39,689.25C610.39,691.25 618.39,693.56 625.46,697.79C631.38,701.35 636.61,706.46 639.4,712.7C639.936,713.904 640.378,715.147 640.72,716.42C641.59,719.3 641.79,722.51 640.41,725.14Z" style="fill:rgb(162,101,101);fill-rule:nonzero;"/>
    </g>
    <g transform="matrix(1,0,0,1,-34.96,-80.93)">
        <path d="M640.41,725.14C638.1,729.54 632.41,730.78 627.41,730.85C620.468,730.936 613.573,729.704 607.09,727.22C603.39,725.8 599.84,723.97 596.02,722.93C590.33,721.37 584.02,721.5 579.02,718.37C576.368,716.602 574.177,714.226 572.63,711.44C572.34,710.95 572.06,710.44 571.8,709.92C572.8,710 573.72,710.1 574.22,710.15C580.36,710.74 586.22,712.98 592.08,714.67C600.215,717.02 608.616,718.33 617.08,718.57C623.08,718.74 629.34,718.3 634.58,715.37C636.145,714.383 637.768,713.491 639.44,712.7C639.976,713.904 640.418,715.147 640.76,716.42C641.59,719.3 641.79,722.51 640.41,725.14Z" style="fill-opacity:0.1;fill-rule:nonzero;"/>
    </g>
    <g transform="matrix(1,0,0,1,-34.96,-80.93)">
        <path d="M683.38,535C670.38,532.87 657.14,532.35 643.96,531.83L627.84,531.19C626.694,531.057 625.532,531.198 624.45,531.6C623.518,532.199 622.632,532.868 621.8,533.6C620.18,534.7 618.11,534.82 616.16,534.93C602.327,535.692 588.569,537.477 575,540.27C568,541.7 560.73,543.57 555.47,548.4C549.91,553.51 547.47,561.3 547.28,568.84C547.09,576.38 549.07,583.79 551.16,591.03C553.821,599.745 555.291,608.781 555.53,617.89C555.436,620.417 555.533,622.948 555.82,625.46C556.285,627.859 556.992,630.204 557.93,632.46L565.29,652.11C565.94,653.83 566.58,655.54 567.29,657.22C568,658.9 568.68,660.22 569.29,661.8C570.19,663.96 570.9,666.2 571.61,668.43L576.51,683.82L577.15,685.82C578.92,691.36 580.73,697 584.07,701.76C587.41,706.52 592.58,710.36 598.39,710.65C600.265,710.58 602.142,710.63 604.01,710.8C605.602,711.189 607.148,711.749 608.62,712.47C612.983,714.282 617.666,715.197 622.39,715.16C626.74,715.16 631.57,713.95 633.93,710.29C635.23,708.29 635.57,705.83 635.93,703.47C636.56,698.73 637.17,693.78 635.56,689.28C634.56,686.59 632.88,684.28 631.72,681.63C630.1,678.02 629.57,674.03 628.52,670.22C626.248,662.02 621.623,654.663 615.22,649.06C612.946,640.055 611.275,630.908 610.22,621.68C610.073,619.637 609.667,617.62 609.01,615.68C607.84,612.68 605.47,610.25 604.48,607.19C603.55,604.35 603.83,601.07 602.14,598.62C616.21,602.49 630.14,601.62 644.75,601.39C649.429,601.405 654.104,601.138 658.75,600.59C660.916,600.193 663.109,599.959 665.31,599.89C669.83,599.89 674.07,601.89 678.22,603.65C689.95,608.65 702.31,612.58 715.05,613.12C728.2,613.67 741.2,610.58 754.05,607.52C759.7,606.17 765.57,604.71 770.05,601C774.53,597.29 777.05,590.6 774.29,585.51C772.19,581.68 767.84,579.8 763.78,578.2C752.54,573.76 741.24,569.43 730.41,564.06C713.87,556 701.5,538 683.38,535Z" style="fill:rgb(69,75,105);fill-rule:nonzero;"/>
    </g>
    <g transform="matrix(1,0,0,1,-34.96,-80.93)">
        <path d="M660.2,489.76C658.63,493.16 655.99,495.94 654.04,499.14C650.779,504.406 649.702,510.743 651.04,516.79C652.464,522.846 656.624,527.909 662.29,530.48C664.787,531.475 667.414,532.108 670.09,532.36C673.61,532.79 677.36,532.88 680.47,531.18C682.797,529.783 684.707,527.787 686,525.4C688.69,520.9 690.22,515.83 691.62,510.78C694.21,501.46 696.42,491.9 696.1,482.23C695.99,478.9 695.33,475.15 692.57,473.23C691.145,472.407 689.565,471.89 687.93,471.71L674.74,469.35C672.19,468.89 667.74,467.02 665.53,468.86C663.32,470.7 663.15,476.14 662.77,478.69C662.17,482.46 661.8,486.29 660.2,489.76Z" style="fill:rgb(161,97,106);fill-rule:nonzero;"/>
    </g>
    <g transform="matrix(1,0,0,1,-34.96,-80.93)">
        <path d="M820.53,451.08L817.08,480C816.366,485.158 815.955,490.354 815.85,495.56C815.85,498.46 815.94,501.68 814.02,503.85C813.081,504.837 811.892,505.553 810.58,505.92C806.39,507.22 801.82,506.06 797.82,504.27C795.48,503.27 793.09,501.82 792.03,499.49C791.414,497.875 791.158,496.144 791.28,494.42C791.28,477.17 792.91,459.18 801.92,444.48C802.689,443.038 803.772,441.787 805.09,440.82C807.59,439.22 810.86,439.67 813.69,440.54C815.43,441.07 820.13,441.66 821.24,443.21C822.35,444.76 820.77,449.09 820.53,451.08Z" style="fill:rgb(161,97,106);fill-rule:nonzero;"/>
    </g>
    <circle cx="694.04" cy="229.57" r="36" style="fill:rgb(161,97,106);"/>
    <g transform="matrix(1,0,0,1,-34.96,-80.93)">
        <path d="M719.37,364.15C719.24,366.951 718.478,369.686 717.14,372.15C735.52,369.35 753.853,366.23 772.14,362.79C766.075,359.672 761.485,354.276 759.38,347.79C758.386,344.311 757.841,340.718 757.76,337.1C757.47,331.363 757.58,325.612 758.09,319.89C751.69,320.56 745.63,322.96 739.53,325.02C733.397,327.093 727.158,328.838 720.84,330.25C717.79,330.93 714.72,331.51 711.64,332.05C708.04,332.69 706.31,332.68 708.81,335.84C715.52,344.28 720.31,352.86 719.37,364.15Z" style="fill:rgb(161,97,106);fill-rule:nonzero;"/>
    </g>
    <g transform="matrix(1,0,0,1,-34.96,-80.93)">
        <path d="M730.43,359.34C725.68,360.05 720.7,360.85 716.91,363.79C715.467,365.029 714.095,366.348 712.8,367.74C705.27,375.05 694.64,377.99 685.5,383.15C684.009,383.887 682.688,384.926 681.62,386.2C680.62,387.59 680.11,389.36 679.06,390.74C677.84,392.34 675.91,393.34 674.96,395.11C674.01,396.88 674.22,398.76 674.12,400.64C673.89,404.77 672.33,408.69 671.12,412.64C665.57,431.55 668.61,452.64 660.21,470.5C660.99,472.578 662.588,474.249 664.63,475.12C666.744,475.881 668.95,476.356 671.19,476.53L689.8,478.84C692.46,479.17 695.28,479.48 697.71,478.37C695.487,484.498 693.915,490.843 693.02,497.3C692.568,501.247 691.866,505.161 690.92,509.02C688.36,517.82 681.92,525.15 674.29,530.16C673.329,530.663 672.518,531.412 671.94,532.33C670.94,534.33 672.42,536.57 673.47,538.53C676.52,544.21 676.1,551.03 676.06,557.47C676.02,563.91 676.67,570.98 681.17,575.6C683.83,578.33 687.47,579.81 691.01,581.22L720.12,592.85C724.924,594.896 729.879,596.567 734.94,597.85C742.61,599.6 750.58,599.53 758.45,599.19C763.65,598.97 768.843,598.637 774.03,598.19C776.093,598.183 778.121,597.65 779.92,596.64C781.469,595.418 782.661,593.801 783.37,591.96C787.42,583.15 788.78,572.87 795.06,565.49C799.37,560.42 806.06,556.37 806.55,549.74C806.78,546.44 805.31,543.23 805.29,539.92C805.29,535.85 807.42,531.98 807.29,527.92C807.02,521.31 800.79,516.27 799.8,509.73C797.28,493.15 805.7,476.59 810.87,460.64C811.8,457.79 813,454.64 815.74,453.42C818.48,452.2 822.34,452.84 823.32,450.14C825.79,443.36 826.38,435.41 826.06,428.2C825.88,424.03 824.4,419.95 824.57,415.77C824.69,412.83 825.63,409.97 825.88,407.04C826.26,402.61 825.09,398.21 823.88,393.93C823.53,392.402 823.007,390.919 822.32,389.51C821.581,388.232 820.71,387.035 819.72,385.94L814.85,380.15C812.57,377.44 810.16,374.63 806.85,373.26C805.78,370.61 802.36,368.78 799.91,367.32C797.44,365.919 794.889,364.666 792.27,363.57L764.73,351.41C763.701,350.892 762.598,350.534 761.46,350.35C759.784,350.294 758.118,350.637 756.6,351.35C748.2,354.68 739.43,358 730.43,359.34Z" style="fill:rgb(94,218,18);fill-rule:nonzero;"/>
    </g>
    <g transform="matrix(1,0,0,1,-34.96,-80.93)">
        <path d="M701.26,316.76C700.2,313.03 697.49,309.81 697.08,305.95C696.71,302.52 698.22,299.2 699.08,295.86C699.94,292.52 699.91,288.44 697.26,286.22C696.82,285.84 696.26,285.5 696.1,284.94C695.78,283.94 696.79,283.03 697.1,282.02C697.67,280.02 695.2,277.81 696.1,275.89C696.61,274.84 697.89,274.47 699.01,274.14C703.29,272.87 707.63,270.05 708.56,265.68C711.91,267.08 715.48,264.45 718.05,261.9C720.62,259.35 723.78,256.44 727.32,257.21L726.53,258.82C731.987,256.839 737.96,256.772 743.46,258.63L741.78,258.63C746.605,258.712 751.286,260.296 755.17,263.16C754.74,263.16 754.7,263.8 754.87,264.16C756.27,267.43 759.87,269.16 763.34,269.97C765.43,270.47 767.7,270.83 769.23,272.33C770.76,273.83 770.79,276.96 768.77,277.68C772.889,279.284 776.79,281.4 780.38,283.98C781.38,284.71 782.51,285.7 782.38,286.98C782.237,287.623 782.029,288.249 781.76,288.85C781.56,289.917 781.633,291.018 781.97,292.05L783.08,296.63C784.3,301.72 785.26,307.85 781.55,311.54C784.393,316.853 783.41,323.448 779.14,327.7C779.361,328.372 779.474,329.076 779.474,329.783C779.474,332.938 777.232,335.682 774.14,336.31C775.37,338.23 774.24,340.97 772.3,342.17C770.36,343.37 767.92,343.38 765.66,343.17C763.4,342.96 761.11,342.45 758.85,342.79C755.56,343.3 752.34,345.54 749.17,344.54C747.988,344.035 746.854,343.426 745.78,342.72C743.56,341.53 740.98,341.26 738.52,340.72C734.326,339.819 730.344,338.121 726.79,335.72C724.434,334.304 722.556,332.214 721.4,329.72C719.2,324.16 722.9,316.87 719.01,312.34C716.73,309.7 712.21,309.66 709.66,311.92C708.39,313.05 708.22,315.43 706.9,316.28C705.059,316.746 703.154,316.908 701.26,316.76Z" style="fill:rgb(70,67,83);fill-rule:nonzero;"/>
    </g>
    <g transform="matrix(1,0,0,1,-34.96,-80.93)">
        <path d="M652.34,603.5C650.919,602.375 649.692,601.024 648.71,599.5C647.725,597.969 647.333,596.129 647.61,594.33C646.82,598.943 648.265,603.668 651.5,607.05C654.01,609.62 658.72,612.14 662.39,611.26C661.87,608.32 654.67,605.48 652.34,603.5Z" style="fill-opacity:0.1;fill-rule:nonzero;"/>
    </g>
    <g transform="matrix(1,0,0,1,-34.96,-80.93)">
        <path d="M850.16,442.65C850.16,442.65 828.84,430.29 800.7,445.65C772.56,461.01 767.87,551.4 767.87,551.4C767.87,551.4 779.38,643.49 735,623C735,623 654,597.85 645.89,603.39C645.89,603.39 638.21,603.39 653.56,606.8C668.91,610.21 728.21,629 728.21,629C728.21,629 747.38,635.7 755.5,629C763.62,622.3 786.63,629.86 789.62,583.8C791.599,554.774 795.157,525.878 800.28,497.24L808.19,473.79L850.16,442.65Z" style="fill:rgb(86,86,97);fill-rule:nonzero;"/>
    </g>
    <g transform="matrix(1,0,0,1,-34.96,-80.93)">
        <path d="M852.72,585.07C852.72,585.07 843.34,491.69 858.72,458C872.1,428.64 820.36,442.37 806.86,446.37C804.771,446.995 802.948,448.297 801.68,450.07C793.68,461.32 764.98,506.41 773.44,566.74C773.44,566.74 776.85,620.47 755.53,628.99L821.22,607.83C826.55,606.11 831.96,604.68 837.42,603.44C844.38,601.86 855.72,597.37 852.72,585.07Z" style="fill:white;fill-rule:nonzero;"/>
    </g>
    <ellipse cx="989.97" cy="670.07" rx="97.44" ry="15.65" style="fill:rgb(173,213,55);fill-opacity:0.1;"/>
    <rect x="986.83" y="370.26" width="6.27" height="141.17" style="fill:rgb(83,84,97);"/>
    <g transform="matrix(1,0,0,1,-34.96,-80.93)">
        <path d="M1067.47,591.93L1067.08,598.29L1066.52,607.29L1066.29,611.03L1065.74,620.03L1065.5,623.77L1064.94,632.77L1058.62,734.84C1058.02,743.88 1050.42,750.999 1041.36,751L1008.49,751C999.413,750.996 991.807,743.84 991.25,734.78L984.91,632.7L984.36,623.7L984.13,619.96L983.56,610.96L983.33,607.22L982.78,598.22L982.38,591.86C982.37,591.69 982.366,591.52 982.366,591.35C982.366,586.43 986.4,582.375 991.32,582.35L1058.54,582.35C1063.46,582.378 1067.49,586.432 1067.49,591.35C1067.49,591.543 1067.48,591.737 1067.47,591.93Z" style="fill:rgb(86,86,97);fill-rule:nonzero;"/>
    </g>
    <path d="M1032.12,517.36L1031.56,526.33L948.38,526.33L947.82,517.36L1032.12,517.36Z" style="fill:rgb(157,156,181);fill-rule:nonzero;"/>
    <path d="M1031.33,530.08L1030.78,539.06L949.17,539.06L948.61,530.08L1031.33,530.08Z" style="fill:rgb(157,156,181);fill-rule:nonzero;"/>
    <path d="M1030.54,542.8L1029.98,551.77L949.96,551.77L949.4,542.8L1030.54,542.8Z" style="fill:rgb(157,156,181);fill-rule:nonzero;"/>
    <g transform="matrix(1,0,0,1,-34.96,-80.93)">
        <path d="M973.2,504.1C1009.72,530.52 1024.93,571.84 1024.93,571.84C1024.93,571.84 980.93,570.33 944.4,543.91C907.87,517.49 892.68,476.18 892.68,476.18C892.68,476.18 936.69,477.69 973.2,504.1Z" style="fill:rgb(94,218,18);fill-rule:nonzero;"/>
    </g>
    <g transform="matrix(1,0,0,1,-34.96,-80.93)">
        <path d="M892.68,476.18C892.68,476.18 938.35,501.53 953.01,522.52C967.67,543.51 1024.93,571.84 1024.93,571.84" style="fill:none;fill-rule:nonzero;stroke:rgb(83,84,97);stroke-width:2px;"/>
    </g>
    <g transform="matrix(1,0,0,1,-34.96,-80.93)">
        <path d="M996.77,450.88C1016.65,465.25 1024.93,487.75 1024.93,487.75C1024.93,487.75 1000.93,486.92 981.1,472.55C961.27,458.18 953,435.68 953,435.68C953,435.68 976.9,436.5 996.77,450.88Z" style="fill:rgb(94,218,18);fill-rule:nonzero;"/>
    </g>
    <g transform="matrix(1,0,0,1,-34.96,-80.93)">
        <path d="M953,435.68C953,435.68 977.86,449.48 985.83,460.9C993.8,472.32 1024.98,487.75 1024.98,487.75" style="fill:none;fill-rule:nonzero;stroke:rgb(83,84,97);stroke-width:2px;"/>
    </g>
    <g transform="matrix(1,0,0,1,-34.96,-80.93)">
        <path d="M1053.81,486.6C1030.98,511.69 1026.15,544.48 1026.15,544.48C1026.15,544.48 1058.34,536.58 1081.15,511.48C1103.96,486.38 1108.81,453.6 1108.81,453.6C1108.81,453.6 1076.64,461.51 1053.81,486.6Z" style="fill:rgb(94,218,18);fill-rule:nonzero;"/>
    </g>
    <g transform="matrix(1,0,0,1,-34.96,-80.93)">
        <path d="M1108.83,453.61C1108.83,453.61 1079.09,479.33 1071.53,497.05C1063.97,514.77 1026.15,544.48 1026.15,544.48" style="fill:rgb(94,218,18);fill-rule:nonzero;stroke:rgb(83,84,97);stroke-width:2px;"/>
    </g>
    <g transform="matrix(1,0,0,1,-34.96,-80.93)">
        <path d="M591.94,426.2L591.94,428.48L524.33,428.48L524.33,426.63C526.184,425.935 527.939,425 529.55,423.85C535.37,419.683 538.831,412.948 538.83,405.79C538.831,403.945 538.599,402.107 538.14,400.32C536.485,393.81 531.966,388.389 525.86,385.59L591.48,385.59C585.374,388.389 580.855,393.81 579.2,400.32C578.744,402.107 578.516,403.945 578.52,405.79C578.515,412.947 581.972,419.682 587.79,423.85C589.088,424.776 590.479,425.563 591.94,426.2Z" style="fill:rgb(223,230,245);fill-rule:nonzero;"/>
    </g>
    <g transform="matrix(1,0,0,1,-34.96,-80.93)">
        <path d="M591.48,385.59C585.374,388.389 580.855,393.81 579.2,400.32L538.14,400.32C536.485,393.81 531.966,388.389 525.86,385.59L591.48,385.59Z" style="fill-opacity:0.1;fill-rule:nonzero;"/>
    </g>
    <g transform="matrix(1,0,0,1,-34.96,-80.93)">
        <path d="M446.92,373.94L446.92,386.78C446.92,393.86 452.1,399.61 458.5,399.61L657.41,399.61C663.81,399.61 669,393.86 669,386.78L669,373.94L446.92,373.94Z" style="fill:rgb(223,230,245);fill-rule:nonzero;"/>
    </g>
    <g transform="matrix(1,0,0,1,-34.96,-80.93)">
        <path d="M591.94,426.2L591.94,428.48L524.33,428.48L524.33,426.63C526.184,425.935 527.939,425 529.55,423.85L587.79,423.85C589.088,424.776 590.479,425.563 591.94,426.2Z" style="fill-opacity:0.1;fill-rule:nonzero;"/>
    </g>
    <path d="M579.32,347.015C579.32,345.147 577.803,343.63 575.935,343.63L470.415,343.63C468.547,343.63 467.03,345.147 467.03,347.015C467.03,348.883 468.547,350.4 470.415,350.4L575.935,350.4C577.803,350.4 579.32,348.883 579.32,347.015Z" style="fill:rgb(223,230,245);"/>
    <g transform="matrix(1,0,0,1,-34.96,-80.93)">
        <path d="M669,376.44L669,233.31C669,226.957 663.773,221.73 657.42,221.73C657.417,221.73 657.413,221.73 657.41,221.73L458.5,221.73C458.497,221.73 458.493,221.73 458.49,221.73C452.143,221.73 446.92,226.953 446.92,233.3C446.92,233.303 446.92,233.307 446.92,233.31L446.92,376.44L669,376.44Z" style="fill:rgb(71,65,87);fill-rule:nonzero;"/>
    </g>
    <g transform="matrix(1,0,0,1,-34.96,-80.93)">
        <path d="M662.94,238.48L662.94,361.48C662.94,361.483 662.94,361.487 662.94,361.49C662.94,364.617 660.367,367.19 657.24,367.19L458.68,367.19C455.553,367.19 452.98,364.617 452.98,361.49C452.98,361.487 452.98,361.483 452.98,361.48L452.98,238.48C452.975,237.479 453.237,236.495 453.74,235.63C454.758,233.867 456.645,232.779 458.68,232.78L657.24,232.78C660.367,232.78 662.94,235.353 662.94,238.48Z" style="fill:rgb(76,76,120);fill-rule:nonzero;"/>
    </g>
    <circle cx="523" cy="146.32" r="2.67" style="fill:white;"/>
    <circle cx="523" cy="306.38" r="6.59" style="fill:white;"/>
    <g transform="matrix(1,0,0,1,-34.96,-80.93)">
        <path d="M662.94,238.48L453,238.48C453,235.353 455.573,232.78 458.7,232.78L657.24,232.78C660.367,232.78 662.94,235.353 662.94,238.48Z" style="fill:rgb(200,202,215);fill-rule:nonzero;"/>
    </g>
    <circle cx="423.72" cy="154.7" r="1.43" style="fill:rgb(237,237,244);"/>
    <circle cx="428" cy="154.7" r="1.43" style="fill:rgb(237,237,244);"/>
    <circle cx="432.28" cy="154.7" r="1.43" style="fill:rgb(237,237,244);"/>
    <defs>
        <linearGradient id="_Linear1" x1="0" y1="0" x2="1" y2="0" gradientUnits="userSpaceOnUse" gradientTransform="matrix(2.32,0,0,2.32,421.41,548.67)"><stop offset="0" style="stop-color:rgb(128,128,128);stop-opacity:0.25"/><stop offset="0.54" style="stop-color:rgb(128,128,128);stop-opacity:0.12"/><stop offset="1" style="stop-color:rgb(128,128,128);stop-opacity:0.1"/></linearGradient>
    </defs>
</svg>
