<svg width="270" height="181" viewBox="0 0 270 181" fill="none" xmlns="http://www.w3.org/2000/svg">
<path d="M270 0.110138H84.056V124.532H270V0.110138Z" fill="#E6E6E6"/>
<path d="M264.683 15.7158H89.373V117.172H264.683V15.7158Z" fill="white"/>
<path d="M269.921 0H83.9767V8.25351H269.921V0Z" fill="#D0BC0A"/>
<path d="M89.8469 5.74936C90.6556 5.74936 91.3111 5.06448 91.3111 4.21964C91.3111 3.37479 90.6556 2.68991 89.8469 2.68991C89.0383 2.68991 88.3828 3.37479 88.3828 4.21964C88.3828 5.06448 89.0383 5.74936 89.8469 5.74936Z" fill="white"/>
<path d="M95.4044 5.74936C96.213 5.74936 96.8686 5.06448 96.8686 4.21964C96.8686 3.37479 96.213 2.68991 95.4044 2.68991C94.5958 2.68991 93.9403 3.37479 93.9403 4.21964C93.9403 5.06448 94.5958 5.74936 95.4044 5.74936Z" fill="white"/>
<path d="M100.962 5.74936C101.771 5.74936 102.426 5.06448 102.426 4.21964C102.426 3.37479 101.771 2.68991 100.962 2.68991C100.153 2.68991 99.4978 3.37479 99.4978 4.21964C99.4978 5.06448 100.153 5.74936 100.962 5.74936Z" fill="white"/>
<path d="M215.078 25.2184H158.003C157.881 25.2017 157.769 25.1392 157.688 25.0426C157.607 24.9461 157.563 24.8221 157.562 24.6937C157.563 24.5653 157.607 24.4413 157.688 24.3447C157.769 24.2482 157.881 24.1857 158.003 24.1689H215.078C215.2 24.1857 215.312 24.2482 215.393 24.3447C215.474 24.4413 215.519 24.5653 215.519 24.6937C215.519 24.8221 215.474 24.9461 215.393 25.0426C215.312 25.1392 215.2 25.2017 215.078 25.2184Z" fill="#CCCCCC"/>
<path d="M175.531 30.9907H139.242C139.12 30.9739 139.008 30.9114 138.927 30.8149C138.846 30.7183 138.802 30.5943 138.802 30.4659C138.802 30.3375 138.846 30.2135 138.927 30.117C139.008 30.0204 139.12 29.9579 139.242 29.9412H175.531C175.653 29.9579 175.764 30.0204 175.845 30.117C175.926 30.2135 175.971 30.3375 175.971 30.4659C175.971 30.5943 175.926 30.7183 175.845 30.8149C175.764 30.9114 175.653 30.9739 175.531 30.9907Z" fill="#CCCCCC"/>
<path d="M215.078 31.0956H178.79C178.668 31.0788 178.556 31.0163 178.475 30.9198C178.394 30.8233 178.349 30.6993 178.349 30.5709C178.349 30.4425 178.394 30.3184 178.475 30.2219C178.556 30.1254 178.668 30.0629 178.79 30.0461H215.078C215.2 30.0629 215.312 30.1254 215.393 30.2219C215.474 30.3184 215.519 30.4425 215.519 30.5709C215.519 30.6993 215.474 30.8233 215.393 30.9198C215.312 31.0163 215.2 31.0788 215.078 31.0956H215.078Z" fill="#CCCCCC"/>
<path d="M175.619 36.7628H139.33C139.208 36.7461 139.096 36.6836 139.015 36.587C138.934 36.4905 138.89 36.3665 138.89 36.2381C138.89 36.1097 138.934 35.9857 139.015 35.8891C139.096 35.7926 139.208 35.7301 139.33 35.7133H175.619C175.741 35.7301 175.852 35.7926 175.933 35.8891C176.014 35.9857 176.059 36.1097 176.059 36.2381C176.059 36.3665 176.014 36.4905 175.933 36.587C175.852 36.6836 175.741 36.7461 175.619 36.7628Z" fill="#CCCCCC"/>
<path d="M175.707 42.5351H139.418C139.296 42.5183 139.185 42.4558 139.104 42.3593C139.023 42.2627 138.978 42.1387 138.978 42.0103C138.978 41.8819 139.023 41.7579 139.104 41.6614C139.185 41.5648 139.296 41.5023 139.418 41.4856H175.707C175.829 41.5023 175.941 41.5648 176.022 41.6614C176.103 41.7579 176.147 41.8819 176.147 42.0103C176.147 42.1387 176.103 42.2627 176.022 42.3593C175.941 42.4558 175.829 42.5183 175.707 42.5351Z" fill="#CCCCCC"/>
<path d="M192.178 36.7628H181.784C181.663 36.7461 181.551 36.6836 181.47 36.587C181.389 36.4905 181.344 36.3665 181.344 36.2381C181.344 36.1097 181.389 35.9857 181.47 35.8891C181.551 35.7926 181.663 35.7301 181.784 35.7133H192.178C192.3 35.7301 192.411 35.7926 192.492 35.8891C192.573 35.9857 192.618 36.1097 192.618 36.2381C192.618 36.3665 192.573 36.4905 192.492 36.587C192.411 36.6836 192.3 36.7461 192.178 36.7628Z" fill="#CCCCCC"/>
<path d="M192.178 42.4301H181.784C181.663 42.4133 181.551 42.3509 181.47 42.2543C181.389 42.1578 181.344 42.0338 181.344 41.9054C181.344 41.777 181.389 41.653 181.47 41.5564C181.551 41.4599 181.663 41.3974 181.784 41.3806H192.178C192.3 41.3974 192.411 41.4599 192.492 41.5564C192.573 41.653 192.618 41.777 192.618 41.9054C192.618 42.0338 192.573 42.1578 192.492 42.2543C192.411 42.3509 192.3 42.4133 192.178 42.4301Z" fill="#CCCCCC"/>
<path d="M209.617 42.4301H199.224C199.102 42.4133 198.99 42.3509 198.909 42.2543C198.828 42.1578 198.784 42.0338 198.784 41.9054C198.784 41.777 198.828 41.653 198.909 41.5564C198.99 41.4599 199.102 41.3974 199.224 41.3806H209.617C209.739 41.3974 209.851 41.4599 209.932 41.5564C210.013 41.653 210.058 41.777 210.058 41.9054C210.058 42.0338 210.013 42.1578 209.932 42.2543C209.851 42.3509 209.739 42.4133 209.617 42.4301Z" fill="#CCCCCC"/>
<path d="M149.371 25.2184H138.978C138.856 25.2017 138.744 25.1392 138.663 25.0426C138.582 24.9461 138.538 24.8221 138.538 24.6937C138.538 24.5653 138.582 24.4413 138.663 24.3447C138.744 24.2482 138.856 24.1857 138.978 24.1689H149.371C149.493 24.1857 149.605 24.2482 149.686 24.3447C149.767 24.4413 149.812 24.5653 149.812 24.6937C149.812 24.8221 149.767 24.9461 149.686 25.0426C149.605 25.1392 149.493 25.2017 149.371 25.2184Z" fill="#CCCCCC"/>
<path d="M175.399 91.4018H139.11C138.988 91.385 138.876 91.3225 138.795 91.226C138.714 91.1295 138.67 91.0054 138.67 90.877C138.67 90.7487 138.714 90.6246 138.795 90.5281C138.876 90.4316 138.988 90.3691 139.11 90.3523H175.399C175.52 90.3691 175.632 90.4316 175.713 90.5281C175.794 90.6246 175.839 90.7487 175.839 90.877C175.839 91.0054 175.794 91.1295 175.713 91.226C175.632 91.3225 175.52 91.385 175.399 91.4018H175.399Z" fill="#CCCCCC"/>
<path d="M175.222 102.946H138.934C138.812 102.929 138.7 102.867 138.619 102.77C138.538 102.674 138.493 102.55 138.493 102.421C138.493 102.293 138.538 102.169 138.619 102.073C138.7 101.976 138.812 101.914 138.934 101.897H175.222C175.344 101.914 175.456 101.976 175.537 102.073C175.618 102.169 175.663 102.293 175.663 102.421C175.663 102.55 175.618 102.674 175.537 102.77C175.456 102.867 175.344 102.929 175.222 102.946H175.222Z" fill="#CCCCCC"/>
<path d="M175.31 108.718H139.022C138.9 108.702 138.788 108.639 138.707 108.543C138.626 108.446 138.582 108.322 138.582 108.194C138.582 108.065 138.626 107.941 138.707 107.845C138.788 107.748 138.9 107.686 139.022 107.669H175.311C175.432 107.686 175.544 107.748 175.625 107.845C175.706 107.941 175.751 108.065 175.751 108.194C175.751 108.322 175.706 108.446 175.625 108.543C175.544 108.639 175.432 108.702 175.311 108.718H175.31Z" fill="#CCCCCC"/>
<path d="M190.812 103.051H180.419C180.297 103.034 180.185 102.972 180.104 102.875C180.023 102.779 179.979 102.655 179.979 102.526C179.979 102.398 180.023 102.274 180.104 102.177C180.185 102.081 180.297 102.018 180.419 102.002H190.812C190.934 102.018 191.046 102.081 191.127 102.177C191.208 102.274 191.253 102.398 191.253 102.526C191.253 102.655 191.208 102.779 191.127 102.875C191.046 102.972 190.934 103.034 190.812 103.051Z" fill="#CCCCCC"/>
<path d="M190.812 108.718H180.419C180.297 108.702 180.185 108.639 180.104 108.543C180.023 108.446 179.979 108.322 179.979 108.194C179.979 108.065 180.023 107.941 180.104 107.845C180.185 107.748 180.297 107.686 180.419 107.669H190.812C190.934 107.686 191.046 107.748 191.127 107.845C191.208 107.941 191.253 108.065 191.253 108.194C191.253 108.322 191.208 108.446 191.127 108.543C191.046 108.639 190.934 108.702 190.812 108.718Z" fill="#CCCCCC"/>
<path d="M208.252 103.051H197.859C197.737 103.034 197.625 102.972 197.544 102.875C197.463 102.779 197.418 102.655 197.418 102.526C197.418 102.398 197.463 102.274 197.544 102.177C197.625 102.081 197.737 102.018 197.859 102.002H208.252C208.374 102.018 208.486 102.081 208.567 102.177C208.648 102.274 208.692 102.398 208.692 102.526C208.692 102.655 208.648 102.779 208.567 102.875C208.486 102.972 208.374 103.034 208.252 103.051Z" fill="#CCCCCC"/>
<path d="M215.122 97.174H158.047C157.925 97.1572 157.813 97.0947 157.732 96.9982C157.651 96.9017 157.607 96.7776 157.607 96.6493C157.607 96.5209 157.651 96.3968 157.732 96.3003C157.813 96.2038 157.925 96.1413 158.047 96.1245H215.122C215.244 96.1413 215.356 96.2038 215.437 96.3003C215.518 96.3968 215.563 96.5209 215.563 96.6493C215.563 96.7776 215.518 96.9017 215.437 96.9982C215.356 97.0947 215.244 97.1572 215.122 97.174Z" fill="#CCCCCC"/>
<path d="M149.415 97.174H139.022C138.9 97.1572 138.788 97.0947 138.707 96.9982C138.626 96.9017 138.582 96.7776 138.582 96.6493C138.582 96.5209 138.626 96.3968 138.707 96.3003C138.788 96.2038 138.9 96.1413 139.022 96.1245H149.415C149.537 96.1413 149.649 96.2038 149.73 96.3003C149.811 96.3968 149.856 96.5209 149.856 96.6493C149.856 96.7776 149.811 96.9017 149.73 96.9982C149.649 97.0947 149.537 97.1572 149.415 97.174Z" fill="#CCCCCC"/>
<path d="M166.635 51.8589L152.542 66.3992L166.635 80.9391L169.806 77.6262L159.148 66.491L169.893 55.2639L166.635 51.8589Z" fill="#E6E6E6"/>
<path d="M187.421 51.8589L201.514 66.3992L187.421 80.9391L184.251 77.6262L194.908 66.491L184.162 55.2639L187.421 51.8589Z" fill="#E6E6E6"/>
<path d="M166.635 51.8589L152.542 66.3992L166.635 80.9391L169.806 77.6262L159.148 66.491L169.893 55.2639L166.635 51.8589Z" fill="#D0BC0A"/>
<path d="M187.421 51.8589L201.514 66.3992L187.421 80.9391L184.251 77.6262L194.908 66.491L184.162 55.2639L187.421 51.8589Z" fill="#D0BC0A"/>
<path d="M143.109 173.488C147.494 179.623 156.597 180.269 156.597 180.269C156.597 180.269 158.589 170.967 154.204 164.831C149.819 158.696 140.717 158.05 140.717 158.05C140.717 158.05 138.724 167.352 143.109 173.488Z" fill="#D0BC0A" fill-opacity="0.82"/>
<path d="M165.447 175.794C162.554 179.843 156.547 180.269 156.547 180.269C156.547 180.269 155.232 174.131 158.126 170.082C161.019 166.034 167.026 165.607 167.026 165.607C167.026 165.607 168.341 171.745 165.447 175.794Z" fill="#D0BC0A" fill-opacity="0.69"/>
<path d="M45.5614 146.468V162.394H41.2061L38.3029 145.71L45.5614 146.468Z" fill="#BD8787"/>
<path d="M11.0828 146.468V162.394H6.72786L3.82434 145.71L11.0828 146.468Z" fill="#BD8787"/>
<path d="M34.0582 29.066C34.0582 29.066 27.0597 23.8104 26.1849 26.3239C25.3101 28.8374 31.4338 33.4075 31.4338 33.4075L34.0582 29.066Z" fill="#BD8787"/>
<path d="M9.23541 35.8068C9.23541 44.893 12.9797 45.1753 19.0794 45.1753C25.1792 45.1753 31.3244 44.893 31.3244 35.8068C31.3244 26.7205 26.3796 19.3546 20.2799 19.3546C14.1802 19.3546 9.23541 26.7205 9.23541 35.8068Z" fill="#2F2E41"/>
<path d="M24.2166 35.6925C24.2166 35.6925 23.3417 42.5476 27.4971 43.0046C31.6525 43.4616 13.9375 44.8326 13.9375 44.8326C13.9375 44.8326 18.5303 40.491 16.1245 37.0635C13.7188 33.636 24.2166 35.6925 24.2166 35.6925Z" fill="#BD8787"/>
<path d="M46.3056 158.17L47.8365 171.651C47.8365 171.651 55.4912 181.477 50.6797 180.791C45.8682 180.106 42.8064 180.937 42.8064 180.023C42.8064 179.109 42.6932 175.843 42.0371 175.843C41.381 175.843 40.838 181 40.838 181C40.838 181 38.8697 180.844 38.651 180.616C38.4323 180.387 38.2136 167.31 38.2136 167.31C38.2136 167.31 37.5575 163.425 38.8697 161.597C40.1819 159.769 39.9632 158.17 39.9632 158.17L46.3056 158.17Z" fill="#2F2E41"/>
<path d="M11.4642 158.021L12.9951 171.503C12.9951 171.503 20.6497 181.329 15.8382 180.643C11.0268 179.957 7.96492 180.789 7.96492 179.875C7.96492 178.961 7.8518 175.695 7.19569 175.695C6.53957 175.695 5.99659 180.852 5.99659 180.852C5.99659 180.852 4.02827 180.696 3.80956 180.468C3.59086 180.239 3.37216 167.161 3.37216 167.161C3.37216 167.161 2.71605 163.277 4.02827 161.449C5.34048 159.621 5.12178 158.021 5.12178 158.021H11.4642Z" fill="#2F2E41"/>
<path d="M34.933 77.9654C34.933 77.9654 41.9315 98.759 42.3689 103.329C42.8063 107.899 41.9315 123.437 41.9315 123.437C41.9315 123.437 48.2739 150.284 46.9617 150.513C45.6495 150.741 38.3419 151.825 38.1232 150.682C37.9045 149.54 37.1248 147.771 37.3435 147.085C37.5622 146.4 36.6874 143.886 36.6874 142.515C36.6874 141.144 33.6208 133.948 33.8395 132.806C34.0582 131.663 30.1215 114.754 29.4654 113.383C28.8093 112.012 27.0597 102.415 27.0597 102.415C27.0597 102.415 17.218 130.521 16.9993 131.206C16.7806 131.892 15.9058 133.034 16.3432 133.263C16.7806 133.491 15.6871 135.091 15.6871 135.091C15.6871 135.091 13.4209 144.572 13.4209 145.029C13.4209 145.486 13.8583 150.659 12.9835 150.887C12.1087 151.116 3.17286 151.101 2.73546 149.502C2.29805 147.902 7.37639 129.378 7.37639 129.378C7.37639 129.378 11.0944 117.725 10.0008 114.754C8.90732 111.784 11.0944 93.9605 11.9692 92.5895C12.844 91.2185 13.0627 82.9924 13.0627 82.9924L34.933 77.9654Z" fill="#2F2E41"/>
<path d="M20.3893 39.4628C24.2544 39.4628 27.3878 36.1891 27.3878 32.1507C27.3878 28.1124 24.2544 24.8387 20.3893 24.8387C16.5241 24.8387 13.3907 28.1124 13.3907 32.1507C13.3907 36.1891 16.5241 39.4628 20.3893 39.4628Z" fill="#BD8787"/>
<path d="M24.2166 41.4051C24.2166 41.4051 16.3432 41.6336 15.9058 40.9481C15.4684 40.2626 4.53326 42.5476 4.53326 47.1176C4.53326 51.6877 10.8757 69.5108 10.8757 69.5108C10.8757 69.5108 13.2814 82.3069 12.6253 83.6779C11.9692 85.0489 36.9013 80.7074 36.2452 78.4224C35.5891 76.1374 31.8712 71.1103 36.6826 66.7688C41.4941 62.4272 43.4624 57.8572 43.4624 57.8572L37.7762 42.0906C37.7762 42.0906 32.0899 41.1765 30.7777 42.0906C29.4654 43.0046 24.2166 41.4051 24.2166 41.4051Z" fill="#D97B66"/>
<path d="M41.9315 58.9997L43.4625 57.8572C43.4625 57.8572 57.6782 42.319 53.9602 39.3485C50.2423 36.378 44.7747 33.636 42.1503 33.4075C39.5258 33.179 37.3388 31.1225 37.3388 31.1225C37.3388 31.1225 34.4956 25.8669 32.3086 29.2944C30.1216 32.722 27.7158 33.8645 30.7777 35.007C33.8395 36.1495 35.8079 35.6925 37.3388 36.835C38.8697 37.9775 44.7747 39.8055 42.1503 40.491C40.6453 40.8722 39.1801 41.4079 37.7762 42.0905L34.933 47.3461L41.9315 58.9997Z" fill="#D97B66"/>
<path d="M17.2181 97.6165C17.2181 97.6165 22.9044 106.3 18.749 105.843C14.5936 105.386 12.6253 99.4445 12.6253 99.4445L17.2181 97.6165Z" fill="#BD8787"/>
<path d="M6.06416 45.9751L4.53324 47.1176C4.53324 47.1176 -0.496935 75.9089 4.53324 83.4494C9.56342 90.99 10.0008 90.533 10.0008 90.533C10.0008 90.533 10.8756 89.8475 11.313 94.4175C11.7504 98.9876 11.0943 100.816 12.4066 100.816C13.7188 100.816 19.6238 99.4446 19.1864 98.3021C18.749 97.1596 15.9058 90.533 15.6871 88.9335C15.4684 87.334 14.3749 83.6779 13.9375 81.6214C13.5001 79.5649 15.9058 78.4224 14.8123 74.0809C13.7188 69.7393 12.1879 61.9702 12.1879 60.3707C12.1879 58.7712 6.06416 45.9751 6.06416 45.9751Z" fill="#D97B66"/>
<path d="M13.6094 25.6384C13.6094 28.0993 16.8407 30.0942 20.8266 30.0942C24.8126 30.0942 28.4813 31.4125 28.4813 28.9517C28.4813 26.4908 24.8126 21.1826 20.8266 21.1826C16.8407 21.1826 13.6094 23.1775 13.6094 25.6384Z" fill="#2F2E41"/>
<path d="M31.2589 37.3489C31.2589 37.3489 31.5534 45.6324 23.675 45.1754C15.7965 44.7184 24.7396 38.0948 24.7396 38.0948L31.2589 37.3489Z" fill="#2F2E41"/>
<path d="M213.752 180.269H0V180.981H213.752V180.269Z" fill="#3F3D56"/>
</svg>
