<?xml version="1.0" encoding="UTF-8" standalone="no"?>
<!DOCTYPE svg PUBLIC "-//W3C//DTD SVG 1.1//EN" "http://www.w3.org/Graphics/SVG/1.1/DTD/svg11.dtd">
<svg width="100%" height="100%" viewBox="0 0 803 591" version="1.1" xmlns="http://www.w3.org/2000/svg" xmlns:xlink="http://www.w3.org/1999/xlink" xml:space="preserve" xmlns:serif="http://www.serif.com/" style="fill-rule:evenodd;clip-rule:evenodd;stroke-linejoin:round;stroke-miterlimit:2;">
    <rect x="464.906" y="218.808" width="337.121" height="9.889" style="fill:rgb(230,230,230);"/>
    <rect x="492.774" y="136.101" width="85.404" height="85.404" style="fill:rgb(230,230,230);"/>
    <rect x="509.855" y="153.182" width="51.242" height="51.242" style="fill:rgb(204,204,204);"/>
    <rect x="684.259" y="136.101" width="21.576" height="85.404" style="fill:rgb(230,230,230);"/>
    <rect x="684.259" y="149.586" width="21.576" height="9.889" style="fill:rgb(204,204,204);"/>
    <rect x="684.259" y="192.737" width="21.576" height="9.889" style="fill:rgb(204,204,204);"/>
    <rect x="650.997" y="136.101" width="21.576" height="85.404" style="fill:rgb(230,230,230);"/>
    <rect x="650.997" y="149.586" width="21.576" height="9.889" style="fill:rgb(204,204,204);"/>
    <rect x="650.997" y="192.737" width="21.576" height="9.889" style="fill:rgb(204,204,204);"/>
    <g transform="matrix(0.89618,-0.443691,0.443691,0.89618,-250.057,293.892)">
        <rect x="921.902" y="290.643" width="21.576" height="85.404" style="fill:rgb(230,230,230);"/>
    </g>
    <g transform="matrix(0.89618,-0.443691,0.443691,0.89618,-241.523,286.855)">
        <rect x="911.133" y="306.647" width="21.576" height="9.889" style="fill:rgb(204,204,204);"/>
    </g>
    <g transform="matrix(0.89618,-0.443691,0.443691,0.89618,-256.694,299.365)">
        <rect x="930.279" y="345.319" width="21.576" height="9.889" style="fill:rgb(204,204,204);"/>
    </g>
    <path d="M524.688,170.382L535.554,189.201L546.419,208.02L502.958,208.02L524.688,170.382Z" style="fill:rgb(230,230,230);fill-rule:nonzero;"/>
    <path d="M543.567,173.978L554.432,192.797L565.298,211.616L521.837,211.616L543.567,173.978Z" style="fill:rgb(230,230,230);fill-rule:nonzero;"/>
    <circle cx="551.209" cy="162.171" r="6.293" style="fill:rgb(230,230,230);"/>
    <g transform="matrix(-1,7.65714e-16,-7.65714e-16,-1,1465.92,330.551)">
        <rect x="663.892" y="237.602" width="337.121" height="9.889" style="fill:rgb(230,230,230);"/>
    </g>
    <g transform="matrix(-1,7.65714e-16,-7.65714e-16,-1,1661.9,240.652)">
        <rect x="887.741" y="154.895" width="85.404" height="85.404" style="fill:rgb(230,230,230);"/>
    </g>
    <g transform="matrix(-1,7.65714e-16,-7.65714e-16,-1,1661.9,240.652)">
        <rect x="904.821" y="171.976" width="51.242" height="51.242" style="fill:rgb(204,204,204);"/>
    </g>
    <g transform="matrix(-1,7.65714e-16,-7.65714e-16,-1,1342.76,240.652)">
        <rect x="760.084" y="154.895" width="21.576" height="85.404" style="fill:rgb(230,230,230);"/>
    </g>
    <g transform="matrix(-1,7.65714e-16,-7.65714e-16,-1,1342.76,192.107)">
        <rect x="760.084" y="168.38" width="21.576" height="9.889" style="fill:rgb(204,204,204);"/>
    </g>
    <g transform="matrix(-1,7.65714e-16,-7.65714e-16,-1,1342.76,278.41)">
        <rect x="760.084" y="211.531" width="21.576" height="9.889" style="fill:rgb(204,204,204);"/>
    </g>
    <g transform="matrix(-1,7.65714e-16,-7.65714e-16,-1,1409.28,240.652)">
        <rect x="793.347" y="154.895" width="21.576" height="85.404" style="fill:rgb(230,230,230);"/>
    </g>
    <g transform="matrix(-1,7.65714e-16,-7.65714e-16,-1,1409.28,192.107)">
        <rect x="793.347" y="168.38" width="21.576" height="9.889" style="fill:rgb(204,204,204);"/>
    </g>
    <g transform="matrix(-1,7.65714e-16,-7.65714e-16,-1,1409.28,278.41)">
        <rect x="793.347" y="211.531" width="21.576" height="9.889" style="fill:rgb(204,204,204);"/>
    </g>
    <g transform="matrix(-0.89618,-0.443691,0.443691,-0.89618,1101.75,545.015)">
        <rect x="721.427" y="154.895" width="21.576" height="85.404" style="fill:rgb(230,230,230);"/>
    </g>
    <g transform="matrix(-0.89618,-0.443691,0.443691,-0.89618,1131.83,508.546)">
        <rect x="732.197" y="170.9" width="21.576" height="9.889" style="fill:rgb(204,204,204);"/>
    </g>
    <g transform="matrix(-0.89618,-0.443691,0.443691,-0.89618,1078.36,573.379)">
        <rect x="713.051" y="209.571" width="21.576" height="9.889" style="fill:rgb(204,204,204);"/>
    </g>
    <path d="M742.244,34.634L720.514,72.272L763.975,72.272L753.109,53.453L742.244,34.634Z" style="fill:rgb(230,230,230);fill-rule:nonzero;"/>
    <path d="M723.365,38.23L701.635,75.868L745.096,75.868L734.231,57.049L723.365,38.23Z" style="fill:rgb(230,230,230);fill-rule:nonzero;"/>
    <circle cx="715.724" cy="26.424" r="6.293" style="fill:rgb(230,230,230);"/>
    <g transform="matrix(-1,7.65714e-16,-7.65714e-16,-1,1465.92,873.542)">
        <rect x="663.892" y="509.097" width="337.121" height="9.889" style="fill:rgb(230,230,230);"/>
    </g>
    <g transform="matrix(-1,7.65714e-16,-7.65714e-16,-1,1661.9,783.643)">
        <rect x="887.741" y="426.39" width="85.404" height="85.404" style="fill:rgb(230,230,230);"/>
    </g>
    <g transform="matrix(-1,7.65714e-16,-7.65714e-16,-1,1661.9,783.643)">
        <rect x="904.821" y="443.471" width="51.242" height="51.242" style="fill:rgb(204,204,204);"/>
    </g>
    <g transform="matrix(-1,7.65714e-16,-7.65714e-16,-1,1342.76,783.643)">
        <rect x="760.084" y="426.39" width="21.576" height="85.404" style="fill:rgb(230,230,230);"/>
    </g>
    <g transform="matrix(-1,7.65714e-16,-7.65714e-16,-1,1342.76,735.097)">
        <rect x="760.084" y="439.875" width="21.576" height="9.889" style="fill:rgb(204,204,204);"/>
    </g>
    <g transform="matrix(-1,7.65714e-16,-7.65714e-16,-1,1342.76,821.4)">
        <rect x="760.084" y="483.027" width="21.576" height="9.889" style="fill:rgb(204,204,204);"/>
    </g>
    <g transform="matrix(-1,7.65714e-16,-7.65714e-16,-1,1409.28,783.643)">
        <rect x="793.347" y="426.39" width="21.576" height="85.404" style="fill:rgb(230,230,230);"/>
    </g>
    <g transform="matrix(-1,7.65714e-16,-7.65714e-16,-1,1409.28,735.097)">
        <rect x="793.347" y="439.875" width="21.576" height="9.889" style="fill:rgb(204,204,204);"/>
    </g>
    <g transform="matrix(-1,7.65714e-16,-7.65714e-16,-1,1409.28,821.4)">
        <rect x="793.347" y="483.027" width="21.576" height="9.889" style="fill:rgb(204,204,204);"/>
    </g>
    <g transform="matrix(-0.89618,-0.443691,0.443691,-0.89618,981.294,1059.82)">
        <rect x="721.427" y="426.39" width="21.576" height="85.404" style="fill:rgb(230,230,230);"/>
    </g>
    <g transform="matrix(-0.89618,-0.443691,0.443691,-0.89618,1011.37,1023.35)">
        <rect x="732.197" y="442.395" width="21.576" height="9.889" style="fill:rgb(204,204,204);"/>
    </g>
    <g transform="matrix(-0.89618,-0.443691,0.443691,-0.89618,957.904,1088.18)">
        <rect x="713.051" y="481.067" width="21.576" height="9.889" style="fill:rgb(204,204,204);"/>
    </g>
    <path d="M742.244,306.129L731.379,324.948L720.514,343.768L763.975,343.768L753.109,324.948L742.244,306.129Z" style="fill:rgb(230,230,230);fill-rule:nonzero;"/>
    <path d="M723.365,309.725L712.5,328.544L701.635,347.364L745.096,347.364L734.231,328.544L723.365,309.725Z" style="fill:rgb(230,230,230);fill-rule:nonzero;"/>
    <circle cx="715.724" cy="297.919" r="6.293" style="fill:rgb(230,230,230);"/>
    <ellipse cx="397.129" cy="562.711" rx="397.129" ry="28.205" style="fill:rgb(230,230,230);"/>
    <g transform="matrix(1,0,0,1,-198.987,-154.542)">
        <path d="M906.373,733.048C841.618,721.522 770.806,723.438 696.527,733.048C730.382,704.467 759.601,675.885 725.746,647.304C791.785,660.928 801.035,659.549 874.498,647.304C857.459,675.885 889.334,704.467 906.373,733.048Z" style="fill:rgb(161,217,0);fill-rule:nonzero;"/>
    </g>
    <g transform="matrix(1,0,0,1,-198.987,-154.542)">
        <path d="M906.373,733.048C841.618,721.522 770.806,723.438 696.527,733.048C730.382,704.467 759.601,675.885 725.746,647.304C791.785,660.928 801.035,659.549 874.498,647.304C857.459,675.885 889.334,704.467 906.373,733.048Z" style="fill:rgb(76,116,51);fill-opacity:0.2;fill-rule:nonzero;"/>
    </g>
    <g transform="matrix(1,0,0,1,-198.987,-154.542)">
        <path d="M890.578,720.854C835.571,711.654 775.419,713.184 712.321,720.854C741.08,698.04 765.901,675.226 737.142,652.412C793.24,663.287 801.097,662.186 863.501,652.412C849.027,675.226 876.104,698.04 890.578,720.854Z" style="fill:rgb(94,218,18);fill-rule:nonzero;"/>
    </g>
    <circle cx="670.64" cy="500.244" r="29.309" style="fill:rgb(47,46,65);"/>
    <path d="M537.591,466.249L557.899,469.634L568.053,498.967L538.72,517.019L504.873,466.249L537.591,466.249Z" style="fill:rgb(160,97,106);fill-rule:nonzero;"/>
    <circle cx="595.13" cy="463.993" r="47.385" style="fill:rgb(160,97,106);"/>
    <g transform="matrix(1,0,0,1,-198.987,-154.542)">
        <path d="M532.372,445.919C532.372,445.919 417.295,458.329 396.987,456.073C376.679,453.816 367.654,451.56 367.654,451.56C367.654,451.56 354.115,469.611 360.885,477.509C364.676,482.059 369.263,485.882 374.423,488.791C379.583,491.699 386.833,485.406 395.859,488.791C404.885,492.175 496.27,506.842 512.064,493.304C527.859,479.765 532.372,445.919 532.372,445.919Z" style="fill:rgb(47,46,65);fill-rule:nonzero;"/>
    </g>
    <g transform="matrix(1,0,0,1,-198.987,-154.542)">
        <path d="M540.27,697.509C540.27,697.509 464.68,676.073 451.141,581.304L451.141,572.278C451.141,572.278 436.185,598.516 430.833,603.868C424.628,610.073 402.628,665.919 403.756,671.561C404.885,677.202 403.756,679.458 403.756,679.458L371.038,676.073L371.038,665.919C371.038,665.919 388.526,613.458 389.654,601.047C390.782,588.637 433.09,502.329 433.09,502.329C433.09,502.329 448.885,469.611 475.962,502.329C503.039,535.047 505.295,557.611 505.295,557.611L540.27,625.304L540.27,697.509Z" style="fill:rgb(47,46,65);fill-rule:nonzero;"/>
    </g>
    <g transform="matrix(1,0,0,1,-198.987,-154.542)">
        <path d="M371.038,448.175L334.936,435.765C334.936,435.765 301.089,410.944 308.987,435.765C316.884,460.585 352.987,514.739 363.141,509.098C373.295,503.457 385.506,489.455 382.785,487.431C380.064,485.406 362.013,470.739 371.038,448.175Z" style="fill:rgb(47,46,65);fill-rule:nonzero;"/>
    </g>
    <g transform="matrix(1,0,0,1,-198.987,-154.542)">
        <path d="M375.402,659.259L346.258,673.492C346.258,673.492 311.015,678.914 330.67,689.08C350.325,699.247 404.546,710.091 407.257,700.602C409.968,691.114 408.892,675.366 406.041,675.784C403.19,676.203 383.535,678.236 375.402,659.259Z" style="fill:rgb(47,46,65);fill-rule:nonzero;"/>
    </g>
    <g transform="matrix(1,0,0,1,-198.987,-154.542)">
        <path d="M525.603,623.048C525.603,623.048 510.936,686.227 535.757,699.766C560.577,713.304 734.322,715.561 747.86,690.74C761.398,665.919 754.629,665.919 754.629,665.919L718.527,625.304L747.86,623.048C747.86,623.048 747.86,614.022 737.706,612.894C727.552,611.765 695.962,600.483 668.885,608.381C641.808,616.278 626.013,592.586 626.013,592.586L525.603,623.048Z" style="fill:rgb(87,90,137);fill-rule:nonzero;"/>
    </g>
    <path d="M307.437,271.069L288.257,375.993L420.258,360.198L443.95,265.428L307.437,271.069Z" style="fill:rgb(63,61,86);fill-rule:nonzero;"/>
    <path d="M311.386,275.018L295.591,368.659L415.745,354.557L438.873,269.377L311.386,275.018Z" style="fill:white;fill-rule:nonzero;"/>
    <path d="M292.77,377.121L288.257,375.993L286.001,380.505L322.104,480.916L325.499,479.618L326.616,473.019L292.77,377.121Z" style="fill:rgb(179,179,179);fill-rule:nonzero;"/>
    <path d="M288.257,374.864L324.36,479.788L460.873,459.48L420.258,360.198L288.257,374.864Z" style="fill:rgb(208,205,225);fill-rule:nonzero;"/>
    <path d="M306.309,371.48L306.309,377.121L406.719,365.839L405.591,360.198L306.309,371.48Z" style="fill:rgb(63,61,86);fill-rule:nonzero;"/>
    <path d="M308.565,382.762L324.36,426.762L427.027,414.352L408.976,372.608L308.565,382.762Z" style="fill:rgb(63,61,86);fill-rule:nonzero;"/>
    <g transform="matrix(1,0,0,1,-198.987,-154.542)">
        <path d="M636.167,599.355L632.783,590.329C632.783,590.329 606.834,545.201 593.295,554.227C579.757,563.252 621.501,607.253 621.501,607.253L635.039,607.253L636.167,599.355Z" style="fill:rgb(160,97,106);fill-rule:nonzero;"/>
    </g>
    <g transform="matrix(1,0,0,1,-198.987,-154.542)">
        <path d="M550.424,606.124L547.039,592.586C547.039,592.586 538.013,550.842 553.808,553.099C569.603,555.355 574.116,594.842 574.116,594.842L572.988,603.868L550.424,606.124Z" style="fill:rgb(160,97,106);fill-rule:nonzero;"/>
    </g>
    <g transform="matrix(1,0,0,1,-198.987,-154.542)">
        <path d="M577.501,600.483C577.501,600.483 548.167,595.971 547.039,602.74C545.911,609.509 540.27,711.048 568.475,714.432C596.68,717.817 736.578,732.484 721.911,697.509C707.245,662.535 684.68,667.048 684.68,667.048L588.783,677.202L577.501,600.483Z" style="fill:rgb(87,90,137);fill-rule:nonzero;"/>
    </g>
    <path d="M467.078,458.916L437.181,438.044L417.437,453.275L442.258,480.352L467.078,458.916Z" style="fill:rgb(87,90,137);fill-rule:nonzero;"/>
    <path d="M386.976,479.224L391.488,522.096L469.335,517.583L401.642,516.455L386.976,479.224Z" style="fill-opacity:0.2;fill-rule:nonzero;"/>
    <circle cx="618.521" cy="472.603" r="56.41" style="fill:rgb(47,46,65);"/>
    <path d="M328.309,307.736L398.258,305.301L405.027,279.531L332.822,281.71L328.309,307.736Z" style="fill:rgb(94,218,18);fill-rule:nonzero;"/>
    <path d="M310.258,322.403L416.309,319.018L417.437,314.505L311.386,318.239L310.258,322.403Z" style="fill:rgb(230,230,230);fill-rule:nonzero;"/>
    <path d="M308.001,333.685L414.053,330.3L415.181,325.787L309.129,329.521L308.001,333.685Z" style="fill:rgb(230,230,230);fill-rule:nonzero;"/>
    <path d="M306.873,342.71L412.924,339.326L414.053,334.813L308.001,338.546L306.873,342.71Z" style="fill:rgb(230,230,230);fill-rule:nonzero;"/>
</svg>
