<?xml version="1.0" encoding="UTF-8" standalone="no"?>
<!DOCTYPE svg PUBLIC "-//W3C//DTD SVG 1.1//EN" "http://www.w3.org/Graphics/SVG/1.1/DTD/svg11.dtd">
<svg width="100%" height="100%" viewBox="0 0 1150 628" version="1.1" xmlns="http://www.w3.org/2000/svg" xmlns:xlink="http://www.w3.org/1999/xlink" xml:space="preserve" xmlns:serif="http://www.serif.com/" style="fill-rule:evenodd;clip-rule:evenodd;stroke-linejoin:round;stroke-miterlimit:2;">
    <g transform="matrix(1,0,0,1,-25,-136.26)">
        <path d="M1162.81,718.44C1158.35,729.454 1152.85,740.021 1146.4,750C1143.37,754.759 1140.05,759.324 1136.46,763.67C1136.43,763.714 1136.39,763.754 1136.35,763.79L25,763.79L25.15,763.67C26.15,762.89 32.02,758.14 41.15,750C47.7,744.17 55.92,736.59 65.15,727.47C140.64,653.22 285.65,477.47 164.88,316.47C52.61,166.8 173.49,139.64 253.23,136.47C283.866,135.27 314.431,140.267 343.09,151.16C379.93,165.16 447.26,186.62 534.98,196.46C537.86,196.78 540.76,197.1 543.7,197.39C590.142,202.119 636.897,202.968 683.48,199.93C684.85,199.85 686.23,199.75 687.62,199.65C733.702,196.414 779.434,189.34 824.34,178.5C827.25,177.79 830.12,177.12 832.98,176.45C982.61,141.83 1120.55,259.82 1086.06,393.16C1073.31,442.48 1076.55,495.05 1119.06,537.58C1188.66,607 1180.23,675.37 1162.81,718.44Z" style="fill:rgb(94,218,18);fill-opacity:0.1;fill-rule:nonzero;"/>
    </g>
    <g transform="matrix(1,0,0,1,-25,-136.26)">
        <path d="M1162.81,718.44C1158.35,729.454 1152.85,740.021 1146.4,750C1143.37,754.759 1140.05,759.324 1136.46,763.67L25.15,763.67C26.15,762.89 32.02,758.14 41.15,750C47.7,744.17 55.92,736.59 65.15,727.47L182.28,703.27C183.793,702.958 185.335,702.8 186.88,702.8L311.75,702.62L311.88,702.62L373.73,702.54L373.87,702.54L426.07,702.48L495.24,702.48L638.66,702.28L700.37,702.28L725,702L733.14,702L804.78,701.9L838.66,701.9L921.41,701.79L946.05,701.79L1024.43,701.68L1090.59,701.6C1092.43,701.601 1094.27,701.819 1096.06,702.25L1162.81,718.44Z" style="fill:rgb(69,75,105);fill-rule:nonzero;"/>
    </g>
    <g transform="matrix(1,0,0,1,-25,-136.26)">
        <path d="M41.15,750L1146.4,750C1143.37,754.759 1140.05,759.324 1136.46,763.67L25.15,763.67C26.13,762.84 32,758.09 41.15,750Z" style="fill:none;fill-rule:nonzero;"/>
    </g>
    <g transform="matrix(1,0,0,1,-25,-136.26)">
        <path d="M41.15,750L1146.4,750C1143.37,754.759 1140.05,759.324 1136.46,763.67L25.15,763.67C26.13,762.84 32,758.09 41.15,750Z" style="fill-opacity:0.4;fill-rule:nonzero;"/>
    </g>
    <g transform="matrix(1,0,0,1,-25,-136.26)">
        <path d="M758.22,439L756,439.43L655.64,458.71C626.49,464.31 596.92,469.94 567.31,467.79C545.86,466.23 525.82,459.87 505.21,454.29C493.56,451.13 481.21,449.87 477.26,436.83C471.81,418.83 480.68,392.18 482.77,373.94C484.77,356.04 485.95,337.69 482.39,320C481.599,316.025 480.557,312.103 479.27,308.26C475.7,297.67 470.09,286.66 473.12,275.91C475.51,267.38 482.8,261.29 489.62,255.65C502.98,244.65 516.62,232.32 521.92,215.83C524.52,207.83 525.01,199.22 527.81,191.28C533.12,176.18 546.46,164.89 561.3,158.91C576.14,152.93 592.46,151.66 608.47,151.66C622.607,151.661 636.728,152.6 650.74,154.47C666.02,156.47 681.44,159.76 694.87,167.34C708.3,174.92 719.62,187.34 722.75,202.48C727.18,223.89 714.88,246.69 721.48,267.48C724.8,277.99 732.48,286.48 737.81,296.1C746.587,312.352 748.393,331.493 742.81,349.1C736.43,368.87 720.81,388.87 728.81,408.04C733.9,420.23 746.9,426.74 755.96,436.4C756.767,437.267 757.52,438.133 758.22,439Z" style="fill:rgb(69,75,105);fill-rule:nonzero;"/>
    </g>
    <g transform="matrix(1,0,0,1,-25,-136.26)">
        <path d="M756,436.48L756,439.43L655.64,458.71C626.49,464.31 596.92,469.94 567.31,467.79C545.86,466.23 525.82,459.87 505.21,454.29C493.56,451.13 481.21,449.87 477.26,436.83C471.81,418.83 480.68,392.18 482.77,373.94C484.77,356.04 515.56,290.69 512,273L696,281C697.24,290.77 745.87,339.81 742.84,349.18C736.46,368.95 720.84,388.95 728.84,408.12C733.94,420.31 746.94,426.82 756,436.48Z" style="fill-opacity:0.1;fill-rule:nonzero;"/>
    </g>
    <g transform="matrix(1,0,0,1,-25,-136.26)">
        <path d="M568,387C569.09,393.19 569.67,400 566.51,405.4C562.3,412.64 553.12,414.95 544.91,416.59L516.41,422.29C514.47,422.68 512.41,423.12 510.96,424.45C509.25,425.98 508.67,428.4 508.42,430.68C507.27,441 510.92,451.17 514.25,461C520.98,480.91 526.63,501.24 535.14,520.45C543.65,539.66 555.33,558 572,570.84C588.67,583.68 610.73,590.52 631.14,585.5C648.92,581.13 663.5,568.58 676.07,555.27C686.44,544.27 696.14,532.27 701.17,518C704.64,508.2 705.77,497.76 706.86,487.42C708.547,471.567 710.233,455.713 711.92,439.86C712.71,432.42 713.23,424.05 708.4,418.34C706.28,415.83 703.4,414.16 700.46,412.61C689.52,406.8 678,402 667.82,395C657.64,388 648.61,378.36 645.52,366.4C643.67,359.22 644,351.4 640.85,344.71C637.33,337.21 629.85,332.13 621.85,329.9C613.85,327.67 605.41,327.97 597.17,328.9C588.93,329.83 557.17,332.21 553.76,341.5C551.93,346.5 559.52,357.23 561.32,362.15C564.283,370.218 566.518,378.534 568,387Z" style="fill:rgb(239,183,185);fill-rule:nonzero;"/>
    </g>
    <g transform="matrix(1,0,0,1,-25,-136.26)">
        <path d="M568,387C569.09,393.19 569.67,400 566.51,405.4C562.3,412.64 553.12,414.95 544.91,416.59L516.41,422.29C514.47,422.68 512.41,423.12 510.96,424.45C509.25,425.98 508.67,428.4 508.42,430.68C507.27,441 510.92,451.17 514.25,461C520.98,480.91 526.63,501.24 535.14,520.45C543.65,539.66 555.33,558 572,570.84C588.67,583.68 610.73,590.52 631.14,585.5C648.92,581.13 663.5,568.58 676.07,555.27C686.44,544.27 696.14,532.27 701.17,518C704.64,508.2 705.77,497.76 706.86,487.42C708.547,471.567 710.233,455.713 711.92,439.86C712.71,432.42 713.23,424.05 708.4,418.34C706.28,415.83 703.4,414.16 700.46,412.61C689.52,406.8 678,402 667.82,395C657.64,388 648.61,378.36 645.52,366.4C643.67,359.22 644,351.4 640.85,344.71C637.33,337.21 629.85,332.13 621.85,329.9C613.85,327.67 605.41,327.97 597.17,328.9C588.93,329.83 557.17,332.21 553.76,341.5C551.93,346.5 559.52,357.23 561.32,362.15C564.283,370.218 566.518,378.534 568,387Z" style="fill-opacity:0.1;fill-rule:nonzero;"/>
    </g>
    <g transform="matrix(1,0,0,1,-25,-136.26)">
        <path d="M636.59,495.74L653.3,460.36C661.13,443.78 669.13,426.36 668.3,408.05C668.14,404.41 668.1,399.86 671.3,398.21C672.689,397.643 674.203,397.45 675.69,397.65C693.282,398.55 710.642,402.061 727.2,408.07C730.41,409.23 733.7,410.57 735.95,413.13C738.2,415.69 739.11,419.13 739.88,422.43C742.503,433.588 744.417,444.9 745.61,456.3C748.61,484.52 747.12,512.99 745.61,541.3L741.17,627.73C741.194,628.956 740.945,630.172 740.44,631.29C739.34,633.29 736.86,633.96 734.63,634.34C726.04,635.81 717.26,635.51 708.56,635.18C647.36,632.86 585.84,629.3 525.04,636.72C525.313,627.727 525.17,618.727 524.61,609.72C522.2,570.83 512.12,532.89 502.22,495.21C496.45,473.21 490.86,449.21 500.15,428.48C501.516,425.206 503.48,422.215 505.94,419.66C509.89,415.79 515.28,413.75 520.62,412.29C529.831,409.784 539.372,408.705 548.91,409.09L611.96,546.36C614.84,552.64 617.21,559.25 620.08,565.45C622.66,554.74 619.56,542.19 622.66,530.58C626,518.53 631.26,507 636.59,495.74Z" style="fill:white;fill-rule:nonzero;"/>
    </g>
    <g transform="matrix(1,0,0,1,-25,-136.26)">
        <path d="M630,590.19C641.28,590.9 652.24,585.12 660,576.95C667.76,568.78 672.88,558.42 677.21,547.95C683.435,533.026 688.382,517.6 692,501.84C695,488.44 697.13,474.57 695.06,460.99C692.2,442.24 681.59,425.2 679.78,406.32C679.47,403.02 679.67,399.16 682.32,397.17C683.96,395.94 686.12,395.77 688.16,395.65C707.02,394.53 727.74,394.74 742.35,406.71C746.8,410.35 750.41,414.9 754.76,418.65C765.12,427.65 779.76,432.23 786.41,444.18C788.73,448.34 789.84,453.05 791.46,457.53C795.28,468.13 801.89,477.45 808.46,486.62C802.09,513.5 794.77,540.4 788.4,567.28C784.67,583.05 780.91,598.88 775.05,613.98C771.21,623.88 766.38,633.98 767.56,644.58C768.03,648.75 769.42,652.74 770.63,656.76C774.872,670.87 776.859,685.561 776.52,700.29L491.18,700.99C504.85,681.39 508.86,657.35 507.47,633.5C506.8,622.07 504.22,610.57 498.47,600.68C489.41,585.18 473.47,575.08 457.76,566.43C446.76,560.43 434.95,594.19 423.06,590.32C424.98,576.74 425.86,524.32 425.06,510.65C424.8,506.17 424.4,501.57 425.78,497.29C426.72,494.36 428.45,491.74 429.62,488.89C434.31,477.48 429.84,462.89 437.42,453.18C442.66,446.43 451.85,444.51 459.32,440.35C466.99,436.07 472.92,429.35 479.6,423.61C492.706,412.481 508.725,405.329 525.76,403C530.73,410.839 533.751,419.755 534.57,429C535.08,434.81 534.71,440.7 535.52,446.48C536.63,454.31 539.87,461.66 543.08,468.9C556.45,499.09 569.87,529.37 586.81,557.72C591.6,565.72 596.81,573.72 603.75,579.95C610.69,586.18 620.68,590.63 630,590.19Z" style="fill:rgb(161,217,0);fill-rule:nonzero;"/>
    </g>
    <g transform="matrix(1,0,0,1,-25,-136.26)">
        <path d="M630,590.19C641.28,590.9 652.24,585.12 660,576.95C667.76,568.78 672.88,558.42 677.21,547.95C683.435,533.026 688.382,517.6 692,501.84C695,488.44 697.13,474.57 695.06,460.99C692.2,442.24 681.59,425.2 679.78,406.32C679.47,403.02 679.67,399.16 682.32,397.17C683.96,395.94 686.12,395.77 688.16,395.65C707.02,394.53 727.74,394.74 742.35,406.71C746.8,410.35 750.41,414.9 754.76,418.65C765.12,427.65 779.76,432.23 786.41,444.18C788.73,448.34 789.84,453.05 791.46,457.53C795.28,468.13 801.89,477.45 808.46,486.62C802.09,513.5 794.77,540.4 788.4,567.28C784.67,583.05 780.91,598.88 775.05,613.98C771.21,623.88 766.38,633.98 767.56,644.58C768.03,648.75 769.42,652.74 770.63,656.76C774.872,670.87 776.859,685.561 776.52,700.29L491.18,700.99C504.85,681.39 508.86,657.35 507.47,633.5C506.8,622.07 504.22,610.57 498.47,600.68C489.41,585.18 473.47,575.08 457.76,566.43C446.76,560.43 434.95,594.19 423.06,590.32C424.98,576.74 425.86,524.32 425.06,510.65C424.8,506.17 424.4,501.57 425.78,497.29C426.72,494.36 428.45,491.74 429.62,488.89C434.31,477.48 429.84,462.89 437.42,453.18C442.66,446.43 451.85,444.51 459.32,440.35C466.99,436.07 472.92,429.35 479.6,423.61C492.706,412.481 508.725,405.329 525.76,403C530.73,410.839 533.751,419.755 534.57,429C535.08,434.81 534.71,440.7 535.52,446.48C536.63,454.31 539.87,461.66 543.08,468.9C556.45,499.09 569.87,529.37 586.81,557.72C591.6,565.72 596.81,573.72 603.75,579.95C610.69,586.18 620.68,590.63 630,590.19Z" style="fill:rgb(94,218,18);fill-opacity:0.1;fill-rule:nonzero;"/>
    </g>
    <circle cx="589.91" cy="162.75" r="85.72" style="fill:rgb(239,183,185);"/>
    <g transform="matrix(1,0,0,1,-25,-136.26)">
        <path d="M569.93,413.24C572.28,391.06 563.06,369.36 552.62,349.65C547.62,340.23 542.26,330.84 539.75,320.49C537.24,310.14 537.96,298.42 544.38,289.91C549.84,282.67 558.5,278.76 566.51,274.51C589.12,262.51 609.79,244.87 619.73,221.28C614.11,224.34 615.57,233.47 620.53,237.5C625.49,241.53 632.25,242.31 638.35,244.23C660.59,251.23 673.93,273.41 684.63,294.13C686.38,297.51 688.16,301.08 688.14,304.89C688.12,308.7 686.38,312.08 684.56,315.32C679.28,324.72 672.82,333.75 670.42,344.26C667.67,356.26 670.57,368.88 674.34,380.65C678.34,393.17 683.65,405.79 693.25,414.77C702.85,423.75 717.74,428.21 729.55,422.41C717.76,402.14 705.55,379.49 710.15,356.51C712.37,345.51 718.34,335.51 720.88,324.57C725.72,303.7 717.66,282.23 709.75,262.31L686.11,202.86C682.5,193.77 678.39,184.07 670.11,178.92C664.51,175.45 657.73,174.55 651.17,173.92C630.05,172.04 608.17,172.66 588.51,180.52C552.69,194.83 530.23,230.11 512.41,264.33C507.07,274.58 501.8,285.47 502.02,297.03C502.14,303.37 503.91,309.54 505.35,315.72C511.21,340.88 511.53,366.95 511.83,392.78C512.06,412.6 511.03,431.28 502.36,449.33C514.24,451.69 531.47,458.06 543.23,453.4C558.56,447.34 568,428.67 569.93,413.24Z" style="fill:rgb(69,75,105);fill-rule:nonzero;"/>
    </g>
    <g opacity="0.1">
        <g transform="matrix(1,0,0,1,-25,-136.26)">
            <path d="M511.78,392.36C511.82,389.54 511.82,386.693 511.78,383.82C511.48,357.99 511.16,331.92 505.3,306.76C503.991,301.864 502.969,296.895 502.24,291.88C502.034,293.602 501.944,295.336 501.97,297.07C502.09,303.41 503.86,309.58 505.3,315.76C511.13,340.77 511.49,366.68 511.78,392.36Z" style="fill-rule:nonzero;"/>
        </g>
        <g transform="matrix(1,0,0,1,-25,-136.26)">
            <path d="M720.88,324.57C722.193,318.727 722.631,312.722 722.18,306.75C721.984,309.72 721.549,312.67 720.88,315.57C718.34,326.57 712.37,336.48 710.15,347.51C709.193,352.375 708.924,357.35 709.35,362.29C709.509,360.35 709.776,358.42 710.15,356.51C712.37,345.48 718.34,335.53 720.88,324.57Z" style="fill-rule:nonzero;"/>
        </g>
        <g transform="matrix(1,0,0,1,-25,-136.26)">
            <path d="M687.36,300.3C687.848,298.88 688.111,297.392 688.14,295.89C688.14,292.08 686.38,288.51 684.63,285.13C673.93,264.41 660.63,242.25 638.35,235.23C632.25,233.31 625.5,232.53 620.53,228.5C617.947,226.276 616.367,223.102 616.15,219.7C605.31,239.6 586.69,254.82 566.51,265.51C558.51,269.76 549.84,273.67 544.38,280.91C539.25,287.71 537.76,296.56 538.65,305.12C539.154,299.627 541.135,294.371 544.38,289.91C549.84,282.67 558.5,278.76 566.51,274.51C586.69,263.82 605.31,248.6 616.15,228.7C616.367,232.102 617.947,235.276 620.53,237.5C625.53,241.5 632.25,242.31 638.35,244.23C660.59,251.23 673.93,273.41 684.63,294.13C685.715,296.105 686.628,298.169 687.36,300.3Z" style="fill-rule:nonzero;"/>
        </g>
        <g transform="matrix(1,0,0,1,-25,-136.26)">
            <path d="M693.25,405.77C683.65,396.77 678.36,384.17 674.34,371.65C671.928,364.617 670.318,357.334 669.54,349.94C668.61,360.21 671.16,370.72 674.34,380.65C678.34,393.17 683.65,405.79 693.25,414.77C702.85,423.75 717.74,428.21 729.55,422.41C728.13,419.98 726.72,417.51 725.32,415.02C714.35,418.11 701.75,413.71 693.25,405.77Z" style="fill-rule:nonzero;"/>
        </g>
        <g transform="matrix(1,0,0,1,-25,-136.26)">
            <path d="M569.93,404.24C568,419.67 558.56,438.34 543.19,444.44C532.52,448.67 517.33,443.81 505.74,441.12C504.743,443.927 503.601,446.681 502.32,449.37C514.2,451.73 531.43,458.1 543.19,453.44C558.56,447.34 568,428.67 569.93,413.24C570.328,409.38 570.401,405.493 570.15,401.62C570.09,402.49 570,403.37 569.93,404.24Z" style="fill-rule:nonzero;"/>
        </g>
    </g>
    <g transform="matrix(1,0,0,1,-25,-136.26)">
        <path d="M691.1,652.18C675.65,649.73 659.97,645 644.65,648.18C635.77,650.02 627.65,654.44 620.27,659.78C624.33,663.03 629.07,665.93 631.65,670.45C633.251,673.577 634.454,676.893 635.23,680.32C636.85,686.32 638.48,692.44 638.73,698.68C638.98,704.92 637.73,711.42 634.01,716.45C653.49,718.37 672.37,713.57 691.37,708.88C693.543,708.499 695.611,707.664 697.44,706.43C700.44,704.07 701.32,699.87 701.34,696.04C701.34,689.2 699.42,682.53 697.47,675.97C695.15,668.1 693.43,660 691.1,652.18Z" style="fill:white;fill-rule:nonzero;"/>
    </g>
    <g transform="matrix(1,0,0,1,-25,-136.26)">
        <path d="M795.42,483.51C803.09,484.51 809.04,490.7 813.42,497.06C825.71,514.76 831.01,536.22 836.91,556.95C844.243,582.73 852.867,608.103 862.78,633.07C864.914,638.836 867.509,644.421 870.54,649.77C873.01,653.9 876.01,657.87 877.1,662.56C879.74,673.9 870.39,684.56 860.64,690.88C855.443,694.383 849.768,697.118 843.79,699C837.97,700.74 831.9,701.4 825.87,702.06L770.36,708.06C744.81,710.84 719.03,713.62 693.47,710.94C691.86,705.34 695.02,701.38 694.79,695.55C694.63,691.38 692.79,687.5 691.15,683.66C688.126,676.821 686.128,669.573 685.22,662.15C684.93,659.42 684.83,656.62 683.79,654.08C682.75,651.54 680.52,649.26 677.79,649.08C692.79,647.59 704.18,644.76 719.18,643.26C724.75,642.7 730.54,642.07 735.29,639.11C741.18,635.44 744.48,628.82 747.1,622.4C753.59,606.5 757.77,588.98 754.36,572.14C751.56,558.33 743.75,545.47 743.79,531.38C743.79,522.99 746.65,514.86 750.03,507.18C753.61,499.06 758.28,490.76 766.14,486.64C774,482.52 786.55,482.31 795.42,483.51Z" style="fill:rgb(161,217,0);fill-rule:nonzero;"/>
    </g>
    <g transform="matrix(1,0,0,1,-25,-136.26)">
        <path d="M795.42,483.51C803.09,484.51 809.04,490.7 813.42,497.06C825.71,514.76 831.01,536.22 836.91,556.95C844.243,582.73 852.867,608.103 862.78,633.07C864.914,638.836 867.509,644.421 870.54,649.77C873.01,653.9 876.01,657.87 877.1,662.56C879.74,673.9 870.39,684.56 860.64,690.88C855.443,694.383 849.768,697.118 843.79,699C837.97,700.74 831.9,701.4 825.87,702.06L770.36,708.06C744.81,710.84 719.03,713.62 693.47,710.94C691.86,705.34 695.02,701.38 694.79,695.55C694.63,691.38 692.79,687.5 691.15,683.66C688.126,676.821 686.128,669.573 685.22,662.15C684.93,659.42 684.83,656.62 683.79,654.08C682.75,651.54 680.52,649.26 677.79,649.08C692.79,647.59 704.18,644.76 719.18,643.26C724.75,642.7 730.54,642.07 735.29,639.11C741.18,635.44 744.48,628.82 747.1,622.4C753.59,606.5 757.77,588.98 754.36,572.14C751.56,558.33 743.75,545.47 743.79,531.38C743.79,522.99 746.65,514.86 750.03,507.18C753.61,499.06 758.28,490.76 766.14,486.64C774,482.52 786.55,482.31 795.42,483.51Z" style="fill:rgb(94,218,18);fill-opacity:0.08;fill-rule:nonzero;"/>
    </g>
    <g transform="matrix(1,0,0,1,-25,-136.26)">
        <path d="M447.81,470.52C451.44,461.9 455.13,453 455.23,443.65C455.34,433.54 451.23,423.94 448.09,414.34C444.207,402.594 441.622,390.459 440.38,378.15C440.122,376.971 440.3,375.738 440.88,374.68C441.71,373.51 443.31,373.27 444.72,372.96C451.64,371.38 456.87,365.79 461.19,360.16C467.892,351.465 473.551,342.014 478.05,332C481.36,324.63 485.84,315.64 493.92,315.57C490.667,330.849 486.635,345.952 481.84,360.82C490.29,358.66 498.32,355.52 506.77,353.36C508.424,352.838 510.157,352.607 511.89,352.68C516.95,353.21 520.05,360.06 517.11,364.21C521.24,369.05 528.11,370.35 533.51,373.67C538.91,376.99 542.79,385.21 537.99,389.38C537.05,390.19 535.86,390.76 535.18,391.8C532.86,395.38 538.54,399.49 538.07,403.73C537.69,407.2 533.24,408.82 529.87,407.9C526.5,406.98 523.87,404.46 520.87,402.61C517.87,400.76 513.95,399.61 511.04,401.53C510.26,410.94 509.42,420.53 505.35,429.1C503.86,432.23 501.95,435.16 500.75,438.41C499.602,441.954 498.89,445.624 498.63,449.34L495,482.53C477.68,486 462.15,480.81 447.81,470.52Z" style="fill:rgb(239,183,185);fill-rule:nonzero;"/>
    </g>
    <g transform="matrix(1,0,0,1,-25,-136.26)">
        <path d="M443.58,500.27L440.39,478.68C440.085,476.922 439.915,475.144 439.88,473.36C439.88,468.36 442.08,463.59 444.21,459.04C461.86,467.28 480.94,470.21 500.41,470.22C502.98,470.22 505.91,469.98 507.51,467.97C510.82,471.78 510.92,477.91 509.51,482.75C508.1,487.59 505.39,491.95 503.59,496.67C502.68,499.06 501.94,501.67 500.2,503.51C497.5,506.42 493.12,506.92 489.14,506.9C484.953,506.874 480.777,506.475 476.66,505.71C466,503.73 454.24,498.36 443.58,500.27Z" style="fill:white;fill-rule:nonzero;"/>
    </g>
    <g transform="matrix(1,0,0,1,-25,-136.26)">
        <path d="M509.41,499.39C495.71,497.83 482.1,495.63 468.58,492.79C461.95,491.4 455.26,489.85 448.5,490.12C444.1,490.3 439.37,491.18 435.5,489C439.27,501.83 439.5,515.35 434.99,527.94C432.32,535.44 428.25,542.43 426.29,550.15C422.21,566.3 427.81,583.91 422.71,599.77C422.171,601.842 421.11,603.743 419.63,605.29C418.07,606.72 415.94,607.46 414.5,609.01C412.38,611.29 412.25,614.72 412.24,617.83L412.15,645.38C412.09,662.92 412.32,681.52 421.58,696.38C432.14,713.38 454.37,722.19 473.72,717.02C478.865,715.704 483.685,713.346 487.88,710.09C494.6,704.75 498.88,697.03 503.07,689.51C508.07,680.51 513.07,671.31 514.68,661.18C515.82,654.01 515.18,646.69 514.36,639.48C509.84,599.48 500.03,559.82 502.14,519.67C502.456,512.331 504.991,505.258 509.41,499.39Z" style="fill:rgb(94,218,18);fill-rule:nonzero;"/>
    </g>
    <g transform="matrix(1,0,0,1,-25,-136.26)">
        <path d="M566.67,665.39C559.72,665.79 552.72,666.19 545.8,665.39C540.8,664.79 535.92,663.56 530.96,662.72C503.563,658.295 475.558,666.077 454.37,684C450.53,687.28 446.65,692.31 448.77,696.9C451.05,701.84 458.02,701.7 463.39,700.78C457.594,703.548 452.474,707.552 448.39,712.51C446.89,714.34 445.47,716.51 445.76,718.88C446.37,723.83 453.09,724.73 458.06,724.3C456.44,726.04 457.53,729.12 459.59,730.3C461.65,731.48 464.21,731.24 466.54,730.81C471.691,729.867 476.668,728.144 481.3,725.7C480.36,728.15 481.99,731.02 484.3,732.24C486.61,733.46 489.42,733.37 492.01,732.95C504.23,730.95 514.43,722.45 526.35,719.11C545.41,713.78 565.35,722.28 585.16,722.88C591.36,723.07 597.72,722.44 603.37,719.88C610.3,716.73 615.89,710.82 623.21,708.72C631.34,706.4 640.67,709.07 648.11,705.06C653.52,702.15 648.64,679.72 647.26,675.4C644.73,667.5 642.19,662.26 633.76,661.46C612.43,659.37 588.16,664.15 566.67,665.39Z" style="fill:rgb(239,183,185);fill-rule:nonzero;"/>
    </g>
    <g transform="matrix(1,0,0,1,-25,-136.26)">
        <path d="M619.88,659.27C619.88,659.27 652.17,686.6 633.54,716.42L669.54,703.99L669.54,677.9C669.54,676.66 655.87,658.03 655.87,658.03L639.72,655.54L619.88,659.27Z" style="fill:white;fill-rule:nonzero;"/>
    </g>
    <path d="M256.79,521.32L268.9,521.32C282.615,521.32 293.9,532.605 293.9,546.32L293.9,583.43L231.79,583.43L231.79,546.32C231.79,532.605 243.075,521.32 256.79,521.32Z" style="fill:rgb(63,61,86);fill-rule:nonzero;"/>
    <path d="M256.79,521.32L268.9,521.32C282.615,521.32 293.9,532.605 293.9,546.32L293.9,583.43L231.79,583.43L231.79,546.32C231.79,532.605 243.075,521.32 256.79,521.32Z" style="fill-opacity:0.1;fill-rule:nonzero;"/>
    <circle cx="260.36" cy="530.01" r="4.97" style="fill:rgb(63,61,86);"/>
    <circle cx="260.36" cy="523.8" r="4.97" style="fill:rgb(63,61,86);"/>
    <circle cx="260.36" cy="517.59" r="4.97" style="fill:rgb(63,61,86);"/>
    <circle cx="260.36" cy="511.38" r="4.97" style="fill:rgb(63,61,86);"/>
    <circle cx="260.36" cy="505.17" r="4.97" style="fill:rgb(63,61,86);"/>
    <circle cx="260.36" cy="498.96" r="4.97" style="fill:rgb(63,61,86);"/>
    <circle cx="260.36" cy="492.74" r="4.97" style="fill:rgb(63,61,86);"/>
    <circle cx="267.82" cy="495.23" r="4.97" style="fill:rgb(63,61,86);"/>
    <circle cx="272.79" cy="492.74" r="4.97" style="fill:rgb(63,61,86);"/>
    <circle cx="277.76" cy="490.26" r="4.97" style="fill:rgb(63,61,86);"/>
    <circle cx="260.36" cy="486.53" r="4.97" style="fill:rgb(63,61,86);"/>
    <circle cx="260.36" cy="480.32" r="4.97" style="fill:rgb(63,61,86);"/>
    <circle cx="260.36" cy="474.11" r="4.97" style="fill:rgb(63,61,86);"/>
    <circle cx="260.36" cy="467.9" r="4.97" style="fill:rgb(63,61,86);"/>
    <g transform="matrix(1,0,0,1,-25,-136.26)">
        <path d="M306,588.13C304.76,588.31 303.52,588.44 302.28,588.52C303.433,587.514 304.503,586.417 305.48,585.24C304.791,583.152 303.779,581.184 302.48,579.41C301.248,580.102 299.886,580.531 298.48,580.67C297.25,580.85 296.01,580.98 294.77,581.07C296.4,579.74 297.92,577.74 299.52,576.07C295.64,572.553 290.587,570.604 285.35,570.604C273.775,570.604 264.25,580.129 264.25,591.704C264.25,603.279 273.775,612.804 285.35,612.804C296.925,612.804 306.45,603.279 306.45,591.704C306.45,591.696 306.45,591.688 306.45,591.68C306.45,590.463 306.343,589.248 306.13,588.05L306,588.13Z" style="fill:rgb(94,218,18);fill-rule:nonzero;"/>
    </g>
    <g transform="matrix(1,0,0,1,-25,-136.26)">
        <path d="M322.57,612.82C321.303,613.6 319.872,614.075 318.39,614.21C317.16,614.39 315.92,614.53 314.68,614.61C315.998,613.428 317.228,612.151 318.36,610.79C317.335,610.523 316.281,610.388 315.221,610.388C308.397,610.388 302.781,616.003 302.781,622.828C302.781,629.652 308.397,635.268 315.221,635.268C322.046,635.268 327.661,629.652 327.661,622.828C327.661,618.865 325.768,615.131 322.57,612.79L322.57,612.82Z" style="fill:rgb(94,218,18);fill-rule:nonzero;"/>
    </g>
    <circle cx="252.91" cy="495.23" r="4.97" style="fill:rgb(63,61,86);"/>
    <circle cx="247.94" cy="492.74" r="4.97" style="fill:rgb(63,61,86);"/>
    <circle cx="242.97" cy="490.26" r="4.97" style="fill:rgb(63,61,86);"/>
    <g transform="matrix(1,0,0,1,-25,-136.26)">
        <path d="M248.16,612.82C249.427,613.6 250.858,614.075 252.34,614.21C253.57,614.39 254.81,614.53 256.05,614.61C254.73,613.43 253.499,612.154 252.37,610.79C253.395,610.523 254.449,610.388 255.509,610.388C262.333,610.388 267.949,616.003 267.949,622.828C267.949,629.652 262.333,635.268 255.509,635.268C248.684,635.268 243.069,629.652 243.069,622.828C243.069,618.865 244.962,615.131 248.16,612.79L248.16,612.82Z" style="fill:rgb(94,218,18);fill-rule:nonzero;"/>
    </g>
    <path d="M256.79,525L268.9,525C282.615,525 293.9,536.285 293.9,550L293.9,582.87C293.9,585.196 291.986,587.11 289.66,587.11L236,587.11C233.674,587.11 231.76,585.196 231.76,582.87L231.76,550C231.76,536.285 243.045,525 256.76,525C256.77,525 256.78,525 256.79,525Z" style="fill:rgb(63,61,86);fill-rule:nonzero;"/>
    <g opacity="0.1">
        <g transform="matrix(1,0,0,1,-25,-136.26)">
            <path d="M306.34,589.49C305.837,590.028 305.303,590.535 304.74,591.01C305.31,591.01 305.87,590.92 306.44,590.86C306.42,590.4 306.39,589.94 306.34,589.49Z" style="fill-rule:nonzero;"/>
        </g>
        <g transform="matrix(1,0,0,1,-25,-136.26)">
            <path d="M297.28,583.55C298.53,583.47 299.76,583.34 301,583.16C302.112,583.019 303.2,582.723 304.23,582.28C303.724,581.28 303.142,580.321 302.49,579.41C301.868,579.789 301.194,580.075 300.49,580.26C299.509,581.44 298.436,582.541 297.28,583.55Z" style="fill-rule:nonzero;"/>
        </g>
        <g transform="matrix(1,0,0,1,-25,-136.26)">
            <path d="M266.73,594.22C266.73,594.206 266.73,594.192 266.73,594.179C266.73,582.614 276.246,573.099 287.81,573.099C291.86,573.099 295.826,574.266 299.23,576.46L299.55,576.12C295.688,572.684 290.694,570.784 285.524,570.784C273.949,570.784 264.424,580.308 264.424,591.884C264.424,598.011 267.093,603.844 271.73,607.85C268.497,604.047 266.723,599.212 266.73,594.22Z" style="fill-rule:nonzero;"/>
        </g>
    </g>
    <g opacity="0.1">
        <g transform="matrix(1,0,0,1,-25,-136.26)">
            <path d="M314.68,617.09C315.92,617.01 317.16,616.88 318.39,616.7C319.873,616.562 321.303,616.083 322.57,615.3C325.408,617.39 327.227,620.592 327.57,624.1C327.619,623.665 327.642,623.228 327.64,622.79C327.659,618.854 325.8,615.136 322.64,612.79C321.373,613.57 319.942,614.045 318.46,614.18L317.46,614.31C316.607,615.307 315.677,616.237 314.68,617.09Z" style="fill-rule:nonzero;"/>
        </g>
        <g transform="matrix(1,0,0,1,-25,-136.26)">
            <path d="M315.18,612.85C315.595,612.855 316.009,612.885 316.42,612.94C317.07,612.25 317.71,611.51 318.36,610.79C317.316,610.511 316.24,610.37 315.16,610.37C308.358,610.37 302.76,615.968 302.76,622.77C302.76,622.777 302.76,622.783 302.76,622.79C302.76,623.21 302.76,623.62 302.82,624.03C303.454,617.714 308.832,612.849 315.18,612.85Z" style="fill-rule:nonzero;"/>
        </g>
    </g>
    <g opacity="0.1">
        <g transform="matrix(1,0,0,1,-25,-136.26)">
            <path d="M256.05,617.09C254.81,617.01 253.57,616.88 252.34,616.7C250.857,616.562 249.427,616.083 248.16,615.3C245.322,617.39 243.503,620.592 243.16,624.1C243.111,623.665 243.088,623.228 243.09,622.79C243.071,618.854 244.93,615.136 248.09,612.79C249.357,613.57 250.788,614.045 252.27,614.18L253.27,614.31C254.118,615.312 255.048,616.242 256.05,617.09Z" style="fill:rgb(94,218,18);fill-rule:nonzero;"/>
        </g>
        <g transform="matrix(1,0,0,1,-25,-136.26)">
            <path d="M255.55,612.85C255.132,612.855 254.715,612.885 254.3,612.94C253.66,612.25 253.02,611.51 252.37,610.79C253.414,610.511 254.49,610.37 255.57,610.37C262.372,610.37 267.97,615.968 267.97,622.77C267.97,622.777 267.97,622.783 267.97,622.79C267.97,623.21 267.97,623.62 267.91,624.03C267.276,617.714 261.898,612.849 255.55,612.85Z" style="fill-rule:nonzero;"/>
        </g>
    </g>
    <g transform="matrix(1,0,0,1,-25,-136.26)">
        <path d="M221.85,735.39L124.15,735.39C121.873,735.39 120,733.517 120,731.24L120,685C120,685 120,684.999 120,684.999C120,682.722 121.873,680.849 124.15,680.849C124.766,680.849 125.374,680.986 125.93,681.25C154,694.57 184.24,699.14 219.93,681.46C220.502,681.178 221.132,681.031 221.77,681.031C224.044,681.031 225.919,682.896 225.93,685.17L225.93,731.17C225.93,731.194 225.931,731.217 225.931,731.241C225.931,733.491 224.1,735.352 221.85,735.39Z" style="fill:rgb(161,217,0);fill-rule:nonzero;"/>
    </g>
    <g transform="matrix(1,0,0,1,-25,-136.26)">
        <path d="M221.85,735.39L124.15,735.39C121.873,735.39 120,733.517 120,731.24L120,685C120,685 120,684.999 120,684.999C120,682.722 121.873,680.849 124.15,680.849C124.766,680.849 125.374,680.986 125.93,681.25C154,694.57 184.24,699.14 219.93,681.46C220.502,681.178 221.132,681.031 221.77,681.031C224.044,681.031 225.919,682.896 225.93,685.17L225.93,731.17C225.93,731.194 225.931,731.217 225.931,731.241C225.931,733.491 224.1,735.352 221.85,735.39Z" style="fill-opacity:0.1;fill-rule:nonzero;"/>
    </g>
    <ellipse cx="147.32" cy="556.41" rx="5.78" ry="7.57" style="fill:rgb(63,61,86);"/>
    <ellipse cx="147.32" cy="547.16" rx="5.78" ry="7.57" style="fill:rgb(63,61,86);"/>
    <ellipse cx="147.32" cy="537.9" rx="5.78" ry="7.57" style="fill:rgb(63,61,86);"/>
    <ellipse cx="147.32" cy="528.65" rx="5.78" ry="7.57" style="fill:rgb(63,61,86);"/>
    <ellipse cx="147.32" cy="519.39" rx="5.78" ry="7.57" style="fill:rgb(63,61,86);"/>
    <ellipse cx="147.32" cy="510.13" rx="5.78" ry="7.57" style="fill:rgb(63,61,86);"/>
    <ellipse cx="147.32" cy="500.88" rx="5.78" ry="7.57" style="fill:rgb(63,61,86);"/>
    <g transform="matrix(1,0,0,1,-25,-136.26)">
        <path d="M194,573.8C194.785,572.791 195.503,571.732 196.15,570.63L180.95,568.13L197.39,568.25C200.594,561.307 200.786,553.339 197.92,546.25L175.87,557.69L196.21,542.69C191.264,534.136 182.103,528.851 172.222,528.851C157.02,528.851 144.512,541.36 144.512,556.561C144.512,562.773 146.6,568.807 150.44,573.69C149.204,575.252 148.145,576.946 147.28,578.74L167,589.1L146,582C143.013,590.857 144.696,600.649 150.47,608C146.629,612.883 144.54,618.919 144.54,625.131C144.54,640.332 157.049,652.841 172.25,652.841C187.451,652.841 199.96,640.332 199.96,625.131C199.96,618.919 197.871,612.883 194.03,608C201.909,597.982 201.909,583.758 194.03,573.74L194,573.8Z" style="fill:rgb(94,218,18);fill-rule:nonzero;"/>
    </g>
    <g transform="matrix(1,0,0,1,-25,-136.26)">
        <path d="M144.49,590.93C144.481,597.144 146.571,603.182 150.42,608.06C146.579,612.943 144.49,618.979 144.49,625.191C144.49,640.392 156.999,652.901 172.2,652.901C187.401,652.901 199.91,640.392 199.91,625.191C199.91,618.979 197.821,612.943 193.98,608.06C197.69,603.35 144.49,587.82 144.49,590.93Z" style="fill:rgb(94,218,18);fill-opacity:0.1;fill-rule:nonzero;"/>
    </g>
    <g transform="matrix(1,0,0,1,-25,-136.26)">
        <path d="M221.85,737.84L124.15,737.84C121.873,737.84 120,735.967 120,733.69L120,685C120,685 120,684.999 120,684.999C120,682.722 121.873,680.849 124.15,680.849C124.766,680.849 125.374,680.986 125.93,681.25C154,694.57 176.26,710.1 219.93,681.46C222.52,679.76 225.93,682.08 225.93,685.17L225.93,733.67C225.941,735.928 224.108,737.802 221.85,737.84Z" style="fill:rgb(94,218,18);fill-rule:nonzero;"/>
    </g>
    <path d="M921.83,587.81L777.69,606.88L770.48,607.83L700.01,570.19L700.01,561.38L920.23,537.36L921.83,587.81Z" style="fill:rgb(156,156,161);fill-rule:nonzero;"/>
    <path d="M740.85,574.19L897,555.78L895.4,584.61L773.77,593.53L740.85,574.19Z" style="fill:rgb(147,148,152);fill-rule:nonzero;"/>
    <g transform="matrix(1,0,0,1,-25,-136.26)">
        <path d="M802.69,733.67L802.69,743.13L795.48,744.13L725,706.45L725,697.64L792.27,733.64C792.27,733.64 801.09,734.47 802.69,733.67Z" style="fill-opacity:0.4;fill-rule:nonzero;"/>
    </g>
    <g transform="matrix(1,0,0,1,-25,-136.26)">
        <path d="M830.36,583.52L798,733.57C797.855,734.238 797.782,734.919 797.782,735.603C797.782,740.858 802.106,745.183 807.362,745.183C807.783,745.183 808.203,745.155 808.62,745.1L1013.35,718C1016.98,717.521 1020.04,714.998 1021.19,711.52L1065.36,578.32C1065.68,577.349 1065.84,576.333 1065.84,575.31C1065.84,570.043 1061.51,565.71 1056.24,565.71C1056.1,565.71 1055.95,565.713 1055.8,565.72L839.28,576C834.963,576.205 831.292,579.3 830.36,583.52Z" style="fill:rgb(63,61,86);fill-rule:nonzero;"/>
    </g>
    <g transform="matrix(0.104528,-0.994522,0.994522,0.104528,179.55,1367.46)">
        <ellipse cx="937.28" cy="638.27" rx="8.7" ry="5.59" style="fill:white;"/>
    </g>
</svg>
