<?xml version="1.0" encoding="UTF-8" standalone="no"?>
<!DOCTYPE svg PUBLIC "-//W3C//DTD SVG 1.1//EN" "http://www.w3.org/Graphics/SVG/1.1/DTD/svg11.dtd">
<svg width="100%" height="100%" viewBox="0 0 1185 744" version="1.1" xmlns="http://www.w3.org/2000/svg" xmlns:xlink="http://www.w3.org/1999/xlink" xml:space="preserve" xmlns:serif="http://www.serif.com/" style="fill-rule:evenodd;clip-rule:evenodd;stroke-miterlimit:10;">
    <g transform="matrix(1,0,0,1,-7.95,-78.25)">
        <path d="M231.37,576.52L225.08,572.61C224.48,572.24 223.89,571.84 223.29,571.46C251.893,566.539 273.001,541.49 273.001,512.467C273.001,485.726 255.083,462.076 229.34,454.84L229.65,479.5L216.1,452.67L215.93,452.67C183.133,451.148 154.889,476.874 153.35,509.67C153.29,510.82 153.35,511.94 153.35,513.07C148.64,507.69 144.35,501.92 141.52,495.6C135.79,482.81 135.68,468.32 136.13,450.7C137.03,415.8 138.54,380.62 140.5,345.56C169.604,342.32 192.269,318.171 193.66,288.92C193.74,287.09 193.71,285.29 193.66,283.49C193.66,283.04 193.66,282.6 193.59,282.15C193.47,280.41 193.31,278.69 193.04,276.99C193.04,276.71 192.94,276.44 192.89,276.17C192.65,274.73 192.35,273.31 192.01,271.91C191.88,271.38 191.75,270.86 191.61,270.34C191.19,268.81 190.73,267.34 190.19,265.82C190.01,265.33 189.81,264.82 189.61,264.36C189.19,263.27 188.73,262.19 188.24,261.13C187.98,260.57 187.73,260.01 187.46,259.46C187.38,259.32 187.33,259.17 187.25,259.03C174.26,233.391 144.542,220.553 116.97,228.67L117.37,260.77L103.97,234.25C81.437,247.165 69.827,273.397 75.42,298.76L75.3,298.76C75.39,299.19 75.52,299.6 75.62,300.02C75.81,300.81 76.01,301.59 76.23,302.37C76.52,303.37 76.83,304.37 77.16,305.37C77.41,306.11 77.65,306.84 77.93,307.57C78.34,308.63 78.8,309.66 79.26,310.69C79.53,311.29 79.77,311.91 80.06,312.5C80.82,314.047 81.647,315.557 82.54,317.03C82.85,317.55 83.2,318.03 83.54,318.54C84.18,319.54 84.82,320.54 85.54,321.47C85.97,322.06 86.43,322.63 86.88,323.2C87.54,324.03 88.21,324.85 88.88,325.64C89.37,326.21 89.88,326.76 90.39,327.3C91.13,328.08 91.88,328.83 92.66,329.56C93.18,330.05 93.66,330.56 94.23,331.02C95.11,331.81 96.03,332.55 96.96,333.28C97.43,333.65 97.89,334.03 98.37,334.39C99.79,335.39 101.25,336.39 102.76,337.39C103.04,337.56 103.35,337.7 103.63,337.87C104.9,338.61 106.18,339.32 107.5,339.96C108.07,340.24 108.65,340.49 109.23,340.75C110.31,341.23 111.4,341.7 112.52,342.13L114.52,342.83C115.62,343.2 116.74,343.55 117.87,343.83C118.53,344.01 119.2,344.2 119.87,344.36C121.09,344.65 122.34,344.89 123.6,345.11L123.84,345.16C123.02,359.953 122.287,374.75 121.64,389.55C111.639,368.998 90.699,355.9 67.842,355.9C57.591,355.9 47.51,358.535 38.57,363.55L49.15,392.55L27.38,371.65C15.696,382.314 8.72,397.198 8,413C7.722,418.541 8.234,424.093 9.52,429.49C15.841,456.45 40.089,475.67 67.78,475.67C89.116,475.67 108.898,464.259 119.58,445.79C119.58,447.29 119.48,448.79 119.44,450.3C119.04,465.84 118.54,485.18 126.29,502.45C131.54,514.15 139.98,523.66 148.29,532.18C153.72,537.72 159.35,543.09 165.12,548.28C170.801,555.906 178.211,562.075 186.74,566.28C196.22,573.58 206.04,580.45 216.19,586.79L222.53,590.73C228.23,594.26 234.07,597.89 239.79,601.66C238.79,601.56 237.79,601.45 236.79,601.4C210.819,600.19 186.89,616.023 177.85,640.4L215.25,670.83L174.11,661.29C174.171,694.102 201.188,721.068 234,721.068C243.002,721.068 251.89,719.038 260,715.13L257.22,718.58C255.38,720.867 253.563,723.14 251.77,725.4C227.43,756.23 220.66,785.49 232.71,807.8L247.37,799.89C235.64,778.17 253.28,750.37 264.84,735.73C266.6,733.51 268.387,731.277 270.2,729.03C285.75,709.71 303.37,687.81 302.94,660.95C302.26,620.46 263,596.1 231.37,576.52Z" style="fill:rgb(242,242,242);fill-rule:nonzero;"/>
    </g>
    <g transform="matrix(1,0,0,1,-7.95,-78.25)">
        <path d="M913.31,515.26L921.15,510.38C921.9,509.91 922.63,509.38 923.38,508.94C888.942,503.042 863.021,473.73 861.38,438.83C860.813,427.147 863.023,415.494 867.83,404.83C876.902,384.617 894.501,369.445 915.83,363.45L915.44,394.22L932.35,360.75L932.55,360.75C973.478,358.846 1008.73,390.952 1010.64,431.88C1010.71,433.31 1010.64,434.71 1010.64,436.12C1016.53,429.41 1021.87,422.21 1025.4,414.33C1032.56,398.33 1032.7,380.33 1032.13,358.33C1031.01,314.78 1029.13,270.9 1026.68,227.16C990.367,223.119 962.089,192.986 960.36,156.49C960.26,154.21 960.29,151.96 960.36,149.72C960.36,149.16 960.39,148.6 960.45,148.04C960.59,145.87 960.8,143.72 961.12,141.61C961.17,141.26 961.26,140.92 961.31,140.61C961.617,138.81 961.987,137.037 962.42,135.29C962.58,134.64 962.74,133.98 962.91,133.29C963.44,131.39 964.01,129.5 964.68,127.66C964.9,127.04 965.16,126.45 965.4,125.84C965.94,124.47 966.51,123.13 967.12,121.84C967.44,121.15 967.75,120.45 968.12,119.76C968.2,119.59 968.28,119.4 968.37,119.23C984.562,87.229 1021.65,71.209 1056.05,81.36L1055.55,121.36L1072.27,88.28C1100.39,104.384 1114.87,137.119 1107.88,168.76L1107.97,168.76C1107.85,169.29 1107.68,169.76 1107.56,170.33C1107.32,171.33 1107.07,172.33 1106.8,173.26C1106.45,174.51 1106.05,175.73 1105.64,176.95C1105.33,177.87 1105.03,178.79 1104.64,179.7C1104.13,181.02 1103.56,182.31 1102.98,183.59C1102.64,184.34 1102.34,185.11 1101.98,185.85C1101.03,187.78 1099.98,189.67 1098.89,191.5C1098.51,192.15 1098.07,192.76 1097.66,193.39C1096.86,194.63 1096.05,195.85 1095.18,197.04C1094.64,197.78 1094.07,198.48 1093.51,199.2C1092.69,200.2 1091.86,201.26 1090.98,202.25C1090.37,202.917 1089.74,203.607 1089.09,204.32C1088.18,205.32 1087.23,206.22 1086.27,207.13C1085.62,207.75 1084.98,208.37 1084.27,208.96C1083.16,209.96 1082.02,210.86 1080.85,211.77C1080.27,212.23 1079.7,212.72 1079.1,213.16C1077.33,214.46 1075.51,215.7 1073.62,216.85C1073.27,217.06 1072.89,217.24 1072.53,217.45C1070.96,218.383 1069.35,219.253 1067.71,220.06C1067,220.41 1066.27,220.71 1065.55,221.06C1064.2,221.67 1062.84,222.25 1061.45,222.78C1060.63,223.09 1059.81,223.38 1058.99,223.66C1057.61,224.13 1056.22,224.55 1054.81,224.94C1053.98,225.17 1053.15,225.4 1052.3,225.61C1050.77,225.97 1049.22,226.27 1047.65,226.54L1047.34,226.6C1048.38,245.06 1049.3,263.523 1050.09,281.99C1062.57,256.361 1088.68,240.028 1117.18,240.028C1129.98,240.028 1142.57,243.321 1153.73,249.59L1140.54,285.75L1167.69,259.68C1182.3,272.943 1191.05,291.489 1192,311.2C1192.35,318.112 1191.71,325.038 1190.11,331.77C1182.23,365.409 1151.97,389.392 1117.42,389.392C1090.8,389.392 1066.12,375.155 1052.79,352.11C1052.79,353.98 1052.92,355.87 1052.97,357.74C1053.47,377.13 1054.09,401.26 1044.43,422.8C1037.88,437.41 1027.34,449.26 1016.92,459.89C1010.14,466.81 1003.14,473.507 995.92,479.98C988.823,489.488 979.568,497.177 968.92,502.41C957.09,511.52 944.84,520.09 932.18,528.01L924.27,532.92C917.16,537.32 909.88,541.85 902.73,546.55C903.99,546.43 905.23,546.29 906.51,546.23C938.886,544.735 968.713,564.468 980,594.85L933.34,632.85L984.67,620.96C984.612,661.916 950.896,695.585 909.94,695.585C898.742,695.585 887.685,693.068 877.59,688.22C878.75,689.66 879.9,691.1 881.06,692.53C883.35,695.38 885.64,698.22 887.87,701.04C918.23,739.49 926.68,776.04 911.64,803.84L893.36,793.97C907.99,766.87 885.98,732.19 871.55,713.97C869.36,711.2 867.12,708.41 864.87,705.61C845.47,681.51 823.48,654.19 824.02,620.68C824.86,570.07 873.9,539.68 913.31,515.26Z" style="fill:rgb(242,242,242);fill-rule:nonzero;"/>
    </g>
    <ellipse cx="584.3" cy="716" rx="514" ry="27.5" style="fill:rgb(63,61,86);"/>
    <ellipse cx="583.3" cy="707.5" rx="460" ry="22" style="fill-opacity:0.2;"/>
    <g transform="matrix(1,0,0,1,-7.95,-78.25)">
        <path d="M1029.24,251.46L1029.24,780C1029.24,783.955 1025.99,787.21 1022.03,787.21L162.44,787.21C158.49,787.21 155.24,783.96 155.24,780.01C155.24,780.007 155.24,780.003 155.24,780L155.24,251.46C155.24,251.457 155.24,251.453 155.24,251.45C155.24,247.5 158.49,244.25 162.44,244.25L1022,244.25C1022.01,244.25 1022.02,244.25 1022.03,244.25C1025.99,244.25 1029.24,247.505 1029.24,251.46Z" style="fill:rgb(63,61,86);fill-rule:nonzero;"/>
    </g>
    <g transform="matrix(1,0,0,1,-7.95,-78.25)">
        <path d="M1029.24,249.06L1029.24,265.25L155.24,265.25L155.24,249.06C155.24,246.421 157.411,244.25 160.05,244.25L1024.43,244.25C1027.07,244.25 1029.24,246.421 1029.24,249.06Z" style="fill:rgb(203,206,218);fill-rule:nonzero;"/>
    </g>
    <circle cx="163.29" cy="176" r="5" style="fill:rgb(161,217,0);"/>
    <circle cx="177.29" cy="176" r="5" style="fill:rgb(161,217,0);"/>
    <circle cx="191.29" cy="176" r="5" style="fill:rgb(161,217,0);"/>
    <rect x="451.3" y="239.5" width="266" height="14" style="fill:rgb(94,218,18);fill-opacity:0.2;"/>
    <rect x="230.3" y="381.5" width="205" height="240" style="fill:rgb(94,218,18);fill-opacity:0.2;"/>
    <rect x="481.3" y="381.5" width="205" height="240" style="fill:rgb(94,218,18);fill-opacity:0.2;"/>
    <g transform="matrix(-1,7.65714e-16,-7.65714e-16,-1,1677.54,1081.25)">
        <rect x="740.24" y="459.75" width="205" height="240" style="fill:rgb(94,218,18);fill-opacity:0.2;"/>
    </g>
    <g transform="matrix(1,0,0,1,-7.95,-78.25)">
        <path d="M331.58,581.73C330.97,585.34 327.4,587.61 324.03,589.02C320.66,590.43 316.89,591.6 314.73,594.55C311.82,598.55 313.04,604.28 315.73,608.43C318.78,613.19 323.4,616.7 327.92,620.1C329.879,621.758 332.112,623.061 334.52,623.95C336.355,624.42 338.248,624.622 340.14,624.55C346.233,624.548 352.314,624.002 358.31,622.92C366,621.52 374.22,618.72 378.31,612.04C381.63,606.57 381.42,599.74 381.1,593.34C377.48,593.03 374.24,591.06 371.16,589.15C367.52,586.89 363.59,584.26 362.41,580.15C361.17,575.84 363.15,570.52 360.2,567.15C358.2,564.87 354.81,564.6 351.79,564.52C347.69,564.413 343.593,564.357 339.5,564.35C336.68,564.35 330.38,563.17 328.06,565.05C323.79,568.46 332.35,577.15 331.58,581.73Z" style="fill:rgb(160,97,106);fill-rule:nonzero;"/>
    </g>
    <g transform="matrix(1,0,0,1,-7.95,-78.25)">
        <path d="M331.58,581.73C330.97,585.34 327.4,587.61 324.03,589.02C320.66,590.43 316.89,591.6 314.73,594.55C311.82,598.55 313.04,604.28 315.73,608.43C318.78,613.19 323.4,616.7 327.92,620.1C329.879,621.758 332.112,623.061 334.52,623.95C336.355,624.42 338.248,624.622 340.14,624.55C346.233,624.548 352.314,624.002 358.31,622.92C366,621.52 374.22,618.72 378.31,612.04C381.63,606.57 381.42,599.74 381.1,593.34C377.48,593.03 374.24,591.06 371.16,589.15C367.52,586.89 363.59,584.26 362.41,580.15C361.17,575.84 363.15,570.52 360.2,567.15C358.2,564.87 354.81,564.6 351.79,564.52C347.69,564.413 343.593,564.357 339.5,564.35C336.68,564.35 330.38,563.17 328.06,565.05C323.79,568.46 332.35,577.15 331.58,581.73Z" style="fill-opacity:0.1;fill-rule:nonzero;"/>
    </g>
    <circle cx="337.6" cy="472.09" r="29.33" style="fill:rgb(160,97,106);"/>
    <g transform="matrix(1,0,0,1,-7.95,-78.25)">
        <path d="M406.84,621.52C406.647,623.284 406.085,624.988 405.19,626.52C404.924,626.932 404.623,627.32 404.29,627.68C402.64,629.49 400.29,630.68 398.16,631.95C392.16,635.6 385.43,640.35 384.31,647.3C383.941,649.463 383.436,651.6 382.8,653.7C381.4,658.46 379.57,663.14 378.5,667.9C377.834,670.659 377.535,673.493 377.61,676.33C377.644,677.217 377.724,678.101 377.85,678.98C378.8,685.72 382.26,691.77 386.33,697.52C386.77,698.14 387.21,698.76 387.66,699.37L387.95,699.76L292.21,699.76C292.37,699.15 292.53,698.55 292.68,697.94C292.699,697.846 292.722,697.752 292.75,697.66C293.7,693.85 294.53,690.02 295.11,686.16C295.652,682.732 295.949,679.27 296,675.8C296,672.8 296.66,669.48 299.17,667.8C299.34,667.19 299.5,666.57 299.66,665.96C301.874,656.878 301.826,647.389 299.52,638.33C299.38,637.77 299.22,637.21 299.07,636.65C299,636.4 298.92,636.15 298.85,635.9C298.005,633.235 297.298,630.528 296.73,627.79C296.14,624.52 296.01,621.04 294.27,618.22C292.53,615.4 289.5,613.75 286.81,611.84C285.489,610.94 284.301,609.86 283.28,608.63C282.167,607.342 281.5,605.728 281.38,604.03C281.361,603.527 281.398,603.024 281.49,602.53C281.985,600.467 283.041,598.581 284.54,597.08C290.62,590.39 299.91,587.58 309.04,587.46C310.45,587.46 311.85,587.46 313.24,587.58C314.866,587.606 316.47,587.967 317.95,588.64C318.864,589.11 319.665,589.772 320.3,590.58C321.194,591.706 321.873,592.987 322.3,594.36C322.66,595.463 322.927,596.593 323.1,597.74C323.66,601.31 323.78,605.11 325.66,608.19C329.07,613.77 336.84,614.79 343.26,613.58C354.855,611.302 364.848,603.963 370.49,593.58C371.088,592.333 371.756,591.121 372.49,589.95C372.879,589.362 373.336,588.822 373.85,588.34C382.744,589.978 391.108,593.753 398.22,599.34C400.45,601.024 402.4,603.049 404,605.34C407,610.08 407.68,616 406.84,621.52Z" style="fill:rgb(242,242,242);fill-rule:nonzero;"/>
    </g>
    <g transform="matrix(1,0,0,1,-7.95,-78.25)">
        <path d="M409.84,681.91C409.03,684.704 407.792,687.355 406.17,689.77C405.1,691.821 403.663,693.658 401.93,695.19C398.38,697.98 393.47,697.92 388.93,697.66L388.57,697.66L386.32,697.53L373.41,696.76C369.989,696.637 366.58,696.273 363.21,695.67C362.31,695.49 361.42,695.27 360.53,695.03C355.53,693.69 350.64,691.69 345.47,691.4C343.97,691.31 342.47,691.4 340.94,691.4L340.52,691.4C339.517,691.4 338.514,691.333 337.52,691.2C335.88,690.96 334.27,690.44 332.6,690.36C328.32,690.14 324.54,692.71 320.89,695.05L319.89,695.67C317.279,697.324 314.504,698.705 311.61,699.79L294.27,699.79C293.976,699.567 293.705,699.316 293.46,699.04C293.163,698.712 292.901,698.353 292.68,697.97C292.63,697.88 292.58,697.79 292.54,697.7C291.401,695.258 291.401,692.432 292.54,689.99C293.186,688.602 294.039,687.321 295.07,686.19C296.206,684.957 297.429,683.808 298.73,682.75C305.47,677.13 313.22,672.39 321.84,670.75C322.44,670.64 323.05,670.54 323.65,670.46C327.965,669.965 332.312,669.821 336.65,670.03L340.72,670.11L357.77,670.46L358.24,670.46C365.09,670.59 372.29,670.64 378.48,667.91C379.268,667.559 380.035,667.165 380.78,666.73C381.415,666.408 381.962,665.934 382.37,665.35C382.768,664.545 382.931,663.644 382.84,662.75L382.78,653.75L382.66,636.4C382.66,632.14 382.633,627.883 382.58,623.63C382.237,620.961 383.142,618.277 385.03,616.36C387.52,613.23 393.59,602.18 397.89,602C398.653,601.957 399.409,602.168 400.04,602.6C403.7,605.04 403.72,614.29 403.81,617.41C403.91,620.857 404.06,624.3 404.26,627.74C405.081,641.828 406.75,655.853 409.26,669.74C410,673.73 410.8,677.91 409.84,681.91Z" style="fill:rgb(160,97,106);fill-rule:nonzero;"/>
    </g>
    <g transform="matrix(1,0,0,1,-7.95,-78.25)">
        <path d="M409.84,681.91C409.03,684.704 407.792,687.355 406.17,689.77C405.1,691.821 403.663,693.658 401.93,695.19C398.38,697.98 393.47,697.92 388.93,697.66L388.57,697.66L386.32,697.53L373.41,696.76C369.989,696.637 366.58,696.273 363.21,695.67C362.31,695.49 361.42,695.27 360.53,695.03C355.53,693.69 350.64,691.69 345.47,691.4C343.97,691.31 342.47,691.4 340.94,691.4L340.52,691.4C339.517,691.4 338.514,691.333 337.52,691.2C335.88,690.96 334.27,690.44 332.6,690.36C328.32,690.14 324.54,692.71 320.89,695.05L319.89,695.67C317.279,697.324 314.504,698.705 311.61,699.79L294.27,699.79C293.976,699.567 293.705,699.316 293.46,699.04C293.163,698.712 292.901,698.353 292.68,697.97C292.63,697.88 292.58,697.79 292.54,697.7C291.401,695.258 291.401,692.432 292.54,689.99C293.186,688.602 294.039,687.321 295.07,686.19C296.206,684.957 297.429,683.808 298.73,682.75C305.47,677.13 313.22,672.39 321.84,670.75C322.44,670.64 323.05,670.54 323.65,670.46C327.965,669.965 332.312,669.821 336.65,670.03L340.72,670.11L357.77,670.46L358.24,670.46C365.09,670.59 372.29,670.64 378.48,667.91C379.268,667.559 380.035,667.165 380.78,666.73C381.415,666.408 381.962,665.934 382.37,665.35C382.768,664.545 382.931,663.644 382.84,662.75L382.78,653.75L382.66,636.4C382.66,632.14 382.633,627.883 382.58,623.63C382.237,620.961 383.142,618.277 385.03,616.36C387.52,613.23 393.59,602.18 397.89,602C398.653,601.957 399.409,602.168 400.04,602.6C403.7,605.04 403.72,614.29 403.81,617.41C403.91,620.857 404.06,624.3 404.26,627.74C405.081,641.828 406.75,655.853 409.26,669.74C410,673.73 410.8,677.91 409.84,681.91Z" style="fill-opacity:0.1;fill-rule:nonzero;"/>
    </g>
    <g transform="matrix(1,0,0,1,-7.95,-78.25)">
        <path d="M326.23,503.83C323.69,504.21 320.88,504.89 319.5,507.05C318.42,508.73 318.5,510.86 318.13,512.82C317.533,515.966 315.776,518.775 313.21,520.69C311.11,522.24 308.57,523.11 306.4,524.56C304.23,526.01 302.31,528.38 302.6,530.98C302.85,533.25 304.66,534.98 305.51,537.12C307.08,541.02 305.23,545.37 303.51,549.21C301.79,553.05 300.17,557.57 302.14,561.28C304.23,565.19 309.62,566.67 311.14,570.82C313.03,575.82 308.14,581.15 308.77,586.48C309.31,590.86 313.63,593.99 318,594.63C320.09,594.93 322.41,594.72 324,593.33C325.59,591.94 326.09,589.67 326.16,587.56C326.43,579.42 321.8,571.95 320.45,563.91C320.01,561.26 319.95,558.42 321.18,556.03C321.96,554.52 323.18,553.28 323.86,551.71C325.21,548.44 323.68,544.49 325.13,541.26C325.952,539.845 326.899,538.506 327.96,537.26C328.89,535.91 329.51,534.12 328.78,532.65C331.364,534.293 333.428,536.638 334.73,539.41C336.62,539.03 336.57,534.97 338.42,535.55C338.94,535.72 339.24,536.27 339.58,536.7C340.967,538.246 343.151,538.822 345.12,538.16C347.044,537.471 348.735,536.255 350,534.65L353.16,538.57C353.745,537.189 355.132,536.31 356.63,536.37C358.097,536.47 359.512,536.957 360.73,537.78C366.73,541.37 371.23,548.72 368.93,555.32C367.93,558.14 365.93,560.45 364.59,563.13C363.25,565.81 362.91,569.41 365.05,571.49C365.49,571.93 366.05,572.27 366.43,572.75C368,574.6 367.01,577.42 367.48,579.75C368.31,584.04 373.37,585.75 377.63,586.75C380.63,587.43 384.2,587.94 386.3,585.75C388.6,583.35 387.57,579.42 386.18,576.4C384.79,573.38 383.18,569.89 384.67,566.93C386.16,563.97 390.53,562.93 392.1,559.84C394.1,555.91 390.57,551.6 389.16,547.42C387.23,541.7 389.38,535.28 387.8,529.42C386.842,526.463 385.343,523.71 383.38,521.3C378.71,515.02 373.11,509.25 366.17,505.61C359.61,502.17 353,501.61 345.77,502.48C339.28,503.3 332.74,502.86 326.23,503.83Z" style="fill:rgb(60,53,76);fill-rule:nonzero;"/>
    </g>
    <g transform="matrix(1,0,0,1,-7.95,-78.25)">
        <path d="M383.23,636.74C382.64,636.396 382.222,635.818 382.08,635.15C379.86,628.91 377.78,622.627 375.84,616.3C375.399,615.186 375.237,613.981 375.37,612.79C375.821,611.304 376.767,610.016 378.05,609.14C381.335,606.431 385.032,604.264 389,602.72C391.88,601.59 396.13,599.58 399,601.41C402.56,603.68 398.76,609.41 397.46,612.41C395.697,616.524 393.694,620.531 391.46,624.41C390.78,625.61 384.14,637.1 383.23,636.74Z" style="fill:rgb(242,242,242);fill-rule:nonzero;"/>
    </g>
    <g transform="matrix(1,0,0,1,-7.95,-78.25)">
        <path d="M388.94,697.66C388.689,698.148 388.373,698.598 388,699C387.89,699.13 387.77,699.25 387.64,699.36C387.499,699.501 387.349,699.631 387.19,699.75L369.8,699.75C366.906,698.665 364.131,697.284 361.52,695.63L360.52,695.01C356.87,692.67 353.09,690.1 348.81,690.32C347.14,690.4 345.53,690.92 343.89,691.16C342.896,691.293 341.893,691.36 340.89,691.36L340.47,691.36C338.96,691.36 337.47,691.29 335.94,691.36C330.77,691.65 325.89,693.65 320.88,694.99C319.99,695.23 319.1,695.45 318.2,695.63C314.83,696.233 311.421,696.597 308,696.72L292.84,697.62L292.48,697.62C287.95,697.88 283.04,697.94 279.48,695.15C277.747,693.618 276.31,691.781 275.24,689.73C273.618,687.315 272.38,684.664 271.57,681.87C270.57,677.87 271.41,673.69 272.14,669.64C275.252,652.353 277.067,634.858 277.57,617.3C277.66,614.17 277.68,604.89 281.36,602.48C281.774,602.193 282.251,602.008 282.75,601.94C282.996,601.914 283.244,601.914 283.49,601.94C287.79,602.12 293.86,613.17 296.35,616.3C298.238,618.217 299.143,620.901 298.8,623.57C298.8,627.677 298.773,631.79 298.72,635.91L298.72,636.47C298.673,645.23 298.617,653.987 298.55,662.74C298.459,663.634 298.622,664.535 299.02,665.34C299.162,665.574 299.337,665.786 299.54,665.97C299.871,666.255 300.23,666.506 300.61,666.72C307.26,670.64 315.43,670.6 323.15,670.45L323.62,670.45L340.67,670.1L344.74,670.02C349.078,669.811 353.425,669.955 357.74,670.45C358.34,670.53 358.95,670.63 359.55,670.74C366.173,672.145 372.415,674.963 377.85,679C379.517,680.18 381.137,681.427 382.71,682.74C385.17,684.74 387.59,687.06 388.9,689.98C390.042,692.408 390.057,695.22 388.94,697.66Z" style="fill:rgb(160,97,106);fill-rule:nonzero;"/>
    </g>
    <g transform="matrix(1,0,0,1,-7.95,-78.25)">
        <path d="M299.28,636.74C299.868,636.394 300.285,635.817 300.43,635.15C302.65,628.91 304.73,622.627 306.67,616.3C307.103,615.184 307.261,613.98 307.13,612.79C306.679,611.304 305.733,610.016 304.45,609.14C301.171,606.428 297.477,604.26 293.51,602.72C290.63,601.59 286.39,599.58 283.51,601.41C279.95,603.68 283.74,609.41 285.05,612.41C286.809,616.526 288.812,620.533 291.05,624.41C291.73,625.61 298.37,637.1 299.28,636.74Z" style="fill:rgb(242,242,242);fill-rule:nonzero;"/>
    </g>
    <g transform="matrix(1,0,0,1,-7.95,-78.25)">
        <path d="M840.33,523.23C846.28,521.78 850.9,531.63 856.89,530.46C860.18,529.82 862.72,525.92 866.05,526.21C869.84,526.54 871.46,531.72 873.4,535.51C876.77,542.07 883.58,546.04 890.14,545.25C892.2,542.53 891.81,538.35 890.76,534.95C889.71,531.55 888.11,528.25 888.07,524.63C888.02,519.84 890.65,514.54 888.27,510.63C886.44,507.63 882.7,507.39 879.95,505.54C877.8,504.1 876.29,501.69 874.49,499.72C871.602,496.5 867.65,494.423 863.36,493.87C859.82,493.47 856.26,494.23 852.76,494.99L836.4,498.53C835.448,498.642 834.555,499.051 833.85,499.7C833.184,500.714 832.735,501.854 832.53,503.05C830.98,508.13 826.12,510.51 822.15,513.33C818.18,516.15 814.41,521.73 816.6,526.48C817.84,529.17 820.76,530.83 821.07,533.85C821.34,536.55 819.39,538.76 817.8,540.76C811.05,549.22 826.18,553.62 829.8,547.88C833.83,541.56 831.82,525.31 840.33,523.23Z" style="fill:rgb(60,53,76);fill-rule:nonzero;"/>
    </g>
    <g transform="matrix(1,0,0,1,-7.95,-78.25)">
        <path d="M831.68,576.44C830.26,578.29 828.41,579.83 827.27,581.87C825.84,584.787 825.603,588.151 826.61,591.24C827.636,594.287 829.073,597.181 830.88,599.84C832.952,603.474 835.472,606.834 838.38,609.84C841.305,612.875 845.194,614.805 849.38,615.3C853.83,615.63 858.13,613.79 862.16,611.86C863.88,611.175 865.447,610.155 866.77,608.86C867.734,607.635 868.49,606.26 869.01,604.79L872.48,596.48C873.455,594.463 874.129,592.313 874.48,590.1C874.84,586.65 873.64,583.24 872.48,579.97L866.13,562.5C865.865,561.499 865.34,560.585 864.61,559.85C863.915,559.346 863.115,559.004 862.27,558.85C858.25,557.81 854.143,557.14 850,556.85C846.92,556.64 839.93,555.55 837.24,557.29C834.77,558.9 835.8,563 835.51,565.65C835.249,569.53 833.923,573.264 831.68,576.44Z" style="fill:rgb(160,97,106);fill-rule:nonzero;"/>
    </g>
    <g transform="matrix(1,0,0,1,-7.95,-78.25)">
        <path d="M831.68,576.44C830.26,578.29 828.41,579.83 827.27,581.87C825.84,584.787 825.603,588.151 826.61,591.24C827.636,594.287 829.073,597.181 830.88,599.84C832.952,603.474 835.472,606.834 838.38,609.84C841.305,612.875 845.194,614.805 849.38,615.3C853.83,615.63 858.13,613.79 862.16,611.86C863.88,611.175 865.447,610.155 866.77,608.86C867.734,607.635 868.49,606.26 869.01,604.79L872.48,596.48C873.455,594.463 874.129,592.313 874.48,590.1C874.84,586.65 873.64,583.24 872.48,579.97L866.13,562.5C865.865,561.499 865.34,560.585 864.61,559.85C863.915,559.346 863.115,559.004 862.27,558.85C858.25,557.81 854.143,557.14 850,556.85C846.92,556.64 839.93,555.55 837.24,557.29C834.77,558.9 835.8,563 835.51,565.65C835.249,569.53 833.923,573.264 831.68,576.44Z" style="fill-opacity:0.1;fill-rule:nonzero;"/>
    </g>
    <circle cx="844.51" cy="466.38" r="27.7" style="fill:rgb(160,97,106);"/>
    <g transform="matrix(1,0,0,1,-7.95,-78.25)">
        <path d="M913.84,613.8C913.9,621.44 910.97,628.8 907.94,635.8C904.91,642.8 901.06,649.71 898.1,656.9C897.86,657.48 897.63,658.07 897.4,658.66C892.307,671.82 887.8,685.183 883.88,698.75L883.59,699.75L797.69,699.75C801.61,684.75 804.97,669.75 795.57,659.4C795.28,659.08 794.99,658.75 794.71,658.4C788.56,650.99 785.8,640.88 778.49,634.58C776.81,633.13 774.86,631.85 773.82,629.88C773.222,628.668 772.921,627.331 772.94,625.98C772.933,624.79 773.007,623.6 773.16,622.42C773.88,615.92 774.81,609.1 778.73,603.86C780.52,601.569 782.664,599.578 785.08,597.96C790.419,594.208 796.433,591.522 802.79,590.05C809.95,588.41 817.85,588.17 823.69,583.7C824.918,582.567 826.259,581.562 827.69,580.7L828.09,580.53C829.497,579.865 831.165,580.043 832.4,580.99C833.156,581.832 833.656,582.873 833.84,583.99C834.9,587.87 835.963,591.75 837.03,595.63C837.391,597.548 838.219,599.348 839.44,600.87C842.27,603.81 847.68,603.46 849.88,606.87C851.2,608.94 854.67,606.53 856.18,604.61C859.842,599.973 863.009,594.966 865.63,589.67C866.514,587.57 867.693,585.607 869.13,583.84C870.162,582.702 871.504,581.889 872.99,581.5C873.717,581.32 874.474,581.3 875.21,581.44C877.37,581.88 878.95,583.66 880.42,585.3C889.216,595.124 899.609,603.391 911.16,609.75C912.075,610.137 912.858,610.784 913.41,611.61C913.652,612.113 913.781,612.662 913.79,613.22C913.83,613.43 913.84,613.62 913.84,613.8Z" style="fill:rgb(60,53,76);fill-rule:nonzero;"/>
    </g>
    <g transform="matrix(1,0,0,1,-7.95,-78.25)">
        <path d="M843.32,521.82C847.95,520.82 851.54,527.47 856.2,526.68C858.76,526.26 860.74,523.68 863.32,523.83C866.27,524.05 867.53,527.53 869.04,530.07C871.776,534.535 876.823,537.078 882.04,536.62C883.64,534.79 883.34,531.99 882.52,529.7C881.7,527.41 880.45,525.19 880.42,522.77C880.42,519.54 882.42,515.98 880.58,513.35C879.16,511.35 876.25,511.17 874.11,509.93C872.44,508.93 871.27,507.34 869.86,506.02C867.488,503.795 864.446,502.413 861.21,502.09C858.442,501.951 855.668,502.203 852.97,502.84L840.25,505.22C839.522,505.28 838.827,505.551 838.25,506C837.751,506.665 837.409,507.434 837.25,508.25C836.04,511.67 832.25,513.25 829.18,515.16C826.11,517.07 823.18,520.81 824.86,524C825.86,525.81 828.09,526.92 828.33,529C828.55,530.81 827.03,532.3 825.79,533.64C820.55,539.32 832.31,542.28 835.14,538.42C838.27,534.14 836.7,523.22 843.32,521.82Z" style="fill:rgb(60,53,76);fill-rule:nonzero;"/>
    </g>
    <g transform="matrix(1,0,0,1,-7.95,-78.25)">
        <path d="M926.84,699.75L903.45,699.75C903.83,690.17 899.93,680.44 899.45,670.67C899.27,667 899.58,663.27 898.84,659.67C898.645,658.733 898.395,657.808 898.09,656.9C897.5,655.05 896.78,653.23 896.22,651.37C894.36,645.16 894.43,638.56 894.52,632.08C894.627,624.927 894.74,617.78 894.86,610.64C894.86,608.78 894.31,606.04 896,605.26C899.81,603.5 903.77,606.99 907.27,609.26C909.37,610.66 911.77,611.76 913.81,613.26C915.025,614.097 916.079,615.147 916.92,616.36C917.906,618.029 918.605,619.851 918.99,621.75C921.823,632.57 924.29,643.48 926.39,654.48C927.389,659.262 928.057,664.106 928.39,668.98C929,679.22 926.87,689.55 926.84,699.75Z" style="fill:rgb(60,53,76);fill-rule:nonzero;"/>
    </g>
    <g transform="matrix(1,0,0,1,-7.95,-78.25)">
        <path d="M781.56,688.61C780.56,691.05 779.48,693.61 779.63,696.27C779.72,697.464 779.99,698.637 780.43,699.75L759.24,699.75C758.177,696.146 757.375,692.47 756.84,688.75C755.84,681.51 756.39,674.14 757.33,666.88C757.961,661.242 759.191,655.687 761,650.31C763.46,643.42 767.35,637.18 770.66,630.7C771.44,629.19 772.15,627.49 772.98,625.99C774.76,622.7 777.06,620.28 781.64,622.49C793.03,627.98 797.92,647.21 794.75,658.41C794.755,658.44 794.755,658.47 794.75,658.5C793.848,661.343 792.717,664.109 791.37,666.77C787.93,673.983 784.66,681.263 781.56,688.61Z" style="fill:rgb(60,53,76);fill-rule:nonzero;"/>
    </g>
    <g transform="matrix(1,0,0,1,-7.95,-78.25)">
        <path d="M595.94,509.23C598.207,510.057 600.105,511.668 601.29,513.77C602.2,515.66 602.17,517.87 602.79,519.88C604.1,524.11 608.04,526.88 610.49,530.58C613.81,535.58 614.2,541.95 613.97,547.95C613.74,553.95 612.97,560.07 614.47,565.9C615.18,568.74 616.39,571.44 616.88,574.33C617.47,577.83 616.98,581.49 617.88,584.93C618.67,588.06 620.52,590.8 622.34,593.46L630.12,604.83C626.638,604.005 623.209,602.974 619.85,601.74C620.886,604.997 622.808,607.903 625.4,610.13L619.78,603.33C618.636,601.755 617.217,600.399 615.59,599.33C613.53,598.16 611.09,597.98 608.77,597.5C604.32,596.6 599.86,594.32 597.68,590.31C594.77,584.97 596.68,578.26 595.01,572.4C593.82,568.12 590.88,564.59 588.86,560.65C584.27,551.72 584.55,541.19 583.11,531.25C582.49,527.03 581.55,522.84 581.53,518.57C581.53,515.42 581.84,509.44 585.14,507.83C588,506.48 593.28,508.1 595.94,509.23Z" style="fill:rgb(63,61,86);fill-rule:nonzero;"/>
    </g>
    <g transform="matrix(1,0,0,1,-7.95,-78.25)">
        <path d="M599.37,580.76C599.84,585.98 600.93,592.14 605.69,594.33C608.38,595.57 611.51,595.11 614.43,595.59C619.94,596.48 624.43,600.72 627.03,605.69C629.63,610.66 630.46,616.3 631.03,621.86C631.78,628.81 632.03,636.36 628.2,642.22C625.11,646.97 619.77,649.86 614.3,651.33C603.161,654.233 591.288,652.033 581.93,645.33C577.4,642.04 573.66,637.8 570.02,633.56C562.09,624.33 554.11,614.21 552.48,602.15C552.29,600.78 552.31,599.15 553.48,598.31C554.254,597.874 555.148,597.695 556.03,597.8L563.63,597.94C565.56,597.94 567.74,597.94 569.05,596.49C570.36,595.04 570.28,593.22 570.23,591.49C570.037,584.157 569.843,576.807 569.65,569.44C569.534,568.661 569.712,567.865 570.15,567.21C570.634,566.773 571.25,566.509 571.9,566.46C576.09,565.75 580.47,566.46 584.57,565.32C588.47,564.25 594.57,559.77 597.46,564.37C599.88,568.22 599,576.32 599.37,580.76Z" style="fill:rgb(255,193,199);fill-rule:nonzero;"/>
    </g>
    <g transform="matrix(1,0,0,1,-7.95,-78.25)">
        <path d="M599.37,580.76C599.84,585.98 600.93,592.14 605.69,594.33C608.38,595.57 611.51,595.11 614.43,595.59C619.94,596.48 624.43,600.72 627.03,605.69C629.63,610.66 630.46,616.3 631.03,621.86C631.78,628.81 632.03,636.36 628.2,642.22C625.11,646.97 619.77,649.86 614.3,651.33C603.161,654.233 591.288,652.033 581.93,645.33C577.4,642.04 573.66,637.8 570.02,633.56C562.09,624.33 554.11,614.21 552.48,602.15C552.29,600.78 552.31,599.15 553.48,598.31C554.254,597.874 555.148,597.695 556.03,597.8L563.63,597.94C565.56,597.94 567.74,597.94 569.05,596.49C570.36,595.04 570.28,593.22 570.23,591.49C570.037,584.157 569.843,576.807 569.65,569.44C569.534,568.661 569.712,567.865 570.15,567.21C570.634,566.773 571.25,566.509 571.9,566.46C576.09,565.75 580.47,566.46 584.57,565.32C588.47,564.25 594.57,559.77 597.46,564.37C599.88,568.22 599,576.32 599.37,580.76Z" style="fill-opacity:0.1;fill-rule:nonzero;"/>
    </g>
    <circle cx="572.28" cy="472.03" r="29.05" style="fill:rgb(255,193,199);"/>
    <g transform="matrix(1,0,0,1,-7.95,-78.25)">
        <path d="M644.89,674.68C644.692,675.867 644.414,677.04 644.06,678.19C643.13,680.873 642.062,683.507 640.86,686.08C640.4,687.15 639.97,688.22 639.6,689.32C639.31,690.18 639.06,691.06 638.84,691.94C638.62,692.82 638.36,694.01 638.18,695.06C637.91,696.61 637.71,698.18 637.55,699.75L561.74,699.75C562.066,695.913 561.921,692.051 561.31,688.25C560.292,683.016 558.723,677.904 556.63,673C551.8,660.62 546.4,648 543.43,635.09L543.43,635.04C541.352,626.662 540.73,617.989 541.59,609.4C541.65,608.9 541.72,608.4 541.79,607.88C541.969,606.582 542.212,605.294 542.52,604.02C543.252,600.396 544.917,597.025 547.35,594.24C550.75,590.58 556.5,588.77 560.91,591.11C563.57,592.52 565.22,595.02 566.54,597.79C567.38,599.55 568.09,601.41 568.83,603.18C571.54,609.57 575.436,615.389 580.31,620.33C581.24,621.33 582.22,622.22 583.23,623.1C584.24,623.98 585.12,624.72 586.11,625.48C589.32,627.95 593.19,631.08 597.38,631.19C599.81,631.26 602.29,631.19 604.8,631.19C607,631.19 609.22,631.1 611.41,631.19C616.1,631.28 621.41,629.95 623.68,625.84C625.23,623.03 624.97,619.6 624.68,616.4C624.45,613.9 624.22,611.4 623.98,608.89L623.98,608.5C623.82,606.69 623.65,604.9 623.48,603.09C623.4,602.22 623.32,601.34 623.23,600.47L623.05,598.53C623.883,598.437 624.723,598.357 625.57,598.29C629.36,597.99 633.23,598.06 636.49,599.91C639.59,601.66 641.49,604.67 642.71,608.08C643.521,610.511 644.045,613.028 644.27,615.58C645.39,626.93 643.58,638.38 644.2,649.76C644.6,658 646.34,666.55 644.89,674.68Z" style="fill:rgb(94,218,18);fill-rule:nonzero;"/>
    </g>
    <g transform="matrix(1,0,0,1,-7.95,-78.25)">
        <path d="M662.2,699.75L639.27,699.75C639.08,697.15 638.93,694.55 638.84,691.94C638.76,690.14 638.7,688.33 638.67,686.53C638.57,681.677 638.61,676.837 638.79,672.01C643.304,674.561 648.36,676.004 653.54,676.22C655.637,678.566 657.327,681.247 658.54,684.15C659.22,685.746 659.791,687.387 660.25,689.06C660.256,689.083 660.256,689.107 660.25,689.13C661.191,692.61 661.843,696.162 662.2,699.75Z" style="fill:rgb(255,193,199);fill-rule:nonzero;"/>
    </g>
    <g transform="matrix(1,0,0,1,-7.95,-78.25)">
        <path d="M660.19,684.12C651.517,684.205 642.887,685.346 634.49,687.52C633.38,682.04 633.92,676.38 634.49,670.82L638.2,632.61C638.47,629.78 637.95,603.8 643.43,608.39C645.43,610.08 647.99,625.27 648.62,627.71C649.57,631.4 650.32,635.13 650.99,638.87C652.36,646.55 653.29,654.29 654.62,661.98C655,664.2 658.21,684.14 660.19,684.12Z" style="fill:rgb(94,218,18);fill-rule:nonzero;"/>
    </g>
    <g transform="matrix(1,0,0,1,-7.95,-78.25)">
        <path d="M591.3,513.34C591.341,512.432 591.134,511.529 590.7,510.73C589.941,509.77 588.811,509.173 587.59,509.09C583.4,508.44 578.8,510.09 575.01,508.21C573.01,507.21 571.5,505.21 569.5,504.1C564.78,501.43 558.82,504.1 554.64,507.56C547.986,513.086 543.133,520.477 540.71,528.78C538.85,535.2 538.1,542.71 532.78,546.78C530.58,548.46 527.78,549.39 526.13,551.63C524.89,553.35 524.6,555.56 524.37,557.63C523.82,562.51 523.37,567.51 524.64,572.25C525.64,575.78 527.49,578.98 528.64,582.45C531.866,592.462 528.98,603.485 521.26,610.63C523.197,611.837 525.53,612.242 527.76,611.76C527.717,612.785 527.392,613.778 526.82,614.63C533.62,614.41 539.53,607.79 546.18,609.24C551.26,610.34 554.09,615.58 557.88,619.14C562.76,623.73 570.34,625.65 576.47,622.93C582.6,620.21 586.32,612.47 583.72,606.29C580.72,599.29 571.63,596.48 568.46,589.53C566.01,584.14 567.83,577.86 567.3,571.97C566.85,566.91 564.67,562.2 563.3,557.31C561.93,552.42 561.5,546.83 564.3,542.57C567.24,538.05 572.87,536.29 577.99,534.57C589.52,530.85 591.74,525 591.3,513.34Z" style="fill:rgb(63,61,86);fill-rule:nonzero;"/>
    </g>
    <g transform="matrix(1,0,0,1,-7.95,-78.25)">
        <path d="M584.16,617.78C584.99,613.78 585.81,609.41 584.35,605.54C581.63,598.32 572.74,596.07 566.59,591.42C563.027,588.715 560.29,585.067 558.69,580.89C557.57,577.96 557.42,573.89 560.17,572.41C561.24,571.91 562.424,571.703 563.6,571.81C573.18,572.03 581.96,577.24 589.31,583.4C593.58,586.99 597.64,591.1 599.77,596.25C601.28,599.9 601.77,603.88 602.2,607.8L603.7,620.8C604.691,628.252 605.268,635.754 605.43,643.27C605.44,647.58 605.17,651.886 604.62,656.16C604.24,659.16 603.62,662.32 601.89,664.81C598.57,669.44 592.19,670.48 586.49,670.64C584.338,670.764 582.179,670.627 580.06,670.23C570.59,668.17 563.41,654.91 570.57,646.72C573.57,643.24 578.19,643.15 579.92,638.38C582.24,632.06 582.8,624.41 584.16,617.78Z" style="fill:rgb(255,193,199);fill-rule:nonzero;"/>
    </g>
    <g transform="matrix(1,0,0,1,-7.95,-78.25)">
        <path d="M576.47,620.06L583.94,632.27C584.386,632.903 584.696,633.621 584.85,634.38C585.06,635.97 583.85,637.38 582.93,638.67C576.49,647.47 578.13,659.57 580.07,670.3C559.134,663.661 543.768,645.566 540.61,623.83C539.67,617.44 538.15,606.92 543.82,602.76C557.48,592.74 570.06,609.6 576.47,620.06Z" style="fill:rgb(94,218,18);fill-rule:nonzero;"/>
    </g>
    <g transform="matrix(1,0,0,1,-7.95,-78.25)">
        <path d="M614.43,595.59C611.51,595.11 608.43,595.59 605.69,594.33C600.93,592.14 599.84,585.98 599.37,580.76C599.37,580.28 599.3,579.76 599.28,579.19C600.985,577.434 602.834,575.825 604.81,574.38C606.593,573.338 608.488,572.503 610.46,571.89L615.74,570.03C616.225,571.433 616.606,572.871 616.88,574.33C617.47,577.83 616.98,581.49 617.88,584.93C618.67,588.06 620.52,590.8 622.34,593.46L630.12,604.83C628.71,604.5 627.31,604.12 625.92,603.72C623.23,599.64 619.2,596.36 614.43,595.59Z" style="fill:rgb(63,61,86);fill-rule:nonzero;"/>
    </g>
    <g transform="matrix(1,0,0,1,-7.95,-78.25)">
        <path d="M114.84,794.92C117.84,789.41 114.44,782.65 110.55,777.74C106.66,772.83 101.94,767.74 102.04,761.45C102.19,752.45 111.74,747.14 119.37,742.36C125.036,738.823 130.259,734.624 134.93,729.85C136.888,728.015 138.506,725.848 139.71,723.45C141.29,719.93 141.25,715.93 141.15,712.08C140.81,699.24 140.173,686.41 139.24,673.59" style="fill:none;fill-rule:nonzero;stroke:rgb(63,61,86);stroke-width:4px;"/>
    </g>
    <g transform="matrix(1,0,0,1,-7.95,-78.25)">
        <path d="M153.75,672.89C153.534,668.118 150.89,663.774 146.75,661.39L143.61,667.61L143.71,660.08C142.208,659.64 140.644,659.451 139.08,659.52C131.67,659.887 125.773,666.084 125.773,673.503C125.773,681.183 132.093,687.503 139.773,687.503C147.454,687.503 153.773,681.183 153.773,673.503C153.773,673.298 153.769,673.094 153.76,672.89L153.75,672.89Z" style="fill:rgb(94,218,18);fill-rule:nonzero;"/>
    </g>
    <g transform="matrix(1,0,0,1,-7.95,-78.25)">
        <path d="M128.72,767.88C126.321,772.529 121.51,775.461 116.278,775.461C108.598,775.461 102.278,769.141 102.278,761.461C102.278,753.781 108.598,747.461 116.278,747.461C122.114,747.461 127.365,751.11 129.4,756.58L120.63,763.71L130.28,761.48C130.276,763.707 129.742,765.901 128.72,767.88Z" style="fill:rgb(94,218,18);fill-rule:nonzero;"/>
    </g>
    <g transform="matrix(1,0,0,1,-7.95,-78.25)">
        <path d="M121.79,740.63C121.462,740.653 121.133,740.665 120.804,740.665C113.123,740.665 106.804,734.345 106.804,726.665C106.804,720.288 111.161,714.678 117.34,713.1L117.26,718.88L120.44,712.59C120.68,712.578 120.921,712.571 121.162,712.571C128.626,712.571 134.845,718.542 135.15,726C135.232,727.619 135.029,729.241 134.55,730.79C132.804,736.421 127.68,740.372 121.79,740.63Z" style="fill:rgb(94,218,18);fill-rule:nonzero;"/>
    </g>
    <g transform="matrix(1,0,0,1,-7.95,-78.25)">
        <path d="M155.86,718C155.689,718.006 155.517,718.009 155.346,718.009C147.666,718.009 141.346,711.69 141.346,704.009C141.346,696.329 147.666,690.009 155.346,690.009C157.696,690.009 160.009,690.601 162.07,691.73L159.59,698.53L164.69,693.63C167.422,696.132 169.052,699.619 169.22,703.32C169.287,704.62 169.169,705.923 168.87,707.19C167.451,713.284 162.11,717.721 155.86,718Z" style="fill:rgb(94,218,18);fill-rule:nonzero;"/>
    </g>
    <g transform="matrix(1,0,0,1,-7.95,-78.25)">
        <path d="M151.86,676.63C148.62,676.98 145.47,677.99 142.22,678.19C138.97,678.39 135.4,677.62 133.34,675.09C132.24,673.73 131.68,672.01 130.75,670.52C129.862,669.136 128.646,667.992 127.21,667.19C126.308,669.076 125.839,671.141 125.839,673.232C125.839,680.912 132.159,687.232 139.839,687.232C146.287,687.232 151.94,682.778 153.45,676.51C152.917,676.53 152.387,676.57 151.86,676.63Z" style="fill-opacity:0.1;fill-rule:nonzero;"/>
    </g>
    <g transform="matrix(1,0,0,1,-7.95,-78.25)">
        <path d="M155.86,718C155.624,718.012 155.387,718.018 155.151,718.018C147.47,718.018 141.151,711.698 141.151,704.018C141.151,701.936 141.615,699.88 142.51,698C143.624,698.749 144.581,699.706 145.33,700.82C146.33,702.33 146.94,704.08 148.11,705.46C150.3,708.03 154.03,708.87 157.42,708.72C160.81,708.57 164.08,707.6 167.42,707.29C167.89,707.29 168.36,707.22 168.84,707.21C167.416,713.286 162.094,717.71 155.86,718Z" style="fill-opacity:0.1;fill-rule:nonzero;"/>
    </g>
    <g transform="matrix(1,0,0,1,-7.95,-78.25)">
        <path d="M121.79,740.63C121.554,740.642 121.318,740.648 121.082,740.648C113.402,740.648 107.082,734.328 107.082,726.648C107.082,724.655 107.508,722.685 108.33,720.87C109.494,721.63 110.511,722.596 111.33,723.72C112.42,725.26 113.1,727.04 114.33,728.46C116.7,731.09 120.68,732.02 124.26,731.94C127.84,731.86 131.09,731.01 134.54,730.74C132.812,736.387 127.689,740.361 121.79,740.63Z" style="fill-opacity:0.1;fill-rule:nonzero;"/>
    </g>
    <g transform="matrix(1,0,0,1,-7.95,-78.25)">
        <path d="M128.72,767.88C126.467,772.916 121.442,776.172 115.925,776.172C108.235,776.172 101.908,769.845 101.908,762.155C101.908,760.182 102.324,758.231 103.13,756.43C104.288,757.187 105.327,758.114 106.21,759.18C107.55,760.8 108.43,762.65 109.97,764.18C112.84,767 117.47,768.18 121.6,768.27C123.979,768.281 126.356,768.151 128.72,767.88Z" style="fill-opacity:0.1;fill-rule:nonzero;"/>
    </g>
    <g transform="matrix(1,0,0,1,-7.95,-78.25)">
        <path d="M93.67,788.57C93.67,788.57 104.75,788.23 108.09,785.85C111.43,783.47 125.09,780.64 125.95,784.45C126.81,788.26 142.6,803.45 130.1,803.51C117.6,803.57 101.04,801.57 97.7,799.51C94.36,797.45 93.67,788.57 93.67,788.57Z" style="fill:rgb(101,99,128);fill-rule:nonzero;"/>
    </g>
    <g transform="matrix(1,0,0,1,-7.95,-78.25)">
        <path d="M130.32,802.19C117.81,802.29 101.26,800.19 97.93,798.19C95.39,796.64 94.38,791.1 94.04,788.54L93.67,788.54C93.67,788.54 94.37,797.48 97.67,799.54C100.97,801.6 117.56,803.61 130.07,803.54C133.68,803.54 134.92,802.23 134.85,800.33C134.38,801.45 133,802.16 130.32,802.19Z" style="fill-opacity:0.2;fill-rule:nonzero;"/>
    </g>
    <g transform="matrix(1,0,0,1,-7.95,-78.25)">
        <path d="M1040.59,781.3C1045.88,771.5 1039.88,759.49 1032.97,750.74C1026.06,741.99 1017.65,732.9 1017.83,721.74C1018.09,705.74 1035.08,696.27 1048.65,687.79C1058.73,681.493 1068.02,674.021 1076.33,665.53C1079.67,662.13 1082.89,658.53 1084.84,654.15C1087.65,647.89 1087.57,640.77 1087.39,633.91C1086.8,611.07 1085.67,588.25 1084,565.45" style="fill:none;fill-rule:nonzero;stroke:rgb(63,61,86);stroke-width:4px;"/>
    </g>
    <g transform="matrix(1,0,0,1,-7.95,-78.25)">
        <path d="M1109.81,564.23C1109.42,555.739 1104.71,548.013 1097.35,543.77L1091.76,554.83L1091.93,541.44C1089.63,540.759 1087.24,540.413 1084.84,540.413C1071.12,540.413 1059.84,551.698 1059.84,565.413C1059.84,579.128 1071.12,590.413 1084.84,590.413C1098.55,590.413 1109.84,579.128 1109.84,565.413C1109.84,565.018 1109.83,564.624 1109.81,564.23Z" style="fill:rgb(94,218,18);fill-rule:nonzero;"/>
    </g>
    <g transform="matrix(1,0,0,1,-7.95,-78.25)">
        <path d="M1065.29,733.21C1061.02,741.539 1052.41,746.796 1043.05,746.796C1029.33,746.796 1018.05,735.511 1018.05,721.796C1018.05,708.082 1029.33,696.796 1043.05,696.796C1053.48,696.796 1062.87,703.327 1066.49,713.11L1050.9,725.8L1068.05,721.8C1068.06,725.769 1067.11,729.683 1065.29,733.21Z" style="fill:rgb(94,218,18);fill-rule:nonzero;"/>
    </g>
    <g transform="matrix(1,0,0,1,-7.95,-78.25)">
        <path d="M1053,684.73C1052.67,684.743 1052.34,684.749 1052.01,684.749C1038.3,684.749 1027.01,673.464 1027.01,659.749C1027.01,648.645 1034.41,638.809 1045.08,635.73L1044.95,646.02L1050.6,634.83L1050.67,634.83C1051.48,634.75 1052.3,634.71 1053.11,634.71C1066.83,634.71 1078.11,645.996 1078.11,659.71C1078.11,673.425 1066.83,684.71 1053.11,684.71C1053.08,684.71 1053.04,684.71 1053,684.71L1053,684.73Z" style="fill:rgb(94,218,18);fill-rule:nonzero;"/>
    </g>
    <g transform="matrix(1,0,0,1,-7.95,-78.25)">
        <path d="M1113.57,644.4C1113.13,644.423 1112.69,644.435 1112.25,644.435C1098.54,644.435 1087.25,633.149 1087.25,619.435C1087.25,605.72 1098.54,594.435 1112.25,594.435C1116.57,594.435 1120.81,595.553 1124.57,597.68L1120.16,609.77L1129.24,601.06C1134.11,605.503 1137.01,611.706 1137.31,618.29C1137.42,620.602 1137.21,622.918 1136.67,625.17C1134.12,635.978 1124.66,643.853 1113.57,644.4Z" style="fill:rgb(94,218,18);fill-rule:nonzero;"/>
    </g>
    <g transform="matrix(1,0,0,1,-7.95,-78.25)">
        <path d="M1106.45,570.88C1100.69,571.51 1095.09,573.3 1089.3,573.66C1083.51,574.02 1077.17,572.66 1073.51,568.14C1071.51,565.72 1070.51,562.66 1068.89,560.01C1067.32,557.553 1065.16,555.522 1062.61,554.1C1060.76,557.661 1059.79,561.615 1059.79,565.627C1059.79,579.342 1071.08,590.627 1084.79,590.627C1096.61,590.627 1106.9,582.246 1109.28,570.67C1108.33,570.71 1107.39,570.78 1106.45,570.88Z" style="fill-opacity:0.1;fill-rule:nonzero;"/>
    </g>
    <g transform="matrix(1,0,0,1,-7.95,-78.25)">
        <path d="M1113.57,644.4C1113.19,644.417 1112.82,644.425 1112.44,644.425C1098.73,644.425 1087.44,633.14 1087.44,619.425C1087.44,615.749 1088.26,612.117 1089.82,608.79C1091.79,610.119 1093.49,611.817 1094.82,613.79C1096.6,616.48 1097.67,619.58 1099.82,622.04C1103.7,626.62 1110.35,628.11 1116.37,627.84C1122.39,627.57 1128.21,625.84 1134.22,625.3C1135.05,625.23 1135.89,625.17 1136.73,625.15C1134.18,635.986 1124.69,643.876 1113.57,644.4Z" style="fill-opacity:0.1;fill-rule:nonzero;"/>
    </g>
    <g transform="matrix(1,0,0,1,-7.95,-78.25)">
        <path d="M1053,684.73C1052.61,684.748 1052.22,684.757 1051.84,684.757C1038.12,684.757 1026.84,673.472 1026.84,659.757C1026.84,656.251 1027.57,652.783 1029,649.58C1031.05,650.939 1032.84,652.66 1034.27,654.66C1036.21,657.4 1037.42,660.55 1039.69,663.07C1043.91,667.76 1050.99,669.42 1057.37,669.27C1063.55,669.13 1069.5,667.61 1075.65,667.14C1072.56,677.158 1063.47,684.212 1053,684.73Z" style="fill-opacity:0.1;fill-rule:nonzero;"/>
    </g>
    <g transform="matrix(1,0,0,1,-7.95,-78.25)">
        <path d="M1065.29,733.21C1060.94,741.309 1052.46,746.38 1043.27,746.38C1029.55,746.38 1018.27,735.095 1018.27,721.38C1018.27,718.467 1018.77,715.577 1019.77,712.84C1021.83,714.188 1023.67,715.833 1025.25,717.72C1027.62,720.62 1029.19,723.9 1031.93,726.6C1037.04,731.6 1045.28,733.67 1052.61,733.86C1056.85,733.891 1061.08,733.674 1065.29,733.21Z" style="fill-opacity:0.1;fill-rule:nonzero;"/>
    </g>
    <g transform="matrix(1,0,0,1,-7.95,-78.25)">
        <path d="M1002.94,770C1002.94,770 1022.64,769.39 1028.58,765.16C1034.52,760.93 1058.89,755.88 1060.37,762.66C1061.85,769.44 1089.98,796.4 1067.73,796.57C1045.48,796.74 1016.04,793.11 1010.11,789.5C1004.18,785.89 1002.94,770 1002.94,770Z" style="fill:rgb(101,99,128);fill-rule:nonzero;"/>
    </g>
    <g transform="matrix(1,0,0,1,-7.95,-78.25)">
        <path d="M1068.13,794.23C1045.88,794.41 1016.44,790.77 1010.51,787.16C1006,784.41 1004.2,774.54 1003.59,769.99L1002.94,769.99C1002.94,769.99 1004.18,785.88 1010.11,789.49C1016.04,793.1 1045.49,796.74 1067.73,796.56C1074.16,796.51 1076.37,794.23 1076.25,790.84C1075.36,792.92 1072.91,794.2 1068.13,794.23Z" style="fill-opacity:0.2;fill-rule:nonzero;"/>
    </g>
</svg>
