<?xml version="1.0" encoding="UTF-8" standalone="no"?>
<!DOCTYPE svg PUBLIC "-//W3C//DTD SVG 1.1//EN" "http://www.w3.org/Graphics/SVG/1.1/DTD/svg11.dtd">
<svg width="100%" height="100%" viewBox="0 0 782 757" version="1.1" xmlns="http://www.w3.org/2000/svg" xmlns:xlink="http://www.w3.org/1999/xlink" xml:space="preserve" xmlns:serif="http://www.serif.com/" style="fill-rule:evenodd;clip-rule:evenodd;stroke-miterlimit:10;">
    <g opacity="0.5">
        <circle cx="116.72" cy="122.09" r="115.89" style="fill:url(#_Linear1);"/>
    </g>
    <circle cx="116.72" cy="121.46" r="113.44" style="fill:rgb(245,245,245);"/>
    <g transform="matrix(1,0,0,1,-209.28,-71.78)">
        <path d="M326.32,307C348.485,307.036 370.178,300.545 388.68,288.34C384.5,265.5 368.59,264.19 368.59,264.19L280.88,264.19C280.88,264.19 265.88,265.42 261.18,286.44C280.247,299.852 303.008,307.036 326.32,307Z" style="fill:rgb(94,218,18);fill-rule:nonzero;"/>
    </g>
    <circle cx="115.85" cy="118.96" r="50.29" style="fill:rgb(51,51,51);"/>
    <path d="M98.18,164.57L133.27,164.57L133.27,192.64C133.27,202.262 125.352,210.18 115.73,210.18C106.108,210.18 98.19,202.262 98.19,192.64L98.19,164.57L98.18,164.57Z" style="fill-opacity:0.1;fill-rule:nonzero;"/>
    <path d="M101.53,163.27L129.92,163.27C131.758,163.27 133.27,164.782 133.27,166.62L133.27,191.34C133.27,200.962 125.352,208.88 115.73,208.88C106.108,208.88 98.19,200.962 98.19,191.34L98.19,166.62C98.19,164.786 99.696,163.275 101.53,163.27Z" style="fill:rgb(190,124,94);fill-rule:nonzero;"/>
    <g transform="matrix(1,0,0,1,-209.28,-71.78)">
        <path d="M307.53,249.6C318.836,253.826 331.29,253.861 342.62,249.7L342.62,245.39L307.53,245.39L307.53,249.6Z" style="fill-opacity:0.1;fill-rule:nonzero;"/>
    </g>
    <circle cx="115.85" cy="129.88" r="50.29" style="fill:rgb(190,124,94);"/>
    <g transform="matrix(1,0,0,1,-209.28,-71.78)">
        <path d="M294.66,180.92C295.25,178.75 295.99,176.36 297.94,175.23C299.48,174.33 301.39,174.47 303.17,174.56C317.07,175.32 330.85,172.15 344.37,168.84C352.1,166.95 360.37,164.65 365.37,158.42C370.37,152.19 363.85,132.61 356.24,130.3C351.24,128.77 345.44,131.62 340.7,129.38C338.59,128.38 337.04,126.51 335.22,125.05C331.49,122.05 326.7,120.84 322.06,119.7C316.64,118.36 310.78,117.05 305.63,119.2C301.63,120.86 298.71,124.37 294.92,126.45C287.71,130.45 278.92,128.59 270.66,128.57C267.87,128.57 264.54,129.13 263.43,131.69C262.68,133.43 263.28,135.41 263.36,137.3C263.6,143.3 258.65,147.97 254.5,152.3C250.35,156.63 246.43,162.81 249.05,168.19C250.05,170.24 251.88,171.79 252.92,173.82C254.71,177.34 253.81,181.59 254.46,185.48C255.111,188.432 256.214,191.265 257.73,193.88C260.81,199.88 276.28,232.18 283.39,223.97C286.83,219.97 287.39,208.41 288.78,203.21C290.7,195.737 292.66,188.307 294.66,180.92Z" style="fill:rgb(51,51,51);fill-rule:nonzero;"/>
    </g>
    <ellipse cx="80.07" cy="128.05" rx="4.68" ry="8.77" style="fill:rgb(190,124,94);"/>
    <g opacity="0.5">
        <circle cx="385.08" cy="374.32" r="115.89" style="fill:url(#_Linear2);"/>
    </g>
    <circle cx="385.3" cy="373.58" r="113.44" style="fill:rgb(245,245,245);"/>
    <g transform="matrix(1,0,0,1,-209.28,-71.78)">
        <path d="M594.68,559.25C616.832,559.279 638.509,552.788 657,540.59C652.82,517.75 636.91,516.44 636.91,516.44L549.23,516.44C549.23,516.44 534.23,517.67 529.53,538.69C548.6,552.104 571.365,559.288 594.68,559.25Z" style="fill:rgb(94,218,18);fill-rule:nonzero;"/>
    </g>
    <circle cx="384.2" cy="371.19" r="54.76" style="fill:rgb(245,95,68);"/>
    <path d="M366.53,416.8L401.62,416.8L401.62,444.87C401.62,454.492 393.702,462.41 384.08,462.41C374.458,462.41 366.54,454.492 366.54,444.87L366.54,416.8L366.53,416.8Z" style="fill-opacity:0.1;fill-rule:nonzero;"/>
    <path d="M369.88,415.5L398.27,415.5C400.108,415.5 401.62,417.012 401.62,418.85L401.62,443.57C401.62,453.192 393.702,461.11 384.08,461.11C374.458,461.11 366.54,453.192 366.54,443.57L366.54,418.85C366.54,417.012 368.052,415.5 369.89,415.5L369.88,415.5Z" style="fill:rgb(253,165,125);fill-rule:nonzero;"/>
    <g transform="matrix(1,0,0,1,-209.28,-71.78)">
        <path d="M575.88,501.83C587.186,506.056 599.64,506.091 610.97,501.93L610.97,497.62L575.88,497.62L575.88,501.83Z" style="fill-opacity:0.1;fill-rule:nonzero;"/>
    </g>
    <circle cx="384.2" cy="382.11" r="50.29" style="fill:rgb(253,165,125);"/>
    <circle cx="384.13" cy="315.49" r="20.24" style="fill:rgb(245,95,68);"/>
    <circle cx="384.13" cy="295.56" r="13.29" style="fill:rgb(245,95,68);"/>
    <g transform="matrix(1,0,0,1,-209.28,-71.78)">
        <path d="M584.63,398.37C574.824,393.971 570.144,382.49 574.08,372.49C573.94,372.77 573.8,373.06 573.67,373.35C572.501,375.956 571.897,378.779 571.897,381.635C571.897,392.74 581.035,401.878 592.14,401.878C600.1,401.878 607.352,397.183 610.61,389.92C610.74,389.63 610.86,389.34 610.98,389.04C606.128,398.633 594.437,402.772 584.63,398.37Z" style="fill:rgb(245,95,68);fill-rule:nonzero;"/>
    </g>
    <g transform="matrix(1,0,0,1,-209.28,-71.78)">
        <path d="M557.67,408.15C557.67,408.15 578.86,451.15 638.67,426.15L624.75,404.32L600.08,395.46L557.67,408.15Z" style="fill-opacity:0.1;fill-rule:nonzero;"/>
    </g>
    <g transform="matrix(1,0,0,1,-209.28,-71.78)">
        <path d="M557.67,407.51C557.67,407.51 578.86,450.51 638.67,425.51L624.75,403.68L600.08,394.82L557.67,407.51Z" style="fill:rgb(245,95,68);fill-rule:nonzero;"/>
    </g>
    <g transform="matrix(1,0,0,1,-209.28,-71.78)">
        <path d="M574,391.85C587.04,390.824 600.14,390.824 613.18,391.85C626.22,392.876 584.24,394.54 574,391.85Z" style="fill:rgb(51,51,51);fill-rule:nonzero;"/>
    </g>
    <g transform="matrix(1,0,0,1,-209.28,-71.78)">
        <path d="M596.45,353.24C595.445,353.203 594.438,353.28 593.45,353.47L594.22,353.47C601.341,353.698 607.075,359.618 607.075,366.743C607.075,373.117 602.487,378.636 596.22,379.8C596.26,379.8 596.3,379.801 596.34,379.801C603.625,379.801 609.621,373.805 609.621,366.52C609.621,359.28 603.7,353.305 596.46,353.24L596.45,353.24Z" style="fill:rgb(245,95,68);fill-rule:nonzero;"/>
    </g>
    <ellipse cx="333.9" cy="382.06" rx="4.68" ry="8.77" style="fill:rgb(253,165,125);"/>
    <ellipse cx="434.49" cy="382.06" rx="4.68" ry="8.77" style="fill:rgb(253,165,125);"/>
    <path d="M345.22,337L355.03,331.94L357.24,340.05L351.23,344.14L345.22,337Z" style="fill:rgb(245,95,68);fill-rule:nonzero;"/>
    <g opacity="0.5">
        <circle cx="384.97" cy="116.4" r="115.89" style="fill:url(#_Linear3);"/>
    </g>
    <circle cx="384.97" cy="115.77" r="113.44" style="fill:rgb(245,245,245);"/>
    <g transform="matrix(1,0,0,1,-209.28,-71.78)">
        <path d="M550,188.56C550,188.56 537.14,251.92 530.12,248.41C530.12,248.41 597.82,306.89 657.6,248.41C657.6,248.41 647.07,203.76 631.87,188.56L550,188.56Z" style="fill:rgb(51,51,51);fill-rule:nonzero;"/>
    </g>
    <g transform="matrix(1,0,0,1,-209.28,-71.78)">
        <path d="M594.57,301.33C616.735,301.366 638.428,294.875 656.93,282.67C652.75,259.83 636.84,258.52 636.84,258.52L549.12,258.52C549.12,258.52 534.12,259.75 529.42,280.77C548.49,294.184 571.255,301.368 594.57,301.33Z" style="fill:rgb(94,218,18);fill-rule:nonzero;"/>
    </g>
    <circle cx="384.09" cy="113.27" r="50.29" style="fill:rgb(51,51,51);"/>
    <path d="M366.42,158.88L401.51,158.88L401.51,186.95C401.51,196.561 393.611,204.474 384,204.49C374.378,204.49 366.46,196.572 366.46,186.95L366.46,158.88L366.42,158.88Z" style="fill-opacity:0.1;fill-rule:nonzero;"/>
    <path d="M369.77,157.58L398.16,157.58C399.998,157.58 401.51,159.092 401.51,160.93L401.51,185.65C401.51,195.261 393.611,203.174 384,203.19C374.378,203.19 366.46,195.272 366.46,185.65L366.46,160.92C366.465,159.101 367.951,157.602 369.77,157.58Z" style="fill:rgb(190,124,94);fill-rule:nonzero;"/>
    <g transform="matrix(1,0,0,1,-209.28,-71.78)">
        <path d="M575.77,243.91C587.076,248.136 599.53,248.171 610.86,244.01L610.86,239.7L575.77,239.7L575.77,243.91Z" style="fill-opacity:0.1;fill-rule:nonzero;"/>
    </g>
    <circle cx="384.09" cy="124.18" r="50.29" style="fill:rgb(190,124,94);"/>
    <g transform="matrix(1,0,0,1,-209.28,-71.78)">
        <path d="M545.3,176.86L641.2,176.86C641.2,176.86 633.01,138.14 596.76,140.61C560.51,143.08 545.3,176.86 545.3,176.86Z" style="fill:rgb(51,51,51);fill-rule:nonzero;"/>
    </g>
    <ellipse cx="334.84" cy="122.04" rx="4.68" ry="8.77" style="fill:rgb(190,124,94);"/>
    <ellipse cx="433.08" cy="122.04" rx="4.68" ry="8.77" style="fill:rgb(190,124,94);"/>
    <g transform="matrix(1,0,0,1,-209.28,-71.78)">
        <path d="M545.3,178.16L641.2,178.16C641.2,178.16 633.01,139.44 596.76,141.91C560.51,144.38 545.3,178.16 545.3,178.16Z" style="fill-opacity:0.1;fill-rule:nonzero;"/>
    </g>
    <g opacity="0.5">
        <circle cx="661.23" cy="115.89" r="115.89" style="fill:url(#_Linear4);"/>
    </g>
    <circle cx="661.45" cy="115.14" r="113.44" style="fill:rgb(245,245,245);"/>
    <g transform="matrix(1,0,0,1,-209.28,-71.78)">
        <path d="M870.83,300.82C892.995,300.856 914.688,294.365 933.19,282.16C929,259.31 913.1,258 913.1,258L825.39,258C825.39,258 810.39,259.23 805.69,280.25C824.756,293.666 847.517,300.853 870.83,300.82Z" style="fill:rgb(94,218,18);fill-rule:nonzero;"/>
    </g>
    <circle cx="660.36" cy="112.75" r="54.76" style="fill:rgb(114,53,28);"/>
    <path d="M642.68,158.36L677.77,158.36L677.77,186.43C677.77,186.44 677.77,186.45 677.77,186.46C677.77,196.082 669.852,204 660.23,204C660.23,204 660.23,204 660.23,204C650.608,204 642.69,196.082 642.69,186.46L642.69,158.36L642.68,158.36Z" style="fill-opacity:0.1;fill-rule:nonzero;"/>
    <path d="M646,157.06L674.39,157.06C676.228,157.06 677.74,158.572 677.74,160.41L677.74,185.13C677.74,194.752 669.822,202.67 660.2,202.67C650.578,202.67 642.66,194.752 642.66,185.13L642.66,160.41C642.66,158.572 644.172,157.06 646.01,157.06L646,157.06Z" style="fill:rgb(253,165,125);fill-rule:nonzero;"/>
    <g transform="matrix(1,0,0,1,-209.28,-71.78)">
        <path d="M852,243.39C863.306,247.616 875.76,247.651 887.09,243.49L887.09,239.18L852,239.18L852,243.39Z" style="fill-opacity:0.1;fill-rule:nonzero;"/>
    </g>
    <circle cx="660.36" cy="123.67" r="50.29" style="fill:rgb(253,165,125);"/>
    <g transform="matrix(1,0,0,1,-209.28,-71.78)">
        <path d="M833.82,149.71C833.82,149.71 855.01,192.71 914.82,167.71L900.9,145.88L876.23,137.02L833.82,149.71Z" style="fill-opacity:0.1;fill-rule:nonzero;"/>
    </g>
    <g transform="matrix(1,0,0,1,-209.28,-71.78)">
        <path d="M833.82,149.08C833.82,149.08 855.01,192.08 914.82,167.08L900.9,145.25L876.23,136.39L833.82,149.08Z" style="fill:rgb(114,53,28);fill-rule:nonzero;"/>
    </g>
    <g transform="matrix(1,0,0,1,-209.28,-71.78)">
        <path d="M833.63,146.17C835.059,141.747 837.528,137.731 840.83,134.46C850.72,124.68 866.94,122.62 875.26,111.46C875.823,112.445 876.12,113.559 876.12,114.694C876.12,117.259 874.603,119.596 872.26,120.64C880.26,120.59 889.47,119.89 893.97,113.33C896.239,118.612 895.26,124.756 891.46,129.07C898.52,129.39 906.06,134.18 906.52,141.24C906.82,145.94 903.88,150.39 900.01,153.09C896.14,155.79 891.48,157 886.88,158C873.46,161 824.87,173.41 833.63,146.17Z" style="fill:rgb(114,53,28);fill-rule:nonzero;"/>
    </g>
    <g transform="matrix(1,0,0,1,-209.28,-71.78)">
        <path d="M919.93,195.89L918.6,195.89L892.66,219C867.66,207.3 849.32,219 849.32,219L822.12,196.86L819.38,197.2C820.14,224.244 842.595,246.077 869.65,246.077C897.192,246.077 919.873,223.452 919.94,195.91L919.93,195.89ZM869.57,227.84C859.79,227.84 851.86,225.84 851.86,223.41C851.86,220.98 859.79,218.98 869.57,218.98C879.35,218.98 887.28,220.98 887.28,223.41C887.28,225.84 879.35,227.84 869.56,227.84L869.57,227.84Z" style="fill:rgb(114,53,28);fill-rule:nonzero;"/>
    </g>
    <ellipse cx="610.05" cy="123.62" rx="4.68" ry="8.77" style="fill:rgb(253,165,125);"/>
    <ellipse cx="710.64" cy="123.62" rx="4.68" ry="8.77" style="fill:rgb(253,165,125);"/>
    <g opacity="0.5">
        <circle cx="115.89" cy="366.73" r="115.89" style="fill:url(#_Linear5);"/>
    </g>
    <circle cx="116.11" cy="365.99" r="113.44" style="fill:rgb(245,245,245);"/>
    <g transform="matrix(1,0,0,1,-209.28,-71.78)">
        <path d="M325.49,551.66C347.652,551.695 369.341,545.203 387.84,533C383.66,510.16 367.75,508.85 367.75,508.85L280,508.85C280,508.85 265,510.08 260.3,531.1C279.381,544.522 302.161,551.706 325.49,551.66Z" style="fill:rgb(94,218,18);fill-rule:nonzero;"/>
    </g>
    <circle cx="115.01" cy="363.6" r="54.76" style="fill:rgb(51,51,51);"/>
    <path d="M97.34,409.21L132.43,409.21L132.43,437.28C132.43,446.902 124.512,454.82 114.89,454.82C105.268,454.82 97.35,446.902 97.35,437.28L97.35,409.21L97.34,409.21Z" style="fill-opacity:0.1;fill-rule:nonzero;"/>
    <path d="M100.69,407.91L129.08,407.91C130.918,407.91 132.43,409.422 132.43,411.26L132.43,436C132.43,445.622 124.512,453.54 114.89,453.54C114.887,453.54 114.883,453.54 114.88,453.54C105.258,453.54 97.34,445.622 97.34,436L97.34,411.25C97.34,409.412 98.852,407.9 100.69,407.9L100.69,407.91Z" style="fill:rgb(253,183,151);fill-rule:nonzero;"/>
    <g transform="matrix(1,0,0,1,-209.28,-71.78)">
        <path d="M306.69,494.24C317.996,498.466 330.45,498.501 341.78,494.34L341.78,490L306.69,490L306.69,494.24Z" style="fill-opacity:0.1;fill-rule:nonzero;"/>
    </g>
    <circle cx="115.01" cy="374.52" r="50.29" style="fill:rgb(253,183,151);"/>
    <g transform="matrix(1,0,0,1,-209.28,-71.78)">
        <path d="M288.48,400.55C288.48,400.55 309.67,443.55 369.48,418.55L355.56,396.72L330.89,387.86L288.48,400.55Z" style="fill-opacity:0.1;fill-rule:nonzero;"/>
    </g>
    <g transform="matrix(1,0,0,1,-209.28,-71.78)">
        <path d="M288.48,399.92C288.48,399.92 309.67,442.92 369.48,417.92L355.56,396.09L330.89,387.23L288.48,399.92Z" style="fill:rgb(51,51,51);fill-rule:nonzero;"/>
    </g>
    <g transform="matrix(1,0,0,1,-209.28,-71.78)">
        <path d="M288.29,397C289.719,392.577 292.188,388.561 295.49,385.29C305.38,375.51 321.6,373.45 329.92,362.29C330.483,363.275 330.78,364.389 330.78,365.524C330.78,368.089 329.263,370.426 326.92,371.47C334.92,371.42 344.13,370.72 348.63,364.16C350.899,369.442 349.92,375.586 346.12,379.9C353.18,380.22 360.72,385.01 361.18,392.07C361.48,396.77 358.54,401.22 354.67,403.92C350.8,406.62 346.13,407.85 341.53,408.87C328.11,411.85 279.53,424.26 288.29,397Z" style="fill:rgb(51,51,51);fill-rule:nonzero;"/>
    </g>
    <ellipse cx="64.7" cy="374.47" rx="4.68" ry="8.77" style="fill:rgb(253,183,151);"/>
    <ellipse cx="165.29" cy="374.47" rx="4.68" ry="8.77" style="fill:rgb(253,183,151);"/>
    <g opacity="0.5">
        <circle cx="665.55" cy="379.58" r="115.89" style="fill:url(#_Linear6);"/>
    </g>
    <circle cx="665.55" cy="378.95" r="113.44" style="fill:rgb(245,245,245);"/>
    <g transform="matrix(1,0,0,1,-209.28,-71.78)">
        <path d="M875.15,564.51C897.315,564.546 919.008,558.055 937.51,545.85C933.33,523.01 917.42,521.7 917.42,521.7L829.7,521.7C829.7,521.7 814.7,522.93 810,543.95C829.07,557.364 851.835,564.548 875.15,564.51Z" style="fill:rgb(94,218,18);fill-rule:nonzero;"/>
    </g>
    <path d="M647,422.06L682.09,422.06L682.09,450.13C682.09,459.752 674.172,467.67 664.55,467.67C664.547,467.67 664.543,467.67 664.54,467.67C654.918,467.67 647,459.752 647,450.13L647,422.06Z" style="fill-opacity:0.1;fill-rule:nonzero;"/>
    <path d="M650.35,420.76L678.74,420.76C680.578,420.76 682.09,422.272 682.09,424.11L682.09,448.83C682.09,458.452 674.172,466.37 664.55,466.37C664.547,466.37 664.543,466.37 664.54,466.37C654.918,466.37 647,458.452 647,448.83L647,424.11C647,422.272 648.512,420.76 650.35,420.76Z" style="fill:rgb(253,183,151);fill-rule:nonzero;"/>
    <g transform="matrix(1,0,0,1,-209.28,-71.78)">
        <path d="M856.35,507.09C867.656,511.316 880.11,511.351 891.44,507.19L891.44,502.88L856.35,502.88L856.35,507.09Z" style="fill-opacity:0.1;fill-rule:nonzero;"/>
    </g>
    <circle cx="664.67" cy="387.37" r="50.29" style="fill:rgb(253,183,151);"/>
    <ellipse cx="615.42" cy="385.22" rx="4.68" ry="8.77" style="fill:rgb(253,183,151);"/>
    <ellipse cx="713.66" cy="385.22" rx="4.68" ry="8.77" style="fill:rgb(253,183,151);"/>
    <path d="M655.54,391.96C655.54,389.559 653.591,387.61 651.19,387.61L638.38,387.61C635.979,387.61 634.03,389.559 634.03,391.96L634.03,394.02C634.03,396.421 635.979,398.37 638.38,398.37L651.19,398.37C653.591,398.37 655.54,396.421 655.54,394.02L655.54,391.96Z" style="fill:none;stroke:rgb(51,51,51);stroke-width:2px;"/>
    <g transform="matrix(-1,-7.65714e-16,7.65714e-16,-1,1578.42,857.75)">
        <path d="M904.61,463.74C904.61,461.339 902.661,459.39 900.26,459.39L887.45,459.39C885.049,459.39 883.1,461.339 883.1,463.74L883.1,465.8C883.1,468.201 885.049,470.15 887.45,470.15L900.26,470.15C902.661,470.15 904.61,468.201 904.61,465.8L904.61,463.74Z" style="fill:none;stroke:rgb(51,51,51);stroke-width:2px;"/>
    </g>
    <g transform="matrix(1,0,0,1,-209.28,-71.78)">
        <path d="M864,460.43C864,460.43 870.82,456.73 883.5,460.43" style="fill:none;fill-rule:nonzero;stroke:rgb(51,51,51);stroke-width:2px;"/>
    </g>
    <g transform="matrix(1,0,0,1,-209.28,-71.78)">
        <path d="M908.72,422.7L921.06,451.37C921.06,451.37 936.15,432.35 908.72,422.7Z" style="fill:rgb(133,133,133);fill-rule:nonzero;"/>
    </g>
    <path d="M695.32,392.99L713.74,376.54" style="fill:none;fill-rule:nonzero;stroke:rgb(51,51,51);stroke-width:2px;stroke-linecap:round;stroke-linejoin:round;stroke-miterlimit:4;"/>
    <g transform="matrix(1,0,0,1,-209.28,-71.78)">
        <path d="M839.2,422.7L826.86,451.37C826.86,451.37 811.77,432.35 839.2,422.7Z" style="fill:rgb(133,133,133);fill-rule:nonzero;"/>
    </g>
    <path d="M634.03,392.99L615.36,376.54" style="fill:none;fill-rule:nonzero;stroke:rgb(51,51,51);stroke-width:2px;stroke-linecap:round;stroke-linejoin:round;stroke-miterlimit:4;"/>
    <g opacity="0.5">
        <circle cx="116.72" cy="627.26" r="115.89" style="fill:url(#_Linear7);"/>
    </g>
    <circle cx="116.72" cy="626.63" r="113.44" style="fill:rgb(245,245,245);"/>
    <g transform="matrix(1,0,0,1,-209.28,-71.78)">
        <path d="M388.75,708.61C388.75,750.39 361.49,796.9 327.86,796.9C294.23,796.9 267,750.39 267,708.61C267,666.83 294.26,645.61 327.89,645.61C361.52,645.61 388.75,666.84 388.75,708.61Z" style="fill:rgb(253,216,53);fill-rule:nonzero;"/>
    </g>
    <g transform="matrix(1,0,0,1,-209.28,-71.78)">
        <path d="M326.32,812.2C348.485,812.236 370.178,805.745 388.68,793.54C384.5,770.7 368.59,769.39 368.59,769.39L280.88,769.39C280.88,769.39 265.88,770.62 261.18,791.64C280.247,805.052 303.008,812.236 326.32,812.2Z" style="fill:rgb(94,218,18);fill-rule:nonzero;"/>
    </g>
    <path d="M98.18,669.74L133.27,669.74L133.27,697.81C133.27,707.432 125.352,715.35 115.73,715.35C106.108,715.35 98.19,707.432 98.19,697.81L98.19,669.74L98.18,669.74Z" style="fill-opacity:0.1;fill-rule:nonzero;"/>
    <path d="M101.53,668.44L129.92,668.44C131.758,668.44 133.27,669.952 133.27,671.79L133.27,696.51C133.27,706.132 125.352,714.05 115.73,714.05C106.108,714.05 98.19,706.132 98.19,696.51L98.19,671.79C98.19,669.956 99.696,668.445 101.53,668.44Z" style="fill:rgb(253,183,151);fill-rule:nonzero;"/>
    <g transform="matrix(1,0,0,1,-209.28,-71.78)">
        <path d="M307.53,754.77C318.836,758.996 331.29,759.031 342.62,754.87L342.62,750.56L307.53,750.56L307.53,754.77Z" style="fill-opacity:0.1;fill-rule:nonzero;"/>
    </g>
    <circle cx="115.85" cy="635.05" r="50.29" style="fill:rgb(253,183,151);"/>
    <ellipse cx="66.6" cy="632.9" rx="4.68" ry="8.77" style="fill:rgb(253,183,151);"/>
    <ellipse cx="164.84" cy="632.9" rx="4.68" ry="8.77" style="fill:rgb(253,183,151);"/>
    <g transform="matrix(1,0,0,1,-209.28,-71.78)">
        <path d="M280.57,679.55C280.57,679.55 309,718.46 374.2,705.17C374.2,705.17 381.48,696.31 363.76,669.11C346.04,641.91 296.7,646.34 280.57,679.55Z" style="fill-opacity:0.1;fill-rule:nonzero;"/>
    </g>
    <g transform="matrix(1,0,0,1,-209.28,-71.78)">
        <path d="M280.57,678.92C280.57,678.92 309,717.83 374.2,704.54C374.2,704.54 381.48,695.68 363.76,668.48C346.04,641.28 296.7,645.71 280.57,678.92Z" style="fill:rgb(253,216,53);fill-rule:nonzero;"/>
    </g>
    <g opacity="0.5">
        <circle cx="392.03" cy="640.55" r="115.89" style="fill:url(#_Linear8);"/>
    </g>
    <circle cx="392.26" cy="639.81" r="113.44" style="fill:rgb(245,245,245);"/>
    <g transform="matrix(1,0,0,1,-209.28,-71.78)">
        <path d="M663.95,722.77C663.95,760.51 636.84,779.08 601.63,779.08C566.42,779.08 536.47,760.51 536.47,722.77C536.47,685.03 565.01,654.44 600.21,654.44C635.41,654.44 663.95,685 663.95,722.77Z" style="fill:rgb(51,51,51);fill-rule:nonzero;"/>
    </g>
    <g transform="matrix(1,0,0,1,-209.28,-71.78)">
        <path d="M601.63,825.48C623.799,825.518 645.495,819.027 664,806.82C659.82,783.98 643.91,782.67 643.91,782.67L556.19,782.67C556.19,782.67 541.19,783.9 536.49,804.92C555.557,818.332 578.318,825.516 601.63,825.48Z" style="fill:rgb(94,218,18);fill-rule:nonzero;"/>
    </g>
    <path d="M373.46,683L408.58,683L408.58,711.07C408.58,711.08 408.58,711.09 408.58,711.1C408.58,720.722 400.662,728.64 391.04,728.64C391.027,728.64 391.013,728.64 391,728.64C381.378,728.64 373.46,720.722 373.46,711.1L373.46,683Z" style="fill-opacity:0.1;fill-rule:nonzero;"/>
    <path d="M376.83,681.73L405.22,681.73C407.058,681.73 408.57,683.242 408.57,685.08L408.57,709.8C408.57,719.422 400.652,727.34 391.03,727.34C391.02,727.34 391.01,727.34 391,727.34C381.378,727.34 373.46,719.422 373.46,709.8L373.46,685.07C373.46,683.232 374.972,681.72 376.81,681.72L376.83,681.73Z" style="fill:rgb(253,165,125);fill-rule:nonzero;"/>
    <g transform="matrix(1,0,0,1,-209.28,-71.78)">
        <path d="M582.84,768.06C594.146,772.286 606.6,772.321 617.93,768.16L617.93,763.85L582.84,763.85L582.84,768.06Z" style="fill-opacity:0.1;fill-rule:nonzero;"/>
    </g>
    <circle cx="391.16" cy="648.33" r="50.29" style="fill:rgb(253,165,125);"/>
    <g transform="matrix(1,0,0,1,-209.28,-71.78)">
        <path d="M542.48,723.4C542.48,723.4 573.8,719.6 597.48,689.24C597.48,689.24 628.8,723.72 650.62,719.92C650.62,719.92 663.27,706.63 650.62,693.35C637.97,680.07 628.16,663.3 611.4,665.51C594.64,667.72 574.07,668.67 565.22,676.58C556.37,684.49 542.48,723.4 542.48,723.4Z" style="fill-opacity:0.1;fill-rule:nonzero;"/>
    </g>
    <g transform="matrix(1,0,0,1,-209.28,-71.78)">
        <path d="M542.48,722.77C542.48,722.77 573.8,718.97 597.48,688.61C597.48,688.61 628.8,723.09 650.62,719.29C650.62,719.29 663.27,706 650.62,692.72C637.97,679.44 628.16,662.67 611.4,664.88C594.64,667.09 574.11,668 565.26,676C556.41,684 542.48,722.77 542.48,722.77Z" style="fill:rgb(51,51,51);fill-rule:nonzero;"/>
    </g>
    <ellipse cx="340.85" cy="648.29" rx="4.68" ry="8.77" style="fill:rgb(253,165,125);"/>
    <ellipse cx="441.44" cy="648.29" rx="4.68" ry="8.77" style="fill:rgb(253,165,125);"/>
    <defs>
        <linearGradient id="_Linear1" x1="0" y1="0" x2="1" y2="0" gradientUnits="userSpaceOnUse" gradientTransform="matrix(1.41918e-14,-231.77,231.77,1.41918e-14,116.72,237.98)"><stop offset="0" style="stop-color:rgb(128,128,128);stop-opacity:0.25"/><stop offset="0.54" style="stop-color:rgb(128,128,128);stop-opacity:0.12"/><stop offset="1" style="stop-color:rgb(128,128,128);stop-opacity:0.1"/></linearGradient>
        <linearGradient id="_Linear2" x1="0" y1="0" x2="1" y2="0" gradientUnits="userSpaceOnUse" gradientTransform="matrix(3.28938e-12,-53719.7,53719.7,3.28938e-12,89523,113879)"><stop offset="0" style="stop-color:rgb(128,128,128);stop-opacity:0.25"/><stop offset="0.54" style="stop-color:rgb(128,128,128);stop-opacity:0.12"/><stop offset="1" style="stop-color:rgb(128,128,128);stop-opacity:0.1"/></linearGradient>
        <linearGradient id="_Linear3" x1="0" y1="0" x2="1" y2="0" gradientUnits="userSpaceOnUse" gradientTransform="matrix(3.28952e-12,-53722,53722,3.28952e-12,89497.4,53840.7)"><stop offset="0" style="stop-color:rgb(128,128,128);stop-opacity:0.25"/><stop offset="0.54" style="stop-color:rgb(128,128,128);stop-opacity:0.12"/><stop offset="1" style="stop-color:rgb(128,128,128);stop-opacity:0.1"/></linearGradient>
        <linearGradient id="_Linear4" x1="0" y1="0" x2="1" y2="0" gradientUnits="userSpaceOnUse" gradientTransform="matrix(3.28938e-12,-53719.7,53719.7,3.28938e-12,153805,53719.7)"><stop offset="0" style="stop-color:rgb(128,128,128);stop-opacity:0.25"/><stop offset="0.54" style="stop-color:rgb(128,128,128);stop-opacity:0.12"/><stop offset="1" style="stop-color:rgb(128,128,128);stop-opacity:0.1"/></linearGradient>
        <linearGradient id="_Linear5" x1="0" y1="0" x2="1" y2="0" gradientUnits="userSpaceOnUse" gradientTransform="matrix(3.28938e-12,-53719.7,53719.7,3.28938e-12,26861,112113)"><stop offset="0" style="stop-color:rgb(128,128,128);stop-opacity:0.25"/><stop offset="0.54" style="stop-color:rgb(128,128,128);stop-opacity:0.12"/><stop offset="1" style="stop-color:rgb(128,128,128);stop-opacity:0.1"/></linearGradient>
        <linearGradient id="_Linear6" x1="0" y1="0" x2="1" y2="0" gradientUnits="userSpaceOnUse" gradientTransform="matrix(3.28938e-12,-53719.7,53719.7,3.28938e-12,154811,115104)"><stop offset="0" style="stop-color:rgb(128,128,128);stop-opacity:0.25"/><stop offset="0.54" style="stop-color:rgb(128,128,128);stop-opacity:0.12"/><stop offset="1" style="stop-color:rgb(128,128,128);stop-opacity:0.1"/></linearGradient>
        <linearGradient id="_Linear7" x1="0" y1="0" x2="1" y2="0" gradientUnits="userSpaceOnUse" gradientTransform="matrix(3.28938e-12,-53719.7,53719.7,3.28938e-12,27054.2,172759)"><stop offset="0" style="stop-color:rgb(128,128,128);stop-opacity:0.25"/><stop offset="0.54" style="stop-color:rgb(128,128,128);stop-opacity:0.12"/><stop offset="1" style="stop-color:rgb(128,128,128);stop-opacity:0.1"/></linearGradient>
        <linearGradient id="_Linear8" x1="0" y1="0" x2="1" y2="0" gradientUnits="userSpaceOnUse" gradientTransform="matrix(3.28938e-12,-53719.7,53719.7,3.28938e-12,91140.9,175852)"><stop offset="0" style="stop-color:rgb(128,128,128);stop-opacity:0.25"/><stop offset="0.54" style="stop-color:rgb(128,128,128);stop-opacity:0.12"/><stop offset="1" style="stop-color:rgb(128,128,128);stop-opacity:0.1"/></linearGradient>
    </defs>
</svg>
