<svg width="222" height="150" viewBox="0 0 222 150" fill="none" xmlns="http://www.w3.org/2000/svg">
<g clip-path="url(#clip0_1319_3876)">
<path d="M14.9401 113.033C13.8859 113.033 12.8296 113.077 11.798 113.164L11.6478 113.177C4.80529 113.781 -0.199717 117.287 0.00612471 121.333L0.0459187 122.064C0.0721609 122.527 0.100121 123.024 0.123135 123.575C0.1356 123.847 0.507081 124.056 0.969316 124.056H169.28C181.146 123.984 192.97 123.894 204.42 123.787C206.568 123.791 208.714 123.68 210.849 123.454C214.031 123.078 216.24 122.332 217.602 121.174H217.602C219.296 119.738 219.349 117.929 219.247 115.886C219.038 111.761 218.831 107.426 218.625 103.105C218.443 99.2973 218.261 95.4993 218.079 91.8631C217.967 89.7053 217.718 87.8006 215.794 86.3449C213.71 84.7705 209.908 83.9725 204.494 83.9725C204.428 83.9725 204.363 83.9725 204.297 83.9728C187.331 84.0331 170.519 89.8619 162.465 98.477C161.537 99.469 160.673 100.531 159.837 101.558C158.602 103.076 157.325 104.645 155.802 106.048C154.977 106.818 154.085 107.513 153.136 108.124C153.071 108.169 152.996 108.218 152.916 108.264C152.735 108.381 152.546 108.495 152.362 108.596C151.281 109.22 150.142 109.737 148.962 110.141L148.843 110.181C148.753 110.213 148.656 110.245 148.558 110.274C147.877 110.493 147.168 110.682 146.459 110.835C143.388 111.511 139.897 111.673 136.083 111.316C132.579 110.979 129.121 110.275 125.766 109.215C122.233 108.1 118.927 106.709 115.729 105.365C114.325 104.774 112.872 104.163 111.421 103.584C111.148 103.475 110.88 103.369 110.608 103.262C108.836 102.572 107.229 102.002 105.697 101.52C101.899 100.32 97.9684 99.5929 93.9929 99.3541C89.7732 99.1233 86.0547 99.5586 82.9431 100.645C82.0853 100.943 81.25 101.303 80.4438 101.721C76.7583 103.633 74.4863 106.455 72.2894 109.184C69.5564 112.579 66.7303 116.09 61.1499 117.909C54.7106 120.011 45.3115 119.138 38.6616 117.62C36.5709 117.142 34.4828 116.593 32.4633 116.061C31.6477 115.847 30.8315 115.633 30.0147 115.422C28.4096 115.008 27.0961 114.691 25.8808 114.423L25.4964 114.337C25.2826 114.291 25.0686 114.244 24.8507 114.2C23.4072 113.898 22.0631 113.659 20.7394 113.472L20.4262 113.426C19.7984 113.344 19.2114 113.275 18.6354 113.217L18.4054 113.194C17.2773 113.087 16.1097 113.033 14.9401 113.033Z" fill="#F2F2F2"/>
<path d="M188.983 117.548C193.718 113.284 200.763 111.14 206.672 113.531C200.61 116.893 195.935 122.289 193.472 128.764C192.532 131.265 191.746 134.144 189.432 135.483C187.992 136.316 186.201 136.356 184.587 135.954C182.973 135.552 181.493 134.746 180.034 133.948L179.619 133.938C181.483 127.847 184.247 121.812 188.983 117.548Z" fill="#E6E6E6"/>
<path d="M206.639 113.661C201.405 114.336 196.518 116.642 192.671 120.251C191.829 121.013 191.113 121.903 190.548 122.889C190.03 123.866 189.782 124.964 189.832 126.069C189.857 127.101 190.003 128.153 189.777 129.173C189.654 129.693 189.422 130.181 189.096 130.606C188.771 131.03 188.359 131.381 187.889 131.635C186.732 132.299 185.406 132.509 184.102 132.668C182.654 132.846 181.147 133.007 179.894 133.818C179.742 133.917 179.598 133.676 179.75 133.577C181.93 132.166 184.69 132.679 187.034 131.737C188.129 131.297 189.097 130.526 189.439 129.359C189.739 128.339 189.59 127.254 189.555 126.209C189.491 125.132 189.691 124.055 190.14 123.073C190.652 122.062 191.333 121.146 192.153 120.364C193.972 118.573 196.06 117.079 198.343 115.936C200.941 114.618 203.746 113.753 206.636 113.38C206.815 113.357 206.816 113.638 206.639 113.661H206.639Z" fill="white"/>
<path d="M193.842 119.016C193.323 118.289 193.08 117.402 193.156 116.512C193.232 115.623 193.622 114.79 194.257 114.161C194.386 114.034 194.589 114.228 194.46 114.355C193.868 114.939 193.505 115.716 193.436 116.544C193.367 117.373 193.596 118.198 194.083 118.872C194.188 119.019 193.947 119.162 193.842 119.016V119.016Z" fill="white"/>
<path d="M189.75 125.548C191.548 125.867 193.401 125.496 194.938 124.51C195.09 124.413 195.234 124.654 195.082 124.751C193.48 125.774 191.552 126.156 189.681 125.82C189.503 125.788 189.572 125.516 189.75 125.548Z" fill="white"/>
<path d="M200.964 114.99C201.106 115.313 201.326 115.595 201.604 115.813C201.883 116.03 202.211 116.174 202.559 116.234C202.737 116.263 202.667 116.535 202.49 116.506C202.106 116.439 201.744 116.278 201.436 116.039C201.128 115.8 200.883 115.489 200.723 115.133C200.705 115.101 200.7 115.063 200.709 115.028C200.718 114.992 200.74 114.961 200.772 114.941C200.804 114.922 200.842 114.917 200.878 114.926C200.914 114.935 200.945 114.958 200.964 114.99Z" fill="white"/>
<path d="M213.178 134.094C213.066 134.078 212.954 134.063 212.841 134.049C211.333 133.849 209.812 133.772 208.292 133.818C208.174 133.82 208.055 133.824 207.938 133.829C204.277 133.979 200.675 134.807 197.317 136.271C195.981 136.855 194.692 137.539 193.46 138.319C191.759 139.395 190 140.697 188.098 141.136C187.9 141.184 187.699 141.22 187.497 141.243L179.64 134.445C179.629 134.421 179.618 134.398 179.608 134.374L179.281 134.117C179.342 134.072 179.406 134.027 179.467 133.982C179.502 133.956 179.539 133.932 179.574 133.906C179.598 133.889 179.622 133.872 179.643 133.855C179.651 133.85 179.659 133.844 179.665 133.84C179.686 133.824 179.707 133.811 179.726 133.796C180.082 133.543 180.442 133.293 180.803 133.045C180.805 133.043 180.805 133.043 180.808 133.043C183.544 131.125 186.499 129.538 189.61 128.316C189.703 128.28 189.798 128.243 189.895 128.211C191.296 127.691 192.737 127.286 194.204 127C195.008 126.846 195.819 126.733 196.634 126.661C198.741 126.479 200.863 126.629 202.923 127.106C207.03 128.057 210.786 130.31 213.011 133.824C213.068 133.914 213.123 134.002 213.178 134.094Z" fill="#E6E6E6"/>
<path d="M213.074 134.178C208.489 131.57 203.197 130.471 197.951 131.039C196.819 131.141 195.711 131.42 194.667 131.867C193.663 132.335 192.804 133.064 192.177 133.976C191.576 134.815 191.059 135.743 190.264 136.421C189.852 136.762 189.372 137.012 188.857 137.155C188.341 137.299 187.801 137.331 187.272 137.251C185.948 137.086 184.763 136.455 183.626 135.798C182.363 135.069 181.063 134.291 179.573 134.185C179.392 134.172 179.423 133.893 179.603 133.906C182.195 134.09 184.089 136.16 186.529 136.819C187.667 137.126 188.905 137.092 189.882 136.366C190.736 135.732 191.271 134.776 191.872 133.921C192.47 133.022 193.279 132.283 194.229 131.769C195.247 131.27 196.343 130.948 197.469 130.817C200 130.481 202.568 130.544 205.08 131.005C207.948 131.515 210.709 132.512 213.241 133.952C213.398 134.042 213.23 134.267 213.074 134.178V134.178Z" fill="white"/>
<path d="M199.629 130.756C199.654 129.864 199.994 129.009 200.591 128.345C201.188 127.681 202.001 127.25 202.887 127.129C203.066 127.106 203.111 127.383 202.932 127.407C202.107 127.517 201.349 127.919 200.795 128.538C200.241 129.158 199.926 129.956 199.909 130.787C199.905 130.967 199.625 130.936 199.629 130.756V130.756Z" fill="white"/>
<path d="M192.426 133.51C193.67 134.846 195.373 135.665 197.194 135.802C197.374 135.816 197.344 136.095 197.164 136.082C195.269 135.935 193.499 135.08 192.207 133.686C192.084 133.554 192.304 133.378 192.426 133.51H192.426Z" fill="white"/>
<path d="M207.743 131.826C207.661 132.169 207.667 132.527 207.758 132.868C207.849 133.209 208.024 133.522 208.266 133.778C208.391 133.91 208.171 134.085 208.048 133.954C207.781 133.669 207.589 133.324 207.487 132.948C207.385 132.571 207.377 132.176 207.463 131.796C207.469 131.759 207.487 131.726 207.516 131.703C207.545 131.68 207.581 131.668 207.618 131.671C207.655 131.675 207.689 131.694 207.712 131.723C207.736 131.752 207.747 131.789 207.743 131.826Z" fill="white"/>
<path d="M65.0059 121.789C68.8839 115.912 75.821 111.661 82.8065 112.576C77.26 117.857 73.7618 124.927 72.9308 132.537C72.6209 135.473 72.5823 138.77 70.4805 140.845C69.1727 142.136 67.2684 142.678 65.43 142.696C63.5915 142.715 61.7845 142.264 60.0015 141.816L59.5548 141.921C59.8524 134.889 61.128 127.666 65.0059 121.789Z" fill="#E6E6E6"/>
<path d="M82.8072 112.723C77.3982 114.901 72.8133 118.726 69.7039 123.654C69.0156 124.704 68.4972 125.855 68.1677 127.065C67.8849 128.255 67.926 129.498 68.2869 130.667C68.6014 131.763 69.0502 132.847 69.0926 134.001C69.1056 134.592 68.9934 135.178 68.7634 135.723C68.5335 136.267 68.1909 136.757 67.7583 137.159C66.7064 138.191 65.3462 138.784 63.9959 139.317C62.4967 139.909 60.93 140.5 59.8155 141.717C59.6804 141.864 59.4594 141.646 59.5943 141.499C61.5335 139.383 64.6278 139.165 66.8732 137.506C67.921 136.731 68.7416 135.637 68.7832 134.294C68.8195 133.119 68.3577 132 68.0296 130.893C67.6609 129.759 67.5758 128.551 67.7818 127.376C68.0485 126.153 68.5217 124.984 69.181 123.919C70.6271 121.498 72.4452 119.32 74.5686 117.463C76.9803 115.331 79.7393 113.627 82.7262 112.424C82.9111 112.35 82.9909 112.65 82.8072 112.723L82.8072 112.723Z" fill="white"/>
<path d="M70.6116 122.009C69.8547 121.375 69.3478 120.493 69.1815 119.521C69.0152 118.549 69.2003 117.549 69.7037 116.7C69.8062 116.529 70.0775 116.68 69.9749 116.851C69.5047 117.641 69.3324 118.572 69.4891 119.477C69.6458 120.382 70.1212 121.202 70.8295 121.788C70.9833 121.915 70.7645 122.135 70.6116 122.009Z" fill="white"/>
<path d="M68.0541 130.132C70.0661 129.972 71.9441 129.061 73.3136 127.58C73.4492 127.433 73.6702 127.651 73.5348 127.798C72.1068 129.336 70.1505 130.281 68.0563 130.442C67.8567 130.457 67.8555 130.147 68.054 130.132H68.0541Z" fill="white"/>
<path d="M77.1081 115.722C77.3499 116.028 77.6639 116.269 78.022 116.424C78.3802 116.579 78.7712 116.643 79.16 116.609C79.3593 116.591 79.3603 116.902 79.1623 116.919C78.7326 116.954 78.3008 116.884 77.9047 116.713C77.5087 116.543 77.1603 116.279 76.8902 115.943C76.8621 115.913 76.8463 115.874 76.846 115.834C76.8457 115.793 76.8609 115.754 76.8886 115.724C76.9176 115.694 76.9569 115.678 76.998 115.678C77.0391 115.677 77.0787 115.693 77.1081 115.722H77.1081Z" fill="white"/>
<path d="M95.4911 132.76C95.3669 132.774 95.2428 132.789 95.1173 132.806C93.4493 133.011 91.8007 133.351 90.1879 133.823C90.0626 133.858 89.9361 133.895 89.8121 133.933C85.9385 135.111 82.3175 136.998 79.1332 139.497C77.867 140.493 76.6785 141.583 75.5779 142.759C74.058 144.383 72.5394 146.264 70.6277 147.262C70.4294 147.369 70.2247 147.463 70.0148 147.544L59.7181 142.458C59.7005 142.434 59.6816 142.413 59.6639 142.39L59.2435 142.206C59.2961 142.141 59.3519 142.075 59.4044 142.011C59.4347 141.973 59.4674 141.936 59.4977 141.899C59.5186 141.874 59.5397 141.85 59.5571 141.826C59.5641 141.818 59.5711 141.81 59.5769 141.804C59.5944 141.78 59.6131 141.76 59.6294 141.739C59.9407 141.37 60.2551 141.002 60.5726 140.636C60.5738 140.634 60.5738 140.634 60.5772 140.633C63.0037 137.85 65.6841 135.246 68.6749 133.13C68.7649 133.067 68.8559 133.001 68.9506 132.94C70.304 131.994 71.7326 131.16 73.222 130.446C74.0388 130.058 74.8747 129.712 75.7266 129.408C77.9292 128.628 80.2409 128.199 82.577 128.136C87.2341 128.012 91.8789 129.378 95.2368 132.517C95.3227 132.598 95.4064 132.677 95.4911 132.76Z" fill="#E6E6E6"/>
<path d="M95.4033 132.879C89.7725 131.363 83.8069 131.659 78.354 133.724C77.1722 134.148 76.0646 134.755 75.0721 135.524C74.1294 136.303 73.4129 137.321 72.9971 138.471C72.5877 139.535 72.2924 140.671 71.6312 141.618C71.2856 142.097 70.8424 142.498 70.3308 142.794C69.8191 143.091 69.2506 143.276 68.6624 143.337C67.2008 143.528 65.7577 143.183 64.3582 142.797C62.8044 142.367 61.1972 141.897 59.5743 142.198C59.3777 142.234 59.3326 141.927 59.529 141.891C62.3524 141.368 64.9541 143.055 67.747 143.081C69.0502 143.093 70.365 142.713 71.2076 141.665C71.9444 140.75 72.25 139.578 72.6551 138.497C73.0444 137.369 73.7041 136.354 74.5766 135.54C75.5268 134.723 76.6091 134.075 77.7772 133.621C80.3905 132.558 83.1549 131.912 85.9691 131.707C89.1796 131.456 92.4095 131.754 95.5191 132.591C95.7116 132.643 95.5945 132.93 95.4033 132.879Z" fill="white"/>
<path d="M80.0706 132.956C79.8481 131.995 79.9747 130.986 80.4279 130.11C80.8811 129.233 81.6313 128.546 82.5447 128.172C82.7297 128.096 82.8554 128.38 82.6701 128.456C81.8189 128.803 81.1201 129.443 80.6998 130.26C80.2795 131.077 80.1653 132.017 80.3778 132.911C80.4238 133.105 80.1164 133.149 80.0707 132.956H80.0706Z" fill="white"/>
<path d="M73.1335 137.904C74.836 138.987 76.8846 139.389 78.8708 139.03C79.0675 138.994 79.1127 139.301 78.9161 139.337C76.8486 139.707 74.7176 139.284 72.9483 138.153C72.7798 138.045 72.9658 137.797 73.1335 137.904V137.904Z" fill="white"/>
<path d="M89.046 131.845C89.0546 132.235 89.1599 132.616 89.3525 132.955C89.5452 133.294 89.8191 133.58 90.1497 133.787C90.3196 133.893 90.1333 134.142 89.9646 134.037C89.6004 133.806 89.2983 133.49 89.0846 133.116C88.8709 132.741 88.7522 132.321 88.7388 131.89C88.7342 131.85 88.7451 131.809 88.7694 131.776C88.7937 131.743 88.8296 131.721 88.8698 131.714C88.9105 131.708 88.9518 131.719 88.9848 131.743C89.0178 131.768 89.0398 131.804 89.046 131.845V131.845Z" fill="white"/>
<path d="M92.6053 77.7291C92.8626 77.4733 93.0606 77.1642 93.1855 76.8237C93.3103 76.4832 93.3589 76.1194 93.3278 75.7581C93.2968 75.3968 93.1867 75.0467 93.0056 74.7324C92.8244 74.4182 92.5765 74.1474 92.2793 73.9393L96.3321 54.3419L91.9596 55.7201L88.6988 74.679C88.3819 75.2011 88.2677 75.8211 88.3778 76.4217C88.4878 77.0223 88.8146 77.5617 89.2961 77.9376C89.7776 78.3136 90.3805 78.5 90.9904 78.4616C91.6003 78.4231 92.1749 78.1625 92.6053 77.7291Z" fill="#FFB6B6"/>
<path d="M101.973 25.3446L99.2647 23.3018C99.2647 23.3018 96.8753 23.1327 96.4521 27.4379C96.0289 31.7431 93.3793 48.2663 93.3793 48.2663L89.2346 67.4459L94.972 68.7041L99.4112 48.0059L103.855 33.7263L101.973 25.3446Z" fill="#E6E6E6"/>
<path d="M99.9097 60.8336L86.9171 50.7401C86.7147 50.5825 86.5832 50.3512 86.5513 50.0968C86.5195 49.8424 86.5899 49.5858 86.7472 49.3833L95.5872 38.0242C95.745 37.822 95.9765 37.6906 96.2311 37.6587C96.4857 37.6269 96.7425 37.6973 96.9452 37.8544L109.938 47.9479C110.14 48.1055 110.272 48.3369 110.304 48.5912C110.336 48.8456 110.265 49.1022 110.108 49.3048L101.268 60.6639C101.11 60.866 100.878 60.9975 100.624 61.0293C100.369 61.0611 100.112 60.9908 99.9097 60.8336Z" fill="#3F3D56"/>
<path d="M99.8384 59.7892L87.9479 50.5519C87.7682 50.412 87.6514 50.2065 87.6231 49.9807C87.5948 49.7549 87.6574 49.527 87.797 49.3472L95.8109 39.0496C95.951 38.8701 96.1566 38.7534 96.3826 38.7252C96.6087 38.6969 96.8367 38.7594 97.0167 38.8989L108.907 48.1362C109.087 48.2761 109.204 48.4815 109.232 48.7074C109.26 48.9332 109.198 49.161 109.058 49.3409L101.044 59.6384C100.904 59.8179 100.699 59.9346 100.472 59.9629C100.246 59.9912 100.018 59.9287 99.8384 59.7892Z" fill="white"/>
<path d="M89.5067 50.29C89.4617 50.255 89.4326 50.2036 89.4255 50.1472C89.4184 50.0907 89.4341 50.0338 89.469 49.9888L93.5117 44.794C93.5467 44.7491 93.5981 44.7198 93.6546 44.7128C93.6826 44.7093 93.711 44.7113 93.7382 44.7188C93.7654 44.7263 93.7909 44.739 93.8132 44.7563C93.8354 44.7736 93.8541 44.7951 93.868 44.8196C93.882 44.8441 93.8909 44.8711 93.8944 44.8991C93.8979 44.927 93.8959 44.9554 93.8884 44.9826C93.8809 45.0098 93.8682 45.0352 93.8509 45.0575L89.8081 50.2523C89.7731 50.2972 89.7217 50.3263 89.6652 50.3334C89.6087 50.3405 89.5517 50.3248 89.5067 50.29Z" fill="#E4E4E4"/>
<path d="M90.1767 50.8105C90.1318 50.7755 90.1026 50.7241 90.0955 50.6677C90.0885 50.6112 90.1041 50.5543 90.139 50.5093L94.1818 45.3145C94.2168 45.2696 94.2682 45.2404 94.3247 45.2333C94.3812 45.2262 94.4383 45.2419 94.4832 45.2768C94.5282 45.3118 94.5574 45.3631 94.5645 45.4196C94.5716 45.4761 94.5559 45.533 94.5209 45.578L90.4782 50.7728C90.4431 50.8177 90.3918 50.8468 90.3352 50.8539C90.2787 50.861 90.2217 50.8454 90.1767 50.8105Z" fill="#E4E4E4"/>
<path d="M93.1372 48.3881C93.0923 48.3531 93.0631 48.3017 93.056 48.2453C93.0489 48.1888 93.0646 48.1318 93.0995 48.0869L94.8519 45.8351C94.8692 45.8128 94.8907 45.7941 94.9152 45.7801C94.9398 45.7661 94.9668 45.7571 94.9948 45.7536C95.0229 45.75 95.0513 45.7521 95.0785 45.7595C95.1058 45.767 95.1313 45.7798 95.1535 45.7971C95.1758 45.8144 95.1945 45.8359 95.2084 45.8605C95.2224 45.885 95.2314 45.912 95.2349 45.94C95.2383 45.968 95.2363 45.9964 95.2287 46.0236C95.2212 46.0508 95.2084 46.0763 95.191 46.0985L93.4386 48.3504C93.4036 48.3952 93.3522 48.4244 93.2957 48.4315C93.2392 48.4385 93.1822 48.4229 93.1372 48.3881Z" fill="#E4E4E4"/>
<path d="M94.0406 52.807C93.9957 52.772 93.9665 52.7207 93.9594 52.6642C93.9524 52.6077 93.968 52.5508 94.0029 52.5058L100.385 44.3049C100.403 44.2826 100.424 44.264 100.449 44.25C100.473 44.2361 100.5 44.2271 100.528 44.2236C100.556 44.2201 100.584 44.2222 100.612 44.2297C100.639 44.2371 100.664 44.2499 100.687 44.2672C100.709 44.2845 100.728 44.306 100.741 44.3305C100.755 44.355 100.764 44.382 100.768 44.4099C100.771 44.4379 100.769 44.4663 100.762 44.4935C100.754 44.5206 100.742 44.5461 100.724 44.5683L94.342 52.7693C94.307 52.8142 94.2556 52.8434 94.1991 52.8504C94.1426 52.8575 94.0856 52.8419 94.0406 52.807Z" fill="#E4E4E4"/>
<path d="M94.7107 53.3275C94.6658 53.2925 94.6365 53.2412 94.6295 53.1847C94.6224 53.1283 94.638 53.0713 94.6729 53.0263L101.055 44.8254C101.073 44.8031 101.094 44.7845 101.119 44.7706C101.143 44.7566 101.17 44.7477 101.198 44.7442C101.226 44.7407 101.255 44.7427 101.282 44.7502C101.309 44.7576 101.334 44.7704 101.357 44.7877C101.379 44.805 101.398 44.8265 101.412 44.851C101.425 44.8755 101.434 44.9025 101.438 44.9305C101.441 44.9584 101.439 44.9868 101.432 45.014C101.424 45.0412 101.412 45.0666 101.394 45.0889L95.0121 53.2898C94.9771 53.3347 94.9257 53.3639 94.8692 53.3709C94.8127 53.378 94.7557 53.3624 94.7107 53.3275Z" fill="#E4E4E4"/>
<path d="M96.2317 54.5091C96.1867 54.4742 96.1575 54.4228 96.1505 54.3664C96.1434 54.3099 96.159 54.2529 96.1939 54.208L102.576 46.007C102.594 45.9848 102.615 45.9661 102.64 45.9522C102.664 45.9383 102.691 45.9293 102.719 45.9258C102.747 45.9223 102.776 45.9243 102.803 45.9318C102.83 45.9393 102.855 45.952 102.878 45.9693C102.9 45.9866 102.919 46.0081 102.933 46.0326C102.946 46.0571 102.955 46.0841 102.959 46.1121C102.962 46.1401 102.96 46.1684 102.953 46.1956C102.945 46.2228 102.933 46.2482 102.915 46.2705L96.5331 54.4715C96.4981 54.5163 96.4467 54.5455 96.3902 54.5526C96.3337 54.5596 96.2767 54.544 96.2317 54.5091Z" fill="#E4E4E4"/>
<path d="M96.9017 55.0297C96.8568 54.9947 96.8276 54.9433 96.8205 54.8869C96.8134 54.8304 96.8291 54.7735 96.864 54.7285L103.246 46.5275C103.264 46.5053 103.285 46.4866 103.31 46.4727C103.334 46.4588 103.361 46.4498 103.389 46.4463C103.417 46.4428 103.446 46.4448 103.473 46.4523C103.5 46.4598 103.525 46.4725 103.548 46.4898C103.57 46.5071 103.589 46.5286 103.603 46.5531C103.617 46.5776 103.626 46.6046 103.629 46.6326C103.633 46.6606 103.63 46.689 103.623 46.7161C103.616 46.7433 103.603 46.7688 103.585 46.791L97.2031 54.992C97.1681 55.0369 97.1167 55.066 97.0602 55.0731C97.0037 55.0802 96.9467 55.0645 96.9017 55.0297Z" fill="#E4E4E4"/>
<path d="M98.4227 56.2113C98.3778 56.1763 98.3486 56.125 98.3415 56.0685C98.3344 56.012 98.3501 55.9551 98.385 55.9101L104.767 47.7092C104.785 47.6869 104.806 47.6683 104.831 47.6544C104.855 47.6404 104.882 47.6314 104.91 47.6279C104.938 47.6244 104.967 47.6265 104.994 47.634C105.021 47.6414 105.046 47.6542 105.069 47.6715C105.091 47.6888 105.11 47.7103 105.124 47.7348C105.138 47.7593 105.147 47.7863 105.15 47.8142C105.154 47.8422 105.151 47.8706 105.144 47.8978C105.137 47.9249 105.124 47.9504 105.106 47.9726L98.7241 56.1736C98.6891 56.2185 98.6377 56.2477 98.5812 56.2547C98.5247 56.2618 98.4677 56.2462 98.4227 56.2113Z" fill="#E4E4E4"/>
<path d="M99.0928 56.7318C99.0478 56.6968 99.0186 56.6455 99.0116 56.589C99.0045 56.5325 99.0201 56.4756 99.055 56.4306L105.437 48.2297C105.472 48.1849 105.524 48.1559 105.58 48.149C105.637 48.142 105.693 48.1577 105.738 48.1925C105.783 48.2274 105.812 48.2786 105.82 48.335C105.827 48.3913 105.811 48.4482 105.777 48.4932L99.3942 56.6941C99.3592 56.739 99.3078 56.7682 99.2513 56.7752C99.1948 56.7823 99.1378 56.7667 99.0928 56.7318Z" fill="#E4E4E4"/>
<path d="M88.4258 66.256C88.4745 66.256 88.514 66.2165 88.514 66.1679C88.514 66.1192 88.4745 66.0798 88.4258 66.0798C88.3771 66.0798 88.3376 66.1192 88.3376 66.1679C88.3376 66.2165 88.3771 66.256 88.4258 66.256Z" fill="white"/>
<path d="M101.277 5.53973C100.967 7.20492 100.458 8.82701 99.7619 10.3713C95.7748 18.7984 107.129 16.0516 111.187 16.0516C115.623 16.0516 119.868 18.3824 119.22 8.02581C118.943 3.60192 115.623 0 111.187 0C107.397 0 102.069 1.68285 101.277 5.53973Z" fill="#2F2E41"/>
<path d="M115.322 129.134H111.542L109.744 114.568H115.322V129.134Z" fill="#FFB6B6"/>
<path d="M117.317 135.678H114.606L114.123 133.121L112.883 135.678H105.694C105.349 135.678 105.014 135.568 104.736 135.364C104.459 135.16 104.254 134.872 104.151 134.544C104.049 134.215 104.054 133.862 104.166 133.537C104.279 133.211 104.492 132.93 104.776 132.734L110.517 128.773V126.188L116.556 126.548L117.317 135.678Z" fill="#2F2E41"/>
<path d="M137.778 124.368L134.745 126.622L124.602 116.006L129.079 112.679L137.778 124.368Z" fill="#FFB6B6"/>
<path d="M143.287 128.43L141.112 130.046L139.197 128.282L139.729 131.073L133.96 135.359C133.684 135.565 133.349 135.677 133.004 135.678C132.659 135.68 132.323 135.572 132.045 135.369C131.766 135.167 131.56 134.88 131.455 134.552C131.351 134.224 131.355 133.871 131.465 133.545L133.706 126.943L132.163 124.869L137.223 121.557L143.287 128.43Z" fill="#2F2E41"/>
<path d="M102.943 62.0943L120.886 59.3022L117.317 48.5771H102.943V62.0943Z" fill="#FFB6B6"/>
<path d="M119.723 53.9788C119.723 53.9788 126.895 60.1694 123.586 77.8172L119.546 95.109L130.552 114.2L124.956 117.25L111.393 98.4158L105.186 83.8703L101.903 58.3778L119.723 53.9788Z" fill="#2F2E41"/>
<path d="M108.607 88.0156L108.176 94.69L109.438 114.455L115.707 116.611L116.895 96.3604L108.607 88.0156Z" fill="#2F2E41"/>
<path d="M106.68 18.2729L113.615 18.5433L116.379 23.1277L122.686 24.3578L118.921 43.3874L119.614 54.2189L113.334 54.1806C108.808 54.153 104.432 55.7958 101.044 58.7937L101.231 44.7337L98.5304 34.238L99.1375 23.2326L104.211 22.599L106.68 18.2729Z" fill="#E6E6E6"/>
<path d="M110.522 16.0496C114.127 16.0496 117.05 13.1297 117.05 9.52774C117.05 5.9258 114.127 3.00586 110.522 3.00586C106.917 3.00586 103.995 5.9258 103.995 9.52774C103.995 13.1297 106.917 16.0496 110.522 16.0496Z" fill="#FFB6B6"/>
<path d="M106.089 2.87961C107.233 2.1829 108.543 1.80601 109.883 1.78837C111.222 1.77073 112.542 2.11297 113.704 2.77931C114.866 3.44566 115.827 4.41163 116.487 5.57622C117.147 6.74081 117.482 8.06125 117.457 9.39948C114.131 10.2338 110.637 10.8724 107.09 9.59905L106.252 7.55071L105.758 9.60057C104.678 10.0417 103.595 10.4149 102.512 9.5963C102.468 8.26185 102.775 6.93918 103.402 5.7605C104.03 4.58182 104.957 3.58842 106.089 2.87961Z" fill="#2F2E41"/>
<path d="M121.479 67.3678L122.359 75.3465C122.42 75.5456 122.544 75.7198 122.711 75.8435C122.879 75.9672 123.082 76.034 123.29 76.034H127.347C127.555 76.034 127.758 75.9673 127.926 75.8435C128.094 75.7198 128.217 75.5456 128.278 75.3465L129.007 69.2312C129.218 69.3342 129.449 69.3859 129.684 69.382C129.918 69.3781 130.148 69.3187 130.355 69.2086C130.562 69.0986 130.739 68.9411 130.873 68.7491C131.007 68.557 131.094 68.336 131.126 68.104C131.157 67.8721 131.134 67.636 131.056 67.415C130.979 67.194 130.85 66.9945 130.681 66.833C130.511 66.6714 130.306 66.5523 130.081 66.4856C129.857 66.4188 129.619 66.4063 129.389 66.449C129.298 66.3416 129.185 66.2554 129.057 66.1964C128.929 66.1374 128.79 66.107 128.649 66.1074H122.411C122.258 66.1074 122.108 66.1431 121.971 66.2118C121.835 66.2805 121.717 66.3801 121.626 66.5027C121.536 66.6253 121.475 66.7674 121.45 66.9177C121.424 67.0679 121.434 67.2221 121.479 67.3678ZM129.135 68.8176L129.581 67.3678C129.633 67.2005 129.638 67.0222 129.596 66.8523C129.615 66.8512 129.633 66.8466 129.652 66.8466C129.932 66.8466 130.201 66.9578 130.4 67.1559C130.598 67.3539 130.709 67.6225 130.709 67.9026C130.709 68.1827 130.598 68.4513 130.4 68.6493C130.201 68.8474 129.932 68.9586 129.652 68.9586C129.47 68.9575 129.292 68.9089 129.135 68.8176Z" fill="#5EDA12"/>
<path d="M127.595 76.0395C127.339 75.7824 127.143 75.4724 127.02 75.1312C126.897 74.7901 126.85 74.4261 126.883 74.0649C126.916 73.7038 127.027 73.3542 127.21 73.0409C127.393 72.7275 127.642 72.4581 127.941 72.2514L123.987 52.6337L128.353 54.0341L131.517 73.0093C131.831 73.533 131.943 74.1536 131.829 74.7536C131.716 75.3537 131.387 75.8914 130.903 76.2649C130.42 76.6384 129.816 76.8217 129.206 76.7802C128.597 76.7387 128.023 76.4751 127.595 76.0395Z" fill="#FFB6B6"/>
<path d="M119.978 26.4006L122.686 24.3578C122.686 24.3578 125.076 24.1888 125.499 28.494C125.922 32.7991 128.572 49.3223 128.572 49.3223L132.716 68.5019L126.979 69.7601L122.54 49.062L118.096 34.7823L119.978 26.4006Z" fill="#E6E6E6"/>
<path d="M96.6008 44.2586C97.4475 44.2586 98.134 43.5728 98.134 42.7267C98.134 41.8807 97.4475 41.1948 96.6008 41.1948C95.754 41.1948 95.0675 41.8807 95.0675 42.7267C95.0675 43.5728 95.754 44.2586 96.6008 44.2586Z" fill="#5EDA12"/>
<path d="M47.7083 146.905L50.9036 146.905L52.4238 134.591L47.7078 134.592L47.7083 146.905Z" fill="#FFB6B6"/>
<path d="M46.8933 145.863L47.7927 145.863L51.304 144.436L53.186 145.863H53.1862C54.2498 145.863 55.2698 146.285 56.0218 147.036C56.7738 147.788 57.1964 148.807 57.1964 149.869V150L46.8935 150L46.8933 145.863Z" fill="#2F2E41"/>
<path d="M60.0907 144.894L63.2077 145.597L67.4052 133.92L62.805 132.882L60.0907 144.894Z" fill="#FFB6B6"/>
<path d="M59.5255 143.698L60.4028 143.895L64.1425 143.277L65.6637 145.082L65.664 145.082C66.7014 145.316 67.6032 145.953 68.1711 146.851C68.739 147.749 68.9265 148.836 68.6923 149.873L68.6636 150L58.6136 147.733L59.5255 143.698Z" fill="#2F2E41"/>
<path d="M41.8588 83.565L44.7482 115.909C44.7482 115.909 43.6656 135.327 47.159 142.16H52.2255L54.734 114.136L55.049 95.3258L65.911 111.195L58.9927 141.702L65.2283 142.259L76.4549 109.152L64.1211 78.0722L41.8588 83.565Z" fill="#2F2E41"/>
<path d="M44.8849 32.0575C49.0003 32.0575 52.3365 28.7242 52.3365 24.6124C52.3365 20.5006 49.0003 17.1674 44.8849 17.1674C40.7694 17.1674 37.4332 20.5006 37.4332 24.6124C37.4332 28.7242 40.7694 32.0575 44.8849 32.0575Z" fill="#FFB8B8"/>
<path d="M57.9842 39.1522L51.871 36.5315L48.895 33.3778L41.4606 34.5757L39.4881 37.9549L33.1028 43.887L40.5839 77.6834L40.3575 85.0648C40.3575 85.0648 45.1456 87.2185 65.9109 82.2599C66.1599 82.2004 65.6387 81.94 65.6387 81.94L57.9842 39.1522Z" fill="#3F3D56"/>
<path d="M37.1363 28.8369C37.0844 28.7661 37.033 28.6947 36.9821 28.6227C36.9616 28.666 36.9453 28.7106 36.9219 28.7528L37.1363 28.8369Z" fill="#2F2E41"/>
<path d="M52.2973 19.1666C51.7992 18.0825 50.9111 17.2253 49.8095 16.7653C48.7176 16.3253 47.4972 16.3264 46.4061 16.7683C45.421 16.1464 44.3264 15.6535 43.1737 15.5924C42.0209 15.5313 40.8022 15.9586 40.0918 16.8992C39.9332 17.1474 39.753 17.3813 39.5534 17.5981C38.9823 18.1264 38.1145 18.0502 37.3556 17.9421C37.696 18.2337 38.0365 18.5252 38.3771 18.8167C37.965 18.9242 37.5529 19.0318 37.1407 19.1393C37.6217 19.4307 38.1025 19.7222 38.5834 20.0136C37.1873 20.8508 36.5528 22.6781 36.7204 24.3376C36.879 25.9089 37.6382 27.3457 38.5458 28.6227C38.9079 27.8593 38.8299 26.9459 38.8239 26.0862C38.8177 25.1777 38.9785 24.1462 39.7071 23.6385C40.1986 23.296 40.8306 23.2807 41.4232 23.2839C44.4127 23.3003 47.3988 23.4866 50.3671 23.8418C50.7699 23.8592 51.1626 23.973 51.5122 24.1736C52.1686 24.6211 52.2965 25.5444 52.3624 26.3545C52.7092 25.0169 52.879 23.6397 52.8673 22.2581C52.8965 21.1991 52.7023 20.1457 52.2973 19.1666Z" fill="#2F2E41"/>
<path d="M54.6173 106.239C61.0947 106.239 66.3457 100.992 66.3457 94.5205C66.3457 88.0488 61.0947 82.8024 54.6173 82.8024C48.1399 82.8024 42.8889 88.0488 42.8889 94.5205C42.8889 100.992 48.1399 106.239 54.6173 106.239Z" fill="white"/>
<path d="M54.6172 82.542C54.0143 82.5421 53.4123 82.5873 52.8162 82.6774C52.5113 82.7217 52.2142 82.779 51.9196 82.8493C49.756 83.3476 47.7734 84.4367 46.1932 85.9952C44.6129 87.5536 43.4971 89.5201 42.9703 91.6752C42.4435 93.8304 42.5264 96.0893 43.2097 98.2001C43.893 100.311 45.1498 102.191 46.84 103.629C47.0407 103.799 47.2439 103.963 47.4551 104.119C48.9766 105.252 50.7459 106.009 52.6171 106.325C54.4884 106.642 56.4082 106.511 58.2186 105.941C60.029 105.372 61.6782 104.381 63.0304 103.051C64.3827 101.72 65.3994 100.088 65.9969 98.2877C66.5943 96.4878 66.7554 94.5719 66.4669 92.6976C66.1785 90.8234 65.4487 89.0444 64.3376 87.507C63.2265 85.9696 61.7659 84.7179 60.076 83.8547C58.3861 82.9915 56.5151 82.5416 54.6172 82.542V82.542ZM54.6172 105.978C52.1788 105.981 49.8037 105.202 47.8408 103.757C47.6271 103.601 47.4212 103.439 47.2205 103.267C45.5738 101.879 44.352 100.056 43.6951 98.006C43.0383 95.956 42.973 93.7626 43.5069 91.6772C44.0407 89.5919 45.152 87.6992 46.7133 86.216C48.2746 84.7329 50.2227 83.7195 52.3341 83.292C52.6259 83.2321 52.9179 83.1852 53.215 83.1487C53.6802 83.0912 54.1485 83.0625 54.6172 83.0628C57.6586 83.0628 60.5755 84.2699 62.7261 86.4187C64.8767 88.5674 66.085 91.4817 66.085 94.5204C66.085 97.5592 64.8767 100.473 62.7261 102.622C60.5755 104.771 57.6586 105.978 54.6172 105.978Z" fill="#3F3D56"/>
<path d="M48.8647 92.1769H60.3699C60.7914 92.1769 61.1331 91.8355 61.1331 91.4144V91.377C61.1331 90.9559 60.7914 90.6145 60.3699 90.6145H48.8647C48.4432 90.6145 48.1015 90.9559 48.1015 91.377V91.4144C48.1015 91.8355 48.4432 92.1769 48.8647 92.1769Z" fill="#5EDA12"/>
<path d="M48.8647 95.3016H60.3699C60.7914 95.3016 61.1331 94.9603 61.1331 94.5392V94.5017C61.1331 94.0806 60.7914 93.7392 60.3699 93.7392H48.8647C48.4432 93.7392 48.1015 94.0806 48.1015 94.5017V94.5392C48.1015 94.9603 48.4432 95.3016 48.8647 95.3016Z" fill="#5EDA12"/>
<path d="M48.8647 98.4265H60.3699C60.7914 98.4265 61.1331 98.0851 61.1331 97.664V97.6266C61.1331 97.2055 60.7914 96.8641 60.3699 96.8641H48.8647C48.4432 96.8641 48.1015 97.2055 48.1015 97.6266V97.664C48.1015 98.0851 48.4432 98.4265 48.8647 98.4265Z" fill="#5EDA12"/>
<path d="M185.832 146.508L182.482 146.508L180.888 133.596L185.833 133.596L185.832 146.508Z" fill="#9E616A"/>
<path d="M169.981 146.508L166.631 146.508L165.037 133.596L169.982 133.596L169.981 146.508Z" fill="#9E616A"/>
<path d="M170.099 150L159.796 150V149.869C159.796 148.807 160.219 147.788 160.971 147.036C161.723 146.285 162.743 145.863 163.807 145.863H163.807L165.689 144.436L169.2 145.863L170.1 145.863L170.099 150Z" fill="#2F2E41"/>
<path d="M186.38 150L176.077 150V149.869C176.077 148.807 176.5 147.788 177.252 147.036C178.004 146.285 179.024 145.863 180.087 145.863H180.087L181.969 144.436L185.481 145.863L186.38 145.863L186.38 150Z" fill="#2F2E41"/>
<path d="M166.695 70.0917L161.603 101.07L162.989 105.686L161.17 108.955L163.841 137.668L162.757 140.052L165.785 141.918H171.948L172.275 115.925L173.797 112.108V110.005L176.896 94.1546L177.467 116.352L178.368 120.174L177.611 122.896L178.6 124.803L181.229 142.485H188.139L187.604 138.371C188.206 138.066 188.69 137.571 188.979 136.962C189.268 136.353 189.347 135.665 189.202 135.006L188.806 133.203L189.708 127.872L191.35 98.1295L190.887 74.1309L182.803 67.9547L166.695 70.0917Z" fill="#2F2E41"/>
<path d="M178.368 30.3122C181.914 30.3122 184.789 27.4403 184.789 23.8976C184.789 20.3549 181.914 17.4829 178.368 17.4829C174.822 17.4829 171.948 20.3549 171.948 23.8976C171.948 27.4403 174.822 30.3122 178.368 30.3122Z" fill="#9E616A"/>
<path d="M164.341 82.3846C164.62 82.0962 164.833 81.7501 164.964 81.3706C165.095 80.9912 165.141 80.5876 165.099 80.1884C165.057 79.7892 164.928 79.404 164.721 79.0601C164.514 78.7161 164.234 78.4216 163.901 78.1975L166.397 68.7644L161.587 70.3809L159.954 79.0909C159.614 79.6752 159.5 80.3638 159.635 81.0261C159.769 81.6885 160.142 82.2785 160.683 82.6846C161.224 83.0906 161.895 83.2843 162.569 83.229C163.243 83.1737 163.873 82.8733 164.341 82.3846H164.341Z" fill="#9E616A"/>
<path d="M166.968 37.0948L165.936 36.8807L165.055 37.3678C165.055 37.3678 162.595 40.6444 162.595 43.6479C162.595 46.6514 159.589 75.5944 159.589 75.5944L165.055 78.0518L169.428 55.3889L166.968 37.0948Z" fill="#E6E6E6"/>
<path d="M183.991 19.1945C183.991 19.1945 185.67 15.9872 181.976 15.6956C181.976 15.6956 178.826 12.8412 175.616 15.1738C175.616 15.1738 173.865 15.1738 172.907 17.1535C172.907 17.1535 171.53 16.6316 171.228 18.0282C171.228 18.0282 170.22 20.944 171.228 23.5681C172.235 26.1923 172.57 26.4839 172.57 26.4839C172.57 26.4839 170.914 20.9822 174.945 20.6906C178.975 20.399 183.485 17.8824 183.821 21.0897C184.157 24.2971 184.663 25.0873 184.663 25.0873C184.663 25.0873 187.853 20.5066 183.991 19.1945Z" fill="#2F2E41"/>
<path d="M207.444 108.955C206.959 108.956 206.491 108.778 206.13 108.455L186.7 91.1741C186.309 90.8251 186.072 90.3351 186.041 89.8117C186.011 89.2884 186.19 88.7743 186.538 88.3823L198.985 74.4117C199.334 74.0205 199.825 73.7837 200.349 73.7532C200.873 73.7228 201.387 73.9012 201.779 74.2494L221.21 91.5303C221.602 91.8789 221.839 92.3689 221.869 92.8924C221.9 93.4159 221.721 93.9301 221.372 94.3218L208.925 108.292C208.752 108.487 208.543 108.645 208.309 108.759C208.075 108.872 207.821 108.937 207.561 108.952C207.522 108.954 207.483 108.955 207.444 108.955Z" fill="white"/>
<path d="M207.444 109.082C206.928 109.083 206.43 108.893 206.046 108.55L186.616 91.2691C186.199 90.8976 185.947 90.3761 185.915 89.8191C185.882 89.262 186.072 88.7148 186.443 88.2976L198.89 74.3271C199.262 73.9108 199.784 73.6589 200.341 73.6265C200.899 73.5941 201.446 73.7839 201.864 74.1543L221.294 91.4352C221.711 91.8063 221.964 92.3278 221.996 92.885C222.029 93.4422 221.838 93.9894 221.467 94.4064L209.02 108.377C208.836 108.584 208.614 108.753 208.365 108.873C208.115 108.994 207.845 109.064 207.569 109.079C207.527 109.081 207.485 109.082 207.444 109.082ZM200.464 74.1309C200.239 74.1304 200.016 74.1778 199.81 74.2699C199.604 74.362 199.42 74.4967 199.27 74.6651L186.823 88.6357C186.542 88.9521 186.398 89.3671 186.422 89.7896C186.447 90.2121 186.638 90.6076 186.954 90.8894L206.384 108.17C206.541 108.309 206.724 108.417 206.922 108.485C207.12 108.554 207.33 108.583 207.539 108.571C207.749 108.559 207.954 108.506 208.142 108.414C208.331 108.323 208.5 108.196 208.64 108.039L221.087 94.0683C221.369 93.7521 221.513 93.3371 221.488 92.9145C221.464 92.4919 221.272 92.0964 220.956 91.8149L201.526 74.5341C201.234 74.2738 200.856 74.1303 200.464 74.1309H200.464Z" fill="#3F3D56"/>
<path d="M214.49 95.7243C214.28 95.7247 214.077 95.6477 213.921 95.5082L198.669 81.9434C198.584 81.8688 198.515 81.7783 198.466 81.6771C198.417 81.5758 198.388 81.4659 198.381 81.3535C198.374 81.2411 198.39 81.1284 198.427 81.0221C198.464 80.9157 198.521 80.8176 198.596 80.7335C198.671 80.6494 198.762 80.5809 198.864 80.5319C198.965 80.483 199.075 80.4545 199.188 80.4481C199.3 80.4418 199.413 80.4577 199.519 80.4949C199.626 80.5322 199.724 80.59 199.808 80.6652L215.06 94.2299C215.189 94.3453 215.281 94.4973 215.322 94.6658C215.363 94.8344 215.352 95.0114 215.29 95.1736C215.229 95.3357 215.119 95.4752 214.976 95.5736C214.833 95.6719 214.663 95.7245 214.49 95.7243Z" fill="#5EDA12"/>
<path d="M211.58 98.9895C211.371 98.9898 211.168 98.9128 211.011 98.7733L195.76 85.2085C195.676 85.1338 195.607 85.0433 195.558 84.9421C195.509 84.841 195.481 84.7312 195.474 84.619C195.468 84.5069 195.483 84.3945 195.52 84.2884C195.557 84.1823 195.615 84.0845 195.689 84.0006C195.764 83.9166 195.855 83.8483 195.956 83.7993C196.057 83.7504 196.167 83.7219 196.279 83.7154C196.392 83.7089 196.504 83.7245 196.61 83.7614C196.717 83.7983 196.814 83.8558 196.898 83.9305L212.15 97.4953C212.28 97.6106 212.372 97.7626 212.413 97.9311C212.454 98.0996 212.443 98.2767 212.381 98.4388C212.319 98.6009 212.21 98.7404 212.067 98.8388C211.924 98.9371 211.754 98.9897 211.58 98.9895H211.58Z" fill="#5EDA12"/>
<path d="M208.671 102.255C208.461 102.255 208.259 102.178 208.102 102.039L192.85 88.4741C192.766 88.3994 192.697 88.3089 192.648 88.2077C192.599 88.1065 192.571 87.9967 192.564 87.8844C192.557 87.7721 192.573 87.6597 192.61 87.5535C192.647 87.4472 192.704 87.3493 192.779 87.2653C192.854 87.1814 192.945 87.1129 193.046 87.064C193.147 87.015 193.257 86.9865 193.37 86.98C193.482 86.9736 193.595 86.9893 193.701 87.0264C193.807 87.0634 193.905 87.121 193.989 87.1959L209.241 100.761C209.371 100.876 209.462 101.028 209.504 101.196C209.545 101.365 209.534 101.542 209.472 101.704C209.41 101.866 209.301 102.006 209.158 102.104C209.014 102.203 208.845 102.255 208.671 102.255H208.671Z" fill="#5EDA12"/>
<path d="M191.23 82.9414C191.034 82.5908 190.917 82.2016 190.888 81.8013C190.86 81.4009 190.919 80.9991 191.062 80.6241C191.206 80.2491 191.429 79.9101 191.718 79.6309C192.007 79.3517 192.353 79.1392 192.733 79.0083L192.75 69.251L196.981 72.0495L196.317 80.8861C196.495 81.5381 196.427 82.2327 196.127 82.8382C195.826 83.4437 195.314 83.9181 194.687 84.1714C194.06 84.4247 193.361 84.4394 192.724 84.2127C192.087 83.986 191.555 83.5337 191.23 82.9414H191.23Z" fill="#9E616A"/>
<path d="M191.621 39.7686L193.511 37.9479L194.9 38.9495C194.9 38.9495 196.267 40.5878 197.36 45.5026C198.453 50.4174 197.36 77.4491 197.36 77.4491L191.347 76.6299L192.167 62.4315L189.708 50.4174L191.621 39.7686Z" fill="#E6E6E6"/>
<path d="M194.412 38.392L188.043 35.3521L183.718 31.3445L175.832 31.2856L173.289 34.5896L166.573 36.8689L167.692 60.0055L166.929 61.7847C166.929 61.7847 167.461 62.2645 167.704 62.5329C167.946 62.8013 167.368 65.0482 167.368 65.0482L167.042 67.4927L167.946 68.1386L166.77 69.5269L166.478 71.7151C166.478 71.7151 187.011 66.6162 190.89 75.063C191.095 75.5093 190.591 71.1477 190.591 71.1477L190.086 67.9547L190.587 65.0887L191.35 64.3263L190.07 63.0475L190.89 56.9797L194.412 38.392Z" fill="#3F3D56"/>
<path d="M49.9634 89.6841C50.1214 89.2831 50.1896 88.8524 50.163 88.4222C50.1365 87.992 50.0158 87.5729 49.8096 87.1943C49.6033 86.8158 49.3165 86.487 48.9693 86.2312C48.6222 85.9754 48.2231 85.7987 47.8002 85.7137L46.3853 75.3329L42.2827 78.9159L44.2553 88.2244C44.1594 88.9436 44.3309 89.6731 44.7373 90.2745C45.1437 90.8759 45.7568 91.3074 46.4604 91.4873C47.164 91.6673 47.9092 91.5831 48.5548 91.2508C49.2004 90.9184 49.7016 90.361 49.9634 89.6841V89.6841Z" fill="#FFB8B8"/>
<path d="M33.8901 43.6972L32.7781 43.91L32.1059 44.7555C32.1059 44.7555 31.0185 49.0168 32.2573 51.9949C33.496 54.9729 42.452 84.9077 42.452 84.9077L48.8848 85.094L43.8737 60.8234L33.8901 43.6972Z" fill="#3F3D56"/>
<path d="M59.2502 88.1614C58.9539 87.8482 58.7299 87.4738 58.594 87.0648C58.4581 86.6557 58.4137 86.2219 58.4638 85.7938C58.5139 85.3657 58.6573 84.9538 58.884 84.5871C59.1106 84.2204 59.415 83.9078 59.7757 83.6714L57.2146 73.512L62.3584 75.3084L64.0019 84.6804C64.3593 85.3121 64.4724 86.0529 64.3197 86.7623C64.167 87.4717 63.7592 88.1005 63.1735 88.5296C62.5878 88.9586 61.8649 89.1581 61.1418 89.0903C60.4187 89.0224 59.7457 88.6919 59.2502 88.1614Z" fill="#FFB8B8"/>
<path d="M57.0026 39.5029L58.1139 39.2861L59.0531 39.8202C59.0531 39.8202 61.6523 43.3692 61.6143 46.5939C61.5763 49.8186 64.4373 80.9311 64.4373 80.9311L58.5379 83.5004L54.1302 59.1132L57.0026 39.5029Z" fill="#3F3D56"/>
</g>
<defs>
<clipPath id="clip0_1319_3876">
<rect width="222" height="150" fill="white"/>
</clipPath>
</defs>
</svg>
