<svg width="423" height="218" viewBox="0 0 423 218" fill="none" xmlns="http://www.w3.org/2000/svg">
<g clip-path="url(#clip0_1319_3604)">
<path d="M422.438 217.951H0.561705C0.413015 217.951 0.270567 217.892 0.165579 217.786C0.0605922 217.681 0.00163269 217.539 0.00163269 217.39C0.00163269 217.241 0.0605922 217.099 0.165579 216.993C0.270567 216.888 0.413015 216.829 0.561705 216.828H422.438C422.587 216.829 422.729 216.888 422.834 216.993C422.939 217.099 422.998 217.241 422.998 217.39C422.998 217.539 422.939 217.681 422.834 217.786C422.729 217.892 422.587 217.951 422.438 217.951Z" fill="#3F3D56"/>
<path d="M132.255 27.0912C133.939 27.0912 135.305 25.7258 135.305 24.0415C135.305 22.3572 133.939 20.9918 132.255 20.9918C130.57 20.9918 129.204 22.3572 129.204 24.0415C129.204 25.7258 130.57 27.0912 132.255 27.0912Z" fill="#F2F2F2"/>
<path d="M120.096 27.0912C121.781 27.0912 123.147 25.7258 123.147 24.0415C123.147 22.3572 121.781 20.9918 120.096 20.9918C118.411 20.9918 117.046 22.3572 117.046 24.0415C117.046 25.7258 118.411 27.0912 120.096 27.0912Z" fill="#F2F2F2"/>
<path d="M107.938 27.0912C109.623 27.0912 110.989 25.7258 110.989 24.0415C110.989 22.3572 109.623 20.9918 107.938 20.9918C106.253 20.9918 104.887 22.3572 104.887 24.0415C104.887 25.7258 106.253 27.0912 107.938 27.0912Z" fill="#F2F2F2"/>
<path d="M95.7795 27.0912C97.4643 27.0912 98.8302 25.7258 98.8302 24.0415C98.8302 22.3572 97.4643 20.9918 95.7795 20.9918C94.0946 20.9918 92.7288 22.3572 92.7288 24.0415C92.7288 25.7258 94.0946 27.0912 95.7795 27.0912Z" fill="#F2F2F2"/>
<path d="M132.255 39.8239C133.939 39.8239 135.305 38.4585 135.305 36.7742C135.305 35.0899 133.939 33.7245 132.255 33.7245C130.57 33.7245 129.204 35.0899 129.204 36.7742C129.204 38.4585 130.57 39.8239 132.255 39.8239Z" fill="#F2F2F2"/>
<path d="M120.096 39.8239C121.781 39.8239 123.147 38.4585 123.147 36.7742C123.147 35.0899 121.781 33.7245 120.096 33.7245C118.411 33.7245 117.046 35.0899 117.046 36.7742C117.046 38.4585 118.411 39.8239 120.096 39.8239Z" fill="#F2F2F2"/>
<path d="M107.938 39.8239C109.623 39.8239 110.989 38.4585 110.989 36.7742C110.989 35.0899 109.623 33.7245 107.938 33.7245C106.253 33.7245 104.887 35.0899 104.887 36.7742C104.887 38.4585 106.253 39.8239 107.938 39.8239Z" fill="#F2F2F2"/>
<path d="M95.7795 39.8239C97.4643 39.8239 98.8302 38.4585 98.8302 36.7742C98.8302 35.0899 97.4643 33.7245 95.7795 33.7245C94.0946 33.7245 92.7288 35.0899 92.7288 36.7742C92.7288 38.4585 94.0946 39.8239 95.7795 39.8239Z" fill="#F2F2F2"/>
<path d="M132.255 52.5567C133.939 52.5567 135.305 51.1913 135.305 49.507C135.305 47.8227 133.939 46.4573 132.255 46.4573C130.57 46.4573 129.204 47.8227 129.204 49.507C129.204 51.1913 130.57 52.5567 132.255 52.5567Z" fill="#F2F2F2"/>
<path d="M120.096 52.5567C121.781 52.5567 123.147 51.1913 123.147 49.507C123.147 47.8227 121.781 46.4573 120.096 46.4573C118.411 46.4573 117.046 47.8227 117.046 49.507C117.046 51.1913 118.411 52.5567 120.096 52.5567Z" fill="#F2F2F2"/>
<path d="M107.938 52.5567C109.623 52.5567 110.989 51.1913 110.989 49.507C110.989 47.8227 109.623 46.4573 107.938 46.4573C106.253 46.4573 104.887 47.8227 104.887 49.507C104.887 51.1913 106.253 52.5567 107.938 52.5567Z" fill="#F2F2F2"/>
<path d="M95.7795 52.5567C97.4643 52.5567 98.8302 51.1913 98.8302 49.507C98.8302 47.8227 97.4643 46.4573 95.7795 46.4573C94.0946 46.4573 92.7288 47.8227 92.7288 49.507C92.7288 51.1913 94.0946 52.5567 95.7795 52.5567Z" fill="#F2F2F2"/>
<path d="M132.255 65.2895C133.939 65.2895 135.305 63.9241 135.305 62.2398C135.305 60.5555 133.939 59.1901 132.255 59.1901C130.57 59.1901 129.204 60.5555 129.204 62.2398C129.204 63.9241 130.57 65.2895 132.255 65.2895Z" fill="#F2F2F2"/>
<path d="M120.096 65.2895C121.781 65.2895 123.147 63.9241 123.147 62.2398C123.147 60.5555 121.781 59.1901 120.096 59.1901C118.411 59.1901 117.046 60.5555 117.046 62.2398C117.046 63.9241 118.411 65.2895 120.096 65.2895Z" fill="#F2F2F2"/>
<path d="M107.938 65.2895C109.623 65.2895 110.989 63.9241 110.989 62.2398C110.989 60.5555 109.623 59.1901 107.938 59.1901C106.253 59.1901 104.887 60.5555 104.887 62.2398C104.887 63.9241 106.253 65.2895 107.938 65.2895Z" fill="#F2F2F2"/>
<path d="M95.7795 65.2895C97.4643 65.2895 98.8302 63.9241 98.8302 62.2398C98.8302 60.5555 97.4643 59.1901 95.7795 59.1901C94.0946 59.1901 92.7288 60.5555 92.7288 62.2398C92.7288 63.9241 94.0946 65.2895 95.7795 65.2895Z" fill="#F2F2F2"/>
<path d="M132.255 78.0222C133.939 78.0222 135.305 76.6568 135.305 74.9725C135.305 73.2882 133.939 71.9229 132.255 71.9229C130.57 71.9229 129.204 73.2882 129.204 74.9725C129.204 76.6568 130.57 78.0222 132.255 78.0222Z" fill="#F2F2F2"/>
<path d="M120.096 78.0222C121.781 78.0222 123.147 76.6568 123.147 74.9725C123.147 73.2882 121.781 71.9229 120.096 71.9229C118.411 71.9229 117.046 73.2882 117.046 74.9725C117.046 76.6568 118.411 78.0222 120.096 78.0222Z" fill="#F2F2F2"/>
<path d="M107.938 78.0222C109.623 78.0222 110.989 76.6568 110.989 74.9725C110.989 73.2882 109.623 71.9229 107.938 71.9229C106.253 71.9229 104.887 73.2882 104.887 74.9725C104.887 76.6568 106.253 78.0222 107.938 78.0222Z" fill="#F2F2F2"/>
<path d="M95.7795 78.0222C97.4643 78.0222 98.8302 76.6568 98.8302 74.9725C98.8302 73.2882 97.4643 71.9229 95.7795 71.9229C94.0946 71.9229 92.7288 73.2882 92.7288 74.9725C92.7288 76.6568 94.0946 78.0222 95.7795 78.0222Z" fill="#F2F2F2"/>
<path d="M132.255 90.755C133.939 90.755 135.305 89.3896 135.305 87.7053C135.305 86.021 133.939 84.6556 132.255 84.6556C130.57 84.6556 129.204 86.021 129.204 87.7053C129.204 89.3896 130.57 90.755 132.255 90.755Z" fill="#F2F2F2"/>
<path d="M120.096 90.755C121.781 90.755 123.147 89.3896 123.147 87.7053C123.147 86.021 121.781 84.6556 120.096 84.6556C118.411 84.6556 117.046 86.021 117.046 87.7053C117.046 89.3896 118.411 90.755 120.096 90.755Z" fill="#F2F2F2"/>
<path d="M107.938 90.755C109.623 90.755 110.989 89.3896 110.989 87.7053C110.989 86.021 109.623 84.6556 107.938 84.6556C106.253 84.6556 104.887 86.021 104.887 87.7053C104.887 89.3896 106.253 90.755 107.938 90.755Z" fill="#F2F2F2"/>
<path d="M95.7795 90.755C97.4643 90.755 98.8302 89.3896 98.8302 87.7053C98.8302 86.021 97.4643 84.6556 95.7795 84.6556C94.0946 84.6556 92.7288 86.021 92.7288 87.7053C92.7288 89.3896 94.0946 90.755 95.7795 90.755Z" fill="#F2F2F2"/>
<path d="M105.448 170.902V171.845C105.449 173.408 106.071 174.907 107.176 176.012C108.282 177.117 109.781 177.739 111.345 177.74H153.801C155.365 177.739 156.865 177.118 157.97 176.013C159.076 174.907 159.698 173.408 159.698 171.845V170.902C159.701 169.523 159.216 168.186 158.33 167.129C158.035 166.778 157.701 166.462 157.335 166.186C157.335 166.186 133.993 165.658 133.993 165.007H111.345C109.781 165.009 108.283 165.631 107.177 166.736C106.072 167.841 105.45 169.339 105.448 170.902Z" fill="#CCCCCC"/>
<path d="M135.981 177.506H129.848V217.119H135.981V177.506Z" fill="#CCCCCC"/>
<path d="M153.435 216.904C153.435 217.566 144.142 217.16 132.678 217.16C121.215 217.16 111.922 217.566 111.922 216.904C111.922 216.241 121.215 210.988 132.678 210.988C144.142 210.988 153.435 216.241 153.435 216.904Z" fill="#CCCCCC"/>
<path d="M145.004 170.102C145.446 169.508 145.753 168.824 145.903 168.099C146.053 167.374 146.042 166.625 145.871 165.904C145.699 165.183 145.372 164.509 144.912 163.929C144.452 163.348 143.87 162.876 143.208 162.544L130.21 118.269L120.312 123.115L136.201 165.112C135.718 166.262 135.673 167.549 136.076 168.729C136.478 169.909 137.3 170.901 138.385 171.516C139.47 172.131 140.743 172.327 141.963 172.066C143.183 171.805 144.265 171.107 145.004 170.102L145.004 170.102Z" fill="#A0616A"/>
<path d="M133.154 125.663L122.077 128.661C121.761 128.746 121.432 128.763 121.109 128.709C120.787 128.655 120.481 128.533 120.21 128.35C119.94 128.167 119.712 127.928 119.542 127.65C119.372 127.371 119.264 127.059 119.226 126.734L117.887 115.375C117.46 113.761 117.691 112.043 118.528 110.598C119.366 109.153 120.743 108.099 122.357 107.667C123.971 107.236 125.69 107.461 127.138 108.295C128.585 109.128 129.643 110.502 130.08 112.114L134.643 122.562C134.774 122.861 134.838 123.185 134.833 123.512C134.827 123.838 134.75 124.159 134.609 124.454C134.468 124.748 134.265 125.008 134.014 125.217C133.763 125.426 133.47 125.578 133.154 125.663H133.154Z" fill="#5EDA12"/>
<path d="M147.899 212.26L153.682 212.26L156.434 197.266H147.898L147.899 212.26Z" fill="#A0616A"/>
<path d="M146.424 210.373L157.813 210.372H157.814C158.767 210.372 159.711 210.56 160.591 210.925C161.472 211.289 162.272 211.824 162.946 212.497C163.62 213.171 164.155 213.971 164.52 214.852C164.884 215.732 165.072 216.675 165.072 217.628V217.864L146.424 217.865L146.424 210.373Z" fill="#2F2E41"/>
<path d="M154.612 204.22C154.545 204.22 154.477 204.216 154.409 204.21L146.405 203.627C146.081 203.597 145.769 203.493 145.492 203.324C145.215 203.154 144.98 202.923 144.807 202.648C144.633 202.373 144.525 202.062 144.49 201.739C144.456 201.416 144.496 201.089 144.608 200.784L155.32 176.726C155.396 176.512 155.428 176.284 155.412 176.057C155.396 175.83 155.333 175.608 155.227 175.406C155.122 175.202 154.974 175.023 154.794 174.88C154.615 174.737 154.407 174.633 154.184 174.577C149.147 173.26 136.224 169.756 125.037 165.655C120.244 163.898 117.225 161.359 116.065 158.109C114.535 153.824 116.798 149.916 116.895 149.752L116.971 149.623L127.498 150.58L138.91 151.55L163.919 164.956C166.014 166.089 167.606 167.969 168.377 170.223C169.148 172.476 169.041 174.937 168.079 177.115L156.549 202.962C156.382 203.336 156.11 203.654 155.767 203.877C155.423 204.101 155.022 204.219 154.612 204.22Z" fill="#2F2E41"/>
<path d="M129.328 102.983C135.727 102.983 140.915 97.7974 140.915 91.4005C140.915 85.0036 135.727 79.8179 129.328 79.8179C122.929 79.8179 117.742 85.0036 117.742 91.4005C117.742 97.7974 122.929 102.983 129.328 102.983Z" fill="#A0616A"/>
<path d="M144.597 211.789L150.38 211.788L153.132 196.794H144.596L144.597 211.789Z" fill="#A0616A"/>
<path d="M143.121 209.901L154.511 209.901H154.511C155.465 209.901 156.409 210.088 157.289 210.453C158.17 210.818 158.97 211.352 159.644 212.026C160.318 212.7 160.853 213.5 161.217 214.38C161.582 215.26 161.77 216.204 161.77 217.157V217.392L143.122 217.393L143.121 209.901Z" fill="#2F2E41"/>
<path d="M151.31 205.634C151.242 205.634 151.175 205.631 151.107 205.625L143.103 205.042C142.779 205.012 142.467 204.908 142.19 204.738C141.913 204.569 141.678 204.337 141.504 204.063C141.331 203.788 141.223 203.477 141.188 203.154C141.154 202.831 141.194 202.504 141.306 202.199L152.018 178.141C152.094 177.927 152.125 177.699 152.109 177.471C152.094 177.244 152.031 177.023 151.925 176.821C151.82 176.617 151.672 176.438 151.492 176.295C151.313 176.152 151.104 176.048 150.882 175.991C145.845 174.675 132.922 171.171 121.735 167.07C116.942 165.313 113.923 162.774 112.763 159.524C111.233 155.238 113.496 151.33 113.593 151.166L113.669 151.038L124.196 151.994L135.608 152.965L160.617 166.371C162.712 167.504 164.304 169.384 165.075 171.637C165.846 173.891 165.739 176.352 164.777 178.53L153.247 204.377C153.08 204.751 152.808 205.069 152.465 205.292C152.121 205.515 151.72 205.634 151.31 205.634Z" fill="#2F2E41"/>
<path d="M132.902 109.551L120.636 105.307C120.636 105.307 112.937 111.22 116.636 125.891C118.567 133.461 118.004 141.452 115.032 148.678C114.674 149.572 114.261 150.443 113.796 151.286C113.796 151.286 127.477 167.792 140.214 155.53L135.261 131.715C135.261 131.715 143.044 115.917 132.902 109.551Z" fill="#2F2E41"/>
<path d="M130.767 103.377C129.118 100.91 127.816 97.4881 129.632 95.1404C131.424 92.8229 134.959 93.1643 137.704 92.1389C141.527 90.7106 143.744 86.2208 143.053 82.1999C142.361 78.1791 139.132 74.8459 135.286 73.482C131.439 72.1182 127.102 72.5618 123.335 74.1323C118.698 76.0657 114.721 79.8056 113.053 84.5431C111.385 89.2806 112.276 94.9689 115.736 98.6103C119.446 102.514 125.268 103.555 130.654 103.491" fill="#2F2E41"/>
<path d="M119.989 82.329C117.911 84.02 114.741 83.269 112.51 81.7849C110.28 80.3008 108.47 78.1875 106.056 77.0239C101.802 74.9725 96.6575 76.3362 92.5165 78.6085C88.3756 80.8807 84.7049 84.0199 80.3308 85.803C75.9568 87.5862 70.3752 87.6743 67.0631 84.3074C66.2481 86.668 66.1815 89.2226 66.8724 91.6225C67.5633 94.0224 68.978 96.1508 70.9236 97.7173C72.8692 99.2837 75.2509 100.212 77.7438 100.375C80.2366 100.539 82.7191 99.9292 84.8526 98.6301C89.6452 95.7117 92.2925 89.5928 97.6679 87.982C100.643 87.0907 103.837 87.8086 106.843 88.5861C109.849 89.3637 112.984 90.2039 116.018 89.5419C119.052 88.88 121.89 86.1545 121.504 83.0742L119.989 82.329Z" fill="#2F2E41"/>
<path d="M157.707 191.466C156.48 183.5 156.48 175.393 157.707 167.427C157.784 166.953 158.028 166.522 158.394 166.21C158.76 165.899 159.225 165.728 159.705 165.727H178.515C178.82 165.726 179.121 165.794 179.395 165.927C179.669 166.06 179.91 166.254 180.098 166.494C180.29 166.737 180.424 167.02 180.49 167.323C180.556 167.626 180.552 167.94 180.479 168.241C178.719 175.608 178.719 183.286 180.479 190.653C180.552 190.954 180.556 191.268 180.49 191.57C180.424 191.873 180.29 192.157 180.098 192.4C179.91 192.64 179.669 192.833 179.395 192.966C179.121 193.099 178.82 193.168 178.515 193.167H159.705C159.225 193.166 158.76 192.994 158.394 192.683C158.028 192.372 157.784 191.94 157.707 191.466Z" fill="#5EDA12"/>
<path d="M172.727 177.364H162.856C162.481 177.363 162.121 177.214 161.856 176.949C161.591 176.684 161.441 176.324 161.441 175.949V175.396C161.441 175.021 161.591 174.662 161.856 174.396C162.121 174.131 162.481 173.982 162.856 173.982H172.727C173.102 173.982 173.462 174.131 173.727 174.396C173.992 174.662 174.142 175.021 174.142 175.396V175.949C174.142 176.324 173.992 176.684 173.727 176.949C173.462 177.214 173.102 177.363 172.727 177.364Z" fill="white"/>
<path d="M172.727 183.185H162.856C162.481 183.185 162.121 183.036 161.856 182.771C161.591 182.505 161.441 182.146 161.441 181.771V181.218C161.441 180.843 161.591 180.483 161.856 180.218C162.121 179.953 162.481 179.803 162.856 179.803H172.727C173.102 179.803 173.462 179.953 173.727 180.218C173.992 180.483 174.142 180.843 174.142 181.218V181.771C174.142 182.146 173.992 182.505 173.727 182.771C173.462 183.036 173.102 183.185 172.727 183.185Z" fill="white"/>
<path d="M162.653 167.98C162.933 167.295 163.06 166.556 163.023 165.816C162.987 165.076 162.789 164.354 162.443 163.699C162.097 163.044 161.612 162.473 161.022 162.025C160.431 161.578 159.749 161.266 159.025 161.111L135.374 121.486L127.001 128.65L152.882 165.347C152.702 166.581 152.98 167.838 153.665 168.88C154.35 169.923 155.393 170.677 156.598 171.002C157.802 171.327 159.084 171.198 160.2 170.641C161.316 170.084 162.189 169.138 162.653 167.98L162.653 167.98Z" fill="#A0616A"/>
<path d="M140.073 127.91L130.096 133.58C129.812 133.741 129.497 133.839 129.172 133.868C128.846 133.896 128.519 133.854 128.211 133.745C127.903 133.635 127.623 133.461 127.389 133.233C127.155 133.006 126.972 132.73 126.854 132.426L122.719 121.761C121.902 120.305 121.696 118.584 122.146 116.975C122.596 115.367 123.666 114.003 125.121 113.182C126.575 112.361 128.297 112.15 129.907 112.595C131.517 113.041 132.884 114.106 133.71 115.558L140.74 124.536C140.941 124.793 141.085 125.09 141.16 125.408C141.236 125.725 141.243 126.055 141.18 126.375C141.116 126.696 140.985 126.999 140.794 127.263C140.603 127.528 140.357 127.749 140.073 127.91Z" fill="#2F2E41"/>
<path d="M246.234 141.829H54.7067C53.8935 141.829 53.1135 142.152 52.5385 142.727C51.9634 143.301 51.6404 144.081 51.6404 144.894C51.6404 145.707 51.9634 146.487 52.5385 147.062C53.1135 147.636 53.8935 147.959 54.7067 147.959H60.1317V214.689C60.1317 215.501 60.4548 216.281 61.0299 216.856C61.6049 217.431 62.3848 217.754 63.1981 217.754C64.0113 217.754 64.7913 217.431 65.3663 216.856C65.9414 216.281 66.2644 215.501 66.2644 214.689V153.849L100.641 216.135C101.048 216.838 101.718 217.35 102.503 217.559C103.287 217.768 104.123 217.658 104.826 217.252C105.53 216.846 106.043 216.178 106.254 215.394C106.465 214.61 106.357 213.774 105.952 213.07L70.0165 147.959H234.205V147.999L198.292 213.07C197.885 213.774 197.775 214.611 197.985 215.396C198.196 216.181 198.71 216.851 199.414 217.257C200.118 217.664 200.955 217.774 201.74 217.563C202.526 217.353 203.196 216.839 203.602 216.135L234.205 160.687V214.689C234.205 215.501 234.528 216.281 235.103 216.856C235.678 217.431 236.458 217.754 237.271 217.754C238.084 217.754 238.864 217.431 239.439 216.856C240.014 216.281 240.337 215.501 240.337 214.689V149.576L241.23 147.959H246.234C247.047 147.959 247.827 147.636 248.402 147.062C248.977 146.487 249.301 145.707 249.301 144.894C249.301 144.081 248.977 143.301 248.402 142.727C247.827 142.152 247.047 141.829 246.234 141.829Z" fill="#3F3D56"/>
<path d="M166.981 139.942H129.714C128.802 139.942 128.063 140.681 128.063 141.593C128.063 142.505 128.802 143.243 129.714 143.243H166.981C167.893 143.243 168.633 142.505 168.633 141.593C168.633 140.681 167.893 139.942 166.981 139.942Z" fill="#CCCCCC"/>
<path d="M191.984 143.243H149.999C149.186 143.243 148.406 142.919 147.832 142.345C147.257 141.77 146.933 140.991 146.932 140.178V117.071C146.933 116.258 147.257 115.479 147.832 114.904C148.406 114.329 149.186 114.006 149.999 114.005H191.984C192.797 114.006 193.576 114.329 194.151 114.904C194.726 115.479 195.049 116.258 195.05 117.071V140.178C195.049 140.991 194.726 141.77 194.151 142.345C193.576 142.919 192.797 143.243 191.984 143.243Z" fill="#CCCCCC"/>
<path d="M170.991 131.454C172.554 131.454 173.822 130.187 173.822 128.624C173.822 127.062 172.554 125.795 170.991 125.795C169.428 125.795 168.161 127.062 168.161 128.624C168.161 130.187 169.428 131.454 170.991 131.454Z" fill="white"/>
<path d="M224.025 86.31V3.54698C224.026 2.60659 224.4 1.70502 225.065 1.04007C225.731 0.37511 226.632 0.00106966 227.573 0H293.017C293.958 0.00106966 294.86 0.37511 295.525 1.04007C296.19 1.70502 296.564 2.60659 296.565 3.54698V86.31C296.564 87.2504 296.19 88.152 295.525 88.8169C294.86 89.4819 293.958 89.8559 293.017 89.857H227.573C226.632 89.8559 225.731 89.4819 225.065 88.8169C224.4 88.152 224.026 87.2504 224.025 86.31ZM227.573 0.788221C226.841 0.789042 226.14 1.07996 225.623 1.59715C225.105 2.11434 224.814 2.81557 224.813 3.54698V86.31C224.814 87.0414 225.105 87.7426 225.623 88.2598C226.14 88.777 226.841 89.0679 227.573 89.0688H293.017C293.749 89.0679 294.45 88.777 294.968 88.2598C295.485 87.7426 295.776 87.0414 295.777 86.31V3.54698C295.776 2.81557 295.485 2.11434 294.968 1.59715C294.45 1.07996 293.749 0.789042 293.017 0.788221H227.573Z" fill="#E6E6E6"/>
<path d="M263.965 38.0086V21.0147C263.966 20.5445 264.153 20.0937 264.485 19.7613C264.818 19.4288 265.269 19.2418 265.739 19.2412H280.145C280.615 19.2418 281.066 19.4288 281.399 19.7613C281.731 20.0937 281.918 20.5445 281.919 21.0147V38.0086C281.918 38.4788 281.731 38.9296 281.399 39.2621C281.066 39.5945 280.615 39.7816 280.145 39.7821H265.739C265.269 39.7816 264.818 39.5945 264.485 39.2621C264.153 38.9296 263.966 38.4788 263.965 38.0086Z" fill="#5EDA12"/>
<path d="M235.974 45.8908V28.897C235.974 28.4267 236.161 27.976 236.494 27.6435C236.827 27.311 237.278 27.124 237.748 27.1234H252.154C252.624 27.124 253.075 27.311 253.407 27.6435C253.74 27.976 253.927 28.4268 253.928 28.897V45.8908C253.927 46.361 253.74 46.8118 253.407 47.1443C253.075 47.4768 252.624 47.6638 252.154 47.6643H237.748C237.278 47.6638 236.827 47.4768 236.494 47.1443C236.161 46.8118 235.974 46.361 235.974 45.8908Z" fill="#CCCCCC"/>
<path d="M258.446 69.9315V52.9376C258.446 52.4674 258.633 52.0166 258.966 51.6841C259.298 51.3517 259.749 51.1646 260.22 51.1641H274.625C275.096 51.1646 275.547 51.3517 275.879 51.6841C276.212 52.0166 276.399 52.4674 276.399 52.9376V69.9315C276.399 70.4017 276.212 70.8525 275.879 71.1849C275.547 71.5174 275.096 71.7045 274.625 71.705H260.22C259.749 71.7045 259.298 71.5174 258.966 71.185C258.633 70.8525 258.446 70.4017 258.446 69.9315Z" fill="#FF6584"/>
<path d="M368.309 8.62393C369.994 8.62393 371.36 7.25854 371.36 5.57425C371.36 3.88996 369.994 2.52457 368.309 2.52457C366.624 2.52457 365.258 3.88996 365.258 5.57425C365.258 7.25854 366.624 8.62393 368.309 8.62393Z" fill="#F2F2F2"/>
<path d="M368.309 20.7782C369.994 20.7782 371.36 19.4128 371.36 17.7285C371.36 16.0443 369.994 14.6789 368.309 14.6789C366.624 14.6789 365.258 16.0443 365.258 17.7285C365.258 19.4128 366.624 20.7782 368.309 20.7782Z" fill="#F2F2F2"/>
<path d="M368.309 32.9325C369.994 32.9325 371.36 31.5671 371.36 29.8828C371.36 28.1985 369.994 26.8331 368.309 26.8331C366.624 26.8331 365.258 28.1985 365.258 29.8828C365.258 31.5671 366.624 32.9325 368.309 32.9325Z" fill="#F2F2F2"/>
<path d="M368.309 45.0868C369.994 45.0868 371.36 43.7214 371.36 42.0371C371.36 40.3528 369.994 38.9874 368.309 38.9874C366.624 38.9874 365.258 40.3528 365.258 42.0371C365.258 43.7214 366.624 45.0868 368.309 45.0868Z" fill="#F2F2F2"/>
<path d="M355.572 8.62393C357.257 8.62393 358.623 7.25854 358.623 5.57425C358.623 3.88996 357.257 2.52457 355.572 2.52457C353.887 2.52457 352.521 3.88996 352.521 5.57425C352.521 7.25854 353.887 8.62393 355.572 8.62393Z" fill="#F2F2F2"/>
<path d="M355.572 20.7782C357.257 20.7782 358.623 19.4128 358.623 17.7285C358.623 16.0443 357.257 14.6789 355.572 14.6789C353.887 14.6789 352.521 16.0443 352.521 17.7285C352.521 19.4128 353.887 20.7782 355.572 20.7782Z" fill="#F2F2F2"/>
<path d="M355.572 32.9325C357.257 32.9325 358.623 31.5671 358.623 29.8828C358.623 28.1985 357.257 26.8331 355.572 26.8331C353.887 26.8331 352.521 28.1985 352.521 29.8828C352.521 31.5671 353.887 32.9325 355.572 32.9325Z" fill="#F2F2F2"/>
<path d="M355.572 45.0868C357.257 45.0868 358.623 43.7214 358.623 42.0371C358.623 40.3528 357.257 38.9874 355.572 38.9874C353.887 38.9874 352.521 40.3528 352.521 42.0371C352.521 43.7214 353.887 45.0868 355.572 45.0868Z" fill="#F2F2F2"/>
<path d="M342.835 8.62393C344.52 8.62393 345.886 7.25854 345.886 5.57425C345.886 3.88996 344.52 2.52457 342.835 2.52457C341.15 2.52457 339.784 3.88996 339.784 5.57425C339.784 7.25854 341.15 8.62393 342.835 8.62393Z" fill="#F2F2F2"/>
<path d="M342.835 20.7782C344.52 20.7782 345.886 19.4128 345.886 17.7285C345.886 16.0443 344.52 14.6789 342.835 14.6789C341.15 14.6789 339.784 16.0443 339.784 17.7285C339.784 19.4128 341.15 20.7782 342.835 20.7782Z" fill="#F2F2F2"/>
<path d="M342.835 32.9325C344.52 32.9325 345.886 31.5671 345.886 29.8828C345.886 28.1985 344.52 26.8331 342.835 26.8331C341.15 26.8331 339.784 28.1985 339.784 29.8828C339.784 31.5671 341.15 32.9325 342.835 32.9325Z" fill="#F2F2F2"/>
<path d="M342.835 45.0868C344.52 45.0868 345.886 43.7214 345.886 42.0371C345.886 40.3528 344.52 38.9874 342.835 38.9874C341.15 38.9874 339.784 40.3528 339.784 42.0371C339.784 43.7214 341.15 45.0868 342.835 45.0868Z" fill="#F2F2F2"/>
<path d="M330.098 8.62393C331.783 8.62393 333.149 7.25854 333.149 5.57425C333.149 3.88996 331.783 2.52457 330.098 2.52457C328.413 2.52457 327.047 3.88996 327.047 5.57425C327.047 7.25854 328.413 8.62393 330.098 8.62393Z" fill="#F2F2F2"/>
<path d="M330.098 20.7782C331.783 20.7782 333.149 19.4128 333.149 17.7285C333.149 16.0443 331.783 14.6789 330.098 14.6789C328.413 14.6789 327.047 16.0443 327.047 17.7285C327.047 19.4128 328.413 20.7782 330.098 20.7782Z" fill="#F2F2F2"/>
<path d="M330.098 32.9325C331.783 32.9325 333.149 31.5671 333.149 29.8828C333.149 28.1985 331.783 26.8331 330.098 26.8331C328.413 26.8331 327.047 28.1985 327.047 29.8828C327.047 31.5671 328.413 32.9325 330.098 32.9325Z" fill="#F2F2F2"/>
<path d="M330.098 45.0868C331.783 45.0868 333.149 43.7214 333.149 42.0371C333.149 40.3528 331.783 38.9874 330.098 38.9874C328.413 38.9874 327.047 40.3528 327.047 42.0371C327.047 43.7214 328.413 45.0868 330.098 45.0868Z" fill="#F2F2F2"/>
<path d="M317.361 8.62393C319.046 8.62393 320.411 7.25854 320.411 5.57425C320.411 3.88996 319.046 2.52457 317.361 2.52457C315.676 2.52457 314.31 3.88996 314.31 5.57425C314.31 7.25854 315.676 8.62393 317.361 8.62393Z" fill="#F2F2F2"/>
<path d="M317.361 20.7782C319.046 20.7782 320.411 19.4128 320.411 17.7285C320.411 16.0443 319.046 14.6789 317.361 14.6789C315.676 14.6789 314.31 16.0443 314.31 17.7285C314.31 19.4128 315.676 20.7782 317.361 20.7782Z" fill="#F2F2F2"/>
<path d="M317.361 32.9325C319.046 32.9325 320.411 31.5671 320.411 29.8828C320.411 28.1985 319.046 26.8331 317.361 26.8331C315.676 26.8331 314.31 28.1985 314.31 29.8828C314.31 31.5671 315.676 32.9325 317.361 32.9325Z" fill="#F2F2F2"/>
<path d="M317.361 45.0868C319.046 45.0868 320.411 43.7214 320.411 42.0371C320.411 40.3528 319.046 38.9874 317.361 38.9874C315.676 38.9874 314.31 40.3528 314.31 42.0371C314.31 43.7214 315.676 45.0868 317.361 45.0868Z" fill="#F2F2F2"/>
<path d="M304.624 8.62393C306.309 8.62393 307.674 7.25854 307.674 5.57425C307.674 3.88996 306.309 2.52457 304.624 2.52457C302.939 2.52457 301.573 3.88996 301.573 5.57425C301.573 7.25854 302.939 8.62393 304.624 8.62393Z" fill="#F2F2F2"/>
<path d="M304.624 20.7782C306.309 20.7782 307.674 19.4128 307.674 17.7285C307.674 16.0443 306.309 14.6789 304.624 14.6789C302.939 14.6789 301.573 16.0443 301.573 17.7285C301.573 19.4128 302.939 20.7782 304.624 20.7782Z" fill="#F2F2F2"/>
<path d="M304.624 32.9325C306.309 32.9325 307.674 31.5671 307.674 29.8828C307.674 28.1985 306.309 26.8331 304.624 26.8331C302.939 26.8331 301.573 28.1985 301.573 29.8828C301.573 31.5671 302.939 32.9325 304.624 32.9325Z" fill="#F2F2F2"/>
<path d="M304.624 45.0868C306.309 45.0868 307.674 43.7214 307.674 42.0371C307.674 40.3528 306.309 38.9874 304.624 38.9874C302.939 38.9874 301.573 40.3528 301.573 42.0371C301.573 43.7214 302.939 45.0868 304.624 45.0868Z" fill="#F2F2F2"/>
<path d="M316.914 113.771C316.664 113.084 316.562 112.352 316.614 111.623C316.667 110.894 316.873 110.184 317.218 109.54C317.564 108.896 318.043 108.332 318.622 107.886C319.201 107.44 319.868 107.121 320.579 106.95C320.804 106.897 321.033 106.86 321.263 106.838L332.728 86.7496L329.833 81.7779L337.039 76.2205L342.552 83.8752C343.21 84.7954 343.553 85.903 343.531 87.0336C343.508 88.1642 343.122 89.2575 342.429 90.1513L326.69 110.294C326.747 110.455 326.796 110.617 326.836 110.782C327.007 111.493 327.026 112.232 326.891 112.951C326.756 113.669 326.471 114.351 326.054 114.952C325.637 115.552 325.098 116.058 324.472 116.436C323.846 116.814 323.147 117.055 322.421 117.144C322.21 117.171 321.998 117.184 321.786 117.184C320.722 117.18 319.685 116.851 318.814 116.241C317.943 115.631 317.28 114.769 316.914 113.771Z" fill="#FFB8B8"/>
<path d="M294.547 212.632L288.763 212.631L286.012 190.331L294.548 190.331L294.547 212.632Z" fill="#FFB8B8"/>
<path d="M284.632 210.979H295.786V218H277.609C277.609 217.078 277.791 216.165 278.144 215.313C278.497 214.461 279.014 213.687 279.666 213.035C280.318 212.384 281.093 211.866 281.945 211.514C282.797 211.161 283.71 210.979 284.632 210.979Z" fill="#2F2E41"/>
<path d="M342.193 212.632L336.409 212.631L333.658 190.331L342.194 190.331L342.193 212.632Z" fill="#FFB8B8"/>
<path d="M332.278 210.979H343.432V218H325.255C325.255 217.078 325.437 216.165 325.79 215.313C326.143 214.461 326.66 213.687 327.312 213.035C327.964 212.384 328.739 211.866 329.591 211.514C330.443 211.161 331.356 210.979 332.278 210.979Z" fill="#2F2E41"/>
<path d="M338.643 77.3064L325.658 82.2388L322.488 73.436C322.067 72.2671 322.073 70.987 322.505 69.8221C322.937 68.6571 323.767 67.6823 324.848 67.0698C325.942 66.4502 327.221 66.242 328.455 66.4828C329.689 66.7236 330.796 67.3976 331.576 68.3829L338.643 77.3064Z" fill="#5EDA12"/>
<path d="M295.046 194.57L284.156 192.087C283.577 191.954 283.07 191.607 282.736 191.115C282.402 190.624 282.267 190.024 282.358 189.437C286.727 161.751 290.931 145.537 301.765 124.947C301.917 124.563 303.608 116.771 304.712 111.608C304.7 111.039 304.894 110.485 305.26 110.05C305.626 109.614 306.138 109.326 306.7 109.239L327.006 106.115C327.312 106.009 327.636 105.96 327.96 105.971L328.163 106.01L328.16 106.21C328.158 106.416 327.952 106.447 327.875 106.459L327.605 106.501C327.913 106.644 328.196 106.836 328.442 107.07C337.339 117.767 341.966 152.832 347.842 191.57C347.874 191.885 347.836 192.203 347.73 192.5C347.623 192.798 347.451 193.068 347.227 193.291C347.014 193.523 346.757 193.709 346.47 193.839C346.183 193.969 345.873 194.039 345.558 194.045L332.584 194.361C332.014 194.374 331.459 194.18 331.022 193.814C330.585 193.448 330.296 192.935 330.209 192.372L321.47 141.89C321.41 141.495 321.226 141.131 320.944 140.848C320.662 140.566 320.297 140.381 319.903 140.32C319.508 140.259 319.105 140.326 318.751 140.51C318.397 140.694 318.111 140.987 317.935 141.345C310.885 155.697 304.311 168.109 297.836 192.873C297.707 193.375 297.415 193.82 297.006 194.138C296.597 194.456 296.093 194.629 295.575 194.63C295.397 194.63 295.219 194.61 295.046 194.57Z" fill="#2F2E41"/>
<path d="M305.616 112.185C305.343 111.991 305.114 111.742 304.945 111.454C304.775 111.165 304.669 110.844 304.634 110.511C302.97 94.9915 304.129 82.8461 308.174 73.381C308.887 71.7485 309.96 70.2987 311.314 69.1405C312.668 67.9823 314.266 67.1459 315.99 66.6941L326.486 66.1645L326.54 66.1908C328.909 67.3505 330.84 69.2423 332.048 71.5859C333.257 73.9294 333.677 76.5997 333.248 79.201C329.872 88.0966 327.045 97.3584 329.201 104.83C329.291 105.142 329.318 105.47 329.279 105.792C329.239 106.115 329.135 106.427 328.973 106.708C328.815 106.981 328.603 107.218 328.351 107.405C328.098 107.592 327.809 107.726 327.503 107.797L307.511 112.551C307.187 112.628 306.851 112.635 306.524 112.572C306.198 112.509 305.888 112.377 305.616 112.185Z" fill="#5EDA12"/>
<path d="M301.098 89.913L280.967 74.0366C280.807 74.093 280.643 74.1411 280.478 74.1808C279.768 74.3469 279.03 74.3618 278.313 74.2244C277.597 74.087 276.917 73.8003 276.318 73.3832C275.716 72.9657 275.209 72.4243 274.833 71.7954C274.457 71.1665 274.219 70.4644 274.136 69.7362C274.001 68.5721 274.263 67.3965 274.881 66.4003C275.498 65.404 276.434 64.6455 277.537 64.2478C278.225 64.001 278.958 63.9024 279.687 63.9583C280.416 64.0143 281.125 64.2236 281.767 64.5726C282.41 64.9215 282.971 65.4022 283.415 65.9832C283.859 66.5641 284.175 67.2323 284.342 67.9438C284.394 68.1693 284.43 68.3981 284.45 68.6286L304.491 80.1859L309.478 77.3156L315.002 84.546L307.259 90.0631C306.353 90.7037 305.264 91.035 304.154 91.008C303.044 90.9809 301.973 90.597 301.098 89.913H301.098Z" fill="#FFB8B8"/>
<path d="M317.459 86.7976L305.972 78.9894L311.371 71.3465C312.087 70.3316 313.14 69.6027 314.342 69.2886C315.545 68.9745 316.819 69.0954 317.941 69.6299C319.076 70.1707 319.98 71.0992 320.49 72.2479C321 73.3967 321.082 74.6898 320.722 75.8938L317.459 86.7976Z" fill="#5EDA12"/>
<path d="M322.983 62.2455C329.382 62.2455 334.569 57.0598 334.569 50.6629C334.569 44.2661 329.382 39.0804 322.983 39.0804C316.584 39.0804 311.396 44.2661 311.396 50.6629C311.396 57.0598 316.584 62.2455 322.983 62.2455Z" fill="#FFB8B8"/>
<path d="M318.735 48.9378C315.757 50.9753 311.847 53.0697 308.805 50.9C306.808 49.4753 306.179 46.837 306.989 44.5218C308.445 40.3584 312.447 38.5255 316.273 37.1205C321.247 35.2941 326.663 33.841 331.798 35.149C336.934 36.4571 341.472 41.4272 340.545 46.6429C339.799 50.8373 335.842 54.3274 336.403 58.5502C336.969 62.8002 341.75 65.0373 345.971 65.7969C350.192 66.5564 354.915 66.8005 357.949 69.8314C361.819 73.6978 360.852 80.6086 357.211 84.6908C353.57 88.7729 348.075 90.6234 342.75 91.8813C335.696 93.548 328.065 94.4239 321.365 91.6579C314.665 88.8918 309.451 81.446 311.392 74.464C312.212 71.5148 314.143 69.0224 316.01 66.5959C317.876 64.1694 319.766 61.632 320.478 58.6549C321.072 56.174 320.632 53.2936 318.987 51.4327C318.687 51.1069 318.499 50.6948 318.449 50.2553C318.398 49.8159 318.488 49.3718 318.706 48.9868L318.735 48.9378Z" fill="#2F2E41"/>
</g>
<defs>
<clipPath id="clip0_1319_3604">
<rect width="423" height="218" fill="white"/>
</clipPath>
</defs>
</svg>
