<svg width="291" height="150" viewBox="0 0 291 150" fill="none" xmlns="http://www.w3.org/2000/svg">
<g clip-path="url(#clip0_1319_3707)">
<path d="M290.614 149.967H0.386396C0.284107 149.966 0.18611 149.925 0.113885 149.853C0.0416594 149.781 0.00109863 149.682 0.00109863 149.58C0.00109863 149.478 0.0416594 149.38 0.113885 149.307C0.18611 149.235 0.284107 149.194 0.386396 149.194H290.614C290.716 149.194 290.814 149.235 290.886 149.307C290.958 149.38 290.999 149.478 290.999 149.58C290.999 149.682 290.958 149.781 290.886 149.853C290.814 149.925 290.716 149.966 290.614 149.967Z" fill="#3F3D56"/>
<path d="M90.9837 18.6407C92.1427 18.6407 93.0824 17.7012 93.0824 16.5423C93.0824 15.3834 92.1427 14.4439 90.9837 14.4439C89.8246 14.4439 88.8849 15.3834 88.8849 16.5423C88.8849 17.7012 89.8246 18.6407 90.9837 18.6407Z" fill="#F2F2F2"/>
<path d="M82.6194 18.6407C83.7785 18.6407 84.7181 17.7012 84.7181 16.5423C84.7181 15.3834 83.7785 14.4439 82.6194 14.4439C81.4603 14.4439 80.5207 15.3834 80.5207 16.5423C80.5207 17.7012 81.4603 18.6407 82.6194 18.6407Z" fill="#F2F2F2"/>
<path d="M74.2551 18.6407C75.4142 18.6407 76.3538 17.7012 76.3538 16.5423C76.3538 15.3834 75.4142 14.4439 74.2551 14.4439C73.096 14.4439 72.1564 15.3834 72.1564 16.5423C72.1564 17.7012 73.096 18.6407 74.2551 18.6407Z" fill="#F2F2F2"/>
<path d="M65.8908 18.6407C67.0499 18.6407 67.9895 17.7012 67.9895 16.5423C67.9895 15.3834 67.0499 14.4439 65.8908 14.4439C64.7317 14.4439 63.7921 15.3834 63.7921 16.5423C63.7921 17.7012 64.7317 18.6407 65.8908 18.6407Z" fill="#F2F2F2"/>
<path d="M90.9837 27.4018C92.1427 27.4018 93.0824 26.4623 93.0824 25.3034C93.0824 24.1444 92.1427 23.205 90.9837 23.205C89.8246 23.205 88.8849 24.1444 88.8849 25.3034C88.8849 26.4623 89.8246 27.4018 90.9837 27.4018Z" fill="#F2F2F2"/>
<path d="M82.6194 27.4018C83.7785 27.4018 84.7181 26.4623 84.7181 25.3034C84.7181 24.1444 83.7785 23.205 82.6194 23.205C81.4603 23.205 80.5207 24.1444 80.5207 25.3034C80.5207 26.4623 81.4603 27.4018 82.6194 27.4018Z" fill="#F2F2F2"/>
<path d="M74.2551 27.4018C75.4142 27.4018 76.3538 26.4623 76.3538 25.3034C76.3538 24.1444 75.4142 23.205 74.2551 23.205C73.096 23.205 72.1564 24.1444 72.1564 25.3034C72.1564 26.4623 73.096 27.4018 74.2551 27.4018Z" fill="#F2F2F2"/>
<path d="M65.8908 27.4018C67.0499 27.4018 67.9895 26.4623 67.9895 25.3034C67.9895 24.1444 67.0499 23.205 65.8908 23.205C64.7317 23.205 63.7921 24.1444 63.7921 25.3034C63.7921 26.4623 64.7317 27.4018 65.8908 27.4018Z" fill="#F2F2F2"/>
<path d="M90.9837 36.1629C92.1427 36.1629 93.0824 35.2234 93.0824 34.0645C93.0824 32.9056 92.1427 31.9661 90.9837 31.9661C89.8246 31.9661 88.8849 32.9056 88.8849 34.0645C88.8849 35.2234 89.8246 36.1629 90.9837 36.1629Z" fill="#F2F2F2"/>
<path d="M82.6194 36.1629C83.7785 36.1629 84.7181 35.2234 84.7181 34.0645C84.7181 32.9056 83.7785 31.9661 82.6194 31.9661C81.4603 31.9661 80.5207 32.9056 80.5207 34.0645C80.5207 35.2234 81.4603 36.1629 82.6194 36.1629Z" fill="#F2F2F2"/>
<path d="M74.2551 36.1629C75.4142 36.1629 76.3538 35.2234 76.3538 34.0645C76.3538 32.9056 75.4142 31.9661 74.2551 31.9661C73.096 31.9661 72.1564 32.9056 72.1564 34.0645C72.1564 35.2234 73.096 36.1629 74.2551 36.1629Z" fill="#F2F2F2"/>
<path d="M65.8908 36.1629C67.0499 36.1629 67.9895 35.2234 67.9895 34.0645C67.9895 32.9056 67.0499 31.9661 65.8908 31.9661C64.7317 31.9661 63.7921 32.9056 63.7921 34.0645C63.7921 35.2234 64.7317 36.1629 65.8908 36.1629Z" fill="#F2F2F2"/>
<path d="M90.9837 44.9239C92.1427 44.9239 93.0824 43.9844 93.0824 42.8255C93.0824 41.6666 92.1427 40.7271 90.9837 40.7271C89.8246 40.7271 88.8849 41.6666 88.8849 42.8255C88.8849 43.9844 89.8246 44.9239 90.9837 44.9239Z" fill="#F2F2F2"/>
<path d="M82.6194 44.9239C83.7785 44.9239 84.7181 43.9844 84.7181 42.8255C84.7181 41.6666 83.7785 40.7271 82.6194 40.7271C81.4603 40.7271 80.5207 41.6666 80.5207 42.8255C80.5207 43.9844 81.4603 44.9239 82.6194 44.9239Z" fill="#F2F2F2"/>
<path d="M74.2551 44.9239C75.4142 44.9239 76.3538 43.9844 76.3538 42.8255C76.3538 41.6666 75.4142 40.7271 74.2551 40.7271C73.096 40.7271 72.1564 41.6666 72.1564 42.8255C72.1564 43.9844 73.096 44.9239 74.2551 44.9239Z" fill="#F2F2F2"/>
<path d="M65.8908 44.9239C67.0499 44.9239 67.9895 43.9844 67.9895 42.8255C67.9895 41.6666 67.0499 40.7271 65.8908 40.7271C64.7317 40.7271 63.7921 41.6666 63.7921 42.8255C63.7921 43.9844 64.7317 44.9239 65.8908 44.9239Z" fill="#F2F2F2"/>
<path d="M90.9837 53.685C92.1427 53.685 93.0824 52.7455 93.0824 51.5866C93.0824 50.4277 92.1427 49.4882 90.9837 49.4882C89.8246 49.4882 88.8849 50.4277 88.8849 51.5866C88.8849 52.7455 89.8246 53.685 90.9837 53.685Z" fill="#F2F2F2"/>
<path d="M82.6194 53.685C83.7785 53.685 84.7181 52.7455 84.7181 51.5866C84.7181 50.4277 83.7785 49.4882 82.6194 49.4882C81.4603 49.4882 80.5207 50.4277 80.5207 51.5866C80.5207 52.7455 81.4603 53.685 82.6194 53.685Z" fill="#F2F2F2"/>
<path d="M74.2551 53.685C75.4142 53.685 76.3538 52.7455 76.3538 51.5866C76.3538 50.4277 75.4142 49.4882 74.2551 49.4882C73.096 49.4882 72.1564 50.4277 72.1564 51.5866C72.1564 52.7455 73.096 53.685 74.2551 53.685Z" fill="#F2F2F2"/>
<path d="M65.8908 53.685C67.0499 53.685 67.9895 52.7455 67.9895 51.5866C67.9895 50.4277 67.0499 49.4882 65.8908 49.4882C64.7317 49.4882 63.7921 50.4277 63.7921 51.5866C63.7921 52.7455 64.7317 53.685 65.8908 53.685Z" fill="#F2F2F2"/>
<path d="M90.9837 62.4461C92.1427 62.4461 93.0824 61.5066 93.0824 60.3477C93.0824 59.1888 92.1427 58.2493 90.9837 58.2493C89.8246 58.2493 88.8849 59.1888 88.8849 60.3477C88.8849 61.5066 89.8246 62.4461 90.9837 62.4461Z" fill="#F2F2F2"/>
<path d="M82.6194 62.4461C83.7785 62.4461 84.7181 61.5066 84.7181 60.3477C84.7181 59.1888 83.7785 58.2493 82.6194 58.2493C81.4603 58.2493 80.5207 59.1888 80.5207 60.3477C80.5207 61.5066 81.4603 62.4461 82.6194 62.4461Z" fill="#F2F2F2"/>
<path d="M74.2551 62.4461C75.4142 62.4461 76.3538 61.5066 76.3538 60.3477C76.3538 59.1888 75.4142 58.2493 74.2551 58.2493C73.096 58.2493 72.1564 59.1888 72.1564 60.3477C72.1564 61.5066 73.096 62.4461 74.2551 62.4461Z" fill="#F2F2F2"/>
<path d="M65.8908 62.4461C67.0499 62.4461 67.9895 61.5066 67.9895 60.3477C67.9895 59.1888 67.0499 58.2493 65.8908 58.2493C64.7317 58.2493 63.7921 59.1888 63.7921 60.3477C63.7921 61.5066 64.7317 62.4461 65.8908 62.4461Z" fill="#F2F2F2"/>
<path d="M72.5421 117.593V118.242C72.543 119.318 72.9707 120.349 73.7313 121.109C74.4918 121.87 75.5231 122.297 76.5987 122.298H105.807C106.882 122.298 107.914 121.87 108.675 121.11C109.435 120.349 109.863 119.318 109.863 118.242V117.593C109.865 116.644 109.532 115.725 108.922 114.997C108.719 114.756 108.489 114.538 108.237 114.348C108.237 114.348 92.1794 113.985 92.1794 113.537H76.5987C75.5233 113.539 74.4923 113.966 73.7319 114.727C72.9714 115.487 72.5435 116.518 72.5421 117.593Z" fill="#CCCCCC"/>
<path d="M93.5469 122.137H89.328V149.394H93.5469V122.137Z" fill="#CCCCCC"/>
<path d="M105.555 149.246C105.555 149.701 99.1615 149.422 91.2752 149.422C83.3889 149.422 76.9958 149.701 76.9958 149.246C76.9958 148.79 83.3889 145.175 91.2752 145.175C99.1615 145.175 105.555 148.79 105.555 149.246Z" fill="#CCCCCC"/>
<path d="M99.7543 117.043C100.059 116.634 100.27 116.164 100.373 115.665C100.476 115.165 100.469 114.65 100.351 114.154C100.233 113.658 100.008 113.194 99.6914 112.795C99.3749 112.395 98.9746 112.07 98.5188 111.842L89.577 81.378L82.768 84.7123L93.6985 113.609C93.3662 114.4 93.3356 115.286 93.6125 116.098C93.8894 116.91 94.4547 117.592 95.2012 118.015C95.9476 118.439 96.8234 118.573 97.6626 118.394C98.5017 118.215 99.246 117.734 99.7543 117.043L99.7543 117.043Z" fill="#A0616A"/>
<path d="M91.6027 86.4655L83.9818 88.5282C83.765 88.5869 83.5381 88.5982 83.3165 88.5612C83.0949 88.5243 82.8839 88.4401 82.6978 88.3143C82.5117 88.1885 82.3549 88.0241 82.2381 87.8322C82.1213 87.6403 82.0472 87.4256 82.0209 87.2025L81.0998 79.3865C80.8058 78.2756 80.9644 77.0934 81.5408 76.0993C82.1172 75.1051 83.0644 74.38 84.1747 74.083C85.2849 73.786 86.4677 73.9413 87.4636 74.5148C88.4595 75.0884 89.1873 76.0334 89.4875 77.1426L92.627 84.3318C92.7168 84.5377 92.7612 84.7605 92.7572 84.9851C92.7531 85.2096 92.7007 85.4307 92.6035 85.6332C92.5063 85.8357 92.3666 86.0148 92.1939 86.1585C92.0212 86.3021 91.8195 86.4068 91.6027 86.4655H91.6027Z" fill="#5EDA12"/>
<path d="M101.746 146.051L105.725 146.05L107.618 135.733H101.745L101.746 146.051Z" fill="#A0616A"/>
<path d="M100.731 144.752L108.567 144.752H108.567C109.223 144.752 109.872 144.881 110.478 145.132C111.084 145.383 111.634 145.75 112.098 146.214C112.561 146.677 112.929 147.228 113.18 147.834C113.431 148.439 113.56 149.089 113.56 149.744V149.906L100.731 149.907L100.731 144.752Z" fill="#2F2E41"/>
<path d="M106.364 140.518C106.318 140.518 106.271 140.516 106.225 140.511L100.718 140.111C100.496 140.09 100.281 140.018 100.09 139.902C99.8995 139.785 99.7382 139.626 99.6188 139.437C99.4993 139.248 99.4249 139.034 99.4012 138.811C99.3775 138.589 99.4052 138.364 99.4822 138.154L106.851 121.601C106.904 121.453 106.925 121.296 106.914 121.14C106.903 120.984 106.86 120.831 106.788 120.693C106.715 120.552 106.614 120.429 106.49 120.33C106.366 120.232 106.223 120.161 106.07 120.122C102.605 119.216 93.7143 116.804 86.0182 113.983C82.721 112.774 80.6444 111.027 79.846 108.791C78.7935 105.842 80.3506 103.153 80.4174 103.04L80.4696 102.952L87.7114 103.61L95.5622 104.278L112.767 113.502C114.208 114.281 115.303 115.575 115.834 117.126C116.364 118.676 116.291 120.37 115.629 121.868L107.697 139.653C107.582 139.91 107.395 140.129 107.159 140.283C106.922 140.436 106.646 140.518 106.364 140.518Z" fill="#2F2E41"/>
<path d="M88.9706 70.8599C93.3728 70.8599 96.9414 67.2918 96.9414 62.8903C96.9414 58.4887 93.3728 54.9206 88.9706 54.9206C84.5684 54.9206 80.9998 58.4887 80.9998 62.8903C80.9998 67.2918 84.5684 70.8599 88.9706 70.8599Z" fill="#A0616A"/>
<path d="M99.4743 145.726L103.453 145.726L105.346 135.409H99.4736L99.4743 145.726Z" fill="#A0616A"/>
<path d="M98.4594 144.427L106.295 144.427H106.295C106.951 144.427 107.6 144.556 108.206 144.807C108.812 145.058 109.362 145.426 109.826 145.889C110.29 146.353 110.658 146.903 110.908 147.509C111.159 148.115 111.289 148.764 111.289 149.42V149.582L98.4596 149.582L98.4594 144.427Z" fill="#2F2E41"/>
<path d="M104.092 141.492C104.046 141.492 104 141.489 103.953 141.485L98.4467 141.084C98.224 141.063 98.009 140.992 97.8184 140.875C97.6277 140.758 97.4664 140.599 97.347 140.41C97.2275 140.221 97.1531 140.007 97.1294 139.785C97.1058 139.562 97.1335 139.338 97.2104 139.128L104.579 122.574C104.632 122.427 104.654 122.27 104.643 122.113C104.632 121.957 104.588 121.805 104.516 121.666C104.443 121.526 104.342 121.402 104.218 121.304C104.094 121.205 103.951 121.134 103.798 121.095C100.333 120.189 91.4425 117.778 83.7465 114.956C80.4492 113.747 78.3726 112.001 77.5742 109.764C76.5217 106.815 78.0788 104.126 78.1456 104.014L78.1978 103.925L85.4396 104.583L93.2904 105.251L110.495 114.475C111.937 115.255 113.032 116.549 113.562 118.099C114.092 119.65 114.019 121.343 113.357 122.842L105.425 140.626C105.31 140.884 105.123 141.103 104.887 141.256C104.65 141.41 104.374 141.491 104.092 141.492Z" fill="#2F2E41"/>
<path d="M91.4289 75.3791L82.991 72.4587C82.991 72.4587 77.694 76.5278 80.2387 86.622C81.5672 91.831 81.1802 97.3295 79.1353 102.301C78.889 102.916 78.6052 103.516 78.2853 104.096C78.2853 104.096 87.6968 115.453 96.4592 107.016L93.0516 90.6299C93.0516 90.6299 98.4063 79.7596 91.4289 75.3791Z" fill="#2F2E41"/>
<path d="M89.9602 71.1309C88.8258 69.4331 87.9305 67.0789 89.1795 65.4635C90.4125 63.869 92.8442 64.1039 94.7324 63.3983C97.3625 62.4155 98.8878 59.3262 98.4121 56.5596C97.9364 53.7929 95.7151 51.4994 93.069 50.561C90.4228 49.6226 87.4389 49.9278 84.8476 51.0084C81.6576 52.3387 78.9212 54.9121 77.7738 58.1718C76.6263 61.4316 77.2397 65.3456 79.6201 67.8511C82.1722 70.5373 86.1775 71.2532 89.8827 71.2097" fill="#2F2E41"/>
<path d="M82.5457 56.6484C81.1161 57.812 78.9352 57.2952 77.4007 56.274C75.8662 55.2528 74.621 53.7987 72.9607 52.9981C70.0337 51.5866 66.4948 52.5249 63.6461 54.0884C60.7974 55.6519 58.2721 57.8119 55.263 59.0388C52.2539 60.2657 48.4141 60.3264 46.1356 58.0096C45.5749 59.634 45.5291 61.3917 46.0044 63.043C46.4797 64.6943 47.4529 66.1588 48.7914 67.2367C50.1299 68.3145 51.7684 68.9532 53.4833 69.0656C55.1982 69.178 56.906 68.7586 58.3738 67.8647C61.6708 65.8567 63.492 61.6464 67.19 60.5381C69.2363 59.9248 71.4337 60.4187 73.5019 60.9538C75.57 61.4888 77.7266 62.0669 79.8137 61.6114C81.9009 61.1559 83.8532 59.2806 83.5876 57.1612L82.5457 56.6484Z" fill="#2F2E41"/>
<path d="M108.493 131.743C107.649 126.262 107.649 120.683 108.493 115.202C108.547 114.876 108.714 114.579 108.966 114.365C109.218 114.151 109.538 114.033 109.868 114.032H122.808C123.018 114.032 123.225 114.079 123.414 114.17C123.602 114.262 123.768 114.395 123.897 114.56C124.029 114.727 124.122 114.922 124.167 115.131C124.212 115.339 124.21 115.555 124.159 115.762C122.949 120.831 122.949 126.114 124.159 131.183C124.21 131.39 124.212 131.606 124.167 131.814C124.122 132.023 124.029 132.218 123.897 132.385C123.768 132.55 123.602 132.683 123.414 132.775C123.225 132.866 123.018 132.914 122.808 132.913H109.868C109.538 132.912 109.218 132.794 108.966 132.58C108.714 132.366 108.547 132.069 108.493 131.743Z" fill="#5EDA12"/>
<path d="M118.826 122.039H112.036C111.778 122.039 111.53 121.936 111.348 121.754C111.165 121.571 111.062 121.324 111.062 121.066V120.686C111.062 120.428 111.165 120.18 111.348 119.998C111.53 119.815 111.778 119.712 112.036 119.712H118.826C119.084 119.712 119.332 119.815 119.514 119.998C119.697 120.18 119.799 120.428 119.8 120.686V121.066C119.799 121.324 119.697 121.571 119.514 121.754C119.332 121.936 119.084 122.039 118.826 122.039Z" fill="white"/>
<path d="M118.826 126.045H112.036C111.778 126.045 111.53 125.942 111.348 125.76C111.165 125.577 111.062 125.33 111.062 125.072V124.691C111.062 124.433 111.165 124.186 111.348 124.003C111.53 123.821 111.778 123.718 112.036 123.718H118.826C119.084 123.718 119.332 123.821 119.514 124.003C119.697 124.186 119.799 124.433 119.8 124.691V125.072C119.799 125.33 119.697 125.577 119.514 125.76C119.332 125.942 119.084 126.045 118.826 126.045Z" fill="white"/>
<path d="M111.896 115.583C112.089 115.111 112.176 114.603 112.151 114.094C112.126 113.585 111.99 113.087 111.752 112.637C111.514 112.186 111.18 111.793 110.774 111.485C110.367 111.178 109.899 110.963 109.4 110.856L93.1297 83.5914L87.3698 88.5208L105.174 113.771C105.05 114.62 105.242 115.485 105.713 116.202C106.184 116.919 106.902 117.439 107.73 117.662C108.559 117.885 109.441 117.797 110.208 117.414C110.976 117.031 111.577 116.379 111.896 115.583L111.896 115.583Z" fill="#A0616A"/>
<path d="M96.3624 88.0115L89.4986 91.9125C89.3033 92.0235 89.0864 92.0911 88.8626 92.1107C88.6389 92.1304 88.4135 92.1015 88.2018 92.0262C87.9902 91.9509 87.7973 91.8308 87.6363 91.6742C87.4752 91.5176 87.3498 91.3281 87.2686 91.1187L84.4237 83.7807C83.8615 82.7784 83.7197 81.5942 84.0295 80.4876C84.3392 79.381 85.0751 78.4423 86.0759 77.8774C87.0767 77.3125 88.2607 77.1674 89.3684 77.4739C90.476 77.7804 91.4169 78.5136 91.9847 79.5127L96.8211 85.6896C96.9595 85.8665 97.0581 86.0712 97.1103 86.2897C97.1625 86.5081 97.167 86.7353 97.1235 86.9556C97.0799 87.176 96.9894 87.3843 96.8581 87.5666C96.7268 87.7488 96.5577 87.9006 96.3624 88.0115Z" fill="#2F2E41"/>
<path d="M169.395 97.5886H37.6351C37.0756 97.5886 36.5391 97.8108 36.1435 98.2063C35.7479 98.6019 35.5256 99.1383 35.5256 99.6977C35.5256 100.257 35.7479 100.794 36.1435 101.189C36.5391 101.585 37.0756 101.807 37.6351 101.807H41.3672V147.721C41.3672 148.281 41.5895 148.817 41.9851 149.213C42.3807 149.608 42.9172 149.831 43.4767 149.831C44.0361 149.831 44.5727 149.608 44.9683 149.213C45.3639 148.817 45.5861 148.281 45.5861 147.721V105.86L69.2351 148.717C69.5155 149.2 69.9761 149.552 70.5159 149.696C71.0558 149.841 71.6307 149.765 72.1146 149.485C72.5985 149.206 72.9518 148.746 73.0969 148.207C73.2421 147.667 73.1672 147.092 72.8888 146.608L48.1673 101.807H161.12V101.834L136.413 146.608C136.134 147.092 136.058 147.668 136.203 148.208C136.347 148.748 136.701 149.209 137.185 149.489C137.67 149.769 138.246 149.844 138.786 149.7C139.326 149.555 139.787 149.201 140.067 148.717L161.12 110.565V147.721C161.12 148.281 161.342 148.817 161.737 149.213C162.133 149.608 162.67 149.831 163.229 149.831C163.788 149.831 164.325 149.608 164.721 149.213C165.116 148.817 165.338 148.281 165.338 147.721V102.919L165.952 101.807H169.395C169.955 101.807 170.491 101.585 170.887 101.189C171.282 100.794 171.505 100.257 171.505 99.6977C171.505 99.1383 171.282 98.6019 170.887 98.2063C170.491 97.8108 169.955 97.5886 169.395 97.5886Z" fill="#3F3D56"/>
<path d="M114.874 96.2906H89.2357C88.6084 96.2906 88.0999 96.7991 88.0999 97.4263C88.0999 98.0536 88.6084 98.562 89.2357 98.562H114.874C115.501 98.562 116.01 98.0536 116.01 97.4263C116.01 96.7991 115.501 96.2906 114.874 96.2906Z" fill="#CCCCCC"/>
<path d="M132.074 98.562H103.191C102.631 98.5614 102.095 98.339 101.7 97.9436C101.304 97.5482 101.082 97.012 101.081 96.4529V80.5531C101.082 79.9939 101.304 79.4578 101.7 79.0624C102.095 78.667 102.631 78.4446 103.191 78.444H132.074C132.633 78.4446 133.169 78.667 133.565 79.0624C133.96 79.4578 134.183 79.9939 134.183 80.5531V96.4529C134.183 97.012 133.96 97.5482 133.565 97.9436C133.169 98.339 132.633 98.5614 132.074 98.562Z" fill="#CCCCCC"/>
<path d="M117.632 90.4499C118.708 90.4499 119.579 89.5782 119.579 88.503C119.579 87.4278 118.708 86.5561 117.632 86.5561C116.557 86.5561 115.685 87.4278 115.685 88.503C115.685 89.5782 116.557 90.4499 117.632 90.4499Z" fill="white"/>
<path d="M154.116 59.3876V2.44059C154.117 1.79353 154.375 1.17318 154.832 0.715642C155.29 0.258103 155.91 0.000736008 156.557 0H201.579C202.226 0.000736008 202.847 0.258103 203.304 0.715642C203.762 1.17318 204.019 1.79353 204.02 2.44059V59.3876C204.019 60.0347 203.762 60.655 203.304 61.1126C202.847 61.5701 202.226 61.8275 201.579 61.8282H156.557C155.91 61.8275 155.29 61.5701 154.832 61.1126C154.375 60.655 154.117 60.0347 154.116 59.3876ZM156.557 0.542354C156.054 0.542919 155.571 0.743092 155.216 1.09896C154.86 1.45482 154.659 1.93732 154.659 2.44059V59.3876C154.659 59.8909 154.86 60.3734 155.216 60.7292C155.571 61.0851 156.054 61.2853 156.557 61.2858H201.579C202.083 61.2853 202.565 61.0851 202.921 60.7292C203.277 60.3734 203.477 59.8909 203.478 59.3876V2.44059C203.477 1.93732 203.277 1.45482 202.921 1.09896C202.565 0.743092 202.083 0.542919 201.579 0.542354H156.557Z" fill="#E6E6E6"/>
<path d="M181.593 26.1527V14.4597C181.593 14.1361 181.722 13.826 181.951 13.5972C182.18 13.3684 182.49 13.2397 182.813 13.2394H192.724C193.047 13.2397 193.358 13.3684 193.586 13.5972C193.815 13.826 193.944 14.1361 193.944 14.4597V26.1527C193.944 26.4762 193.815 26.7864 193.586 27.0152C193.358 27.2439 193.047 27.3726 192.724 27.373H182.813C182.49 27.3726 182.18 27.2439 181.951 27.0152C181.722 26.7864 181.593 26.4762 181.593 26.1527Z" fill="#5EDA12"/>
<path d="M162.337 31.5762V19.8832C162.337 19.5597 162.466 19.2495 162.695 19.0207C162.923 18.7919 163.234 18.6633 163.557 18.6629H173.467C173.791 18.6633 174.101 18.7919 174.33 19.0207C174.559 19.2495 174.688 19.5597 174.688 19.8832V31.5762C174.688 31.8998 174.559 32.2099 174.33 32.4387C174.101 32.6675 173.791 32.7962 173.467 32.7965H163.557C163.234 32.7962 162.923 32.6675 162.695 32.4387C162.466 32.2099 162.337 31.8998 162.337 31.5762Z" fill="#CCCCCC"/>
<path d="M177.796 48.118V36.4249C177.796 36.1014 177.925 35.7912 178.154 35.5625C178.383 35.3337 178.693 35.205 179.016 35.2047H188.927C189.25 35.205 189.56 35.3337 189.789 35.5625C190.018 35.7912 190.147 36.1014 190.147 36.4249V48.118C190.147 48.4415 190.018 48.7517 189.789 48.9804C189.56 49.2092 189.25 49.3379 188.927 49.3383H179.016C178.693 49.3379 178.383 49.2092 178.154 48.9805C177.925 48.7517 177.796 48.4415 177.796 48.118Z" fill="#FF6584"/>
<path d="M253.376 5.93393C254.535 5.93393 255.474 4.99444 255.474 3.83553C255.474 2.67661 254.535 1.73712 253.376 1.73712C252.217 1.73712 251.277 2.67661 251.277 3.83553C251.277 4.99444 252.217 5.93393 253.376 5.93393Z" fill="#F2F2F2"/>
<path d="M253.376 14.2969C254.535 14.2969 255.474 13.3574 255.474 12.1985C255.474 11.0396 254.535 10.1001 253.376 10.1001C252.217 10.1001 251.277 11.0396 251.277 12.1985C251.277 13.3574 252.217 14.2969 253.376 14.2969Z" fill="#F2F2F2"/>
<path d="M253.376 22.6599C254.535 22.6599 255.474 21.7205 255.474 20.5615C255.474 19.4026 254.535 18.4631 253.376 18.4631C252.217 18.4631 251.277 19.4026 251.277 20.5615C251.277 21.7205 252.217 22.6599 253.376 22.6599Z" fill="#F2F2F2"/>
<path d="M253.376 31.023C254.535 31.023 255.474 30.0835 255.474 28.9246C255.474 27.7657 254.535 26.8262 253.376 26.8262C252.217 26.8262 251.277 27.7657 251.277 28.9246C251.277 30.0835 252.217 31.023 253.376 31.023Z" fill="#F2F2F2"/>
<path d="M244.613 5.93393C245.772 5.93393 246.712 4.99444 246.712 3.83553C246.712 2.67661 245.772 1.73712 244.613 1.73712C243.454 1.73712 242.515 2.67661 242.515 3.83553C242.515 4.99444 243.454 5.93393 244.613 5.93393Z" fill="#F2F2F2"/>
<path d="M244.613 14.2969C245.772 14.2969 246.712 13.3574 246.712 12.1985C246.712 11.0396 245.772 10.1001 244.613 10.1001C243.454 10.1001 242.515 11.0396 242.515 12.1985C242.515 13.3574 243.454 14.2969 244.613 14.2969Z" fill="#F2F2F2"/>
<path d="M244.613 22.6599C245.772 22.6599 246.712 21.7205 246.712 20.5615C246.712 19.4026 245.772 18.4631 244.613 18.4631C243.454 18.4631 242.515 19.4026 242.515 20.5615C242.515 21.7205 243.454 22.6599 244.613 22.6599Z" fill="#F2F2F2"/>
<path d="M244.613 31.023C245.772 31.023 246.712 30.0835 246.712 28.9246C246.712 27.7657 245.772 26.8262 244.613 26.8262C243.454 26.8262 242.515 27.7657 242.515 28.9246C242.515 30.0835 243.454 31.023 244.613 31.023Z" fill="#F2F2F2"/>
<path d="M235.851 5.93393C237.01 5.93393 237.95 4.99444 237.95 3.83553C237.95 2.67661 237.01 1.73712 235.851 1.73712C234.692 1.73712 233.752 2.67661 233.752 3.83553C233.752 4.99444 234.692 5.93393 235.851 5.93393Z" fill="#F2F2F2"/>
<path d="M235.851 14.2969C237.01 14.2969 237.95 13.3574 237.95 12.1985C237.95 11.0396 237.01 10.1001 235.851 10.1001C234.692 10.1001 233.752 11.0396 233.752 12.1985C233.752 13.3574 234.692 14.2969 235.851 14.2969Z" fill="#F2F2F2"/>
<path d="M235.851 22.6599C237.01 22.6599 237.95 21.7205 237.95 20.5615C237.95 19.4026 237.01 18.4631 235.851 18.4631C234.692 18.4631 233.752 19.4026 233.752 20.5615C233.752 21.7205 234.692 22.6599 235.851 22.6599Z" fill="#F2F2F2"/>
<path d="M235.851 31.023C237.01 31.023 237.95 30.0835 237.95 28.9246C237.95 27.7657 237.01 26.8262 235.851 26.8262C234.692 26.8262 233.752 27.7657 233.752 28.9246C233.752 30.0835 234.692 31.023 235.851 31.023Z" fill="#F2F2F2"/>
<path d="M227.089 5.93393C228.248 5.93393 229.187 4.99444 229.187 3.83553C229.187 2.67661 228.248 1.73712 227.089 1.73712C225.929 1.73712 224.99 2.67661 224.99 3.83553C224.99 4.99444 225.929 5.93393 227.089 5.93393Z" fill="#F2F2F2"/>
<path d="M227.089 14.2969C228.248 14.2969 229.187 13.3574 229.187 12.1985C229.187 11.0396 228.248 10.1001 227.089 10.1001C225.929 10.1001 224.99 11.0396 224.99 12.1985C224.99 13.3574 225.929 14.2969 227.089 14.2969Z" fill="#F2F2F2"/>
<path d="M227.089 22.6599C228.248 22.6599 229.187 21.7205 229.187 20.5615C229.187 19.4026 228.248 18.4631 227.089 18.4631C225.929 18.4631 224.99 19.4026 224.99 20.5615C224.99 21.7205 225.929 22.6599 227.089 22.6599Z" fill="#F2F2F2"/>
<path d="M227.089 31.023C228.248 31.023 229.187 30.0835 229.187 28.9246C229.187 27.7657 228.248 26.8262 227.089 26.8262C225.929 26.8262 224.99 27.7657 224.99 28.9246C224.99 30.0835 225.929 31.023 227.089 31.023Z" fill="#F2F2F2"/>
<path d="M218.326 5.93393C219.485 5.93393 220.425 4.99444 220.425 3.83553C220.425 2.67661 219.485 1.73712 218.326 1.73712C217.167 1.73712 216.227 2.67661 216.227 3.83553C216.227 4.99444 217.167 5.93393 218.326 5.93393Z" fill="#F2F2F2"/>
<path d="M218.326 14.2969C219.485 14.2969 220.425 13.3574 220.425 12.1985C220.425 11.0396 219.485 10.1001 218.326 10.1001C217.167 10.1001 216.227 11.0396 216.227 12.1985C216.227 13.3574 217.167 14.2969 218.326 14.2969Z" fill="#F2F2F2"/>
<path d="M218.326 22.6599C219.485 22.6599 220.425 21.7205 220.425 20.5615C220.425 19.4026 219.485 18.4631 218.326 18.4631C217.167 18.4631 216.227 19.4026 216.227 20.5615C216.227 21.7205 217.167 22.6599 218.326 22.6599Z" fill="#F2F2F2"/>
<path d="M218.326 31.023C219.485 31.023 220.425 30.0835 220.425 28.9246C220.425 27.7657 219.485 26.8262 218.326 26.8262C217.167 26.8262 216.227 27.7657 216.227 28.9246C216.227 30.0835 217.167 31.023 218.326 31.023Z" fill="#F2F2F2"/>
<path d="M209.564 5.93393C210.723 5.93393 211.663 4.99444 211.663 3.83553C211.663 2.67661 210.723 1.73712 209.564 1.73712C208.405 1.73712 207.465 2.67661 207.465 3.83553C207.465 4.99444 208.405 5.93393 209.564 5.93393Z" fill="#F2F2F2"/>
<path d="M209.564 14.2969C210.723 14.2969 211.663 13.3574 211.663 12.1985C211.663 11.0396 210.723 10.1001 209.564 10.1001C208.405 10.1001 207.465 11.0396 207.465 12.1985C207.465 13.3574 208.405 14.2969 209.564 14.2969Z" fill="#F2F2F2"/>
<path d="M209.564 22.6599C210.723 22.6599 211.663 21.7205 211.663 20.5615C211.663 19.4026 210.723 18.4631 209.564 18.4631C208.405 18.4631 207.465 19.4026 207.465 20.5615C207.465 21.7205 208.405 22.6599 209.564 22.6599Z" fill="#F2F2F2"/>
<path d="M209.564 31.023C210.723 31.023 211.663 30.0835 211.663 28.9246C211.663 27.7657 210.723 26.8262 209.564 26.8262C208.405 26.8262 207.465 27.7657 207.465 28.9246C207.465 30.0835 208.405 31.023 209.564 31.023Z" fill="#F2F2F2"/>
<path d="M218.019 78.2826C217.847 77.8101 217.777 77.3064 217.813 76.8048C217.849 76.3031 217.99 75.8147 218.228 75.3716C218.466 74.9285 218.795 74.5407 219.194 74.2335C219.592 73.9264 220.051 73.7069 220.54 73.5893C220.695 73.5529 220.852 73.5273 221.011 73.5127L228.898 59.6901L226.906 56.2692L231.864 52.4453L235.656 57.7123C236.109 58.3454 236.345 59.1075 236.33 59.8855C236.314 60.6634 236.049 61.4157 235.572 62.0307L224.744 75.8907C224.783 76.0008 224.817 76.1129 224.845 76.2264C224.962 76.7155 224.975 77.2239 224.882 77.7183C224.789 78.2127 224.593 78.6819 224.306 79.0952C224.02 79.5084 223.649 79.8565 223.218 80.1164C222.787 80.3764 222.307 80.5424 221.807 80.6036C221.662 80.6219 221.516 80.6311 221.37 80.631C220.639 80.6287 219.925 80.4024 219.326 79.9825C218.727 79.5627 218.271 78.9695 218.019 78.2826Z" fill="#FFB8B8"/>
<path d="M202.631 146.306L198.653 146.306L196.76 130.962L202.632 130.962L202.631 146.306Z" fill="#FFB8B8"/>
<path d="M195.811 145.169H203.484V150H190.979C190.979 149.365 191.104 148.737 191.347 148.151C191.59 147.565 191.946 147.033 192.395 146.584C192.843 146.135 193.376 145.78 193.962 145.537C194.548 145.294 195.176 145.169 195.811 145.169Z" fill="#2F2E41"/>
<path d="M235.409 146.306L231.43 146.306L229.538 130.962L235.41 130.962L235.409 146.306Z" fill="#FFB8B8"/>
<path d="M228.589 145.169H236.262V150H223.757C223.757 149.365 223.882 148.737 224.125 148.151C224.368 147.565 224.724 147.033 225.172 146.584C225.621 146.135 226.154 145.78 226.74 145.537C227.326 145.294 227.954 145.169 228.589 145.169Z" fill="#2F2E41"/>
<path d="M232.967 53.1925L224.035 56.5864L221.854 50.5293C221.564 49.725 221.568 48.8443 221.865 48.0427C222.162 47.2412 222.733 46.5704 223.477 46.149C224.229 45.7226 225.11 45.5794 225.958 45.7451C226.807 45.9108 227.569 46.3745 228.106 47.0525L232.967 53.1925Z" fill="#5EDA12"/>
<path d="M202.975 133.879L195.483 132.17C195.085 132.079 194.736 131.84 194.506 131.501C194.277 131.163 194.184 130.751 194.246 130.347C197.252 111.296 200.144 100.14 207.597 85.9727C207.702 85.7086 208.865 80.3468 209.625 76.7946C209.616 76.4032 209.75 76.0221 210.002 75.7221C210.253 75.4222 210.605 75.224 210.992 75.1644L224.962 73.0149C225.172 72.9418 225.395 72.9083 225.618 72.9162L225.757 72.9426L225.755 73.08C225.754 73.2219 225.612 73.2437 225.559 73.2519L225.374 73.2804C225.585 73.379 225.78 73.5112 225.95 73.6719C232.07 81.0324 235.253 105.16 239.295 131.815C239.318 132.031 239.291 132.25 239.218 132.454C239.145 132.659 239.027 132.845 238.872 132.998C238.726 133.158 238.549 133.286 238.351 133.375C238.154 133.465 237.941 133.513 237.724 133.517L228.799 133.735C228.407 133.744 228.025 133.61 227.725 133.358C227.424 133.106 227.225 132.754 227.165 132.366L221.153 97.6305C221.112 97.3592 220.985 97.1082 220.791 96.9139C220.597 96.7197 220.346 96.5924 220.075 96.5506C219.804 96.5087 219.526 96.5545 219.283 96.6813C219.039 96.8081 218.842 97.0092 218.721 97.2555C213.871 107.131 209.348 115.672 204.894 132.711C204.806 133.056 204.605 133.362 204.323 133.581C204.042 133.8 203.695 133.919 203.339 133.92C203.216 133.92 203.094 133.906 202.975 133.879Z" fill="#2F2E41"/>
<path d="M210.247 77.1913C210.059 77.0584 209.901 76.8869 209.785 76.6884C209.668 76.4898 209.595 76.2687 209.571 76.0398C208.427 65.3611 209.223 57.0042 212.007 50.4916C212.497 49.3683 213.235 48.3707 214.166 47.5738C215.098 46.7769 216.197 46.2013 217.383 45.8905L224.604 45.5261L224.641 45.5441C226.27 46.3421 227.599 47.6438 228.431 49.2563C229.262 50.8688 229.551 52.7062 229.256 54.4961C226.933 60.617 224.989 66.9897 226.472 72.1306C226.534 72.3455 226.552 72.5708 226.525 72.7929C226.498 73.015 226.426 73.2294 226.315 73.4232C226.206 73.6105 226.061 73.7736 225.887 73.9024C225.713 74.0313 225.514 74.1232 225.303 74.1724L211.55 77.4436C211.328 77.4965 211.096 77.5015 210.871 77.458C210.647 77.4145 210.434 77.3236 210.247 77.1913Z" fill="#5EDA12"/>
<path d="M207.139 61.8667L193.289 50.9427C193.179 50.9815 193.067 51.0146 192.953 51.0418C192.464 51.1562 191.957 51.1664 191.464 51.0718C190.971 50.9773 190.503 50.78 190.091 50.493C189.677 50.2057 189.328 49.8333 189.07 49.4005C188.811 48.9677 188.647 48.4847 188.59 47.9836C188.497 47.1826 188.678 46.3738 189.102 45.6883C189.527 45.0028 190.171 44.4809 190.93 44.2072C191.403 44.0374 191.907 43.9695 192.409 44.008C192.91 44.0465 193.398 44.1906 193.84 44.4307C194.282 44.6708 194.668 45.0015 194.973 45.4013C195.279 45.801 195.496 46.2607 195.611 46.7503C195.647 46.9055 195.672 47.0629 195.686 47.2215L209.472 55.1738L212.903 53.1988L216.704 58.1738L211.377 61.97C210.753 62.4108 210.004 62.6388 209.241 62.6202C208.477 62.6016 207.74 62.3374 207.139 61.8667H207.139Z" fill="#FFB8B8"/>
<path d="M218.394 59.7231L210.492 54.3505L214.205 49.0916C214.698 48.3933 215.422 47.8918 216.25 47.6757C217.077 47.4595 217.954 47.5427 218.726 47.9105C219.506 48.2826 220.128 48.9215 220.479 49.7119C220.83 50.5023 220.886 51.3921 220.638 52.2205L218.394 59.7231Z" fill="#5EDA12"/>
<path d="M222.194 42.8295C226.596 42.8295 230.165 39.2613 230.165 34.8598C230.165 30.4583 226.596 26.8901 222.194 26.8901C217.792 26.8901 214.223 30.4583 214.223 34.8598C214.223 39.2613 217.792 42.8295 222.194 42.8295Z" fill="#FFB8B8"/>
<path d="M219.272 33.6728C217.223 35.0747 214.533 36.5158 212.441 35.0229C211.067 34.0426 210.634 32.2273 211.191 30.6343C212.193 27.7696 214.946 26.5084 217.578 25.5416C221 24.2849 224.726 23.2851 228.259 24.1851C231.791 25.0851 234.913 28.5049 234.276 32.0938C233.763 34.9798 231.04 37.3812 231.426 40.2868C231.815 43.2111 235.105 44.7504 238.008 45.2731C240.912 45.7957 244.162 45.9636 246.249 48.0491C248.911 50.7095 248.246 55.4646 245.741 58.2735C243.236 61.0823 239.456 62.3555 235.793 63.2211C230.94 64.3679 225.69 64.9706 221.081 63.0673C216.472 61.1641 212.885 56.0408 214.22 51.2367C214.784 49.2074 216.113 47.4924 217.397 45.8228C218.681 44.1532 219.981 42.4073 220.471 40.3589C220.879 38.6519 220.577 36.6699 219.445 35.3894C219.239 35.1653 219.109 34.8817 219.075 34.5794C219.04 34.277 219.102 33.9714 219.252 33.7065L219.272 33.6728Z" fill="#2F2E41"/>
</g>
<defs>
<clipPath id="clip0_1319_3707">
<rect width="291" height="150" fill="white"/>
</clipPath>
</defs>
</svg>
