<svg width="241" height="152" viewBox="0 0 241 152" fill="none" xmlns="http://www.w3.org/2000/svg">
<g clip-path="url(#clip0_1319_3805)">
<path d="M91.3355 23.9324C91.1694 24.1459 90.9398 24.3016 90.6796 24.3772C90.4194 24.4528 90.1419 24.4445 89.8868 24.3534C89.8092 24.3305 89.733 24.3028 89.6589 24.2705C89.7426 23.3774 89.7011 22.4771 89.5355 21.5954C89.4705 22.3532 89.2846 23.0958 88.9849 23.7953C88.7406 23.551 88.5407 23.2664 88.3939 22.954C88.1205 22.3075 87.9393 21.6261 87.8556 20.9295C87.4512 18.5562 87.0521 16.0872 87.712 13.7678C88.6788 10.3797 91.7274 7.94404 93.0007 4.65678L93.628 4.09528C94.7018 5.91856 94.7494 8.1842 94.3116 10.2517C93.8762 12.3233 92.9988 14.2675 92.3051 16.2653C91.6115 18.263 91.0918 20.388 91.4136 22.4785C91.4876 22.9707 91.6004 23.5117 91.3355 23.9324Z" fill="#2F2E41"/>
<path d="M77.3936 52.6008L73.3054 71.2444L91.1617 77.0433L88.536 52.6008H77.3936Z" fill="#FFB6B6"/>
<path d="M203.399 151.542H211.491V114.554C211.48 105.009 207.672 95.8572 200.902 89.1074C194.133 82.3576 184.954 78.5607 175.381 78.5499H100.18C90.6067 78.5607 81.4283 82.3576 74.6588 89.1074C67.8892 95.8572 64.0814 105.009 64.0706 114.554V151.542H72.1621V126.273C72.173 116.639 76.0163 107.402 82.8488 100.59C89.6813 93.7771 98.9451 89.945 108.608 89.9341H166.953C176.616 89.945 185.88 93.7771 192.712 100.59C199.545 107.402 203.388 116.639 203.399 126.273V151.542Z" fill="#E6E6E6"/>
<path d="M105.073 132.192L96.4489 129.589C95.8882 127.291 95.6053 124.935 95.6064 122.57C95.6106 122.036 95.7671 121.514 96.0579 121.065C96.3486 120.617 96.7615 120.26 97.2481 120.037C97.7348 119.813 98.2752 119.733 98.806 119.805C99.3368 119.877 99.8362 120.098 100.246 120.442C104.871 124.398 111.646 126.508 116.018 131.016C117.827 132.91 119.186 135.187 119.993 137.676C120.801 140.165 121.036 142.803 120.682 145.395L122.569 151.483C118.345 151.179 114.236 149.965 110.527 147.926C106.818 145.886 103.597 143.069 101.085 139.669C99.6951 137.747 98.5531 135.659 97.6863 133.453C101.344 133.039 105.073 132.192 105.073 132.192Z" fill="#F2F2F2"/>
<path d="M127.548 142.161L131.946 140.833C131.952 140.81 131.958 140.787 131.963 140.763C132.085 140.227 132.047 139.667 131.853 139.152C131.659 138.637 131.318 138.19 130.872 137.866C130.426 137.542 129.895 137.356 129.344 137.33C128.793 137.303 128.246 137.439 127.771 137.719C125.775 138.901 123.558 139.92 121.966 141.561C121.043 142.527 120.35 143.688 119.938 144.958C119.526 146.227 119.406 147.573 119.587 148.895L118.624 152C120.779 151.845 122.874 151.226 124.766 150.186C126.658 149.145 128.301 147.709 129.582 145.974C130.291 144.994 130.873 143.929 131.315 142.804C129.45 142.593 127.548 142.161 127.548 142.161Z" fill="#F2F2F2"/>
<path d="M163.152 51.2722H146.024C145.782 51.2726 145.55 51.3689 145.379 51.5399C145.207 51.711 145.111 51.9428 145.112 52.1844V79.1628H164.067V52.1844C164.067 52.0646 164.044 51.9459 163.998 51.8352C163.952 51.7245 163.884 51.624 163.799 51.5392C163.714 51.4545 163.613 51.3873 163.502 51.3415C163.391 51.2957 163.272 51.2722 163.152 51.2722ZM154.646 66.601C154.11 66.5985 153.597 66.3853 153.218 66.0076C152.84 65.6299 152.626 65.1185 152.623 64.5844V61.4727C152.624 60.9383 152.837 60.426 153.217 60.0484C153.596 59.6707 154.11 59.4586 154.646 59.4586C155.182 59.4586 155.696 59.6707 156.075 60.0484C156.454 60.426 156.668 60.9383 156.668 61.4727V64.5844C156.666 65.1185 156.452 65.63 156.073 66.0076C155.694 66.3853 155.181 66.5985 154.646 66.601Z" fill="#3F3D56"/>
<path d="M191.515 9.16937H118.299C117.67 9.17037 117.067 9.41997 116.622 9.86347C116.177 10.307 115.927 10.9082 115.926 11.5354V60.7976C115.926 61.4249 116.177 62.0264 116.622 62.47C117.066 62.9136 117.67 63.163 118.299 63.1636H191.515C192.144 63.163 192.747 62.9136 193.192 62.47C193.637 62.0264 193.887 61.4249 193.888 60.7976V11.5354C193.887 10.9082 193.637 10.307 193.192 9.86347C192.747 9.41997 192.144 9.17037 191.515 9.16937Z" fill="#3F3D56"/>
<path d="M190.904 10.8784H118.911C118.574 10.8791 118.251 11.013 118.013 11.2507C117.775 11.4884 117.642 11.8105 117.641 12.1463V60.1875C117.642 60.523 117.776 60.8445 118.014 61.0816C118.252 61.3188 118.574 61.4523 118.911 61.4529H190.904C191.24 61.4523 191.563 61.3188 191.8 61.0816C192.038 60.8445 192.172 60.523 192.173 60.1875V12.1463C192.173 11.8105 192.039 11.4884 191.801 11.2507C191.563 11.013 191.241 10.8791 190.904 10.8784Z" fill="white"/>
<path d="M145.053 78.2998V80.9027C145.053 81.0376 145.107 81.1668 145.203 81.2622C145.298 81.3576 145.428 81.4113 145.563 81.4115H163.616C163.751 81.4109 163.88 81.357 163.976 81.2617C164.071 81.1665 164.125 81.0374 164.126 80.9027V78.2998H145.053Z" fill="#3F3D56"/>
<path d="M176.881 82.3173H134.049C133.931 82.3173 133.816 82.2912 133.71 82.2409C133.604 82.1906 133.511 82.1174 133.437 82.0266C133.363 81.9359 133.31 81.8298 133.283 81.7162C133.255 81.6025 133.254 81.4842 133.278 81.3698L133.942 78.2225C133.98 78.0464 134.077 77.8886 134.217 77.7751C134.358 77.6616 134.533 77.5994 134.713 77.5988H176.216C176.397 77.5994 176.572 77.6616 176.712 77.7751C176.852 77.8886 176.949 78.0464 176.987 78.2225L177.652 81.3698C177.676 81.4842 177.674 81.6025 177.647 81.7162C177.619 81.8298 177.566 81.9359 177.493 82.0266C177.419 82.1174 177.325 82.1906 177.22 82.2409C177.114 82.2912 176.998 82.3173 176.881 82.3173Z" fill="#3F3D56"/>
<path d="M136.173 78.1655H135.181C135.091 78.1655 135.017 78.2387 135.017 78.3289V78.7912C135.017 78.8815 135.091 78.9547 135.181 78.9547H136.173C136.263 78.9547 136.337 78.8815 136.337 78.7912V78.3289C136.337 78.2387 136.263 78.1655 136.173 78.1655Z" fill="#E6E6E6"/>
<path d="M138.811 78.1655H137.82C137.729 78.1655 137.656 78.2387 137.656 78.3289V78.7912C137.656 78.8815 137.729 78.9547 137.82 78.9547H138.811C138.901 78.9547 138.975 78.8815 138.975 78.7912V78.3289C138.975 78.2387 138.901 78.1655 138.811 78.1655Z" fill="#E6E6E6"/>
<path d="M141.449 78.1655H140.458C140.367 78.1655 140.294 78.2387 140.294 78.3289V78.7912C140.294 78.8815 140.367 78.9547 140.458 78.9547H141.449C141.54 78.9547 141.613 78.8815 141.613 78.7912V78.3289C141.613 78.2387 141.54 78.1655 141.449 78.1655Z" fill="#E6E6E6"/>
<path d="M144.088 78.1655H143.096C143.006 78.1655 142.932 78.2387 142.932 78.3289V78.7912C142.932 78.8815 143.006 78.9547 143.096 78.9547H144.088C144.178 78.9547 144.252 78.8815 144.252 78.7912V78.3289C144.252 78.2387 144.178 78.1655 144.088 78.1655Z" fill="#E6E6E6"/>
<path d="M146.726 78.1655H145.735C145.644 78.1655 145.571 78.2387 145.571 78.3289V78.7912C145.571 78.8815 145.644 78.9547 145.735 78.9547H146.726C146.817 78.9547 146.89 78.8815 146.89 78.7912V78.3289C146.89 78.2387 146.817 78.1655 146.726 78.1655Z" fill="#E6E6E6"/>
<path d="M149.364 78.1655H148.373C148.283 78.1655 148.209 78.2387 148.209 78.3289V78.7912C148.209 78.8815 148.283 78.9547 148.373 78.9547H149.364C149.455 78.9547 149.528 78.8815 149.528 78.7912V78.3289C149.528 78.2387 149.455 78.1655 149.364 78.1655Z" fill="#E6E6E6"/>
<path d="M152.003 78.1655H151.011C150.921 78.1655 150.848 78.2387 150.848 78.3289V78.7912C150.848 78.8815 150.921 78.9547 151.011 78.9547H152.003C152.093 78.9547 152.167 78.8815 152.167 78.7912V78.3289C152.167 78.2387 152.093 78.1655 152.003 78.1655Z" fill="#E6E6E6"/>
<path d="M154.641 78.1655H153.65C153.559 78.1655 153.486 78.2387 153.486 78.3289V78.7912C153.486 78.8815 153.559 78.9547 153.65 78.9547H154.641C154.732 78.9547 154.805 78.8815 154.805 78.7912V78.3289C154.805 78.2387 154.732 78.1655 154.641 78.1655Z" fill="#E6E6E6"/>
<path d="M157.28 78.1655H156.288C156.198 78.1655 156.124 78.2387 156.124 78.3289V78.7912C156.124 78.8815 156.198 78.9547 156.288 78.9547H157.28C157.37 78.9547 157.443 78.8815 157.443 78.7912V78.3289C157.443 78.2387 157.37 78.1655 157.28 78.1655Z" fill="#E6E6E6"/>
<path d="M159.918 78.1655H158.927C158.836 78.1655 158.763 78.2387 158.763 78.3289V78.7912C158.763 78.8815 158.836 78.9547 158.927 78.9547H159.918C160.008 78.9547 160.082 78.8815 160.082 78.7912V78.3289C160.082 78.2387 160.008 78.1655 159.918 78.1655Z" fill="#E6E6E6"/>
<path d="M162.556 78.1655H161.565C161.474 78.1655 161.401 78.2387 161.401 78.3289V78.7912C161.401 78.8815 161.474 78.9547 161.565 78.9547H162.556C162.647 78.9547 162.72 78.8815 162.72 78.7912V78.3289C162.72 78.2387 162.647 78.1655 162.556 78.1655Z" fill="#E6E6E6"/>
<path d="M165.195 78.1655H164.203C164.113 78.1655 164.039 78.2387 164.039 78.3289V78.7912C164.039 78.8815 164.113 78.9547 164.203 78.9547H165.195C165.285 78.9547 165.359 78.8815 165.359 78.7912V78.3289C165.359 78.2387 165.285 78.1655 165.195 78.1655Z" fill="#E6E6E6"/>
<path d="M167.833 78.1655H166.842C166.751 78.1655 166.678 78.2387 166.678 78.3289V78.7912C166.678 78.8815 166.751 78.9547 166.842 78.9547H167.833C167.924 78.9547 167.997 78.8815 167.997 78.7912V78.3289C167.997 78.2387 167.924 78.1655 167.833 78.1655Z" fill="#E6E6E6"/>
<path d="M170.471 78.1655H169.48C169.39 78.1655 169.316 78.2387 169.316 78.3289V78.7912C169.316 78.8815 169.39 78.9547 169.48 78.9547H170.471C170.562 78.9547 170.635 78.8815 170.635 78.7912V78.3289C170.635 78.2387 170.562 78.1655 170.471 78.1655Z" fill="#E6E6E6"/>
<path d="M173.11 78.1655H172.118C172.028 78.1655 171.955 78.2387 171.955 78.3289V78.7912C171.955 78.8815 172.028 78.9547 172.118 78.9547H173.11C173.2 78.9547 173.274 78.8815 173.274 78.7912V78.3289C173.274 78.2387 173.2 78.1655 173.11 78.1655Z" fill="#E6E6E6"/>
<path d="M175.748 78.1655H174.757C174.666 78.1655 174.593 78.2387 174.593 78.3289V78.7912C174.593 78.8815 174.666 78.9547 174.757 78.9547H175.748C175.839 78.9547 175.912 78.8815 175.912 78.7912V78.3289C175.912 78.2387 175.839 78.1655 175.748 78.1655Z" fill="#E6E6E6"/>
<path d="M136.141 79.4808H135.15C135.06 79.4808 134.986 79.554 134.986 79.6443V80.1066C134.986 80.1969 135.06 80.27 135.15 80.27H136.141C136.232 80.27 136.305 80.1969 136.305 80.1066V79.6443C136.305 79.554 136.232 79.4808 136.141 79.4808Z" fill="#E6E6E6"/>
<path d="M138.78 79.4808H137.788C137.698 79.4808 137.625 79.554 137.625 79.6443V80.1066C137.625 80.1969 137.698 80.27 137.788 80.27H138.78C138.87 80.27 138.944 80.1969 138.944 80.1066V79.6443C138.944 79.554 138.87 79.4808 138.78 79.4808Z" fill="#E6E6E6"/>
<path d="M141.418 79.4808H140.427C140.336 79.4808 140.263 79.554 140.263 79.6443V80.1066C140.263 80.1969 140.336 80.27 140.427 80.27H141.418C141.509 80.27 141.582 80.1969 141.582 80.1066V79.6443C141.582 79.554 141.509 79.4808 141.418 79.4808Z" fill="#E6E6E6"/>
<path d="M144.056 79.4808H143.065C142.975 79.4808 142.901 79.554 142.901 79.6443V80.1066C142.901 80.1969 142.975 80.27 143.065 80.27H144.056C144.147 80.27 144.22 80.1969 144.22 80.1066V79.6443C144.22 79.554 144.147 79.4808 144.056 79.4808Z" fill="#E6E6E6"/>
<path d="M146.695 79.4808H145.704C145.613 79.4808 145.54 79.554 145.54 79.6443V80.1066C145.54 80.1969 145.613 80.27 145.704 80.27H146.695C146.785 80.27 146.859 80.1969 146.859 80.1066V79.6443C146.859 79.554 146.785 79.4808 146.695 79.4808Z" fill="#E6E6E6"/>
<path d="M149.333 79.4808H148.342C148.251 79.4808 148.178 79.554 148.178 79.6443V80.1066C148.178 80.1969 148.251 80.27 148.342 80.27H149.333C149.424 80.27 149.497 80.1969 149.497 80.1066V79.6443C149.497 79.554 149.424 79.4808 149.333 79.4808Z" fill="#E6E6E6"/>
<path d="M151.972 79.4808H150.98C150.89 79.4808 150.816 79.554 150.816 79.6443V80.1066C150.816 80.1969 150.89 80.27 150.98 80.27H151.972C152.062 80.27 152.136 80.1969 152.136 80.1066V79.6443C152.136 79.554 152.062 79.4808 151.972 79.4808Z" fill="#E6E6E6"/>
<path d="M154.61 79.4808H153.619C153.528 79.4808 153.455 79.554 153.455 79.6443V80.1066C153.455 80.1969 153.528 80.27 153.619 80.27H154.61C154.701 80.27 154.774 80.1969 154.774 80.1066V79.6443C154.774 79.554 154.701 79.4808 154.61 79.4808Z" fill="#E6E6E6"/>
<path d="M157.248 79.4808H156.257C156.167 79.4808 156.093 79.554 156.093 79.6443V80.1066C156.093 80.1969 156.167 80.27 156.257 80.27H157.248C157.339 80.27 157.412 80.1969 157.412 80.1066V79.6443C157.412 79.554 157.339 79.4808 157.248 79.4808Z" fill="#E6E6E6"/>
<path d="M159.887 79.4808H158.895C158.805 79.4808 158.732 79.554 158.732 79.6443V80.1066C158.732 80.1969 158.805 80.27 158.895 80.27H159.887C159.977 80.27 160.051 80.1969 160.051 80.1066V79.6443C160.051 79.554 159.977 79.4808 159.887 79.4808Z" fill="#E6E6E6"/>
<path d="M162.525 79.4808H161.534C161.443 79.4808 161.37 79.554 161.37 79.6443V80.1066C161.37 80.1969 161.443 80.27 161.534 80.27H162.525C162.616 80.27 162.689 80.1969 162.689 80.1066V79.6443C162.689 79.554 162.616 79.4808 162.525 79.4808Z" fill="#E6E6E6"/>
<path d="M165.164 79.4808H164.172C164.082 79.4808 164.008 79.554 164.008 79.6443V80.1066C164.008 80.1969 164.082 80.27 164.172 80.27H165.164C165.254 80.27 165.327 80.1969 165.327 80.1066V79.6443C165.327 79.554 165.254 79.4808 165.164 79.4808Z" fill="#E6E6E6"/>
<path d="M167.802 79.4808H166.811C166.72 79.4808 166.647 79.554 166.647 79.6443V80.1066C166.647 80.1969 166.72 80.27 166.811 80.27H167.802C167.892 80.27 167.966 80.1969 167.966 80.1066V79.6443C167.966 79.554 167.892 79.4808 167.802 79.4808Z" fill="#E6E6E6"/>
<path d="M170.44 79.4808H169.449C169.358 79.4808 169.285 79.554 169.285 79.6443V80.1066C169.285 80.1969 169.358 80.27 169.449 80.27H170.44C170.531 80.27 170.604 80.1969 170.604 80.1066V79.6443C170.604 79.554 170.531 79.4808 170.44 79.4808Z" fill="#E6E6E6"/>
<path d="M173.079 79.4808H172.087C171.997 79.4808 171.923 79.554 171.923 79.6443V80.1066C171.923 80.1969 171.997 80.27 172.087 80.27H173.079C173.169 80.27 173.243 80.1969 173.243 80.1066V79.6443C173.243 79.554 173.169 79.4808 173.079 79.4808Z" fill="#E6E6E6"/>
<path d="M175.717 79.4808H174.726C174.635 79.4808 174.562 79.554 174.562 79.6443V80.1066C174.562 80.1969 174.635 80.27 174.726 80.27H175.717C175.808 80.27 175.881 80.1969 175.881 80.1066V79.6443C175.881 79.554 175.808 79.4808 175.717 79.4808Z" fill="#E6E6E6"/>
<path d="M158.04 81.0592H147.814C147.724 81.0592 147.65 81.1324 147.65 81.2227V81.6849C147.65 81.7752 147.724 81.8484 147.814 81.8484H158.04C158.13 81.8484 158.204 81.7752 158.204 81.6849V81.2227C158.204 81.1324 158.13 81.0592 158.04 81.0592Z" fill="#E6E6E6"/>
<path d="M180.169 22.9383V48.2245C180.169 49.9179 179.494 51.5418 178.293 52.7392C177.092 53.9366 175.464 54.6094 173.765 54.6097H142.025C140.775 54.6099 139.553 54.2459 138.508 53.5623C137.463 52.8788 136.642 51.9056 136.145 50.7625C135.978 50.3847 135.851 49.9909 135.765 49.5872C136.44 49.8475 137.157 49.9804 137.881 49.979H169.621C171.187 49.9768 172.687 49.356 173.793 48.2525C174.9 47.1491 175.523 45.6532 175.525 44.0927V18.8065C175.526 18.0851 175.393 17.3698 175.132 16.6971C175.537 16.7826 175.932 16.9094 176.311 17.0754C177.457 17.5711 178.433 18.3902 179.119 19.4319C179.804 20.4735 180.169 21.6923 180.169 22.9383Z" fill="#F2F2F2"/>
<path d="M61.7542 123.542L58.606 125.486L49.3313 114.119L53.9776 111.251L61.7542 123.542Z" fill="#FFB6B6"/>
<path d="M64.4722 127.603L61.9397 128.73L60.4204 126.547L60.33 129.446L53.6133 132.436C53.2914 132.579 52.9319 132.616 52.5874 132.541C52.2429 132.467 51.9314 132.284 51.6984 132.02C51.4654 131.756 51.323 131.425 51.2922 131.075C51.2613 130.725 51.3435 130.374 51.5268 130.074L55.2368 123.993L54.1577 121.583L59.9498 119.407L64.4722 127.603Z" fill="#2F2E41"/>
<path d="M52.9352 121.356L58.2523 116.218C54.3019 106.498 53.9863 100.474 48.5098 88.7183C61.5032 91.3682 70.7928 91.2071 81.5387 88.8313C85.1766 88.0395 94.5632 80.8102 93.7915 77.1033C93.7554 76.93 93.7128 76.7584 93.6636 76.5883C92.5102 72.667 93.3224 66.6621 90.8258 62.3107C86.2068 60.5743 79.1891 66.4376 73.6995 70.0117C71.0525 71.7351 72.9902 74.0836 71.013 74.6993L63.4342 77.1523L44.8396 74.1579C43.9409 74.0221 43.0242 74.065 42.1423 74.2841C41.2603 74.5032 40.4306 74.8941 39.7008 75.4344C38.9711 75.9748 38.3559 76.6537 37.8906 77.4322C37.4252 78.2107 37.1191 79.0733 36.9896 79.9703C36.9582 80.1716 36.9354 80.374 36.9213 80.5775C37.7768 85.2997 38.6687 89.898 39.6289 94.263C39.9388 95.672 39.4156 98.3732 40.5811 98.4134C41.7467 98.4536 41.2772 101.247 41.6402 102.613C43.8749 111.022 45.2881 115.091 52.9352 121.356Z" fill="#2F2E41"/>
<path d="M42.7582 143.891L39.4784 142.184L44.6676 128.477L49.5083 130.996L42.7582 143.891Z" fill="#FFB6B6"/>
<path d="M42.2115 133.658L47.4707 137.268C53.9164 127.974 58.1016 115.553 61.2184 101.656C73.3541 96.3775 83.973 90.3385 91.3729 82.2382C92.5881 80.8802 93.2253 79.1037 93.1495 77.2853C93.0737 75.4668 92.2909 73.7492 90.9668 72.4964C90.8373 72.3754 90.7034 72.2594 90.5651 72.1486C87.36 69.6029 80.2414 71.0677 75.6916 68.94L67.5636 80.1566L68.4979 82.7691L65.6704 84.1416L63.2831 85.3004L60.5502 86.6269L51.5915 90.9754C50.7793 91.3802 50.0555 91.9413 49.4619 92.6264C48.8682 93.3115 48.4165 94.107 48.1328 94.967C47.849 95.827 47.7389 96.7346 47.8086 97.6373C47.8784 98.5399 48.1267 99.4199 48.5393 100.226C48.6298 100.409 48.7281 100.588 48.834 100.762L45.5068 117.289C45.5068 117.289 46.4223 120.167 44.9818 119.897C43.5412 119.628 44.3262 123.154 44.3262 123.154L42.2115 133.658Z" fill="#2F2E41"/>
<path d="M40.772 151.445L38.3134 150.165L39.086 147.622L36.7506 149.352L30.2297 145.958C29.9171 145.796 29.6649 145.538 29.5098 145.222C29.3547 144.906 29.3049 144.55 29.3676 144.204C29.4303 143.858 29.6023 143.541 29.8584 143.299C30.1146 143.058 30.4415 142.904 30.7914 142.861L37.8757 141.985L39.1005 139.645L44.4071 142.821L40.772 151.445Z" fill="#2F2E41"/>
<path d="M112.46 79.5898L108.624 70.3466L105.601 72.0208L107.427 81.4234C107.244 82.0191 107.231 82.6538 107.39 83.2562C107.55 83.8586 107.874 84.4048 108.328 84.8334C108.781 85.262 109.345 85.556 109.957 85.6823C110.569 85.8086 111.204 85.7623 111.791 85.5485C112.378 85.3347 112.893 84.9619 113.279 84.4721C113.665 83.9822 113.906 83.3948 113.976 82.7757C114.045 82.1566 113.94 81.5304 113.672 80.9676C113.404 80.4048 112.985 79.9277 112.46 79.5898Z" fill="#FFB6B6"/>
<path d="M48.0905 6.49796L53.9272 14.6341L56.4904 12.3208L52.576 3.57496C52.6187 2.95346 52.4866 2.33242 52.1947 1.78165C51.9028 1.23087 51.4626 0.772201 50.9236 0.457205C50.3846 0.142209 49.7681 -0.0166277 49.1435 -0.00144664C48.5189 0.0137344 47.9109 0.202331 47.388 0.54314C46.865 0.883948 46.4477 1.36346 46.1831 1.92776C45.9184 2.49206 45.8169 3.11878 45.8899 3.73747C45.9628 4.35616 46.2075 4.94228 46.5962 5.42994C46.985 5.9176 47.5025 6.28747 48.0905 6.49796H48.0905Z" fill="#FFB6B6"/>
<path d="M74.4478 58.0662C70.6621 63.9211 84.5315 76.6779 91.8332 73.6949C93.1118 73.1725 97.5098 71.4473 94.5036 69.0554C91.4974 66.6635 94.8522 69.3403 94.9314 67.7833C94.9845 66.7423 94.1761 64.4587 95.0195 64.5566C95.8629 64.6545 96.3469 62.2224 94.5102 61.6029C93.8715 61.3755 93.3111 60.9712 92.8948 60.4375C92.4784 59.9037 92.2233 59.2626 92.1595 58.5894C91.9839 52.172 94.1635 45.4718 94.1635 45.4718L103.062 68.1513C103.062 68.1513 102.996 72.075 104.131 70.876C105.266 69.6769 105.183 73.5577 105.183 73.5577C105.183 73.5577 106.87 74.7318 105.9 75.3852C104.93 76.0387 106.945 78.0476 106.945 78.0476L111.646 77.7128C111.646 77.7128 111.572 74.2306 110.77 73.4605C109.967 72.6904 110.361 71.4787 110.361 71.4787C110.361 71.4787 108.706 69.9437 109.672 68.1362C110.638 66.3287 102.637 33.9966 102.637 33.9966C102.316 32.4411 101.571 31.0042 100.482 29.8448C99.3937 28.6854 98.0049 27.8487 96.4693 27.4272L91.3916 26.0332L90.4899 22.4662H83.3401L82.0947 24.81L70.6772 23.8055C70.6772 23.8055 59.3797 13.5564 59.9313 12.7562C60.4829 11.9559 58.7316 10.0823 58.7316 10.0823C58.7316 10.0823 57.236 9.59422 58.0799 9.33363C58.9239 9.07303 57.3287 8.47055 57.3287 8.47055C57.3287 8.47055 55.8512 8.08346 56.548 7.57377C57.2449 7.06408 54.2226 6.72925 54.2226 6.72925L50.3013 9.91934L51.0938 11.2593C51.0938 11.2593 50.6106 13.0839 51.2412 12.4178C51.8719 11.7517 51.9906 13.6848 51.9906 13.6848C51.9906 13.6848 52.3127 15.8015 54.2226 16.4393C56.1324 17.077 57.5807 23.1358 57.5807 23.1358L73.6995 36.529C71.2445 39.3386 71.8289 42.2766 74.0036 45.282L74.4478 58.0662Z" fill="#5EDA12"/>
<path d="M86.7538 20.0963C91.0297 20.0963 94.4961 16.64 94.4961 12.3766C94.4961 8.11309 91.0297 4.65686 86.7538 4.65686C82.4778 4.65686 79.0114 8.11309 79.0114 12.3766C79.0114 16.64 82.4778 20.0963 86.7538 20.0963Z" fill="#FFB6B6"/>
<path d="M93.5122 10.0776C93.3141 10.1345 90.406 10.5128 89.1467 10.7472C87.9109 10.9783 87.696 9.40791 86.6852 9.70256C86.6858 9.69569 86.6846 9.68879 86.6819 9.68247C86.5252 8.85042 86.2575 8.04301 85.886 7.28175C86.0208 8.01086 86.0401 8.75655 85.9431 9.49161C85.9425 9.51075 85.9403 9.5298 85.9364 9.54854C85.933 9.58202 85.9263 9.61215 85.923 9.64563C84.8551 9.17687 84.1768 9.59541 83.438 9.74273C82.6119 9.9068 81.9671 10.2684 82.4305 13.091C83.3809 18.8969 88.324 20.9695 87.4677 24.81C87.2998 25.5701 86.8767 26.521 86.3461 26.7587C86.1894 25.9266 85.9217 25.1192 85.5502 24.358C85.685 25.0871 85.7043 25.8328 85.6073 26.5678C84.7846 25.6806 84.1902 22.58 81.4231 20.1224C80.7414 19.5197 77.3263 15.9438 76.9166 15.1C77.0423 15.7746 77.103 16.4597 77.0979 17.1458C77.0987 17.605 77.0673 18.0637 77.0039 18.5186C77.0039 18.5479 77.0005 18.5771 76.9938 18.6056C76.9905 18.6592 76.9804 18.7061 76.9737 18.7563C76.9669 18.8132 76.9569 18.8668 76.9468 18.9237C75.8286 18.763 74.8379 18.5688 74.3711 18.1134C72.1011 15.9103 74.8715 11.6178 76.386 7.73377C78.552 2.17227 84.8417 1.4323 85.4528 1.37203C88.146 1.10082 92.6962 1.67673 94.1839 4.72031C95.2248 6.85317 94.56 9.77621 93.5122 10.0776Z" fill="#2F2E41"/>
<path d="M77.1869 11.3329L82.7953 2.634C81.4511 1.856 79.9207 1.45569 78.3666 1.47562C77.5921 1.49167 76.8297 1.67027 76.129 1.99977C75.4284 2.32927 74.8052 2.80228 74.3002 3.38798C73.1548 4.80738 72.9582 6.81387 73.3874 8.58473C73.5356 9.19634 76.358 7.0444 75.6863 8.04888C75.135 8.83533 74.2334 12.141 74.0073 13.0713C73.6434 14.5686 72.6428 16.1056 73.5341 17.364C74.5882 18.8521 76.4691 19.5918 78.2947 19.6669C80.1203 19.742 81.9173 19.2376 83.6523 18.6662L77.1869 11.3329Z" fill="#2F2E41"/>
<path d="M79.3419 10.9898C79.2609 10.9897 79.1826 10.9604 79.1216 10.9074C79.0605 10.8543 79.0208 10.7811 79.0096 10.7011C78.9985 10.6211 79.0167 10.5398 79.0609 10.4721C79.1051 10.4045 79.1723 10.355 79.2502 10.3329C79.3382 10.188 79.3022 9.57839 79.2732 9.08579C79.164 7.23623 78.9811 4.14072 81.9952 2.05113C82.0683 2.00045 82.1586 1.98079 82.2463 1.99649C82.3339 2.01219 82.4117 2.06195 82.4625 2.13484C82.5134 2.20773 82.5331 2.29777 82.5173 2.38515C82.5016 2.47253 82.4517 2.5501 82.3786 2.60079C79.6737 4.47619 79.8361 7.22658 79.9436 9.04639C80.005 10.0868 80.0494 10.8384 79.4165 10.9815C79.392 10.987 79.367 10.9898 79.3419 10.9898Z" fill="#5EDA12"/>
<path d="M1.7611e-06 151.326C-0.000312207 151.431 0.0413656 151.532 0.115861 151.607C0.190357 151.682 0.291569 151.724 0.397238 151.724H240.6C240.706 151.724 240.808 151.682 240.883 151.608C240.958 151.533 241 151.431 241 151.326C241 151.22 240.958 151.119 240.883 151.044C240.808 150.969 240.706 150.927 240.6 150.927H0.399625C0.347302 150.927 0.295462 150.937 0.247062 150.957C0.198662 150.977 0.15465 151.006 0.117542 151.043C0.0804345 151.08 0.0509578 151.123 0.0307921 151.171C0.0106264 151.22 0.000165688 151.271 1.20092e-05 151.323L1.7611e-06 151.326Z" fill="#CCCCCC"/>
<path d="M148.607 31.7583H143.526C143.391 31.7583 143.262 31.7049 143.166 31.6099C143.071 31.5148 143.017 31.386 143.017 31.2516C143.017 31.1172 143.071 30.9884 143.166 30.8933C143.262 30.7983 143.391 30.7449 143.526 30.7449H148.607C148.742 30.7449 148.871 30.7983 148.966 30.8933C149.062 30.9884 149.115 31.1172 149.115 31.2516C149.115 31.386 149.062 31.5148 148.966 31.6099C148.871 31.7049 148.742 31.7583 148.607 31.7583Z" fill="#5EDA12"/>
<path d="M157.754 31.7583H152.672C152.606 31.7583 152.54 31.7452 152.478 31.7197C152.416 31.6942 152.36 31.6569 152.313 31.6099C152.266 31.5628 152.228 31.507 152.203 31.4455C152.177 31.384 152.164 31.3181 152.164 31.2516C152.164 31.1851 152.177 31.1192 152.203 31.0577C152.228 30.9962 152.266 30.9404 152.313 30.8933C152.36 30.8463 152.416 30.809 152.478 30.7835C152.54 30.758 152.606 30.7449 152.672 30.7449H157.754C157.821 30.7449 157.887 30.758 157.948 30.7835C158.01 30.809 158.066 30.8463 158.113 30.8933C158.16 30.9404 158.198 30.9962 158.223 31.0577C158.249 31.1192 158.262 31.1851 158.262 31.2516C158.262 31.3181 158.249 31.384 158.223 31.4455C158.198 31.507 158.16 31.5628 158.113 31.6099C158.066 31.6569 158.01 31.6942 157.948 31.7197C157.887 31.7452 157.821 31.7583 157.754 31.7583Z" fill="#5EDA12"/>
<path d="M162.327 35.8116H157.246C157.179 35.8116 157.113 35.7985 157.051 35.773C156.99 35.7476 156.934 35.7103 156.886 35.6632C156.839 35.6162 156.802 35.5603 156.776 35.4988C156.751 35.4374 156.737 35.3715 156.737 35.3049C156.737 35.2384 156.751 35.1725 156.776 35.111C156.802 35.0496 156.839 34.9937 156.886 34.9467C156.934 34.8996 156.99 34.8623 157.051 34.8368C157.113 34.8114 157.179 34.7983 157.246 34.7983H162.327C162.394 34.7983 162.46 34.8114 162.522 34.8368C162.583 34.8623 162.639 34.8996 162.686 34.9467C162.734 34.9937 162.771 35.0496 162.797 35.111C162.822 35.1725 162.835 35.2384 162.835 35.3049C162.835 35.3715 162.822 35.4374 162.797 35.4988C162.771 35.5603 162.734 35.6162 162.686 35.6632C162.639 35.7103 162.583 35.7476 162.522 35.773C162.46 35.7985 162.394 35.8116 162.327 35.8116Z" fill="#5EDA12"/>
<path d="M153.209 35.8116H143.526C143.391 35.8116 143.262 35.7582 143.166 35.6632C143.071 35.5682 143.017 35.4393 143.017 35.3049C143.017 35.1706 143.071 35.0417 143.166 34.9467C143.262 34.8517 143.391 34.7983 143.526 34.7983H153.209C153.343 34.7983 153.473 34.8517 153.568 34.9467C153.663 35.0417 153.717 35.1706 153.717 35.3049C153.717 35.4393 153.663 35.5682 153.568 35.6632C153.473 35.7582 153.343 35.8116 153.209 35.8116Z" fill="#5EDA12"/>
<path d="M171.502 31.7583H161.819C161.684 31.7583 161.555 31.7049 161.46 31.6099C161.364 31.5148 161.311 31.386 161.311 31.2516C161.311 31.1172 161.364 30.9884 161.46 30.8933C161.555 30.7983 161.684 30.7449 161.819 30.7449H171.502C171.569 30.7449 171.635 30.758 171.696 30.7835C171.758 30.809 171.814 30.8463 171.861 30.8933C171.908 30.9404 171.946 30.9962 171.971 31.0577C171.997 31.1192 172.01 31.1851 172.01 31.2516C172.01 31.3181 171.997 31.384 171.971 31.4455C171.946 31.507 171.908 31.5628 171.861 31.6099C171.814 31.6569 171.758 31.6942 171.696 31.7197C171.635 31.7452 171.569 31.7583 171.502 31.7583Z" fill="#5EDA12"/>
<path d="M152.086 24.0827H142.403C142.336 24.0828 142.27 24.0699 142.208 24.0445C142.147 24.0191 142.09 23.9818 142.043 23.9347C141.996 23.8877 141.958 23.8318 141.933 23.7702C141.907 23.7086 141.894 23.6427 141.894 23.576C141.894 23.5094 141.907 23.4434 141.933 23.3818C141.958 23.3203 141.996 23.2643 142.043 23.2173C142.09 23.1702 142.147 23.1329 142.208 23.1075C142.27 23.0821 142.336 23.0692 142.403 23.0693H152.086C152.221 23.0693 152.35 23.1227 152.445 23.2177C152.541 23.3128 152.594 23.4416 152.594 23.576C152.594 23.7104 152.541 23.8393 152.445 23.9343C152.35 24.0293 152.221 24.0827 152.086 24.0827Z" fill="#5EDA12"/>
<path d="M152.882 27.0428C152.787 27.0428 152.695 27.0133 152.618 26.9584C152.54 26.9034 152.482 26.8258 152.452 26.7364C152.421 26.6469 152.419 26.5501 152.446 26.4594C152.473 26.3688 152.528 26.2889 152.603 26.2308L155.082 24.3092C155.182 24.232 155.264 24.135 155.324 24.0244C155.384 23.9137 155.421 23.7918 155.431 23.6664C155.441 23.541 155.425 23.4149 155.384 23.2959C155.343 23.1769 155.278 23.0678 155.192 22.9754L153.111 20.7285C153.07 20.6847 153.039 20.6334 153.018 20.5775C152.997 20.5216 152.988 20.4622 152.99 20.4027C152.992 20.3431 153.007 20.2846 153.032 20.2305C153.057 20.1764 153.092 20.1278 153.136 20.0873C153.18 20.0469 153.231 20.0154 153.287 19.9948C153.343 19.9742 153.403 19.9648 153.463 19.9671C153.522 19.9695 153.581 19.9836 153.635 20.0085C153.69 20.0335 153.738 20.0688 153.779 20.1126L156.87 23.4491C156.913 23.4952 156.946 23.5497 156.966 23.6091C156.987 23.6685 156.995 23.7316 156.99 23.7942C156.984 23.8568 156.966 23.9177 156.936 23.973C156.906 24.0282 156.865 24.0767 156.815 24.1153L153.161 26.9473C153.081 27.0092 152.983 27.0428 152.882 27.0428Z" fill="#5EDA12"/>
<path d="M141.913 27.0428C142.008 27.0428 142.101 27.0133 142.178 26.9584C142.255 26.9034 142.313 26.8258 142.344 26.7364C142.375 26.6469 142.377 26.5501 142.35 26.4594C142.322 26.3688 142.268 26.2889 142.193 26.2308L139.713 24.3092C139.614 24.232 139.531 24.135 139.471 24.0244C139.411 23.9137 139.375 23.7918 139.364 23.6664C139.354 23.541 139.37 23.4149 139.411 23.2959C139.452 23.1769 139.518 23.0678 139.603 22.9754L141.685 20.7285C141.725 20.6847 141.757 20.6334 141.778 20.5775C141.798 20.5216 141.808 20.4622 141.805 20.4027C141.803 20.3431 141.789 20.2846 141.764 20.2305C141.739 20.1764 141.703 20.1278 141.659 20.0873C141.616 20.0469 141.564 20.0154 141.508 19.9948C141.452 19.9742 141.392 19.9648 141.333 19.9671C141.273 19.9695 141.214 19.9836 141.16 20.0085C141.106 20.0335 141.057 20.0688 141.016 20.1126L137.925 23.4491C137.882 23.4952 137.85 23.5497 137.829 23.6091C137.809 23.6685 137.801 23.7316 137.806 23.7942C137.811 23.8568 137.829 23.9177 137.859 23.973C137.889 24.0282 137.93 24.0767 137.98 24.1153L141.634 26.9473C141.714 27.0092 141.812 27.0428 141.913 27.0428Z" fill="#5EDA12"/>
<path d="M157.092 44.5005H147.409C147.274 44.5005 147.145 44.4471 147.049 44.3521C146.954 44.2571 146.901 44.1282 146.901 43.9938C146.901 43.8595 146.954 43.7306 147.049 43.6356C147.145 43.5406 147.274 43.4872 147.409 43.4872H157.092C157.226 43.4872 157.356 43.5406 157.451 43.6356C157.546 43.7306 157.6 43.8595 157.6 43.9938C157.6 44.1282 157.546 44.2571 157.451 44.3521C157.356 44.4471 157.226 44.5005 157.092 44.5005Z" fill="#5EDA12"/>
<path d="M158.798 47.0069C158.703 47.0069 158.611 46.9774 158.533 46.9225C158.456 46.8676 158.398 46.7899 158.367 46.7005C158.336 46.611 158.334 46.5142 158.362 46.4236C158.389 46.3329 158.443 46.253 158.518 46.1949L160.998 44.2733C161.097 44.1961 161.18 44.0991 161.24 43.9885C161.3 43.8778 161.336 43.7559 161.347 43.6305C161.357 43.5051 161.341 43.379 161.3 43.26C161.259 43.141 161.193 43.0319 161.108 42.9395L159.026 40.6926C158.986 40.6488 158.954 40.5975 158.934 40.5416C158.913 40.4857 158.903 40.4263 158.906 40.3668C158.908 40.3072 158.922 40.2487 158.947 40.1946C158.972 40.1405 159.008 40.0919 159.052 40.0514C159.096 40.011 159.147 39.9795 159.203 39.9589C159.259 39.9383 159.319 39.9289 159.378 39.9313C159.438 39.9336 159.497 39.9477 159.551 39.9726C159.605 39.9976 159.654 40.0329 159.695 40.0767L162.786 43.4132C162.829 43.4593 162.861 43.5138 162.882 43.5733C162.902 43.6327 162.91 43.6957 162.905 43.7583C162.9 43.8209 162.882 43.8818 162.852 43.9371C162.822 43.9923 162.781 44.0408 162.731 44.0794L159.077 46.9114C158.997 46.9733 158.899 47.0069 158.798 47.0069Z" fill="#5EDA12"/>
<path d="M141.913 47.0069C142.008 47.0069 142.101 46.9774 142.178 46.9225C142.255 46.8676 142.313 46.7899 142.344 46.7005C142.375 46.611 142.377 46.5142 142.35 46.4236C142.322 46.3329 142.268 46.253 142.193 46.1949L139.713 44.2733C139.614 44.1961 139.531 44.0991 139.471 43.9885C139.411 43.8778 139.375 43.7559 139.364 43.6305C139.354 43.5051 139.37 43.379 139.411 43.26C139.452 43.141 139.518 43.0319 139.603 42.9395L141.685 40.6926C141.767 40.6042 141.81 40.487 141.805 40.3668C141.801 40.2465 141.748 40.1331 141.659 40.0514C141.571 39.9697 141.453 39.9265 141.333 39.9313C141.212 39.936 141.098 39.9883 141.016 40.0767L137.925 43.4132C137.882 43.4593 137.85 43.5138 137.829 43.5733C137.809 43.6327 137.801 43.6957 137.806 43.7583C137.811 43.8209 137.829 43.8818 137.859 43.9371C137.889 43.9923 137.93 44.0408 137.98 44.0794L141.634 46.9114C141.714 46.9733 141.812 47.0069 141.913 47.0069Z" fill="#5EDA12"/>
<path d="M142.777 45.5873L144.813 40.9449C144.867 40.8224 144.968 40.7263 145.093 40.6777C145.218 40.6291 145.358 40.632 145.481 40.6857C145.604 40.7393 145.701 40.8394 145.75 40.9641C145.799 41.0887 145.797 41.2278 145.744 41.3508L143.709 45.9932C143.682 46.0545 143.644 46.1099 143.596 46.1564C143.547 46.2028 143.491 46.2393 143.428 46.2638C143.366 46.2883 143.3 46.3003 143.233 46.2991C143.166 46.2979 143.1 46.2835 143.038 46.2567C142.977 46.23 142.922 46.1915 142.875 46.1433C142.829 46.0951 142.793 46.0383 142.768 45.9761C142.744 45.9139 142.732 45.8476 142.734 45.7808C142.735 45.7141 142.75 45.6483 142.777 45.5873Z" fill="#5EDA12"/>
</g>
<defs>
<clipPath id="clip0_1319_3805">
<rect width="241" height="152" fill="white"/>
</clipPath>
</defs>
</svg>
