<svg xmlns="http://www.w3.org/2000/svg" width="230" height="45" fill="none" viewBox="0 0 230 45"><path fill="#313235" d="M60.1749 15.6048H64.1865V29.6404H60.1749V15.6048Z"/><path fill="#313235" fill-rule="evenodd" d="M56.1023 29.8633C60.285 29.8633 63.2884 26.2757 63.2884 22.6201C63.2884 19.1671 60.305 15.3768 56.1023 15.3768C52.0831 15.3768 49.0316 18.6197 49.0316 22.6201C49.0316 26.6204 52.0831 29.8633 56.1023 29.8633ZM56.5426 26.2021C58.6033 26.2021 60.1751 24.6668 60.1751 22.62C60.1751 20.5732 58.6033 19.038 56.5426 19.038C54.4819 19.038 52.8859 20.6417 52.8859 22.62C52.8859 24.5983 54.4819 26.2021 56.5426 26.2021Z" clip-rule="evenodd"/><path fill="#313235" fill-rule="evenodd" d="M80.3017 19.5176L76.6283 21.2241C76.1596 20.1686 75.1715 19.319 73.8352 19.319C71.9354 19.319 70.4641 20.7975 70.4641 22.6213C70.4641 24.4452 71.9354 25.9237 73.8352 25.9237C75.202 25.9237 76.2046 25.1585 76.6596 24.0499L80.3255 25.7785C79.1992 28.1971 76.7826 29.8646 73.7701 29.8646C69.7139 29.8646 66.5269 26.6217 66.5269 22.6213C66.5269 18.621 69.8588 15.3781 73.7701 15.3781C76.5955 15.3781 79.1185 17.0702 80.3017 19.5176Z" clip-rule="evenodd"/><path fill="#313235" d="M82.5738 15.602H86.5854V29.6427H82.5738V15.602Z"/><path fill="#313235" d="M91.4878 21.0623L95.4995 20.728V29.6427H91.4878V21.0623Z"/><path fill="#313235" d="M100.403 21.0623L104.415 20.728V29.6427H100.403V21.0623Z"/><path fill="#313235" d="M90.1802 15.3781C93.7303 15.3781 95.4996 18.098 95.4996 20.9498L91.4879 21.6957C91.4879 20.4625 90.3736 19.3523 89.0364 19.3523C87.6992 19.3523 86.5848 20.5049 86.5848 21.8422L85.5223 20.3426C85.1042 19.3523 86.6197 15.3781 90.1802 15.3781Z"/><path fill="#313235" d="M99.0955 15.3781C102.646 15.3781 104.415 18.098 104.415 20.9498L100.403 21.6957C100.403 20.4625 99.2889 19.3523 97.9517 19.3523C96.6145 19.3523 95.5001 20.5049 95.5001 21.8422L94.4376 20.3426C94.0195 19.3523 95.535 15.3781 99.0955 15.3781Z"/><path fill="#313235" d="M99.0956 15.3781C102.646 15.3781 104.415 18.098 104.415 20.9498L100.403 21.2842C100.403 20.0509 99.289 19.0555 97.9517 19.0555C96.6145 19.0555 95.5002 19.9469 95.5002 21.2842L93.4944 19.1669C94.3858 17.1611 95.535 15.3781 99.0956 15.3781Z"/><path fill="#313235" d="M113.209 27.0178C113.209 28.4613 112.039 29.6314 110.595 29.6314C109.152 29.6314 107.982 28.4613 107.982 27.0178C107.982 25.5744 109.152 24.4042 110.595 24.4042C112.039 24.4042 113.209 25.5744 113.209 27.0178Z"/><path fill="#5EDA12" d="M15.9832 6.3037C19.4647 2.82226 25.1092 2.82226 28.5906 6.3037L38.2702 15.9832C41.7516 19.4647 41.7516 25.1092 38.2702 28.5906L28.5906 38.2702C25.1092 41.7516 19.4647 41.7516 15.9832 38.2702L6.3037 28.5906C2.82227 25.1092 2.82227 19.4647 6.30371 15.9832L15.9832 6.3037Z"/><path fill="#fff" d="M25.9164 25.1547C29.4932 25.1547 32.3974 22.2749 32.4366 18.7074L25.8432 25.1543C25.8676 25.1546 25.892 25.1547 25.9164 25.1547Z"/><path fill="#fff" d="M30.0185 16.3628C26.4417 16.3628 23.5376 19.2427 23.4983 22.8102L30.0918 16.3632C30.0674 16.3629 30.043 16.3628 30.0185 16.3628Z"/><path fill="#fff" d="M32.4366 16.3627H30.0922V18.7072H32.4366V16.3627Z"/><path fill="#fff" d="M25.8439 22.8102H23.4995V25.1546H25.8439V22.8102Z"/><path fill="#fff" d="M30.0922 16.3627L32.4366 18.7072L25.8428 25.1545L23.4983 22.81L30.0922 16.3627Z"/><path fill="#fff" fill-rule="evenodd" d="M23.4984 25.8406V24.5464H24.8898V25.8406C24.8898 27.4613 24.0323 28.961 22.6356 29.783L22.3615 29.9444L21.6557 28.7453L21.9299 28.5839L22.2828 29.1835L21.9299 28.5839C22.9017 28.0119 23.4984 26.9684 23.4984 25.8406Z" clip-rule="evenodd"/><path fill="#fff" d="M19.3823 25.3995C15.842 25.3995 12.9675 22.5491 12.9286 19.018L19.4548 25.3991C19.4307 25.3994 19.4065 25.3995 19.3823 25.3995Z"/><path fill="#fff" d="M15.3185 16.6976C18.8588 16.6976 21.7333 19.5481 21.7722 23.0792L15.246 16.698C15.2701 16.6977 15.2943 16.6976 15.3185 16.6976Z"/><path fill="#fff" d="M12.926 16.6974H15.2466V19.018H12.926V16.6974Z"/><path fill="#fff" d="M19.4534 23.0792H21.774V25.3997H19.4534V23.0792Z"/><path fill="#fff" d="M15.2466 16.6975L12.926 19.0181L19.4526 25.3996L21.7732 23.0791L15.2466 16.6975Z"/><path fill="#5EDA12" fill-rule="evenodd" d="M19.4787 23.3664C19.2715 23.5736 18.9355 23.5736 18.7283 23.3664L15.3326 19.9706C15.1254 19.7634 15.1254 19.4275 15.3326 19.2203C15.5398 19.013 15.8757 19.013 16.0829 19.2203L19.4787 22.616C19.6859 22.8232 19.6859 23.1592 19.4787 23.3664Z" clip-rule="evenodd"/><path fill="#5EDA12" fill-rule="evenodd" d="M25.9148 23.032C26.122 23.2392 26.4579 23.2392 26.6651 23.032L30.0609 19.6363C30.2681 19.4291 30.2681 19.0931 30.0609 18.8859C29.8537 18.6787 29.5177 18.6787 29.3105 18.8859L25.9148 22.2817C25.7076 22.4889 25.7076 22.8248 25.9148 23.032Z" clip-rule="evenodd"/><path fill="#fff" fill-rule="evenodd" d="M20.3929 31.2474C20.982 31.2474 21.4596 30.7698 21.4596 30.1806C21.4596 29.5915 20.982 29.1139 20.3929 29.1139C19.8037 29.1139 19.3261 29.5915 19.3261 30.1806C19.3261 30.7698 19.8037 31.2474 20.3929 31.2474ZM20.3929 32.5208C21.6853 32.5208 22.733 31.4731 22.733 30.1806C22.733 28.8882 21.6853 27.8405 20.3929 27.8405C19.1004 27.8405 18.0527 28.8882 18.0527 30.1806C18.0527 31.4731 19.1004 32.5208 20.3929 32.5208Z" clip-rule="evenodd"/><path fill="#fff" d="M23.402 26.6148C22.7891 27.952 21.775 27.8406 20.3932 27.8406L23.0677 29.2892L23.402 26.6148Z"/><path fill="#fff" d="M23.9586 28.6206C23.6429 29.0106 22.9557 29.8464 22.6214 30.905L21.9528 28.732L23.9586 28.6206Z"/><mask id="mask0_2_14" style="mask-type:alpha" width="116" height="21" x="114" y="9" maskUnits="userSpaceOnUse"><path fill="#000" d="M117.674 25.402L121.686 24.836V11.5152L117.674 13.1544L117.674 25.402Z"/><path fill="#000" d="M115 15.5618H125.029V19.1277H115V15.5618Z"/><path fill="#000" d="M122.355 29.5931C118.168 29.5931 117.674 27.0077 117.674 25.3624C118.819 24.6735 120.884 24.4719 121.686 24.4719C121.686 25.2554 122.243 26.0388 123.357 26.0388H125.029L125.029 29.5147C124.026 29.5931 123.632 29.5931 122.355 29.5931Z"/><path fill="#000" fill-rule="evenodd" d="M134.501 15.3692C130.59 15.3692 127.258 18.6121 127.258 22.6124V22.6124C127.258 26.6128 130.445 29.8557 134.501 29.8557C137.446 29.8557 139.83 28.3866 140.917 26.669L137.61 25.1093C137.037 25.6996 136.261 26.1281 135.4 26.3157C135.121 26.3844 134.823 26.4209 134.509 26.4209C134.495 26.4209 134.481 26.4208 134.467 26.4206C134.452 26.4208 134.438 26.4209 134.423 26.4209C132.32 26.4209 130.691 24.751 130.691 22.6911C130.691 22.6784 130.691 22.6659 130.691 22.6534C130.691 22.6398 130.691 22.6261 130.691 22.6124C130.691 20.5091 132.357 18.804 134.509 18.804C136.383 18.804 137.652 20.3059 137.948 21.9012C138.362 21.893 138.601 22.0953 138.601 22.7589C138.601 22.925 138.588 23.0881 138.563 23.2477L141.219 24.0357L141.481 24.0624C142.34 18.599 138.413 15.3692 134.501 15.3692Z" clip-rule="evenodd"/><path fill="#000" d="M129.167 20.9025H138.109L141.481 24.0227H141.084H129.218L129.167 20.9025Z"/><path fill="#000" d="M154.781 15.5972H158.793V29.6328H154.781V15.5972Z"/><path fill="#000" fill-rule="evenodd" d="M150.71 29.8557C154.893 29.8557 157.896 26.268 157.896 22.6124C157.896 19.1595 154.913 15.3692 150.71 15.3692C146.691 15.3692 143.639 18.6121 143.639 22.6124C143.639 26.6128 146.691 29.8557 150.71 29.8557ZM151.15 26.1944C153.211 26.1944 154.783 24.6592 154.783 22.6124C154.783 20.5656 153.211 19.0304 151.15 19.0304C149.09 19.0304 147.494 20.6341 147.494 22.6124C147.494 24.5907 149.09 26.1944 151.15 26.1944Z" clip-rule="evenodd"/><path fill="#000" fill-rule="evenodd" d="M175.131 19.5087L171.457 21.2152C170.989 20.1596 170.001 19.3101 168.664 19.3101C166.764 19.3101 165.293 20.7886 165.293 22.6124C165.293 24.4363 166.764 25.9148 168.664 25.9148C170.031 25.9148 171.034 25.1495 171.489 24.041L175.155 25.7696C174.028 28.1882 171.612 29.8557 168.599 29.8557C164.543 29.8557 161.356 26.6128 161.356 22.6124C161.356 18.6121 164.688 15.3692 168.599 15.3692C171.425 15.3692 173.948 17.0613 175.131 19.5087Z" clip-rule="evenodd"/><path fill="#000" d="M177.403 9.24902H181.415V29.6291H177.403V9.24902Z"/><path fill="#000" d="M187.118 21.8936L191.13 20.8991V29.6285H187.119L187.118 21.8936Z"/><path fill="#000" d="M185.302 15.3304C189.191 15.3304 191.13 18.0503 191.13 20.9021L187.118 22.0904C187.118 20.5945 186.255 19.3046 184.303 19.3046C182.317 19.3046 181.415 20.7532 181.415 22.0904L180.198 20.2949C179.529 18.917 181.401 15.3304 185.302 15.3304Z"/><path fill="#000" d="M194.898 9.35168H199.244V29.4099H194.898V9.35168Z"/><path fill="#000" d="M194.898 25.5098H207.602V29.6329H194.898V25.5098Z"/><path fill="#000" d="M217.497 9.35169L220.973 9.35168L220.808 11.7619L214.052 29.6328L209.83 29.6328L217.497 9.35169Z"/><path fill="#000" d="M221.853 9.35169L218.411 9.35168L218.575 11.7619L225.264 29.6328L229.443 29.6328L221.853 9.35169Z"/><path fill="#000" d="M217.979 9.35169L221.42 9.35168L221.256 11.7619L214.568 29.6328L210.388 29.6328L217.979 9.35169Z"/><path fill="#000" d="M222.41 9.35169L218.968 9.35168L226.558 29.6328L230 29.6328L222.41 9.35169Z"/><path fill="#000" d="M213.843 22.9467H225.766V26.6241H213.843V22.9467Z"/></mask><g mask="url(#mask0_2_14)"><path fill="url(#paint0_linear_2_14)" d="M113.217 3.34293H238.359V40.2278H113.217V3.34293Z"/></g><defs><linearGradient id="paint0_linear_2_14" x1="116.606" x2="204.997" y1="38.278" y2="-20.028" gradientUnits="userSpaceOnUse"><stop stop-color="#50C509"/><stop offset="1" stop-color="#BCF223"/></linearGradient></defs></svg>