<svg width="168" height="114" viewBox="0 0 168 114" fill="none" xmlns="http://www.w3.org/2000/svg">
<path d="M43.9539 11.3979H46.8841V21.6501H43.9539V11.3979Z" fill="#313235"/>
<path fill-rule="evenodd" clip-rule="evenodd" d="M40.9791 21.8129C44.0343 21.8129 46.2281 19.1923 46.2281 16.5222C46.2281 14 44.0489 11.2314 40.9791 11.2314C38.0434 11.2314 35.8145 13.6002 35.8145 16.5222C35.8145 19.4442 38.0434 21.8129 40.9791 21.8129ZM41.3007 19.1386C42.806 19.1386 43.954 18.0172 43.954 16.5221C43.954 15.0271 42.806 13.9057 41.3007 13.9057C39.7955 13.9057 38.6298 15.0771 38.6298 16.5221C38.6298 17.9672 39.7955 19.1386 41.3007 19.1386Z" fill="#313235"/>
<path fill-rule="evenodd" clip-rule="evenodd" d="M58.6552 14.2561L55.972 15.5026C55.6297 14.7315 54.9079 14.111 53.9319 14.111C52.5442 14.111 51.4695 15.191 51.4695 16.5232C51.4695 17.8553 52.5442 18.9353 53.9319 18.9353C54.9302 18.9353 55.6625 18.3763 55.9949 17.5666L58.6726 18.8293C57.8499 20.5959 56.0847 21.8139 53.8843 21.8139C50.9215 21.8139 48.5936 19.4451 48.5936 16.5231C48.5936 13.6012 51.0273 11.2324 53.8843 11.2324C55.9481 11.2324 57.791 12.4684 58.6552 14.2561Z" fill="#313235"/>
<path d="M60.3148 11.396H63.2451V21.6518H60.3148V11.396Z" fill="#313235"/>
<path d="M66.826 15.3843L69.7562 15.1401V21.6518H66.826V15.3843Z" fill="#313235"/>
<path d="M73.338 15.3843L76.2682 15.1401V21.6518H73.338V15.3843Z" fill="#313235"/>
<path d="M65.8708 11.2324C68.4639 11.2324 69.7563 13.2191 69.7563 15.3022L66.826 15.847C66.826 14.9462 66.0121 14.1353 65.0353 14.1353C64.0586 14.1353 63.2446 14.9772 63.2446 15.954L62.4685 14.8587C62.1631 14.1353 63.2701 11.2324 65.8708 11.2324Z" fill="#313235"/>
<path d="M72.3829 11.2324C74.976 11.2324 76.2684 13.2191 76.2684 15.3022L73.3381 15.847C73.3381 14.9462 72.5242 14.1353 71.5474 14.1353C70.5707 14.1353 69.7567 14.9772 69.7567 15.954L68.9806 14.8587C68.6752 14.1353 69.7822 11.2324 72.3829 11.2324Z" fill="#313235"/>
<path d="M72.3829 11.2324C74.976 11.2324 76.2684 13.2191 76.2684 15.3022L73.3381 15.5464C73.3381 14.6456 72.5241 13.9185 71.5474 13.9185C70.5706 13.9185 69.7567 14.5696 69.7567 15.5464L68.2916 13.9999C68.9427 12.5348 69.7821 11.2324 72.3829 11.2324Z" fill="#313235"/>
<path d="M82.6919 19.7342C82.6919 20.7886 81.8372 21.6433 80.7828 21.6433C79.7285 21.6433 78.8738 20.7886 78.8738 19.7342C78.8738 18.6799 79.7285 17.8252 80.7828 17.8252C81.8372 17.8252 82.6919 18.6799 82.6919 19.7342Z" fill="#313235"/>
<path d="M11.6747 4.60444C14.2177 2.06148 18.3406 2.06148 20.8836 4.60444L27.9539 11.6747C30.4968 14.2177 30.4968 18.3406 27.9539 20.8836L20.8836 27.9539C18.3406 30.4968 14.2177 30.4968 11.6747 27.9539L4.60443 20.8836C2.06147 18.3406 2.06147 14.2177 4.60443 11.6747L11.6747 4.60444Z" fill="#5EDA12"/>
<path d="M18.9304 18.3744C21.543 18.3744 23.6643 16.2708 23.693 13.665L18.8769 18.3741C18.8947 18.3743 18.9125 18.3744 18.9304 18.3744Z" fill="white"/>
<path d="M21.9267 11.9523C19.3141 11.9523 17.1928 14.0558 17.1641 16.6616L21.9802 11.9526C21.9624 11.9524 21.9446 11.9523 21.9267 11.9523Z" fill="white"/>
<path d="M23.693 11.9521H21.9805V13.6646H23.693V11.9521Z" fill="white"/>
<path d="M18.8774 16.6616H17.1649V18.3741H18.8774V16.6616Z" fill="white"/>
<path d="M21.9805 11.9521L23.693 13.6646L18.8766 18.374L17.1641 16.6615L21.9805 11.9521Z" fill="white"/>
<path fill-rule="evenodd" clip-rule="evenodd" d="M17.1641 18.875V17.9297H18.1804V18.875C18.1804 20.0588 17.5541 21.1542 16.5339 21.7547L16.3337 21.8726L15.8182 20.9967L16.0184 20.8788L16.2762 21.3168L16.0184 20.8788C16.7283 20.461 17.1641 19.6988 17.1641 18.875Z" fill="white"/>
<path d="M14.1577 18.5534C11.5717 18.5534 9.47208 16.4713 9.44368 13.8921L14.2107 18.5531C14.193 18.5533 14.1754 18.5534 14.1577 18.5534Z" fill="white"/>
<path d="M11.1893 12.1971C13.7753 12.1971 15.8749 14.2792 15.9033 16.8584L11.1364 12.1974C11.154 12.1972 11.1716 12.1971 11.1893 12.1971Z" fill="white"/>
<path d="M9.44173 112.197H11.1368V113.892H9.44173V112.197Z" fill="white"/>
<path d="M14.2096 16.8584H15.9046V18.5534H14.2096V16.8584Z" fill="white"/>
<path d="M11.1367 12.1968L9.44171 13.8918L14.209 18.5531L15.904 16.8581L11.1367 12.1968Z" fill="white"/>
<path fill-rule="evenodd" clip-rule="evenodd" d="M14.228 17.0678C14.0767 17.2191 13.8313 17.2191 13.6799 17.0678L11.1996 14.5874C11.0482 14.436 11.0482 14.1906 11.1996 14.0393C11.3509 13.8879 11.5963 13.8879 11.7477 14.0393L14.228 16.5197C14.3794 16.671 14.3794 16.9164 14.228 17.0678Z" fill="#5EDA12"/>
<path fill-rule="evenodd" clip-rule="evenodd" d="M18.9292 16.8236C19.0805 16.975 19.3259 16.975 19.4773 16.8236L21.9576 14.3432C22.109 14.1919 22.109 13.9465 21.9576 13.7952C21.8063 13.6438 21.5609 13.6438 21.4096 13.7952L18.9292 16.2755C18.7778 16.4269 18.7778 16.6723 18.9292 16.8236Z" fill="#5EDA12"/>
<path fill-rule="evenodd" clip-rule="evenodd" d="M14.8957 22.8244C15.3261 22.8244 15.6749 22.4756 15.6749 22.0452C15.6749 21.6149 15.3261 21.2661 14.8957 21.2661C14.4654 21.2661 14.1166 21.6149 14.1166 22.0452C14.1166 22.4756 14.4654 22.8244 14.8957 22.8244ZM14.8957 23.7546C15.8398 23.7546 16.6051 22.9893 16.6051 22.0452C16.6051 21.1012 15.8398 20.3359 14.8957 20.3359C13.9517 20.3359 13.1864 21.1012 13.1864 22.0452C13.1864 22.9893 13.9517 23.7546 14.8957 23.7546Z" fill="white"/>
<path d="M17.0937 19.4404C16.646 20.4172 15.9053 20.3358 14.896 20.3358L16.8495 21.3939L17.0937 19.4404Z" fill="white"/>
<path d="M17.5003 20.9058C17.2696 21.1906 16.7677 21.8011 16.5235 22.5744L16.0351 20.9872L17.5003 20.9058Z" fill="white"/>
<mask id="mask0_8_97" style="mask-type:alpha" maskUnits="userSpaceOnUse" x="83" y="6" width="85" height="16">
<path d="M85.9535 18.5547L88.8837 18.1412V8.41128L85.9535 9.6086L85.9535 18.5547Z" fill="black"/>
<path d="M83.9998 11.3667H91.3254V13.9714H83.9998V11.3667Z" fill="black"/>
<path d="M89.3721 21.6157C86.3143 21.6157 85.9535 19.7273 85.9535 18.5255C86.7898 18.0223 88.2977 17.8751 88.8837 17.8751C88.8837 18.4473 89.2907 19.0196 90.1046 19.0196H91.3256L91.3256 21.5585C90.593 21.6157 90.3054 21.6157 89.3721 21.6157Z" fill="black"/>
<path fill-rule="evenodd" clip-rule="evenodd" d="M98.2444 11.2261C95.3874 11.2261 92.9537 13.5948 92.9537 16.5168V16.5168C92.9537 19.4388 95.2816 21.8075 98.2444 21.8075C100.396 21.8075 102.137 20.7344 102.93 19.4799L100.515 18.3406C100.097 18.7718 99.5295 19.0848 98.9006 19.2218C98.697 19.272 98.4798 19.2986 98.2501 19.2986C98.2398 19.2986 98.2295 19.2986 98.2192 19.2985C98.2087 19.2986 98.1981 19.2986 98.1876 19.2986C96.6512 19.2986 95.4614 18.0789 95.4614 16.5743C95.4614 16.565 95.4614 16.5558 95.4615 16.5468C95.4614 16.5368 95.4614 16.5268 95.4614 16.5168C95.4614 14.9804 96.6785 13.735 98.2501 13.735C99.6187 13.735 100.546 14.832 100.762 15.9973C101.064 15.9913 101.239 16.1391 101.239 16.6238C101.239 16.7451 101.23 16.8642 101.212 16.9808L103.151 17.5564L103.343 17.5759C103.97 13.5852 101.101 11.2261 98.2444 11.2261Z" fill="black"/>
<path d="M94.3482 15.2681H100.88L103.343 17.5471H103.053H94.3854L94.3482 15.2681Z" fill="black"/>
<path d="M113.058 11.3926H115.988V21.6447H113.058V11.3926Z" fill="black"/>
<path fill-rule="evenodd" clip-rule="evenodd" d="M110.084 21.8075C113.139 21.8075 115.333 19.187 115.333 16.5168C115.333 13.9947 113.154 11.2261 110.084 11.2261C107.148 11.2261 104.919 13.5948 104.919 16.5168C104.919 19.4388 107.148 21.8075 110.084 21.8075ZM110.405 19.1332C111.911 19.1332 113.059 18.0118 113.059 16.5168C113.059 15.0217 111.911 13.9003 110.405 13.9003C108.9 13.9003 107.735 15.0718 107.735 16.5168C107.735 17.9618 108.9 19.1332 110.405 19.1332Z" fill="black"/>
<path fill-rule="evenodd" clip-rule="evenodd" d="M127.922 14.2498L125.238 15.4962C124.896 14.7252 124.174 14.1047 123.198 14.1047C121.811 14.1047 120.736 15.1846 120.736 16.5168C120.736 17.849 121.811 18.9289 123.198 18.9289C124.197 18.9289 124.929 18.37 125.261 17.5603L127.939 18.8229C127.116 20.5895 125.351 21.8075 123.151 21.8075C120.188 21.8075 117.86 19.4388 117.86 16.5168C117.86 13.5948 120.294 11.2261 123.151 11.2261C125.215 11.2261 127.057 12.4621 127.922 14.2498Z" fill="black"/>
<path d="M129.581 6.75586H132.512V21.6422H129.581V6.75586Z" fill="black"/>
<path d="M136.678 15.992L139.608 15.2656V21.6419H136.678L136.678 15.992Z" fill="black"/>
<path d="M135.351 11.1978C138.192 11.1978 139.608 13.1845 139.608 15.2675L136.678 16.1355C136.678 15.0428 136.048 14.1007 134.621 14.1007C133.171 14.1007 132.512 15.1588 132.512 16.1355L131.623 14.824C131.134 13.8176 132.501 11.1978 135.351 11.1978Z" fill="black"/>
<path d="M142.36 6.83057H145.535V21.4818H142.36V6.83057Z" fill="black"/>
<path d="M142.36 18.6333H151.64V21.6449H142.36V18.6333Z" fill="black"/>
<path d="M158.867 6.83057L161.407 6.83057L161.285 8.59105L156.351 21.6446L153.267 21.6446L158.867 6.83057Z" fill="black"/>
<path d="M162.049 6.83057L159.535 6.83057L159.655 8.59105L164.54 21.6446L167.593 21.6446L162.049 6.83057Z" fill="black"/>
<path d="M159.219 6.83057L161.733 6.83057L161.613 8.59105L156.728 21.6446L153.675 21.6446L159.219 6.83057Z" fill="black"/>
<path d="M162.456 6.83057L159.942 6.83057L165.486 21.6446L168 21.6446L162.456 6.83057Z" fill="black"/>
<path d="M156.198 16.7607H164.908V19.4468H156.198V16.7607Z" fill="black"/>
</mask>
<g mask="url(#mask0_8_97)">
<path d="M82.6979 2.44189H174.105V29.3839H82.6979V2.44189Z" fill="url(#paint0_linear_8_97)"/>
</g>
<defs>
<linearGradient id="paint0_linear_8_97" x1="85.1732" y1="27.9597" x2="149.737" y2="-14.6289" gradientUnits="userSpaceOnUse">
<stop stop-color="#50C509"/>
<stop offset="1" stop-color="#BCF223"/>
</linearGradient>
</defs>
</svg>